<?xml version="1.0" standalone="no"?>
<!DOCTYPE svg PUBLIC "-//W3C//DTD SVG 1.1//EN" "http://www.w3.org/Graphics/SVG/1.1/DTD/svg11.dtd" >
<svg xmlns="http://www.w3.org/2000/svg" xmlns:xlink="http://www.w3.org/1999/xlink" version="1.1">
<metadata>
Created by FontForge 20160407 at Mon Aug 29 18:53:10 2016
 By Jimmy Warting
Copyright (c) 2011-2016 by Josh FInklea. All rights reserved.
</metadata>
<defs>
<font id="PostGrotesk-Medium" horiz-adv-x="600" >
  <font-face 
    font-family="Post Grotesk Medium"
    font-weight="500"
    font-stretch="normal"
    units-per-em="1000"
    panose-1="2 0 0 0 0 0 0 0 0 0"
    ascent="800"
    descent="-200"
    x-height="474"
    cap-height="700"
    bbox="-130 -262 1354 948"
    underline-thickness="50"
    underline-position="-100"
    unicode-range="U+000D-F301"
  />
<missing-glyph horiz-adv-x="829" 
d="M65 700h700v-700h-700v700zM135 70h560v560h-560v-560zM228 113l-50 50l188 187l-188 187l50 50l187 -188l187 188l50 -50l-188 -187l188 -187l-50 -50l-187 188z" />
    <glyph glyph-name="interrobang" unicode="&#x21;&#x3f;" horiz-adv-x="527" 
d="M417 366q-21 -19 -41 -33.5t-35.5 -29t-25 -30.5t-9.5 -37v-31h-83l-5 410q-20 -9 -33.5 -24t-23 -33.5t-15 -39.5t-7.5 -41l-111 19q8 46 26 85.5t47.5 69t71 46t96.5 16.5q58 0 100 -18t70 -46.5t41.5 -64t13.5 -71.5q0 -26 -7 -47.5t-18 -39.5t-24.5 -33t-27.5 -27z
M380 514q0 34 -16.5 62t-49.5 41l-5 -219q14 12 27 23t22.5 24.5t15.5 30t6 38.5zM195 62q0 31 19.5 50t50.5 19q32 0 51.5 -19t19.5 -50q0 -30 -19.5 -50t-51.5 -20q-31 0 -50.5 20t-19.5 50z" />
    <glyph glyph-name="f_b" unicode="fb" horiz-adv-x="929" 
d="M676 487q46 0 85 -17.5t67.5 -50t45 -78.5t16.5 -104t-16.5 -104t-45 -78.5t-67.5 -50t-85 -17.5q-61 0 -98 25.5t-56 57.5v-70h-109v700h114v-287q21 30 58 52t91 22zM526 214q0 -37 12 -63t30 -42.5t40.5 -24t43.5 -7.5q28 0 50.5 12t38.5 33.5t24.5 50.5t8.5 64
q0 34 -8.5 63.5t-24.5 51t-38.5 33.5t-50.5 12q-21 0 -43.5 -7.5t-40.5 -24t-30 -42.5t-12 -63v-46zM17 474h80v67q0 45 12.5 77.5t34 53.5t50 31t61.5 10q30 0 61 -8t51 -22l-42 -87q-11 10 -26.5 16t-32.5 6q-56 0 -56 -77v-67h101v-84h-101v-390h-113v390h-80v84z" />
    <glyph glyph-name="f_h" unicode="fh" horiz-adv-x="907" 
d="M17 474h80v67q0 45 12.5 77.5t34 53.5t50 31t61.5 10q30 0 61 -8t51 -22l-42 -87q-11 10 -26.5 16t-32.5 6q-56 0 -56 -77v-67h101v-84h-101v-390h-113v390h-80v84zM414 700h114v-291q18 32 52.5 55t91.5 23q34 0 65 -10t53.5 -30t36 -50t13.5 -70v-327h-114v300
q0 25 -7.5 43t-19.5 29.5t-28 16.5t-33 5q-21 0 -41 -9t-35.5 -27t-24.5 -45t-9 -62v-251h-114v700z" />
    <glyph glyph-name="f_k" unicode="fk" horiz-adv-x="875" 
d="M17 474h80v67q0 45 12.5 77.5t34 53.5t50 31t61.5 10q30 0 61 -8t51 -22l-42 -87q-11 10 -26.5 16t-32.5 6q-56 0 -56 -77v-67h101v-84h-101v-390h-113v390h-80v84zM575 230l-48 -44v-186h-114v700h114v-396l184 170h133l-187 -174l213 -300h-134z" />
    <glyph glyph-name="fi" unicode="fi" 
d="M401 643q0 32 19.5 50.5t50.5 18.5t50.5 -18.5t19.5 -50.5q0 -29 -19 -49t-51 -20t-51 20t-19 49zM414 474h114v-474h-114v474zM17 474h80v67q0 45 12.5 77.5t34 53.5t50 31t61.5 10q29 0 58.5 -8t48.5 -22l-39 -87q-11 10 -25.5 16t-31.5 6q-56 0 -56 -77v-67h101v-84
h-101v-390h-113v390h-80v84z" />
    <glyph glyph-name="fl" unicode="fl" horiz-adv-x="599" 
d="M17 474h80v67q0 45 12.5 77.5t34 53.5t50 31t61.5 10q30 0 61 -8t51 -22l-42 -87q-11 10 -26.5 16t-32.5 6q-56 0 -56 -77v-67h101v-84h-101v-390h-113v390h-80v84zM413 700h114v-700h-114v700z" />
    <glyph glyph-name="interrobangdown" unicode="&#xa1;&#xbf;" horiz-adv-x="520" 
d="M110 134q21 19 41 33.5t35.5 29t25 30.5t9.5 37v31h83l5 -410q19 9 33 24t23.5 33.5t15 39.5t7.5 41l111 -19q-8 -46 -26 -85.5t-47.5 -69t-71 -46t-96.5 -16.5q-58 0 -100.5 17.5t-70 46t-41 64.5t-13.5 72q0 52 24.5 87t52.5 60zM147 -14q0 -34 16.5 -62t49.5 -41
l5 219q-28 -23 -49.5 -48t-21.5 -68zM332 438q0 -31 -19.5 -50t-50.5 -19q-32 0 -51.5 19t-19.5 50q0 30 19.5 50t51.5 20q31 0 50.5 -20t19.5 -50z" />
    <glyph glyph-name="interrobangdown.cap" unicode="&#xe441;&#xe444;" horiz-adv-x="527" 
d="M110 334q21 19 41 33.5t35.5 29t25 30.5t9.5 37v31h83l5 -410q19 9 33 24t23.5 33.5t15 39.5t7.5 41l111 -19q-8 -46 -26 -85.5t-47.5 -69t-71 -46t-96.5 -16.5q-58 0 -100.5 17.5t-70 46t-41 64.5t-13.5 72q0 52 24.5 87t52.5 60zM147 186q0 -34 16.5 -62t49.5 -41
l5 219q-28 -23 -49.5 -48t-21.5 -68zM332 638q0 -31 -19.5 -50t-50.5 -19q-32 0 -51.5 19t-19.5 50q0 30 19.5 50t51.5 20q31 0 50.5 -20t19.5 -50z" />
    <glyph glyph-name="fj" unicode="fj" horiz-adv-x="603" 
d="M17 474h80v67q0 45 12.5 77.5t34 53.5t50 31t61.5 10q29 0 58.5 -8t48.5 -22l-39 -87q-11 10 -25.5 16t-31.5 6q-56 0 -56 -77v-67h101v-84h-101v-390h-113v390h-80v84zM531 -47q0 -46 -15.5 -78t-39.5 -51.5t-53.5 -28t-58.5 -8.5q-32 0 -61 9t-54 24l46 85
q11 -8 27 -16t36 -8q28 0 43.5 20t15.5 59v514h114v-521zM404 643q0 32 19.5 50.5t50.5 18.5t50.5 -18.5t19.5 -50.5q0 -29 -19 -49t-51 -20t-51 20t-19 49z" />
    <glyph glyph-name=".notdef" horiz-adv-x="829" 
d="M65 700h700v-700h-700v700zM135 70h560v560h-560v-560zM228 113l-50 50l188 187l-188 187l50 50l187 -188l187 188l50 -50l-188 -187l188 -187l-50 -50l-187 188z" />
    <glyph glyph-name="NULL" horiz-adv-x="0" 
 />
    <glyph glyph-name="NULL" horiz-adv-x="0" 
 />
    <glyph glyph-name="nonmarkingreturn" unicode="&#xd;" horiz-adv-x="251" 
 />
    <glyph glyph-name="space" unicode=" " horiz-adv-x="225" 
 />
    <glyph glyph-name="exclam" unicode="!" horiz-adv-x="265" 
d="M180 209h-95l-13 491h121zM62 62q0 31 19.5 50t50.5 19q32 0 51.5 -19t19.5 -50q0 -30 -19.5 -50t-51.5 -20q-31 0 -50.5 20t-19.5 50z" />
    <glyph glyph-name="quotedbl" unicode="&#x22;" horiz-adv-x="370" 
d="M235 462l-23 238h108l-23 -238h-62zM73 462l-23 238h107l-22 -238h-62z" />
    <glyph glyph-name="numbersign" unicode="#" horiz-adv-x="640" 
d="M356 199h-131l-35 -199h-87l35 199h-105v85h120l25 139h-107v80h121l35 197h87l-35 -197h131l35 197h87l-35 -197h110v-80h-125l-24 -139h112v-85h-127l-36 -199h-86zM240 284h131l24 139h-131z" />
    <glyph glyph-name="dollar" unicode="$" horiz-adv-x="602" 
d="M339 696q91 -9 144 -54t67 -117l-100 -25q-3 18 -10 35.5t-20 32.5t-33 26t-48 16v-214q51 -11 91.5 -27t68.5 -40t42.5 -57t14.5 -78q0 -41 -14 -76.5t-41.5 -62t-68 -43.5t-93.5 -21v-96h-68v95q-107 8 -164 62.5t-60 132.5l97 16q1 -11 5.5 -30t18 -38.5t38 -35.5
t65.5 -21v233q-57 12 -96.5 30t-64.5 42t-36.5 55t-11.5 71q0 38 13 71.5t39 58.5t65 41t92 19v101h68v-102zM166 513q0 -38 24 -63.5t81 -39.5v202q-32 -3 -52.5 -13.5t-32 -24.5t-16 -30t-4.5 -31zM451 191q0 43 -26 66t-86 38v-219q52 8 82 38.5t30 76.5z" />
    <glyph glyph-name="percent" unicode="%" horiz-adv-x="880" 
d="M178 -13l437 726h96l-438 -726h-95zM370 515q0 -32 -8 -64.5t-27.5 -59.5t-51.5 -44t-79 -17t-78.5 17t-51 44t-27.5 59.5t-8 64.5q0 31 8 63.5t27.5 59.5t51 44t78.5 17t79 -17t51.5 -44t27.5 -59.5t8 -63.5zM127 515q0 -51 19 -82t58 -31q40 0 59 31t19 82q0 50 -19 81
t-59 31q-39 0 -58 -31t-19 -81zM841 171q0 -31 -8 -63.5t-27.5 -59.5t-51.5 -44t-79 -17t-78.5 17t-51 44t-28 59.5t-8.5 63.5t8.5 64t28 60t51 44t78.5 17t79 -17t51.5 -44t27.5 -60t8 -64zM598 171q0 -50 19 -81t58 -31q40 0 59 31t19 81q0 51 -19 82t-59 31
q-39 0 -58 -31t-19 -82z" />
    <glyph glyph-name="ampersand" unicode="&#x26;" horiz-adv-x="652" 
d="M33 196q0 45 14.5 79t36 59.5t47 43.5t48.5 31q-31 42 -46 74.5t-15 69.5q0 29 9.5 58t30.5 51.5t54 36.5t80 14q43 0 75.5 -12.5t54 -34t32.5 -50t11 -60.5q0 -57 -34 -97.5t-105 -80.5l142 -169q14 25 19 54t7 62l87 -39q-3 -23 -6.5 -42.5t-8.5 -37.5t-13 -35.5
t-20 -37.5l116 -133h-128l-50 57q-32 -30 -76.5 -50t-114.5 -20q-120 0 -183.5 55t-63.5 154zM219 554q0 -25 12 -50t38 -57q18 9 35 19.5t30 23.5t21 29t8 36q0 29 -18 51.5t-54 22.5q-34 0 -53 -21t-19 -54zM279 73q48 0 82.5 17.5t48.5 37.5l-174 208q-16 -8 -32 -20
t-29 -29.5t-21.5 -39t-8.5 -48.5q0 -26 8.5 -49t25.5 -40t42 -27t58 -10z" />
    <glyph glyph-name="quotesingle" unicode="'" horiz-adv-x="207" 
d="M73 462l-23 238h107l-22 -238h-62z" />
    <glyph glyph-name="parenleft" unicode="(" horiz-adv-x="363" 
d="M68 307q0 76 17.5 149.5t48.5 138t74 115.5t94 82l61 -45q-98 -85 -139 -196.5t-41 -243.5q0 -65 10 -126t31.5 -116.5t55.5 -105.5t83 -92l-61 -45q-51 31 -94 82t-74 115.5t-48.5 138t-17.5 149.5z" />
    <glyph glyph-name="parenright" unicode=")" horiz-adv-x="363" 
d="M295 307q0 -76 -17.5 -149.5t-49 -138t-74.5 -115.5t-94 -82l-60 45q97 85 138 197t41 243t-41 243t-138 197l60 45q51 -31 94 -82t74.5 -115.5t49 -138t17.5 -149.5z" />
    <glyph glyph-name="asterisk" unicode="*" horiz-adv-x="395" 
d="M234 700v-119l110 41l23 -72l-116 -34l75 -94l-62 -46l-67 99l-66 -99l-62 46l75 94l-116 34l23 72l110 -41v119h73z" />
    <glyph glyph-name="plus" unicode="+" 
d="M52 370h202v203h91v-203h203v-91h-203v-208h-91v208h-202v91z" />
    <glyph glyph-name="comma" unicode="," horiz-adv-x="281" 
d="M219 32q0 -20 -5 -44t-19 -46.5t-38.5 -40t-63.5 -23.5l-19 51q11 0 23 5t22.5 13t17.5 19.5t7 24.5v6q-6 -2 -15 -2q-26 0 -46.5 20t-20.5 50q0 12 4.5 25t13.5 23t22.5 16.5t32.5 6.5q22 0 38 -8.5t26 -23t15 -33.5t5 -39z" />
    <glyph glyph-name="hyphen" unicode="-" horiz-adv-x="379" 
d="M57 331h265v-86h-265v86z" />
    <glyph glyph-name="period" unicode="." horiz-adv-x="274" 
d="M62 64q0 32 21 52t54 20t54 -20t21 -52t-21 -52t-54 -20t-54 20t-21 52z" />
    <glyph glyph-name="slash" unicode="/" horiz-adv-x="403" 
d="M9 -115l292 869h93l-292 -869h-93z" />
    <glyph glyph-name="zero" unicode="0" 
d="M300 699q69 0 116.5 -28t77 -76.5t43 -113.5t13.5 -138t-13.5 -138t-43 -113.5t-77 -76.5t-116.5 -28t-116.5 28t-77 76.5t-43 113.5t-13.5 138t13.5 138t43 113.5t77 76.5t116.5 28zM300 78q36 0 61.5 21.5t41.5 58t23 84.5t7 101t-7 101t-23 84.5t-41.5 58t-61.5 21.5
t-61.5 -21.5t-41.5 -58t-23 -84.5t-7 -101t7 -101t23 -84.5t41.5 -58t61.5 -21.5z" />
    <glyph glyph-name="one" unicode="1" 
d="M96 90h165v476q-22 -17 -57.5 -28.5t-79.5 -13.5l-19 89q60 7 102.5 26t68.5 50h101v-599h151v-90h-432v90z" />
    <glyph glyph-name="two" unicode="2" 
d="M73 87q49 44 94 84q19 17 39 35.5t39 36t35.5 33.5t28.5 28q46 46 73 90.5t27 95.5q0 54 -28.5 86t-76.5 32q-30 0 -52 -13t-37 -34t-23 -47t-11 -51l-111 19q8 46 26.5 86t47.5 69t69.5 45.5t93.5 16.5q55 0 96 -18t68 -47t40.5 -66t13.5 -76q0 -35 -10 -67t-28 -62.5
t-42 -59.5t-52 -57q-18 -18 -39.5 -38.5t-44.5 -40.5t-45.5 -39t-41.5 -35h309v-93h-458v87z" />
    <glyph glyph-name="three" unicode="3" 
d="M76 531q6 27 21 56.5t41.5 54.5t65.5 41t93 16q52 0 93.5 -15.5t69.5 -41.5t43 -60.5t15 -73.5q0 -57 -29 -96t-77 -57q27 -6 50 -21.5t39 -37.5t25 -49.5t9 -57.5q0 -38 -14.5 -74t-44.5 -64.5t-75 -46t-106 -17.5q-64 0 -108 19t-71.5 46t-40 57.5t-13.5 54.5l108 30
q2 -17 8.5 -37.5t20.5 -38t37.5 -29.5t59.5 -12q33 0 56.5 10t38.5 25.5t21.5 36t6.5 41.5q0 52 -37.5 84t-107.5 32q-4 0 -9.5 -0.5t-10.5 -0.5h-14v95q6 -1 11 -1h22q65 0 98 30.5t33 78.5q0 24 -8.5 43t-23.5 32t-35 19.5t-42 6.5q-26 0 -46 -9t-34 -23t-22.5 -33
t-10.5 -38z" />
    <glyph glyph-name="four" unicode="4" 
d="M462 686v-445h108l-16 -88h-92v-153h-109v153h-316v86l279 447h146zM353 241v347h-2l-214 -347h216z" />
    <glyph glyph-name="five" unicode="5" 
d="M171 191q2 -23 11 -43t24.5 -36t37 -25t49.5 -9q59 0 94.5 40t35.5 104q0 27 -7 52.5t-22 45.5t-38 32t-56 12q-35 0 -67.5 -16.5t-49.5 -53.5l-97 17l41 375h375l-16 -93h-276l-22 -190q18 20 50 36t83 16q55 0 96 -20t68 -53t40 -74.5t13 -83.5q0 -48 -16.5 -91.5
t-48.5 -75.5t-78 -51t-104 -19q-56 0 -97.5 17t-69.5 43t-42.5 57t-15.5 59z" />
    <glyph glyph-name="six" unicode="6" 
d="M321 609q-41 0 -69.5 -19.5t-47.5 -53.5t-29 -78.5t-13 -93.5q18 34 58.5 60t106.5 26q56 0 98.5 -20t70.5 -52t42 -73.5t14 -84.5q0 -47 -15.5 -89t-45.5 -74t-75 -51t-103 -19q-125 0 -189.5 84t-64.5 259q0 180 67.5 274.5t194.5 94.5q50 0 87 -13.5t63 -36
t41.5 -51.5t22.5 -60l-108 -16q-4 13 -11 28.5t-19 28.5t-30.5 21.5t-45.5 8.5zM311 362q-60 0 -94.5 -39.5t-34.5 -99.5q0 -65 34.5 -106t94.5 -41q55 0 91 38t36 105q0 62 -33.5 102.5t-93.5 40.5z" />
    <glyph glyph-name="seven" unicode="7" 
d="M82 686h455v-79q-33 -39 -74.5 -99.5t-79 -138.5t-63.5 -171t-26 -198h-115q0 100 24.5 191t60.5 168t76.5 136.5t72.5 97.5h-348z" />
    <glyph glyph-name="eight" unicode="8" 
d="M300 -13q-62 0 -108.5 17t-77.5 45t-46 63.5t-15 72.5q0 33 10 61.5t28 51t41.5 38t50.5 21.5q-45 18 -77 57.5t-32 96.5q0 36 14.5 69.5t43 60t70.5 42.5t98 16q55 0 97.5 -16t71 -42.5t43 -60t14.5 -69.5q0 -57 -32 -96.5t-77 -57.5q27 -6 50.5 -21.5t41 -38t28 -51
t10.5 -61.5q0 -37 -15.5 -72.5t-46 -63.5t-77 -45t-108.5 -17zM415 506q0 50 -32.5 77t-82.5 27t-82.5 -27t-32.5 -77q0 -48 31.5 -77.5t83.5 -29.5t83.5 29.5t31.5 77.5zM300 77q36 0 61 10t40.5 26t23 36.5t7.5 42.5q0 50 -34 83t-98 33t-98 -33t-34 -83q0 -21 7.5 -42
t23 -37t40.5 -26t61 -10z" />
    <glyph glyph-name="nine" unicode="9" 
d="M279 77q41 0 70 19.5t48 53.5t29 78t12 94q-18 -34 -58.5 -60t-106.5 -26q-56 0 -98 20t-70 52t-42 73.5t-14 84.5q0 47 15.5 89t45.5 74t74.5 51t102.5 19q125 0 190 -84t65 -259q0 -180 -68 -274.5t-195 -94.5q-50 0 -87 13.5t-62.5 36t-41.5 51.5t-23 60l109 16
q4 -13 10.5 -28.5t18.5 -28.5t30.5 -21.5t45.5 -8.5zM289 324q61 0 95.5 39.5t34.5 99.5q0 65 -35 106t-95 41q-54 0 -90.5 -38t-36.5 -105q0 -62 34 -102.5t93 -40.5z" />
    <glyph glyph-name="colon" unicode=":" horiz-adv-x="274" 
d="M62 410q0 32 21 52t54 20t54 -20t21 -52t-21 -52t-54 -20t-54 20t-21 52zM62 64q0 32 21 52t54 20t54 -20t21 -52t-21 -52t-54 -20t-54 20t-21 52z" />
    <glyph glyph-name="semicolon" unicode=";" horiz-adv-x="281" 
d="M64 410q0 32 21 52t54 20t54 -20t21 -52t-21 -52t-54 -20t-54 20t-21 52zM219 32q0 -20 -5 -44t-19 -46.5t-38.5 -40t-63.5 -23.5l-19 51q11 0 23 5t22.5 13t17.5 19.5t7 24.5v6q-6 -2 -15 -2q-26 0 -46.5 20t-20.5 50q0 12 4.5 25t13.5 23t22.5 16.5t32.5 6.5
q22 0 38 -8.5t26 -23t15 -33.5t5 -39z" />
    <glyph glyph-name="less" unicode="&#x3c;" 
d="M50 277v95l494 224v-107l-379 -164l379 -164v-107z" />
    <glyph glyph-name="equal" unicode="=" 
d="M52 463h496v-91h-496v91zM52 274h496v-91h-496v91z" />
    <glyph glyph-name="greater" unicode="&#x3e;" 
d="M550 373v-96l-494 -223v106l379 164l-379 165v107z" />
    <glyph glyph-name="question" unicode="?" horiz-adv-x="527" 
d="M207 205v35q0 27 8.5 50.5t22.5 43.5t32.5 38t38.5 34q12 10 24.5 21t22.5 24t16 29t6 37q0 45 -29 75t-80 30q-32 0 -54.5 -13t-38 -33.5t-24 -46.5t-11.5 -53l-114 19q8 46 26 86t47.5 69t71.5 46t97 17q58 0 100 -17.5t70 -46t41.5 -64.5t13.5 -72q0 -28 -7 -50.5
t-18.5 -41t-26 -34t-28.5 -28.5q-18 -17 -34.5 -32t-29.5 -30t-21 -30.5t-8 -33.5v-28h-114zM195 62q0 31 19 50t51 19t51.5 -19t19.5 -50q0 -30 -19.5 -50t-51.5 -20t-51 20t-19 50z" />
    <glyph glyph-name="at" unicode="@" horiz-adv-x="964" 
d="M609 471h87l-53 -268q-1 -5 -1.5 -10.5t-0.5 -10.5q0 -22 12 -35t36 -13q25 0 50 14.5t44 41.5t31 66.5t12 89.5q0 67 -22 120t-61.5 90t-95.5 57t-124 20q-80 0 -149 -27.5t-120 -78.5t-80 -123.5t-29 -161.5q0 -83 26.5 -146.5t73 -106.5t109.5 -65t135 -22
q92 0 159.5 27.5t118.5 65.5l51 -74q-25 -19 -57.5 -37t-73.5 -32.5t-91 -23.5t-110 -9q-103 0 -184.5 30.5t-138.5 86t-87.5 133t-30.5 172.5q0 110 38 197.5t103.5 149t151.5 94.5t182 33q83 0 156.5 -24t128 -70.5t86.5 -114t32 -153.5q0 -61 -17.5 -115.5t-49.5 -95.5
t-76.5 -65t-98.5 -24q-27 0 -47 6.5t-33.5 17t-21 24t-11.5 28.5q-24 -41 -62.5 -58.5t-73.5 -17.5q-68 0 -111.5 48.5t-43.5 135.5q0 52 16.5 96.5t44 77t65 51t79.5 18.5q40 0 71.5 -17t45.5 -48zM569 278q6 30 2 52.5t-15.5 38t-28 23t-34.5 7.5q-25 0 -46.5 -13
t-37.5 -35t-25.5 -51t-9.5 -61q0 -47 19.5 -75.5t54.5 -28.5q42 0 72.5 28t42.5 83z" />
    <glyph glyph-name="A" unicode="A" horiz-adv-x="661" 
d="M644 0h-123l-62 176h-264l-62 -176h-116l254 700h120zM325 562q-3 -10 -8.5 -27.5t-13 -40l-16 -48t-17.5 -50.5q-20 -59 -43 -127h200q-24 68 -44 127q-9 25 -17.5 50.5l-16 48t-13.5 40t-9 27.5h-2z" />
    <glyph glyph-name="B" unicode="B" horiz-adv-x="640" 
d="M81 700h274q102 0 155.5 -48.5t53.5 -129.5q0 -35 -10 -61t-25.5 -45t-35 -31.5t-38.5 -19.5q25 -4 50 -14.5t44.5 -30t32 -48.5t12.5 -68q0 -45 -17 -82.5t-47 -64.5t-71.5 -42t-90.5 -15h-287v700zM197 605v-200h118q64 0 96.5 25t32.5 80q0 50 -28.5 72.5t-91.5 22.5
h-127zM197 95h130q43 0 71 8t45 22.5t24 34.5t7 44q0 61 -40 84.5t-109 23.5h-128v-217z" />
    <glyph glyph-name="C" unicode="C" horiz-adv-x="688" 
d="M48 350q0 83 22.5 150t65 114.5t103.5 73t137 25.5q108 0 177.5 -49t103.5 -140l-113 -40q-20 59 -61 95t-110 36q-49 0 -87 -19t-63.5 -54t-39 -84t-13.5 -108t13 -107.5t39 -83.5t63.5 -54.5t87.5 -19.5q66 0 107 34t63 94l112 -41q-35 -86 -104 -135.5t-177 -49.5
q-76 0 -136.5 25.5t-102.5 72.5t-64.5 114.5t-22.5 150.5z" />
    <glyph glyph-name="D" unicode="D" horiz-adv-x="707" 
d="M81 700h248q77 0 138 -23.5t104 -68.5t65.5 -110t22.5 -148t-22.5 -148t-65.5 -110t-104 -68.5t-138 -23.5h-248v700zM537 350q0 57 -12.5 103.5t-39 80t-67.5 51.5t-98 18h-120v-506h120q57 0 98 18t67.5 51.5t39 80t12.5 103.5z" />
    <glyph glyph-name="E" unicode="E" horiz-adv-x="575" 
d="M81 0v700h443v-97h-326v-194h304v-97h-304v-215h332v-97h-449z" />
    <glyph glyph-name="F" unicode="F" horiz-adv-x="561" 
d="M81 0v700h445v-97h-328v-194h304v-97h-304v-312h-117z" />
    <glyph glyph-name="G" unicode="G" horiz-adv-x="733" 
d="M354 366h304v-366h-107v73q-11 -16 -27.5 -31.5t-40 -27.5t-53.5 -19.5t-69 -7.5q-77 0 -135 28t-98 77t-60 115t-20 142q0 80 23 147t66 115t105 75t140 27q100 0 171 -47t109 -135l-109 -43q-23 59 -66.5 93.5t-110.5 34.5q-46 0 -84 -17.5t-65 -52t-42 -85.5t-15 -117
q0 -128 52.5 -194t152.5 -66q33 0 63.5 9t54.5 27t38 45.5t14 65.5v42h-191v93z" />
    <glyph glyph-name="H" unicode="H" horiz-adv-x="701" 
d="M81 700h118v-290h303v290h118v-700h-118v312h-303v-312h-118v700z" />
    <glyph glyph-name="I" unicode="I" horiz-adv-x="280" 
d="M81 700h118v-700h-118v700z" />
    <glyph glyph-name="J" unicode="J" horiz-adv-x="465" 
d="M183 84q49 0 68 36t19 111v469h119v-469q0 -53 -8.5 -97.5t-31 -77t-61.5 -51t-101 -18.5q-71 0 -112.5 22.5t-69.5 57.5l78 77q25 -29 46.5 -44.5t53.5 -15.5z" />
    <glyph glyph-name="K" unicode="K" horiz-adv-x="644" 
d="M267 334l-68 -74v-260h-118v700h118v-295l270 295h138l-258 -282l283 -418h-142z" />
    <glyph glyph-name="L" unicode="L" horiz-adv-x="527" 
d="M81 700h118v-603h308v-97h-426v700z" />
    <glyph glyph-name="M" unicode="M" horiz-adv-x="877" 
d="M385 0q-17 45 -43.5 116t-54.5 149t-54 152t-41 125h-3v-542h-108v700h162q49 -137 90 -251q17 -49 34.5 -97.5t32.5 -90.5t26 -73.5t16 -45.5q4 14 15 45.5t25 73.5t31 90.5t34 97.5q40 114 88 251h161v-700h-109v542h-2q-11 -34 -27.5 -81t-35 -99.5t-38 -106.5
t-37 -103t-32 -89t-23.5 -63h-107z" />
    <glyph glyph-name="N" unicode="N" horiz-adv-x="726" 
d="M81 700h124q72 -114 136 -214q27 -43 55 -87t53.5 -84.5t46.5 -74.5t35 -55h3v515h111v-700h-124q-71 112 -134 211q-27 42 -55 86.5t-53.5 85t-47 75t-36.5 57.5h-3v-515h-111v700z" />
    <glyph glyph-name="O" unicode="O" horiz-adv-x="749" 
d="M48 350q0 84 23.5 151.5t66.5 114.5t103 72t133 25t133.5 -25t103.5 -72t66.5 -114.5t23.5 -151.5t-23.5 -151.5t-66.5 -114.5t-103.5 -72t-133.5 -25t-133 25t-103 72t-66.5 114.5t-23.5 151.5zM170 350q0 -57 12.5 -106t38 -84.5t64 -55.5t89.5 -20q52 0 90.5 20
t64 55.5t38 84.5t12.5 106t-12.5 106t-38 84.5t-64 55.5t-90.5 20q-51 0 -89.5 -20t-64 -55.5t-38 -84.5t-12.5 -106z" />
    <glyph glyph-name="P" unicode="P" horiz-adv-x="622" 
d="M199 266v-266h-118v700h254q58 0 105.5 -12t81.5 -38t52 -66.5t18 -97.5t-19 -98.5t-53 -68.5t-81 -40t-104 -13h-136zM472 486q0 66 -38 91.5t-117 25.5h-118v-241h118q78 0 116.5 29.5t38.5 94.5z" />
    <glyph glyph-name="Q" unicode="Q" horiz-adv-x="749" 
d="M48 350q0 84 23.5 151.5t66.5 114.5t103 72t133 25t133.5 -25t103.5 -72t66.5 -114.5t23.5 -151.5q0 -94 -29 -165.5t-80 -119.5l70 -75l-68 -59l-78 84q-65 -28 -142 -28q-73 0 -133 25t-103 72t-66.5 114.5t-23.5 151.5zM170 350q0 -57 12.5 -106t38 -84.5t64 -55.5
t89.5 -20q37 0 68 11l-68 74l66 60l77 -83q31 36 46.5 88.5t15.5 115.5q0 57 -12.5 106t-38 84.5t-64 55.5t-90.5 20q-51 0 -89.5 -20t-64 -55.5t-38 -84.5t-12.5 -106z" />
    <glyph glyph-name="R" unicode="R" horiz-adv-x="645" 
d="M582 500q0 -78 -40 -128.5t-107 -70.5l175 -301h-135l-162 287h-115v-287h-117v700h251q46 0 90.5 -9.5t80 -32.5t57.5 -61.5t22 -96.5zM462 497q0 57 -38 81.5t-111 24.5h-115v-221h123q74 0 107.5 30.5t33.5 84.5z" />
    <glyph glyph-name="S" unicode="S" horiz-adv-x="638" 
d="M183 519q0 -25 8.5 -42t28 -29.5t51 -21.5t76.5 -16q60 -10 106 -26t77 -40.5t46.5 -59t15.5 -82.5t-19.5 -88t-54.5 -68t-84.5 -43.5t-110.5 -15.5q-65 0 -115.5 17t-86 45.5t-54.5 67t-21 81.5l117 18q2 -26 12 -50.5t29.5 -43t48.5 -29.5t70 -11q67 0 107 28.5
t40 84.5q0 24 -8.5 42t-27.5 31.5t-50 23t-76 16.5q-56 8 -101.5 22.5t-77.5 38t-49.5 58t-17.5 82.5q0 49 18.5 87t52.5 64t80.5 39.5t102.5 13.5q107 0 176.5 -49.5t86.5 -138.5l-119 -27q-8 56 -44 88t-103 32q-66 0 -98 -27t-32 -72z" />
    <glyph glyph-name="T" unicode="T" horiz-adv-x="570" 
d="M21 700h528v-97h-205v-603h-118v603h-205v97z" />
    <glyph glyph-name="U" unicode="U" horiz-adv-x="688" 
d="M344 -13q-138 0 -202.5 69t-64.5 197v447h118v-448q0 -34 8 -64.5t25.5 -53.5t46 -36.5t69.5 -13.5t69.5 13.5t46 36.5t25.5 53.5t8 64.5v448h118v-447q0 -128 -64.5 -197t-202.5 -69z" />
    <glyph glyph-name="V" unicode="V" horiz-adv-x="661" 
d="M142 700q40 -112 76 -216q15 -44 31.5 -91t31.5 -91.5t28 -84.5t23 -71h2q9 31 22.5 71t29 84.5t32 91.5t31.5 91q36 104 76 216h121l-259 -700h-116l-255 700h126z" />
    <glyph glyph-name="W" unicode="W" horiz-adv-x="926" 
d="M911 700l-186 -700h-130q-28 111 -53 210q-11 42 -21.5 86.5t-20.5 85.5t-18.5 76.5t-14.5 60.5h-3q-6 -25 -14.5 -60.5t-19 -76.5t-22 -85.5t-22.5 -86.5q-26 -99 -55 -210h-130l-185 700h120q31 -120 57 -227q11 -46 22.5 -93.5t22 -91t19 -81t13.5 -62.5h2
q5 25 14 62.5t20 81t23 91t24 93.5q27 107 59 227h111q32 -122 59 -230q12 -46 23.5 -94t22 -91.5t19 -79.5t13.5 -60h3q5 24 13.5 60t19 79.5t22.5 91.5t24 94q27 108 59 230h110z" />
    <glyph glyph-name="X" unicode="X" horiz-adv-x="683" 
d="M408 368l259 -368h-141l-189 270l-188 -270h-133l256 363l-235 337h142l165 -240l166 240h133z" />
    <glyph glyph-name="Y" unicode="Y" horiz-adv-x="658" 
d="M269 300l-259 400h136l186 -292l186 292h130l-260 -400v-300h-119v300z" />
    <glyph glyph-name="Z" unicode="Z" horiz-adv-x="620" 
d="M52 700h528v-87l-392 -516h389v-97h-536v85l393 518h-382v97z" />
    <glyph glyph-name="bracketleft" unicode="[" horiz-adv-x="324" 
d="M80 762h214v-80h-111v-749h111v-80h-214v909z" />
    <glyph glyph-name="backslash" unicode="\" horiz-adv-x="403" 
d="M302 -115l-293 869h94l291 -869h-92z" />
    <glyph glyph-name="bracketright" unicode="]" horiz-adv-x="324" 
d="M30 -147v80h111v749h-111v80h214v-909h-214z" />
    <glyph glyph-name="asciicircum" unicode="^" horiz-adv-x="549" 
d="M504 353h-112l-119 241l-122 -241h-106l182 347h96z" />
    <glyph glyph-name="underscore" unicode="_" horiz-adv-x="484" 
d="M9 -56h466v-75h-466v75z" />
    <glyph glyph-name="grave" unicode="`" 
d="M183 641l50 82l189 -131l-37 -60z" />
    <glyph glyph-name="a" unicode="a" horiz-adv-x="518" 
d="M356 0q-4 7 -7 24t-3 37q-23 -33 -58.5 -53.5t-92.5 -20.5q-72 0 -115.5 36t-43.5 99q0 48 25.5 79.5t68 50.5t98 27t116.5 8v30q0 38 -21 61.5t-66 23.5t-67 -22t-23 -52l-110 16q4 35 21.5 61.5t45 44.5t63 27.5t74.5 9.5q43 0 78.5 -11t61 -32.5t40 -53.5t14.5 -75
v-250q0 -22 3 -36.5t8 -28.5h-110zM226 71q22 0 43.5 7t38 20.5t26.5 32.5t10 44v39q-88 0 -142 -19t-54 -66q0 -29 22 -43.5t56 -14.5z" />
    <glyph glyph-name="b" unicode="b" horiz-adv-x="588" 
d="M335 487q46 0 85 -17.5t67.5 -50t45 -78.5t16.5 -104t-16.5 -104t-45 -78.5t-67.5 -50t-85 -17.5q-61 0 -98 25.5t-56 57.5v-70h-109v700h114v-287q21 30 58 52t91 22zM185 214q0 -37 12 -63t30 -42.5t40.5 -24t43.5 -7.5q28 0 50.5 12t38.5 33.5t24.5 50.5t8.5 64
q0 34 -8.5 63.5t-24.5 51t-38.5 33.5t-50.5 12q-21 0 -43.5 -7.5t-40.5 -24t-30 -42.5t-12 -63v-46z" />
    <glyph glyph-name="c" unicode="c" horiz-adv-x="503" 
d="M39 237q0 56 16.5 102t47 79t74 51t98.5 18q41 0 72.5 -10t55.5 -27.5t40.5 -41.5t28.5 -52l-103 -39q-10 38 -34.5 59.5t-64.5 21.5q-30 0 -51.5 -13.5t-35.5 -35.5t-20.5 -51.5t-6.5 -60.5t6.5 -59.5t20.5 -51t35.5 -36t52.5 -13.5q42 0 63.5 22t34.5 54l105 -40
q-14 -26 -32.5 -49t-42.5 -40t-55 -27t-71 -10q-54 0 -97 18t-73.5 50.5t-47 78.5t-16.5 103z" />
    <glyph glyph-name="d" unicode="d" horiz-adv-x="588" 
d="M256 487q53 0 89.5 -21.5t57.5 -51.5v286h113v-700h-108v70q-10 -16 -24 -31t-33 -26.5t-43.5 -18.5t-55.5 -7q-45 0 -84 17.5t-67.5 50t-45 78.5t-16.5 104t16.5 104t46 78.5t69 50t85.5 17.5zM403 262q0 37 -12 63t-30 42t-40 23t-42 7q-29 0 -51.5 -12t-38.5 -33.5
t-24.5 -51t-8.5 -63.5q0 -35 8.5 -64t24 -50.5t37.5 -33.5t50 -12q21 0 43 7t41 23t31 41.5t12 63.5v50z" />
    <glyph glyph-name="e" unicode="e" horiz-adv-x="525" 
d="M476 104q-28 -54 -77.5 -85.5t-124.5 -31.5q-54 0 -97.5 18t-74 51t-47 79t-16.5 103q0 56 16.5 102t47 78.5t73 50.5t94.5 18q57 0 99 -20t69.5 -53.5t41 -78t13.5 -92.5v-32h-338q1 -27 8 -52t21 -44.5t35.5 -31t53.5 -11.5q44 0 67.5 20t37.5 51zM269 404
q-51 0 -79 -33t-33 -85h222q-2 57 -32 87.5t-78 30.5z" />
    <glyph glyph-name="f" unicode="f" horiz-adv-x="342" 
d="M17 474h80v62q0 50 15 84t39 54.5t54.5 29.5t60.5 9q37 0 71.5 -9.5t54.5 -25.5l-47 -86q-11 10 -28 18.5t-40 8.5q-30 0 -48.5 -19t-18.5 -63v-63h107v-84h-107v-390h-113v390h-80v84z" />
    <glyph glyph-name="g" unicode="g" horiz-adv-x="534" 
d="M503 412q-7 7 -16.5 9.5t-18.5 2.5q-13 0 -22.5 -3.5t-14.5 -8.5q17 -18 26 -44t9 -54q0 -41 -17 -72t-45 -53t-64.5 -33t-76.5 -11q-29 0 -45.5 4t-26.5 4q-11 0 -25.5 -8t-14.5 -28q0 -13 9.5 -20t28.5 -10.5t47.5 -5.5t65.5 -5q42 -3 78.5 -10t64 -21t43 -38t15.5 -62
q0 -42 -19.5 -72t-53 -49t-78.5 -28t-96 -9q-48 0 -89 7.5t-71 24t-47 41t-17 59.5q0 36 19.5 64.5t48.5 40.5q-27 13 -39 35t-12 44q0 28 17.5 51t49.5 37q-26 20 -41.5 50.5t-15.5 70.5q0 42 17 75t45 55t63.5 33.5t73.5 11.5q32 0 60 -7.5t49 -17.5q19 16 42 25.5t56 9.5
q18 0 33 -3t26 -8zM170 314q0 -48 26.5 -71t65.5 -23q40 0 66.5 23t26.5 71t-26.5 72.5t-66.5 24.5q-39 0 -65.5 -24.5t-26.5 -72.5zM275 -12q-35 2 -61.5 4.5t-43.5 6.5q-20 -9 -29 -28.5t-9 -40.5q0 -36 35 -51.5t93 -15.5q29 0 54.5 4t44 13t29 22.5t10.5 32.5
q0 30 -28.5 40t-94.5 13z" />
    <glyph glyph-name="h" unicode="h" horiz-adv-x="565" 
d="M72 700h114v-291q18 32 52.5 55t91.5 23q34 0 65 -10t53.5 -30t36 -50t13.5 -70v-327h-114v300q0 25 -7.5 43t-19.5 29.5t-28 16.5t-33 5q-21 0 -41 -9t-35.5 -27t-24.5 -45t-9 -62v-251h-114v700z" />
    <glyph glyph-name="i" unicode="i" horiz-adv-x="258" 
d="M59 643q0 32 19.5 50.5t50.5 18.5t50.5 -18.5t19.5 -50.5q0 -29 -19 -49t-51 -20t-51 20t-19 49zM72 474h114v-474h-114v474z" />
    <glyph glyph-name="j" unicode="j" horiz-adv-x="261" 
d="M189 -47q0 -46 -15.5 -78t-39.5 -51.5t-53.5 -28t-58.5 -8.5q-32 0 -61 9t-54 24l46 85q11 -8 27 -16t36 -8q28 0 43.5 20t15.5 59v514h114v-521zM62 643q0 32 19.5 50.5t50.5 18.5t50.5 -18.5t19.5 -50.5q0 -29 -19 -49t-51 -20t-51 20t-19 49z" />
    <glyph glyph-name="k" unicode="k" horiz-adv-x="534" 
d="M234 230l-48 -44v-186h-114v700h114v-396l184 170h133l-187 -174l213 -300h-134z" />
    <glyph glyph-name="l" unicode="l" horiz-adv-x="258" 
d="M72 700h114v-700h-114v700z" />
    <glyph glyph-name="m" unicode="m" horiz-adv-x="843" 
d="M72 474h109v-72q20 37 54.5 61t86.5 24q50 0 87.5 -22t56.5 -63q10 16 25 31t34.5 27t42.5 19.5t50 7.5q32 0 61 -10t50.5 -30t34 -49.5t12.5 -69.5v-328h-114v300q0 51 -24 72.5t-55 21.5q-20 0 -38.5 -9t-32.5 -27t-22.5 -45t-8.5 -62v-251h-114v300q0 51 -24.5 72.5
t-55.5 21.5q-20 0 -38 -9t-32 -27t-22.5 -45t-8.5 -62v-251h-114v474z" />
    <glyph glyph-name="n" unicode="n" horiz-adv-x="565" 
d="M72 474h109v-72q21 37 57 61t92 24q34 0 65 -10t53.5 -30t36 -50t13.5 -70v-327h-114v300q0 25 -7.5 43t-20 29.5t-28.5 16.5t-32 5q-21 0 -41 -9t-35.5 -27t-24.5 -45t-9 -62v-251h-114v474z" />
    <glyph glyph-name="o" unicode="o" horiz-adv-x="553" 
d="M276 487q55 0 99 -18t75 -51t47.5 -79t16.5 -102t-16.5 -102t-47.5 -79t-75 -51t-99 -18t-99 18t-74.5 51t-47 79t-16.5 102t16.5 102t47 79t74.5 51t99 18zM276 74q31 0 54 13t38 35t22.5 51.5t7.5 63.5t-7.5 63.5t-22.5 51.5t-38 35t-54 13t-53.5 -13t-37.5 -35
t-22.5 -51.5t-7.5 -63.5t7.5 -63.5t22.5 -51.5t37.5 -35t53.5 -13z" />
    <glyph glyph-name="p" unicode="p" horiz-adv-x="588" 
d="M335 -13q-58 0 -93.5 22t-55.5 50v-259h-114v674h109v-70q20 35 58.5 59t95.5 24q46 0 85 -17.5t67.5 -50t45 -78.5t16.5 -104t-16.5 -104t-45 -78.5t-67.5 -50t-85 -17.5zM185 214q0 -37 12 -63t30 -42.5t40.5 -24t43.5 -7.5q28 0 50.5 12t38.5 33.5t24.5 50.5t8.5 64
q0 34 -8.5 63.5t-24.5 51t-38.5 33.5t-50.5 12q-21 0 -43.5 -7.5t-40.5 -24t-30 -42.5t-12 -63v-46z" />
    <glyph glyph-name="q" unicode="q" horiz-adv-x="588" 
d="M252 -13q-45 0 -84 17.5t-67.5 50t-45 78.5t-16.5 104t16.5 104t46 78.5t69 50t85.5 17.5q56 0 94 -23t58 -58v68h108v-674h-113v260q-21 -29 -57.5 -51t-93.5 -22zM403 261q0 38 -12 64t-30.5 42t-40.5 23t-41 7q-29 0 -51.5 -12t-38.5 -33.5t-24.5 -51t-8.5 -63.5
q0 -35 8.5 -64t24 -50.5t37.5 -33.5t50 -12q20 0 42.5 7t41 22.5t31 41.5t12.5 64v49z" />
    <glyph glyph-name="r" unicode="r" horiz-adv-x="384" 
d="M356 371q-11 9 -25.5 13.5t-29.5 4.5q-21 0 -41.5 -9t-37 -27.5t-26.5 -47t-10 -66.5v-239h-114v474h107v-77q20 45 55.5 67.5t84.5 22.5q14 0 30 -2.5t30 -8.5z" />
    <glyph glyph-name="s" unicode="s" horiz-adv-x="478" 
d="M158 348q0 -32 27 -44t71 -19q37 -5 71 -14.5t59.5 -26t41 -42t15.5 -62.5q0 -72 -55.5 -112.5t-148.5 -40.5q-88 0 -144 36.5t-64 106.5l110 16q4 -40 30 -58t69 -18q40 0 64.5 15t24.5 47q0 28 -23 41.5t-82 22.5q-41 6 -74 16.5t-56.5 27t-36.5 41t-13 59.5
q0 37 16 65t43 46t62.5 27t73.5 9q39 0 73 -9t60 -25.5t42.5 -41t21.5 -54.5l-110 -23q-5 34 -27 52.5t-62 18.5q-33 0 -56 -14.5t-23 -42.5z" />
    <glyph glyph-name="t" unicode="t" horiz-adv-x="358" 
d="M336 7q-18 -9 -43.5 -14.5t-53.5 -5.5q-66 0 -104 34.5t-38 100.5v268h-80v84h80v135l113 52v-187h107v-84h-107v-254q0 -31 12.5 -43.5t32.5 -12.5q15 0 27 5t23 11z" />
    <glyph glyph-name="u" unicode="u" horiz-adv-x="560" 
d="M488 0h-108v71q-22 -37 -57 -60.5t-90 -23.5q-34 0 -64 10t-52.5 30t-35.5 49.5t-13 69.5v328h113v-300q0 -51 26.5 -72.5t59.5 -21.5q21 0 40.5 9t34.5 27t24 45t9 62v251h113v-474z" />
    <glyph glyph-name="v" unicode="v" horiz-adv-x="497" 
d="M12 474h120q27 -83 51 -155q10 -31 20.5 -62.5t19.5 -60t16.5 -52t11.5 -37.5h2q4 14 11.5 37.5t16.5 52t19.5 60t20.5 62.5q24 72 52 155h112l-173 -474h-125z" />
    <glyph glyph-name="w" unicode="w" horiz-adv-x="743" 
d="M426 474q25 -83 45 -155q9 -31 17.5 -62t16 -58.5t13 -49.5l8.5 -34h2q3 14 8.5 37t13 51t16 59t17.5 61q20 70 43 151h105l-145 -474h-118q-26 90 -46 164q-9 31 -17.5 62t-15.5 56.5t-12 43.5t-6 24q-2 -6 -6.5 -24t-11.5 -43.5t-15.5 -56.5t-17.5 -62
q-20 -74 -45 -164h-118l-145 474h112q24 -82 44 -152q9 -30 17.5 -61t15.5 -59t12.5 -50.5t8.5 -36.5h2q4 17 13 50.5t20 73.5t23 81.5t22 75.5t16.5 56l6.5 22h101z" />
    <glyph glyph-name="x" unicode="x" horiz-adv-x="493" 
d="M13 0l173 243l-161 231h127l98 -145l97 145h120l-159 -226l172 -248h-126l-110 161l-108 -161h-123z" />
    <glyph glyph-name="y" unicode="y" horiz-adv-x="498" 
d="M120 -200l78 199l-186 475h116q29 -82 55 -152l22 -60t20.5 -56t16.5 -47t11 -31h2q3 10 10 31t16 47t20 56l22 60q26 70 55 152h108l-255 -674h-111z" />
    <glyph glyph-name="z" unicode="z" horiz-adv-x="458" 
d="M44 474h377v-70l-247 -318h248v-86h-386v73l247 315h-239v86z" />
    <glyph glyph-name="braceleft" unicode="{" horiz-adv-x="351" 
d="M229 483q0 -44 -7 -74.5t-20.5 -50.5t-33.5 -31.5t-45 -16.5q25 -5 45 -16.5t33.5 -31.5t20.5 -50.5t7 -73.5v-57q0 -32 2.5 -60t12.5 -50t30.5 -36t56.5 -18v-75q-74 2 -115.5 24.5t-61.5 59.5t-24 87t-4 107v17q0 28 -2.5 51t-11.5 41t-26.5 29.5t-47.5 16.5v71
q30 4 47.5 16t26.5 30t11.5 41t2.5 51v17q0 57 4 107t24 87t61.5 59.5t115.5 24.5v-76q-36 -4 -56.5 -18t-30.5 -36t-12.5 -50t-2.5 -59v-57z" />
    <glyph glyph-name="bar" unicode="|" horiz-adv-x="270" 
d="M87 797h96v-966h-96v966z" />
    <glyph glyph-name="braceright" unicode="}" horiz-adv-x="351" 
d="M122 540q0 31 -2.5 59t-12.5 50t-30.5 36t-56.5 18v76q75 -2 116.5 -24.5t61.5 -59.5t24 -87t4 -107v-17q0 -28 2.5 -51t11.5 -41t26.5 -30t47.5 -16v-71q-30 -5 -47.5 -16.5t-26.5 -29.5t-11.5 -41t-2.5 -51v-17q0 -57 -4 -107t-24 -87t-61.5 -59.5t-116.5 -24.5v75
q36 4 56.5 18t30.5 36t12.5 50t2.5 60v57q0 43 7 73.5t20.5 50.5t33 31.5t45.5 16.5q-26 5 -45.5 16.5t-33 31.5t-20.5 50.5t-7 74.5v57z" />
    <glyph glyph-name="asciitilde" unicode="~" horiz-adv-x="604" 
d="M391 227q-35 0 -60 9.5t-45 20.5t-38.5 20.5t-39.5 9.5q-22 0 -37 -9t-25 -20q-11 -13 -19 -29l-73 58q14 26 36 46q19 17 48.5 31.5t72.5 14.5q35 0 60 -9.5t45.5 -21t39 -21t40.5 -9.5q21 0 36 9t25 20q11 12 19 29l73 -56q-14 -27 -36 -47q-19 -17 -49 -31.5
t-73 -14.5z" />
    <glyph glyph-name="nonbreakingspace" unicode="&#xa0;" horiz-adv-x="225" 
 />
    <glyph glyph-name="exclamdown" unicode="&#xa1;" horiz-adv-x="265" 
d="M62 438q0 30 19.5 50t50.5 20q32 0 51.5 -20t19.5 -50q0 -31 -19.5 -50t-51.5 -19q-31 0 -50.5 19t-19.5 50zM193 -200h-121l13 491h95z" />
    <glyph glyph-name="cent" unicode="&#xa2;" horiz-adv-x="514" 
d="M44 344q0 49 13 91t38.5 74.5t62.5 53.5t85 27v100h66v-98q69 -8 111 -44t61 -85l-92 -38q-19 65 -80 80v-321q32 7 50.5 28t30.5 48l93 -39q-26 -49 -66.5 -83t-107.5 -41v-97h-66v97q-47 6 -84 26.5t-62.5 53t-39 75t-13.5 92.5zM151 345q0 -25 4.5 -51t15 -48
t28 -38.5t44.5 -23.5v320q-25 -6 -42.5 -22t-28.5 -37.5t-16 -47t-5 -52.5z" />
    <glyph glyph-name="sterling" unicode="&#xa3;" horiz-adv-x="571" 
d="M103 311h-57v84h57v88q0 42 11.5 81t37 69t66 48t98.5 18q43 0 76 -10.5t57.5 -29t40.5 -43.5t27 -53l-101 -37q-14 40 -37 62.5t-63 22.5q-26 0 -44.5 -9.5t-30.5 -26t-18 -38t-6 -45.5v-97h162v-84h-162v-117q0 -36 -11 -65.5t-31 -40.5l1 -2q8 2 22.5 3.5t32.5 1.5
q24 0 41.5 -2.5t32.5 -5t29 -5t31 -2.5q38 0 58 16.5t33 56.5l97 -31q-23 -69 -65.5 -99.5t-111.5 -30.5q-22 0 -39 2.5t-35 5t-40 5t-53 2.5q-45 0 -80.5 -5t-62.5 -13l-24 83q21 11 33 25.5t18.5 31t8 33.5t1.5 34v119z" />
    <glyph glyph-name="currency" unicode="&#xa4;" horiz-adv-x="618" 
d="M309 590q36 0 70 -10.5t63 -30.5l69 73l69 -67l-73 -68q20 -29 32 -63.5t12 -72.5t-12 -73t-32 -64l73 -67l-69 -67l-69 72q-29 -19 -63 -29.5t-70 -10.5q-37 0 -71 10.5t-63 29.5l-69 -72l-68 67l73 67q-20 29 -32 64t-12 73t12 72.5t32 63.5l-73 68l68 67l69 -73
q29 20 63 30.5t71 10.5zM309 204q30 0 56.5 11.5t46.5 31.5t31.5 46.5t11.5 57.5t-11.5 57.5t-31.5 46.5t-46.5 31.5t-56.5 11.5t-56.5 -11.5t-46.5 -31.5t-31.5 -46.5t-11.5 -57.5t11.5 -57.5t31.5 -46.5t46.5 -31.5t56.5 -11.5z" />
    <glyph glyph-name="yen" unicode="&#xa5;" horiz-adv-x="632" 
d="M373 212v-212h-115v212h-168v73h168v15l-32 49h-136v73h89l-170 264h131l178 -286l182 286h123l-171 -264h90v-73h-138l-31 -49v-15h169v-73h-169z" />
    <glyph glyph-name="brokenbar" unicode="&#xa6;" horiz-adv-x="270" 
d="M87 797h96v-385h-96v385zM87 216h96v-385h-96v385z" />
    <glyph glyph-name="section" unicode="&#xa7;" horiz-adv-x="548" 
d="M512 238q0 -48 -23 -78.5t-67 -55.5q26 -22 39 -50.5t13 -68.5q0 -42 -15 -75t-42.5 -55.5t-65.5 -34t-84 -11.5q-81 0 -134.5 36.5t-71.5 96.5l104 34q11 -35 35 -57.5t69 -22.5q48 0 71.5 22.5t23.5 59.5q0 24 -9 41.5t-27.5 31.5t-46.5 26t-65 24q-33 11 -65.5 26
t-58 36t-41 50.5t-15.5 70.5q0 48 23 78.5t67 55.5q-26 22 -39 50t-13 69q0 42 15 75t42.5 55.5t65.5 34t83 11.5q82 0 135.5 -36.5t70.5 -96.5l-103 -34q-11 35 -35.5 57.5t-69.5 22.5q-48 0 -71 -22.5t-23 -59.5q0 -24 9 -41.5t27.5 -31.5t46.5 -26t65 -24q33 -11 65 -26
t57.5 -36t41.5 -50.5t16 -70.5zM343 150q26 11 42 30.5t16 51.5q0 38 -21.5 57.5t-60.5 35.5l-115 47q-26 -11 -41.5 -30.5t-15.5 -51.5q0 -38 21 -58t61 -35l34 -14t32.5 -13.5t28 -11.5t19.5 -8z" />
    <glyph glyph-name="dieresis" unicode="&#xa8;" 
d="M337 607q0 28 18 45.5t47 17.5t47 -17.5t18 -45.5q0 -26 -18 -44.5t-47 -18.5t-47 18.5t-18 44.5zM133 607q0 28 18 45.5t47 17.5t47 -17.5t18 -45.5q0 -26 -18 -44.5t-47 -18.5t-47 18.5t-18 44.5z" />
    <glyph glyph-name="copyright" unicode="&#xa9;" horiz-adv-x="817" 
d="M409 -13q-76 0 -142.5 27t-116 75.5t-78 115t-28.5 146.5q0 79 28.5 145.5t78 114.5t116 75t142.5 27t142 -27t115.5 -75t78 -114.5t28.5 -145.5q0 -80 -28.5 -146.5t-78 -115t-115.5 -75.5t-142 -27zM409 56q59 0 111.5 22t91.5 61t62 93t23 119q0 64 -23 117.5
t-62 92.5t-91.5 61t-111.5 22q-60 0 -112.5 -22t-91.5 -61t-61.5 -92.5t-22.5 -117.5q0 -65 22.5 -119t61.5 -93t91.5 -61t112.5 -22zM226 351q0 46 13.5 83t38 63t59.5 40t77 14q60 0 99.5 -27.5t59.5 -78.5l-73 -25q-11 30 -31.5 48.5t-55.5 18.5q-51 0 -79 -37.5
t-28 -97.5t28 -97.5t78 -37.5q34 0 55.5 17.5t32.5 48.5l72 -26q-20 -49 -59.5 -77t-99.5 -28q-42 0 -76.5 14t-59 40t-38 63t-13.5 82z" />
    <glyph glyph-name="ordfeminine" unicode="&#xaa;" horiz-adv-x="416" 
d="M283 325q-3 5 -5.5 18t-2.5 29q-18 -26 -44.5 -42t-68.5 -16q-27 0 -50 7t-40.5 20.5t-27.5 33.5t-10 46q0 36 20 60t53 38.5t76 21t90 6.5v23q0 29 -16 48t-51 19t-52.5 -18t-18.5 -41l-85 13q3 28 16.5 48.5t35 34.5t49 21t58.5 7q67 0 109 -33t42 -100v-194
q0 -20 2.5 -30.5t5.5 -19.5h-85zM183 378q17 0 33 5.5t29 16t20.5 26t7.5 34.5v30q-69 0 -110.5 -14.5t-41.5 -51.5q0 -23 18 -34.5t44 -11.5z" />
    <glyph glyph-name="guillemotleft" unicode="&#xab;" horiz-adv-x="526" 
d="M246 256l179 224l67 -50l-129 -174l129 -173l-67 -51zM30 256l179 224l67 -50l-129 -174l129 -173l-67 -51z" />
    <glyph glyph-name="logicalnot" unicode="&#xac;" 
d="M52 371h496v-244h-97v151h-399v93z" />
    <glyph glyph-name="uni00AD" unicode="&#xad;" horiz-adv-x="379" 
d="M57 331h265v-86h-265v86z" />
    <glyph glyph-name="registered" unicode="&#xae;" horiz-adv-x="817" 
d="M409 -13q-76 0 -142.5 27t-116 75.5t-78 115t-28.5 146.5q0 79 28.5 145.5t78 114.5t116 75t142.5 27t142 -27t115.5 -75t78 -114.5t28.5 -145.5q0 -80 -28.5 -146.5t-78 -115t-115.5 -75.5t-142 -27zM409 56q59 0 111.5 22t91.5 61t62 93t23 119q0 64 -23 117.5
t-62 92.5t-91.5 61t-111.5 22q-60 0 -112.5 -22t-91.5 -61t-61.5 -92.5t-22.5 -117.5q0 -65 22.5 -119t61.5 -93t91.5 -61t112.5 -22zM563 429q0 -42 -20 -69.5t-54 -41.5l90 -155h-87l-81 147h-58v-147h-72v380h143q25 0 50 -5t45 -18t32 -35t12 -56zM484 429q0 28 -17 40
t-52 12h-62v-107h66q35 0 50 15t15 40z" />
    <glyph glyph-name="macron" unicode="&#xaf;" 
d="M163 630h273v-74h-273v74z" />
    <glyph glyph-name="degree" unicode="&#xb0;" horiz-adv-x="413" 
d="M369 555q0 -34 -12.5 -63t-34 -50t-51.5 -33t-65 -12t-64.5 12t-51.5 33t-34 50t-12 63t12 63t34 50t51.5 33t64.5 12t65 -12t51.5 -33t34 -50t12.5 -63zM287 555q0 36 -22 61t-59 25t-59 -25t-22 -61t22 -61t59 -25t59 25t22 61z" />
    <glyph glyph-name="plusminus" unicode="&#xb1;" 
d="M52 446h202v190h91v-190h203v-92h-203v-197h-91v197h-202v92zM52 91h496v-91h-496v91z" />
    <glyph glyph-name="twosuperior" unicode="&#xb2;" horiz-adv-x="372" 
d="M47 389q25 19 49 37q20 15 41 31.5t34 27.5q30 25 48.5 49t18.5 53q0 23 -14 37t-38 14q-30 0 -45 -22t-18 -46l-83 14q11 54 46.5 89.5t101.5 35.5q34 0 59.5 -10t43 -26.5t26 -38t8.5 -45.5q0 -42 -23.5 -75.5t-61.5 -64.5q-17 -14 -39 -29t-39 -26h166v-70h-281v65z
" />
    <glyph glyph-name="threesuperior" unicode="&#xb3;" horiz-adv-x="366" 
d="M43 610q5 18 15 35.5t26 32t39.5 23t55.5 8.5q62 0 99 -31.5t37 -79.5q0 -32 -16 -52.5t-41 -28.5q28 -5 47.5 -28.5t19.5 -56.5q0 -23 -9.5 -44t-28.5 -37t-46 -25.5t-61 -9.5q-37 0 -64 9.5t-44 24.5t-26 33.5t-10 36.5q3 1 15 4t25.5 6.5t25.5 7t15 4.5q1 -10 4.5 -20
t10.5 -18t18.5 -13t28.5 -5q32 0 44.5 15t12.5 33q0 23 -18 36t-47 13q-4 0 -7.5 -0.5t-5.5 -0.5h-5v68q2 -1 5 -1h11q30 0 44 13t14 33q0 22 -14.5 33t-34.5 11q-24 0 -38.5 -14t-16.5 -34z" />
    <glyph glyph-name="acute" unicode="&#xb4;" 
d="M417 641l-202 -109l-37 60l189 131z" />
    <glyph glyph-name="mu" unicode="&#xb5;" horiz-adv-x="565" 
d="M493 0h-109v71q-21 -37 -56 -60.5t-87 -23.5q-15 0 -29 3.5t-26 8.5v-198h-114v673h114v-300q0 -51 25 -72.5t60 -21.5q21 0 40.5 9t34.5 27t24 45t9 62v251h114v-474z" />
    <glyph glyph-name="mu" unicode="&#x3bc;" horiz-adv-x="565" 
d="M493 0h-109v71q-21 -37 -56 -60.5t-87 -23.5q-15 0 -29 3.5t-26 8.5v-198h-114v673h114v-300q0 -51 25 -72.5t60 -21.5q21 0 40.5 9t34.5 27t24 45t9 62v251h114v-474z" />
    <glyph glyph-name="paragraph" unicode="&#xb6;" horiz-adv-x="625" 
d="M241 295q-41 2 -77.5 18t-64 43.5t-43.5 64t-16 78.5q0 43 17 80t45.5 64t66.5 42t81 15h356v-74h-71v-764h-87v764h-120v-764h-87v433z" />
    <glyph glyph-name="periodcentered" unicode="&#xb7;" horiz-adv-x="277" 
d="M65 287q0 32 20.5 52t52.5 20q33 0 53.5 -20t20.5 -52q0 -30 -20.5 -50t-53.5 -20q-32 0 -52.5 20t-20.5 50z" />
    <glyph glyph-name="cedilla" unicode="&#xb8;" 
d="M234 -154q8 -8 21.5 -14t31.5 -6q20 0 30.5 11t10.5 29t-11 27t-28 9q-25 0 -39 -14l-30 32l35 80h55l-23 -53q5 2 12.5 4t16.5 2q34 0 58 -21.5t24 -63.5q0 -47 -32 -72.5t-79 -25.5q-34 0 -55 10.5t-31 20.5z" />
    <glyph glyph-name="onesuperior" unicode="&#xb9;" horiz-adv-x="269" 
d="M202 700v-376h-88v286q-12 -9 -33 -16t-45 -8l-17 68q34 4 62 15.5t44 30.5h77z" />
    <glyph glyph-name="ordmasculine" unicode="&#xba;" horiz-adv-x="444" 
d="M222 702q84 0 135 -51.5t51 -142.5q0 -45 -13.5 -81t-38 -61.5t-58.5 -39t-76 -13.5q-41 0 -75.5 13.5t-59 39t-38 61.5t-13.5 81t13.5 81t38 61t59 38.5t75.5 13.5zM222 381q25 0 43 10t30 27t17.5 40t5.5 50q0 26 -5.5 49t-17.5 40t-30 27t-43 10q-24 0 -42 -10
t-30 -27t-17.5 -40t-5.5 -49q0 -27 5.5 -50t17.5 -40t30 -27t42 -10z" />
    <glyph glyph-name="guillemotright" unicode="&#xbb;" horiz-adv-x="526" 
d="M497 256l-180 -224l-67 51l129 173l-129 174l67 50zM280 256l-179 -224l-67 51l129 173l-129 174l67 50z" />
    <glyph glyph-name="onequarter" unicode="&#xbc;" horiz-adv-x="780" 
d="M431 136l154 238h108v-233h62l-10 -66h-52v-75h-82v75h-180v61zM612 141v161h-2l-103 -161h105zM202 700v-376h-88v286q-12 -9 -33 -16t-45 -8l-17 68q34 4 62 15.5t44 30.5h77zM100 -13l437 726h96l-439 -726h-94z" />
    <glyph glyph-name="onehalf" unicode="&#xbd;" horiz-adv-x="802" 
d="M477 65q25 19 49 37q20 15 41 31.5t34 27.5q30 25 48.5 49t18.5 53q0 23 -14 37t-38 14q-30 0 -45 -22t-18 -46l-83 14q11 54 46.5 89.5t101.5 35.5q34 0 59.5 -10t43 -26.5t26 -38t8.5 -45.5q0 -42 -23.5 -75.5t-61.5 -64.5q-17 -14 -39 -29t-39 -26h166v-70h-281v65z
M202 700v-376h-88v286q-12 -9 -33 -16t-45 -8l-17 68q34 4 62 15.5t44 30.5h77zM100 -13l437 726h96l-439 -726h-94z" />
    <glyph glyph-name="threequarters" unicode="&#xbe;" horiz-adv-x="854" 
d="M505 136l154 238h108v-233h62l-10 -66h-52v-75h-82v75h-180v61zM686 141v161h-2l-103 -161h105zM43 610q5 18 15 35.5t26 32t39.5 23t55.5 8.5q62 0 99 -31.5t37 -79.5q0 -32 -16 -52.5t-41 -28.5q28 -5 47.5 -28.5t19.5 -56.5q0 -23 -9.5 -44t-28.5 -37t-46 -25.5
t-61 -9.5q-37 0 -64 9.5t-44 24.5t-26 33.5t-10 36.5q3 1 15 4t25.5 6.5t25.5 7t15 4.5q1 -10 4.5 -20t10.5 -18t18.5 -13t28.5 -5q32 0 44.5 15t12.5 33q0 23 -18 36t-47 13q-4 0 -7.5 -0.5t-5.5 -0.5h-5v68q2 -1 5 -1h11q30 0 44 13t14 33q0 22 -14.5 33t-34.5 11
q-24 0 -38.5 -14t-16.5 -34zM174 -13l437 726h96l-439 -726h-94z" />
    <glyph glyph-name="questiondown" unicode="&#xbf;" horiz-adv-x="520" 
d="M320 295v-35q0 -27 -8.5 -50.5t-22.5 -44t-32.5 -38t-38.5 -33.5q-12 -10 -24.5 -21t-22.5 -24t-16 -29t-6 -37q0 -45 29 -75t80 -30q31 0 54 13t38.5 33.5t24 46.5t11.5 53l114 -19q-8 -46 -26 -86t-47.5 -69t-71.5 -46t-97 -17q-58 0 -100.5 17.5t-70 46t-41 64.5
t-13.5 72q0 28 7 50.5t18.5 41t26 34t28.5 28.5q18 16 34.5 31.5t29.5 30.5t21 30.5t8 33.5v28h114zM332 438q0 -31 -19 -50t-51 -19t-51.5 19t-19.5 50q0 30 19.5 50t51.5 20t51 -20t19 -50z" />
    <glyph glyph-name="Agrave" unicode="&#xc0;" horiz-adv-x="661" 
d="M644 0h-123l-62 176h-264l-62 -176h-116l254 700h120zM325 562q-3 -10 -8.5 -27.5t-13 -40l-16 -48t-17.5 -50.5q-20 -59 -43 -127h200q-24 68 -44 127q-9 25 -17.5 50.5l-16 48t-13.5 40t-9 27.5h-2zM203 857l50 82l189 -131l-37 -60z" />
    <glyph glyph-name="Aacute" unicode="&#xc1;" horiz-adv-x="661" 
d="M644 0h-123l-62 176h-264l-62 -176h-116l254 700h120zM325 562q-3 -10 -8.5 -27.5t-13 -40l-16 -48t-17.5 -50.5q-20 -59 -43 -127h200q-24 68 -44 127q-9 25 -17.5 50.5l-16 48t-13.5 40t-9 27.5h-2zM456 857l-202 -109l-37 60l189 131z" />
    <glyph glyph-name="Acircumflex" unicode="&#xc2;" horiz-adv-x="661" 
d="M644 0h-123l-62 176h-264l-62 -176h-116l254 700h120zM325 562q-3 -10 -8.5 -27.5t-13 -40l-16 -48t-17.5 -50.5q-20 -59 -43 -127h200q-24 68 -44 127q-9 25 -17.5 50.5l-16 48t-13.5 40t-9 27.5h-2zM286 912h85l115 -115l-54 -52l-104 101l-101 -101l-54 52z" />
    <glyph glyph-name="Atilde" unicode="&#xc3;" horiz-adv-x="661" 
d="M644 0h-123l-62 176h-264l-62 -176h-116l254 700h120zM325 562q-3 -10 -8.5 -27.5t-13 -40l-16 -48t-17.5 -50.5q-20 -59 -43 -127h200q-24 68 -44 127q-9 25 -17.5 50.5l-16 48t-13.5 40t-9 27.5h-2zM257 892q27 0 46 -8.5t35 -18t30 -18t31 -8.5q16 0 26.5 7.5
t18.5 16.5q8 11 14 25l56 -49q-11 -21 -28 -37q-14 -14 -36.5 -25.5t-54.5 -11.5q-26 0 -45 8t-34.5 18t-30 18t-31.5 8t-28 -7.5t-18 -16.5q-8 -11 -13 -23l-56 49q10 20 27 36q14 14 36.5 25.5t54.5 11.5z" />
    <glyph glyph-name="Adieresis" unicode="&#xc4;" horiz-adv-x="661" 
d="M644 0h-123l-62 176h-264l-62 -176h-116l254 700h120zM325 562q-3 -10 -8.5 -27.5t-13 -40l-16 -48t-17.5 -50.5q-20 -59 -43 -127h200q-24 68 -44 127q-9 25 -17.5 50.5l-16 48t-13.5 40t-9 27.5h-2zM367 830q0 27 18 45t47 18t47 -18t18 -45t-18 -45t-47 -18t-47 18
t-18 45zM163 830q0 27 18 45t47 18t47 -18t18 -45t-18 -45t-47 -18t-47 18t-18 45z" />
    <glyph glyph-name="Aring" unicode="&#xc5;" horiz-adv-x="661" 
d="M644 0h-123l-62 176h-264l-62 -176h-116l254 700h120zM325 562q-3 -10 -8.5 -27.5t-13 -40l-16 -48t-17.5 -50.5q-20 -59 -43 -127h200q-24 68 -44 127q-9 25 -17.5 50.5l-16 48t-13.5 40t-9 27.5h-2zM224 848q0 44 29 71.5t77 27.5t77 -27.5t29 -71.5q0 -42 -29 -71.5
t-77 -29.5t-77 29.5t-29 71.5zM284 848q0 -19 13 -32.5t33 -13.5t33 13.5t13 32.5t-13 32t-33 13t-33 -13t-13 -32z" />
    <glyph glyph-name="AE" unicode="&#xc6;" horiz-adv-x="953" 
d="M462 0v177h-227l-96 -177h-124l390 700h497v-97h-324v-194h302v-97h-302v-215h330v-97h-446zM286 269h176v320h-4z" />
    <glyph glyph-name="Ccedilla" unicode="&#xc7;" horiz-adv-x="688" 
d="M309 -154q8 -8 21.5 -14t31.5 -6q20 0 30.5 11t10.5 29t-11 27t-28 9q-25 0 -39 -14l-30 32l30 70q-65 8 -116.5 36.5t-87 75t-54.5 109t-19 139.5q0 83 22.5 150t65 114.5t103.5 73t137 25.5q108 0 177.5 -49t103.5 -140l-113 -40q-20 59 -61 95t-110 36q-49 0 -87 -19
t-63.5 -54t-39 -84t-13.5 -108t13 -107.5t39 -83.5t63.5 -54.5t87.5 -19.5q66 0 107 34t63 94l112 -41q-35 -85 -102.5 -134t-173.5 -51l-17 -40q5 2 12.5 4t16.5 2q34 0 58 -21.5t24 -63.5q0 -47 -32 -72.5t-79 -25.5q-34 0 -55 10.5t-31 20.5z" />
    <glyph glyph-name="Egrave" unicode="&#xc8;" horiz-adv-x="575" 
d="M178 857l50 82l189 -131l-37 -60zM81 0v700h443v-97h-326v-194h304v-97h-304v-215h332v-97h-449z" />
    <glyph glyph-name="Eacute" unicode="&#xc9;" horiz-adv-x="575" 
d="M436 857l-202 -109l-37 60l189 131zM81 0v700h443v-97h-326v-194h304v-97h-304v-215h332v-97h-449z" />
    <glyph glyph-name="Ecircumflex" unicode="&#xca;" horiz-adv-x="575" 
d="M81 0v700h443v-97h-326v-194h304v-97h-304v-215h332v-97h-449zM261 912h85l115 -115l-54 -52l-104 101l-101 -101l-54 52z" />
    <glyph glyph-name="Edieresis" unicode="&#xcb;" horiz-adv-x="575" 
d="M343 830q0 27 18 45t47 18t47 -18t18 -45t-18 -45t-47 -18t-47 18t-18 45zM139 830q0 27 18 45t47 18t47 -18t18 -45t-18 -45t-47 -18t-47 18t-18 45zM81 0v700h443v-97h-326v-194h304v-97h-304v-215h332v-97h-449z" />
    <glyph glyph-name="Igrave" unicode="&#xcc;" horiz-adv-x="281" 
d="M81 700h118v-700h-118v700zM25 857l50 82l189 -131l-37 -60z" />
    <glyph glyph-name="Iacute" unicode="&#xcd;" horiz-adv-x="281" 
d="M81 700h118v-700h-118v700zM255 857l-202 -109l-37 60l189 131z" />
    <glyph glyph-name="Icircumflex" unicode="&#xce;" horiz-adv-x="281" 
d="M81 700h118v-700h-118v700zM97 912h85l115 -115l-54 -52l-104 101l-101 -101l-54 52z" />
    <glyph glyph-name="Idieresis" unicode="&#xcf;" horiz-adv-x="281" 
d="M81 700h118v-700h-118v700zM177 830q0 27 18 45t47 18t47 -18t18 -45t-18 -45t-47 -18t-47 18t-18 45zM-27 830q0 27 18 45t47 18t47 -18t18 -45t-18 -45t-47 -18t-47 18t-18 45z" />
    <glyph glyph-name="Eth" unicode="&#xd0;" horiz-adv-x="726" 
d="M100 321h-81v85h81v294h248q77 0 138 -23.5t104 -68.5t65.5 -110t22.5 -148t-22.5 -148t-65.5 -110t-104 -68.5t-138 -23.5h-248v321zM556 350q0 57 -12.5 103.5t-39 80t-67.5 51.5t-98 18h-120v-197h165v-85h-165v-224h120q57 0 98 18t67.5 51.5t39 80t12.5 103.5z" />
    <glyph glyph-name="Ntilde" unicode="&#xd1;" horiz-adv-x="726" 
d="M289 892q27 0 46 -8.5t35 -18t30 -18t31 -8.5q16 0 26.5 7.5t18.5 16.5q8 11 14 25l56 -49q-11 -21 -28 -37q-14 -14 -36.5 -25.5t-54.5 -11.5q-26 0 -45 8t-34.5 18t-30 18t-31.5 8t-28 -7.5t-18 -16.5q-8 -11 -13 -23l-56 49q10 20 27 36q14 14 36.5 25.5t54.5 11.5z
M81 700h124q72 -114 136 -214q27 -43 55 -87t53.5 -84.5t46.5 -74.5t35 -55h3v515h111v-700h-124q-71 112 -134 211q-27 42 -55 86.5t-53.5 85t-47 75t-36.5 57.5h-3v-515h-111v700z" />
    <glyph glyph-name="Ograve" unicode="&#xd2;" horiz-adv-x="749" 
d="M257 857l50 82l189 -131l-37 -60zM48 350q0 84 23.5 151.5t66.5 114.5t103 72t133 25t133.5 -25t103.5 -72t66.5 -114.5t23.5 -151.5t-23.5 -151.5t-66.5 -114.5t-103.5 -72t-133.5 -25t-133 25t-103 72t-66.5 114.5t-23.5 151.5zM170 350q0 -57 12.5 -106t38 -84.5
t64 -55.5t89.5 -20q52 0 90.5 20t64 55.5t38 84.5t12.5 106t-12.5 106t-38 84.5t-64 55.5t-90.5 20q-51 0 -89.5 -20t-64 -55.5t-38 -84.5t-12.5 -106z" />
    <glyph glyph-name="Oacute" unicode="&#xd3;" horiz-adv-x="749" 
d="M492 857l-202 -109l-37 60l189 131zM48 350q0 84 23.5 151.5t66.5 114.5t103 72t133 25t133.5 -25t103.5 -72t66.5 -114.5t23.5 -151.5t-23.5 -151.5t-66.5 -114.5t-103.5 -72t-133.5 -25t-133 25t-103 72t-66.5 114.5t-23.5 151.5zM170 350q0 -57 12.5 -106t38 -84.5
t64 -55.5t89.5 -20q52 0 90.5 20t64 55.5t38 84.5t12.5 106t-12.5 106t-38 84.5t-64 55.5t-90.5 20q-51 0 -89.5 -20t-64 -55.5t-38 -84.5t-12.5 -106z" />
    <glyph glyph-name="Ocircumflex" unicode="&#xd4;" horiz-adv-x="749" 
d="M48 350q0 84 23.5 151.5t66.5 114.5t103 72t133 25t133.5 -25t103.5 -72t66.5 -114.5t23.5 -151.5t-23.5 -151.5t-66.5 -114.5t-103.5 -72t-133.5 -25t-133 25t-103 72t-66.5 114.5t-23.5 151.5zM170 350q0 -57 12.5 -106t38 -84.5t64 -55.5t89.5 -20q52 0 90.5 20
t64 55.5t38 84.5t12.5 106t-12.5 106t-38 84.5t-64 55.5t-90.5 20q-51 0 -89.5 -20t-64 -55.5t-38 -84.5t-12.5 -106zM332 912h85l115 -115l-54 -52l-104 101l-101 -101l-54 52z" />
    <glyph glyph-name="Otilde" unicode="&#xd5;" horiz-adv-x="749" 
d="M305 892q27 0 46 -8.5t35 -18t30 -18t31 -8.5q16 0 26.5 7.5t18.5 16.5q8 11 14 25l56 -49q-11 -21 -28 -37q-14 -14 -36.5 -25.5t-54.5 -11.5q-26 0 -45 8t-34.5 18t-30 18t-31.5 8t-28 -7.5t-18 -16.5q-8 -11 -13 -23l-56 49q10 20 27 36q14 14 36.5 25.5t54.5 11.5z
M48 350q0 84 23.5 151.5t66.5 114.5t103 72t133 25t133.5 -25t103.5 -72t66.5 -114.5t23.5 -151.5t-23.5 -151.5t-66.5 -114.5t-103.5 -72t-133.5 -25t-133 25t-103 72t-66.5 114.5t-23.5 151.5zM170 350q0 -57 12.5 -106t38 -84.5t64 -55.5t89.5 -20q52 0 90.5 20t64 55.5
t38 84.5t12.5 106t-12.5 106t-38 84.5t-64 55.5t-90.5 20q-51 0 -89.5 -20t-64 -55.5t-38 -84.5t-12.5 -106z" />
    <glyph glyph-name="Odieresis" unicode="&#xd6;" horiz-adv-x="749" 
d="M412 830q0 27 18 45t47 18t47 -18t18 -45t-18 -45t-47 -18t-47 18t-18 45zM208 830q0 27 18 45t47 18t47 -18t18 -45t-18 -45t-47 -18t-47 18t-18 45zM48 350q0 84 23.5 151.5t66.5 114.5t103 72t133 25t133.5 -25t103.5 -72t66.5 -114.5t23.5 -151.5t-23.5 -151.5
t-66.5 -114.5t-103.5 -72t-133.5 -25t-133 25t-103 72t-66.5 114.5t-23.5 151.5zM170 350q0 -57 12.5 -106t38 -84.5t64 -55.5t89.5 -20q52 0 90.5 20t64 55.5t38 84.5t12.5 106t-12.5 106t-38 84.5t-64 55.5t-90.5 20q-51 0 -89.5 -20t-64 -55.5t-38 -84.5t-12.5 -106z" />
    <glyph glyph-name="multiply" unicode="&#xd7;" 
d="M465 94l-166 165l-164 -165l-65 64l165 165l-165 166l64 65l165 -166l166 166l65 -65l-166 -166l165 -165z" />
    <glyph glyph-name="Oslash" unicode="&#xd8;" horiz-adv-x="749" 
d="M48 350q0 84 23.5 151.5t66.5 114.5t103 72t133 25q45 0 85.5 -10t75.5 -29l53 85l66 -39l-57 -91q49 -47 76.5 -117.5t27.5 -161.5q0 -84 -23.5 -151.5t-66.5 -114.5t-103.5 -72t-133.5 -25q-89 0 -158 37l-55 -87l-66 39l58 92q-50 48 -77.5 119t-27.5 163zM170 350
q0 -55 11 -101.5t34 -81.5l265 420q-22 14 -48 21.5t-58 7.5q-51 0 -89.5 -20t-64 -55.5t-38 -84.5t-12.5 -106zM579 350q0 54 -11 99.5t-33 80.5l-264 -419q42 -27 103 -27q52 0 90.5 20t64 55.5t38 84.5t12.5 106z" />
    <glyph glyph-name="Ugrave" unicode="&#xd9;" horiz-adv-x="688" 
d="M215 857l50 82l189 -131l-37 -60zM344 -13q-138 0 -202.5 69t-64.5 197v447h118v-448q0 -34 8 -64.5t25.5 -53.5t46 -36.5t69.5 -13.5t69.5 13.5t46 36.5t25.5 53.5t8 64.5v448h118v-447q0 -128 -64.5 -197t-202.5 -69z" />
    <glyph glyph-name="Uacute" unicode="&#xda;" horiz-adv-x="688" 
d="M472 857l-202 -109l-37 60l189 131zM344 -13q-138 0 -202.5 69t-64.5 197v447h118v-448q0 -34 8 -64.5t25.5 -53.5t46 -36.5t69.5 -13.5t69.5 13.5t46 36.5t25.5 53.5t8 64.5v448h118v-447q0 -128 -64.5 -197t-202.5 -69z" />
    <glyph glyph-name="Ucircumflex" unicode="&#xdb;" horiz-adv-x="688" 
d="M344 -13q-138 0 -202.5 69t-64.5 197v447h118v-448q0 -34 8 -64.5t25.5 -53.5t46 -36.5t69.5 -13.5t69.5 13.5t46 36.5t25.5 53.5t8 64.5v448h118v-447q0 -128 -64.5 -197t-202.5 -69zM301 912h85l115 -115l-54 -52l-104 101l-101 -101l-54 52z" />
    <glyph glyph-name="Udieresis" unicode="&#xdc;" horiz-adv-x="688" 
d="M381 830q0 27 18 45t47 18t47 -18t18 -45t-18 -45t-47 -18t-47 18t-18 45zM177 830q0 27 18 45t47 18t47 -18t18 -45t-18 -45t-47 -18t-47 18t-18 45zM344 -13q-138 0 -202.5 69t-64.5 197v447h118v-448q0 -34 8 -64.5t25.5 -53.5t46 -36.5t69.5 -13.5t69.5 13.5t46 36.5
t25.5 53.5t8 64.5v448h118v-447q0 -128 -64.5 -197t-202.5 -69z" />
    <glyph glyph-name="Yacute" unicode="&#xdd;" horiz-adv-x="658" 
d="M269 300l-259 400h136l186 -292l186 292h130l-260 -400v-300h-119v300zM474 857l-202 -109l-37 60l189 131z" />
    <glyph glyph-name="Thorn" unicode="&#xde;" horiz-adv-x="622" 
d="M81 0v700h118v-120h136q58 0 105.5 -12t81.5 -38t52 -66.5t18 -97.5q0 -56 -19 -97.5t-53 -68.5t-81 -40.5t-104 -13.5h-136v-146h-118zM472 366q0 66 -38 92t-117 26h-118v-241h118q78 0 116.5 29t38.5 94z" />
    <glyph glyph-name="germandbls" unicode="&#xdf;" horiz-adv-x="575" 
d="M72 484q0 45 11 86.5t36.5 73t66.5 50.5t101 19q53 0 93.5 -15t67.5 -41t40.5 -60t13.5 -72q0 -55 -27 -95t-73 -57q57 -14 95.5 -59.5t38.5 -117.5q0 -48 -16.5 -87t-45 -66t-67.5 -41.5t-85 -14.5q-26 0 -46 4.5t-37 11.5v90q15 -8 36.5 -12.5t38.5 -4.5q49 0 78 32.5
t29 89.5t-35 93t-100 36q-5 0 -9.5 -0.5t-8.5 -0.5h-8v86q4 -1 8 -1h17q52 0 78 32.5t26 78.5q0 50 -28 76.5t-73 26.5q-29 0 -48.5 -11t-31.5 -30t-17.5 -45t-5.5 -55v-484h-113v484z" />
    <glyph glyph-name="agrave" unicode="&#xe0;" horiz-adv-x="518" 
d="M356 0q-4 7 -7 24t-3 37q-23 -33 -58.5 -53.5t-92.5 -20.5q-72 0 -115.5 36t-43.5 99q0 48 25.5 79.5t68 50.5t98 27t116.5 8v30q0 38 -21 61.5t-66 23.5t-67 -22t-23 -52l-110 16q4 35 21.5 61.5t45 44.5t63 27.5t74.5 9.5q43 0 78.5 -11t61 -32.5t40 -53.5t14.5 -75
v-250q0 -22 3 -36.5t8 -28.5h-110zM226 71q22 0 43.5 7t38 20.5t26.5 32.5t10 44v39q-88 0 -142 -19t-54 -66q0 -29 22 -43.5t56 -14.5zM142 641l50 82l189 -131l-37 -60z" />
    <glyph glyph-name="aacute" unicode="&#xe1;" horiz-adv-x="518" 
d="M356 0q-4 7 -7 24t-3 37q-23 -33 -58.5 -53.5t-92.5 -20.5q-72 0 -115.5 36t-43.5 99q0 48 25.5 79.5t68 50.5t98 27t116.5 8v30q0 38 -21 61.5t-66 23.5t-67 -22t-23 -52l-110 16q4 35 21.5 61.5t45 44.5t63 27.5t74.5 9.5q43 0 78.5 -11t61 -32.5t40 -53.5t14.5 -75
v-250q0 -22 3 -36.5t8 -28.5h-110zM226 71q22 0 43.5 7t38 20.5t26.5 32.5t10 44v39q-88 0 -142 -19t-54 -66q0 -29 22 -43.5t56 -14.5zM377 641l-202 -109l-37 60l189 131z" />
    <glyph glyph-name="acircumflex" unicode="&#xe2;" horiz-adv-x="518" 
d="M356 0q-4 7 -7 24t-3 37q-23 -33 -58.5 -53.5t-92.5 -20.5q-72 0 -115.5 36t-43.5 99q0 48 25.5 79.5t68 50.5t98 27t116.5 8v30q0 38 -21 61.5t-66 23.5t-67 -22t-23 -52l-110 16q4 35 21.5 61.5t45 44.5t63 27.5t74.5 9.5q43 0 78.5 -11t61 -32.5t40 -53.5t14.5 -75
v-250q0 -22 3 -36.5t8 -28.5h-110zM226 71q22 0 43.5 7t38 20.5t26.5 32.5t10 44v39q-88 0 -142 -19t-54 -66q0 -29 22 -43.5t56 -14.5zM219 706h74l115 -128l-55 -50l-98 106l-98 -106l-53 50z" />
    <glyph glyph-name="atilde" unicode="&#xe3;" horiz-adv-x="518" 
d="M356 0q-4 7 -7 24t-3 37q-23 -33 -58.5 -53.5t-92.5 -20.5q-72 0 -115.5 36t-43.5 99q0 48 25.5 79.5t68 50.5t98 27t116.5 8v30q0 38 -21 61.5t-66 23.5t-67 -22t-23 -52l-110 16q4 35 21.5 61.5t45 44.5t63 27.5t74.5 9.5q43 0 78.5 -11t61 -32.5t40 -53.5t14.5 -75
v-250q0 -22 3 -36.5t8 -28.5h-110zM226 71q22 0 43.5 7t38 20.5t26.5 32.5t10 44v39q-88 0 -142 -19t-54 -66q0 -29 22 -43.5t56 -14.5zM191 675q27 0 46 -8.5t35 -18t30 -18t31 -8.5q16 0 26.5 7.5t18.5 16.5q8 11 14 25l56 -49q-11 -21 -28 -37q-14 -14 -36.5 -25.5
t-54.5 -11.5q-26 0 -45 8.5t-34.5 18t-30 18t-31.5 8.5t-28 -7.5t-18 -16.5q-8 -11 -13 -24l-56 49q10 20 27 36q14 14 36.5 25.5t54.5 11.5z" />
    <glyph glyph-name="adieresis" unicode="&#xe4;" horiz-adv-x="518" 
d="M356 0q-4 7 -7 24t-3 37q-23 -33 -58.5 -53.5t-92.5 -20.5q-72 0 -115.5 36t-43.5 99q0 48 25.5 79.5t68 50.5t98 27t116.5 8v30q0 38 -21 61.5t-66 23.5t-67 -22t-23 -52l-110 16q4 35 21.5 61.5t45 44.5t63 27.5t74.5 9.5q43 0 78.5 -11t61 -32.5t40 -53.5t14.5 -75
v-250q0 -22 3 -36.5t8 -28.5h-110zM226 71q22 0 43.5 7t38 20.5t26.5 32.5t10 44v39q-88 0 -142 -19t-54 -66q0 -29 22 -43.5t56 -14.5zM294 607q0 28 18 45.5t47 17.5t47 -17.5t18 -45.5q0 -26 -18 -44.5t-47 -18.5t-47 18.5t-18 44.5zM90 607q0 28 18 45.5t47 17.5
t47 -17.5t18 -45.5q0 -26 -18 -44.5t-47 -18.5t-47 18.5t-18 44.5z" />
    <glyph glyph-name="aring" unicode="&#xe5;" horiz-adv-x="518" 
d="M356 0q-4 7 -7 24t-3 37q-23 -33 -58.5 -53.5t-92.5 -20.5q-72 0 -115.5 36t-43.5 99q0 48 25.5 79.5t68 50.5t98 27t116.5 8v30q0 38 -21 61.5t-66 23.5t-67 -22t-23 -52l-110 16q4 35 21.5 61.5t45 44.5t63 27.5t74.5 9.5q43 0 78.5 -11t61 -32.5t40 -53.5t14.5 -75
v-250q0 -22 3 -36.5t8 -28.5h-110zM226 71q22 0 43.5 7t38 20.5t26.5 32.5t10 44v39q-88 0 -142 -19t-54 -66q0 -29 22 -43.5t56 -14.5zM154 629q0 44 29 72t77 28t77 -28t29 -72q0 -42 -29 -71t-77 -29t-77 29t-29 71zM214 629q0 -18 13 -32t33 -14t33 14t13 32
q0 20 -13 32.5t-33 12.5t-33 -12.5t-13 -32.5z" />
    <glyph glyph-name="ae" unicode="&#xe6;" horiz-adv-x="820" 
d="M771 104q-28 -54 -77 -85.5t-124 -31.5q-60 0 -105 22.5t-74 64.5q-31 -42 -74.5 -64.5t-109.5 -22.5q-81 0 -126 36.5t-45 99.5q0 46 25.5 77.5t68 51t98 27.5t116.5 8v30q0 38 -21 61.5t-66 23.5t-67 -22t-23 -52l-110 16q4 35 21.5 61.5t45 44.5t62.5 27.5t74 9.5
q50 0 89 -16t62 -48q29 30 68 47t87 17q56 0 98 -20t69.5 -53.5t41 -78t13.5 -92.5v-30h-339q1 -27 8 -52.5t21 -45t36.5 -31.5t54.5 -12q42 0 66 20t38 51zM565 404q-51 0 -80 -33t-34 -85h223q-2 57 -32.5 87.5t-76.5 30.5zM226 71q22 0 43.5 7t38 20t26.5 32t10 44v39
q-88 0 -142 -19t-54 -65q0 -29 22 -43.5t56 -14.5z" />
    <glyph glyph-name="ccedilla" unicode="&#xe7;" horiz-adv-x="503" 
d="M199 -154q8 -8 21.5 -14t31.5 -6q20 0 30.5 11t10.5 29t-11 27t-28 9q-25 0 -39 -14l-30 32l32 73q-83 17 -130.5 81.5t-47.5 162.5q0 56 16.5 102t47 79t74 51t98.5 18q41 0 72.5 -10t55.5 -27.5t40.5 -41.5t28.5 -52l-103 -39q-10 38 -34.5 59.5t-64.5 21.5
q-30 0 -51.5 -13.5t-35.5 -35.5t-20.5 -51.5t-6.5 -60.5t6.5 -59.5t20.5 -51t35.5 -36t52.5 -13.5q42 0 63.5 22t34.5 54l105 -40q-14 -26 -32.5 -49t-42.5 -40t-55 -27t-71 -10h-4l-17 -40q5 2 12.5 4t16.5 2q34 0 58 -21.5t24 -63.5q0 -47 -32 -72.5t-79 -25.5
q-34 0 -55 10.5t-31 20.5z" />
    <glyph glyph-name="egrave" unicode="&#xe8;" horiz-adv-x="525" 
d="M476 104q-28 -54 -77.5 -85.5t-124.5 -31.5q-54 0 -97.5 18t-74 51t-47 79t-16.5 103q0 56 16.5 102t47 78.5t73 50.5t94.5 18q57 0 99 -20t69.5 -53.5t41 -78t13.5 -92.5v-32h-338q1 -27 8 -52t21 -44.5t35.5 -31t53.5 -11.5q44 0 67.5 20t37.5 51zM269 404
q-51 0 -79 -33t-33 -85h222q-2 57 -32 87.5t-78 30.5zM143 641l50 82l189 -131l-37 -60z" />
    <glyph glyph-name="eacute" unicode="&#xe9;" horiz-adv-x="525" 
d="M386 641l-202 -109l-37 60l189 131zM476 104q-28 -54 -77.5 -85.5t-124.5 -31.5q-54 0 -97.5 18t-74 51t-47 79t-16.5 103q0 56 16.5 102t47 78.5t73 50.5t94.5 18q57 0 99 -20t69.5 -53.5t41 -78t13.5 -92.5v-32h-338q1 -27 8 -52t21 -44.5t35.5 -31t53.5 -11.5
q44 0 67.5 20t37.5 51zM269 404q-51 0 -79 -33t-33 -85h222q-2 57 -32 87.5t-78 30.5z" />
    <glyph glyph-name="ecircumflex" unicode="&#xea;" horiz-adv-x="525" 
d="M230 706h74l115 -128l-55 -50l-98 106l-98 -106l-53 50zM476 104q-28 -54 -77.5 -85.5t-124.5 -31.5q-54 0 -97.5 18t-74 51t-47 79t-16.5 103q0 56 16.5 102t47 78.5t73 50.5t94.5 18q57 0 99 -20t69.5 -53.5t41 -78t13.5 -92.5v-32h-338q1 -27 8 -52t21 -44.5t35.5 -31
t53.5 -11.5q44 0 67.5 20t37.5 51zM269 404q-51 0 -79 -33t-33 -85h222q-2 57 -32 87.5t-78 30.5z" />
    <glyph glyph-name="edieresis" unicode="&#xeb;" horiz-adv-x="525" 
d="M304 607q0 28 18 45.5t47 17.5t47 -17.5t18 -45.5q0 -26 -18 -44.5t-47 -18.5t-47 18.5t-18 44.5zM100 607q0 28 18 45.5t47 17.5t47 -17.5t18 -45.5q0 -26 -18 -44.5t-47 -18.5t-47 18.5t-18 44.5zM476 104q-28 -54 -77.5 -85.5t-124.5 -31.5q-54 0 -97.5 18t-74 51
t-47 79t-16.5 103q0 56 16.5 102t47 78.5t73 50.5t94.5 18q57 0 99 -20t69.5 -53.5t41 -78t13.5 -92.5v-32h-338q1 -27 8 -52t21 -44.5t35.5 -31t53.5 -11.5q44 0 67.5 20t37.5 51zM269 404q-51 0 -79 -33t-33 -85h222q-2 57 -32 87.5t-78 30.5z" />
    <glyph glyph-name="igrave" unicode="&#xec;" horiz-adv-x="258" 
d="M72 474h114v-474h-114v474zM11 641l50 82l189 -131l-37 -60z" />
    <glyph glyph-name="iacute" unicode="&#xed;" horiz-adv-x="258" 
d="M247 641l-202 -109l-37 60l189 131zM72 474h114v-474h-114v474z" />
    <glyph glyph-name="icircumflex" unicode="&#xee;" horiz-adv-x="258" 
d="M91 706h74l115 -128l-55 -50l-98 106l-98 -106l-53 50zM72 474h114v-474h-114v474z" />
    <glyph glyph-name="idieresis" unicode="&#xef;" horiz-adv-x="258" 
d="M166 607q0 28 18 45.5t47 17.5t47 -17.5t18 -45.5q0 -26 -18 -44.5t-47 -18.5t-47 18.5t-18 44.5zM-38 607q0 28 18 45.5t47 17.5t47 -17.5t18 -45.5q0 -26 -18 -44.5t-47 -18.5t-47 18.5t-18 44.5zM72 474h114v-474h-114v474z" />
    <glyph glyph-name="eth" unicode="&#xf0;" horiz-adv-x="554" 
d="M165 585l73 40q-45 34 -102 52l59 61q69 -19 128 -65l79 44l34 -61l-59 -33q63 -69 100.5 -163t37.5 -203q0 -130 -61.5 -200t-174.5 -70q-55 0 -99.5 17t-75.5 49.5t-48 78.5t-17 104q0 57 16.5 102.5t46 77.5t69 49t85.5 17q40 0 72.5 -14t52.5 -39q-32 86 -88 146
l-93 -52zM156 235q0 -34 7.5 -63.5t22.5 -51t37.5 -34t52.5 -12.5q31 0 54.5 12.5t39 34t23 51t7.5 63.5q0 73 -31.5 116.5t-92.5 43.5q-30 0 -52.5 -12.5t-37.5 -34.5t-22.5 -51t-7.5 -62z" />
    <glyph glyph-name="ntilde" unicode="&#xf1;" horiz-adv-x="565" 
d="M72 474h109v-72q21 37 57 61t92 24q34 0 65 -10t53.5 -30t36 -50t13.5 -70v-327h-114v300q0 25 -7.5 43t-20 29.5t-28.5 16.5t-32 5q-21 0 -41 -9t-35.5 -27t-24.5 -45t-9 -62v-251h-114v474zM222 675q27 0 46 -8.5t35 -18t30 -18t31 -8.5q16 0 26.5 7.5t18.5 16.5
q8 11 14 25l56 -49q-11 -21 -28 -37q-14 -14 -36.5 -25.5t-54.5 -11.5q-26 0 -45 8.5t-34.5 18t-30 18t-31.5 8.5t-28 -7.5t-18 -16.5q-8 -11 -13 -24l-56 49q10 20 27 36q14 14 36.5 25.5t54.5 11.5z" />
    <glyph glyph-name="ograve" unicode="&#xf2;" horiz-adv-x="553" 
d="M276 487q55 0 99 -18t75 -51t47.5 -79t16.5 -102t-16.5 -102t-47.5 -79t-75 -51t-99 -18t-99 18t-74.5 51t-47 79t-16.5 102t16.5 102t47 79t74.5 51t99 18zM276 74q31 0 54 13t38 35t22.5 51.5t7.5 63.5t-7.5 63.5t-22.5 51.5t-38 35t-54 13t-53.5 -13t-37.5 -35
t-22.5 -51.5t-7.5 -63.5t7.5 -63.5t22.5 -51.5t37.5 -35t53.5 -13zM160 641l50 82l189 -131l-37 -60z" />
    <glyph glyph-name="oacute" unicode="&#xf3;" horiz-adv-x="553" 
d="M397 641l-202 -109l-37 60l189 131zM276 487q55 0 99 -18t75 -51t47.5 -79t16.5 -102t-16.5 -102t-47.5 -79t-75 -51t-99 -18t-99 18t-74.5 51t-47 79t-16.5 102t16.5 102t47 79t74.5 51t99 18zM276 74q31 0 54 13t38 35t22.5 51.5t7.5 63.5t-7.5 63.5t-22.5 51.5t-38 35
t-54 13t-53.5 -13t-37.5 -35t-22.5 -51.5t-7.5 -63.5t7.5 -63.5t22.5 -51.5t37.5 -35t53.5 -13z" />
    <glyph glyph-name="ocircumflex" unicode="&#xf4;" horiz-adv-x="553" 
d="M240 706h74l115 -128l-55 -50l-98 106l-98 -106l-53 50zM276 487q55 0 99 -18t75 -51t47.5 -79t16.5 -102t-16.5 -102t-47.5 -79t-75 -51t-99 -18t-99 18t-74.5 51t-47 79t-16.5 102t16.5 102t47 79t74.5 51t99 18zM276 74q31 0 54 13t38 35t22.5 51.5t7.5 63.5
t-7.5 63.5t-22.5 51.5t-38 35t-54 13t-53.5 -13t-37.5 -35t-22.5 -51.5t-7.5 -63.5t7.5 -63.5t22.5 -51.5t37.5 -35t53.5 -13z" />
    <glyph glyph-name="otilde" unicode="&#xf5;" horiz-adv-x="553" 
d="M276 487q55 0 99 -18t75 -51t47.5 -79t16.5 -102t-16.5 -102t-47.5 -79t-75 -51t-99 -18t-99 18t-74.5 51t-47 79t-16.5 102t16.5 102t47 79t74.5 51t99 18zM276 74q31 0 54 13t38 35t22.5 51.5t7.5 63.5t-7.5 63.5t-22.5 51.5t-38 35t-54 13t-53.5 -13t-37.5 -35
t-22.5 -51.5t-7.5 -63.5t7.5 -63.5t22.5 -51.5t37.5 -35t53.5 -13zM207 675q27 0 46 -8.5t35 -18t30 -18t31 -8.5q16 0 26.5 7.5t18.5 16.5q8 11 14 25l56 -49q-11 -21 -28 -37q-14 -14 -36.5 -25.5t-54.5 -11.5q-26 0 -45 8.5t-34.5 18t-30 18t-31.5 8.5t-28 -7.5
t-18 -16.5q-8 -11 -13 -24l-56 49q10 20 27 36q14 14 36.5 25.5t54.5 11.5z" />
    <glyph glyph-name="odieresis" unicode="&#xf6;" horiz-adv-x="553" 
d="M313 607q0 28 18 45.5t47 17.5t47 -17.5t18 -45.5q0 -26 -18 -44.5t-47 -18.5t-47 18.5t-18 44.5zM109 607q0 28 18 45.5t47 17.5t47 -17.5t18 -45.5q0 -26 -18 -44.5t-47 -18.5t-47 18.5t-18 44.5zM276 487q55 0 99 -18t75 -51t47.5 -79t16.5 -102t-16.5 -102t-47.5 -79
t-75 -51t-99 -18t-99 18t-74.5 51t-47 79t-16.5 102t16.5 102t47 79t74.5 51t99 18zM276 74q31 0 54 13t38 35t22.5 51.5t7.5 63.5t-7.5 63.5t-22.5 51.5t-38 35t-54 13t-53.5 -13t-37.5 -35t-22.5 -51.5t-7.5 -63.5t7.5 -63.5t22.5 -51.5t37.5 -35t53.5 -13z" />
    <glyph glyph-name="divide" unicode="&#xf7;" 
d="M228 517q0 31 20 50.5t52 19.5t52 -19.5t20 -50.5t-20 -50.5t-52 -19.5t-52 19.5t-20 50.5zM52 370h496v-91h-496v91zM228 131q0 31 20 50.5t52 19.5t52 -19.5t20 -50.5t-20 -50.5t-52 -19.5t-52 19.5t-20 50.5z" />
    <glyph glyph-name="oslash" unicode="&#xf8;" horiz-adv-x="553" 
d="M276 487q61 0 110 -23l45 71l58 -35l-47 -74q35 -33 53.5 -81t18.5 -108q0 -56 -16.5 -102t-47.5 -79t-75 -51t-99 -18q-56 0 -102 20l-48 -75l-58 34l49 76q-38 33 -58 82.5t-20 112.5q0 56 16.5 102t47 79t74.5 51t99 18zM155 237q0 -59 21 -101l159 248q-27 16 -59 16
q-31 0 -53.5 -13t-37.5 -35t-22.5 -51.5t-7.5 -63.5zM276 74q31 0 54 13t38 35t22.5 51.5t7.5 63.5q0 52 -18 93l-156 -244q22 -12 52 -12z" />
    <glyph glyph-name="ugrave" unicode="&#xf9;" horiz-adv-x="560" 
d="M488 0h-108v71q-22 -37 -57 -60.5t-90 -23.5q-34 0 -64 10t-52.5 30t-35.5 49.5t-13 69.5v328h113v-300q0 -51 26.5 -72.5t59.5 -21.5q21 0 40.5 9t34.5 27t24 45t9 62v251h113v-474zM148 641l50 82l189 -131l-37 -60z" />
    <glyph glyph-name="uacute" unicode="&#xfa;" horiz-adv-x="560" 
d="M400 641l-202 -109l-37 60l189 131zM488 0h-108v71q-22 -37 -57 -60.5t-90 -23.5q-34 0 -64 10t-52.5 30t-35.5 49.5t-13 69.5v328h113v-300q0 -51 26.5 -72.5t59.5 -21.5q21 0 40.5 9t34.5 27t24 45t9 62v251h113v-474z" />
    <glyph glyph-name="ucircumflex" unicode="&#xfb;" horiz-adv-x="560" 
d="M240 706h74l115 -128l-55 -50l-98 106l-98 -106l-53 50zM488 0h-108v71q-22 -37 -57 -60.5t-90 -23.5q-34 0 -64 10t-52.5 30t-35.5 49.5t-13 69.5v328h113v-300q0 -51 26.5 -72.5t59.5 -21.5q21 0 40.5 9t34.5 27t24 45t9 62v251h113v-474z" />
    <glyph glyph-name="udieresis" unicode="&#xfc;" horiz-adv-x="560" 
d="M314 607q0 28 18 45.5t47 17.5t47 -17.5t18 -45.5q0 -26 -18 -44.5t-47 -18.5t-47 18.5t-18 44.5zM110 607q0 28 18 45.5t47 17.5t47 -17.5t18 -45.5q0 -26 -18 -44.5t-47 -18.5t-47 18.5t-18 44.5zM488 0h-108v71q-22 -37 -57 -60.5t-90 -23.5q-34 0 -64 10t-52.5 30
t-35.5 49.5t-13 69.5v328h113v-300q0 -51 26.5 -72.5t59.5 -21.5q21 0 40.5 9t34.5 27t24 45t9 62v251h113v-474z" />
    <glyph glyph-name="yacute" unicode="&#xfd;" horiz-adv-x="498" 
d="M120 -200l78 199l-186 475h116q29 -82 55 -152l22 -60t20.5 -56t16.5 -47t11 -31h2q3 10 10 31t16 47t20 56l22 60q26 70 55 152h108l-255 -674h-111zM388 641l-202 -109l-37 60l189 131z" />
    <glyph glyph-name="thorn" unicode="&#xfe;" horiz-adv-x="588" 
d="M549 237q0 -58 -16.5 -104t-45 -78.5t-67.5 -50t-85 -17.5q-58 0 -93.5 22t-55.5 50v-259h-114v900h114v-287q21 30 58 52t91 22q46 0 85 -17.5t67.5 -50t45 -78.5t16.5 -104zM433 237q0 34 -8.5 63.5t-24.5 51t-38.5 33.5t-50.5 12q-21 0 -43.5 -7.5t-40.5 -24
t-30 -42.5t-12 -63v-46q0 -37 12 -63t30 -42.5t40.5 -24t43.5 -7.5q28 0 50.5 12t38.5 33.5t24.5 50.5t8.5 64z" />
    <glyph glyph-name="ydieresis" unicode="&#xff;" horiz-adv-x="498" 
d="M120 -200l78 199l-186 475h116q29 -82 55 -152l22 -60t20.5 -56t16.5 -47t11 -31h2q3 10 10 31t16 47t20 56l22 60q26 70 55 152h108l-255 -674h-111zM289 607q0 28 18 45.5t47 17.5t47 -17.5t18 -45.5q0 -26 -18 -44.5t-47 -18.5t-47 18.5t-18 44.5zM85 607
q0 28 18 45.5t47 17.5t47 -17.5t18 -45.5q0 -26 -18 -44.5t-47 -18.5t-47 18.5t-18 44.5z" />
    <glyph glyph-name="Amacron" unicode="&#x100;" horiz-adv-x="661" 
d="M644 0h-123l-62 176h-264l-62 -176h-116l254 700h120zM325 562q-3 -10 -8.5 -27.5t-13 -40l-16 -48t-17.5 -50.5q-20 -59 -43 -127h200q-24 68 -44 127q-9 25 -17.5 50.5l-16 48t-13.5 40t-9 27.5h-2zM194 850h273v-75h-273v75z" />
    <glyph glyph-name="amacron" unicode="&#x101;" horiz-adv-x="518" 
d="M356 0q-4 7 -7 24t-3 37q-23 -33 -58.5 -53.5t-92.5 -20.5q-72 0 -115.5 36t-43.5 99q0 48 25.5 79.5t68 50.5t98 27t116.5 8v30q0 38 -21 61.5t-66 23.5t-67 -22t-23 -52l-110 16q4 35 21.5 61.5t45 44.5t63 27.5t74.5 9.5q43 0 78.5 -11t61 -32.5t40 -53.5t14.5 -75
v-250q0 -22 3 -36.5t8 -28.5h-110zM226 71q22 0 43.5 7t38 20.5t26.5 32.5t10 44v39q-88 0 -142 -19t-54 -66q0 -29 22 -43.5t56 -14.5zM122 630h273v-74h-273v74z" />
    <glyph glyph-name="Abreve" unicode="&#x102;" horiz-adv-x="661" 
d="M644 0h-123l-62 176h-264l-62 -176h-116l254 700h120zM325 562q-3 -10 -8.5 -27.5t-13 -40l-16 -48t-17.5 -50.5q-20 -59 -43 -127h200q-24 68 -44 127q-9 25 -17.5 50.5l-16 48t-13.5 40t-9 27.5h-2zM251 901q5 -29 26 -49.5t53 -20.5t53 20.5t26 49.5l83 -24
q-12 -54 -55.5 -86.5t-106.5 -32.5t-106.5 32.5t-55.5 86.5z" />
    <glyph glyph-name="abreve" unicode="&#x103;" horiz-adv-x="518" 
d="M356 0q-4 7 -7 24t-3 37q-23 -33 -58.5 -53.5t-92.5 -20.5q-72 0 -115.5 36t-43.5 99q0 48 25.5 79.5t68 50.5t98 27t116.5 8v30q0 38 -21 61.5t-66 23.5t-67 -22t-23 -52l-110 16q4 35 21.5 61.5t45 44.5t63 27.5t74.5 9.5q43 0 78.5 -11t61 -32.5t40 -53.5t14.5 -75
v-250q0 -22 3 -36.5t8 -28.5h-110zM226 71q22 0 43.5 7t38 20.5t26.5 32.5t10 44v39q-88 0 -142 -19t-54 -66q0 -29 22 -43.5t56 -14.5zM177 688q5 -29 26 -49.5t53 -20.5t53 20.5t26 49.5l83 -24q-12 -53 -55.5 -86t-106.5 -33t-106.5 33t-55.5 86z" />
    <glyph glyph-name="Aogonek" unicode="&#x104;" horiz-adv-x="661" 
d="M644 0q-54 -22 -80.5 -47.5t-26.5 -51.5q0 -16 11 -26t33 -10q16 0 29 8t29 31l46 -42q-26 -34 -55 -49t-64 -15q-21 0 -41 5t-35.5 16.5t-25 29t-9.5 42.5q0 38 18.5 62.5t47.5 46.5l-62 176h-264l-62 -176h-116l254 700h120zM325 562q-3 -10 -8.5 -27.5t-13 -40
l-16 -48t-17.5 -50.5q-20 -59 -43 -127h200q-24 68 -44 127q-9 25 -17.5 50.5l-16 48t-13.5 40t-9 27.5h-2z" />
    <glyph glyph-name="aogonek" unicode="&#x105;" horiz-adv-x="518" 
d="M466 0q-53 -28 -77 -52t-24 -47q0 -16 10.5 -26t32.5 -10q16 0 29.5 8t29.5 31l46 -42q-26 -34 -55 -49t-64 -15q-21 0 -41 5t-35.5 16.5t-25 29t-9.5 42.5q0 38 20.5 62.5t52.5 46.5q-4 7 -7 24t-3 37q-23 -33 -58.5 -53.5t-92.5 -20.5q-72 0 -115.5 36t-43.5 99
q0 48 25.5 79.5t68 50.5t98 27t116.5 8v30q0 38 -21 61.5t-66 23.5t-67 -22t-23 -52l-110 16q4 35 21.5 61.5t45 44.5t63 27.5t74.5 9.5q43 0 78.5 -11t61 -32.5t40 -53.5t14.5 -75v-250q0 -22 3 -36.5t8 -28.5zM226 71q22 0 43.5 7t38 20.5t26.5 32.5t10 44v39
q-88 0 -142 -19t-54 -66q0 -29 22 -43.5t56 -14.5z" />
    <glyph glyph-name="Cacute" unicode="&#x106;" horiz-adv-x="688" 
d="M48 350q0 83 22.5 150t65 114.5t103.5 73t137 25.5q108 0 177.5 -49t103.5 -140l-113 -40q-20 59 -61 95t-110 36q-49 0 -87 -19t-63.5 -54t-39 -84t-13.5 -108t13 -107.5t39 -83.5t63.5 -54.5t87.5 -19.5q66 0 107 34t63 94l112 -41q-35 -86 -104 -135.5t-177 -49.5
q-76 0 -136.5 25.5t-102.5 72.5t-64.5 114.5t-22.5 150.5zM489 857l-202 -109l-37 60l189 131z" />
    <glyph glyph-name="cacute" unicode="&#x107;" horiz-adv-x="503" 
d="M385 641l-202 -109l-37 60l189 131zM39 237q0 56 16.5 102t47 79t74 51t98.5 18q41 0 72.5 -10t55.5 -27.5t40.5 -41.5t28.5 -52l-103 -39q-10 38 -34.5 59.5t-64.5 21.5q-30 0 -51.5 -13.5t-35.5 -35.5t-20.5 -51.5t-6.5 -60.5t6.5 -59.5t20.5 -51t35.5 -36t52.5 -13.5
q42 0 63.5 22t34.5 54l105 -40q-14 -26 -32.5 -49t-42.5 -40t-55 -27t-71 -10q-54 0 -97 18t-73.5 50.5t-47 78.5t-16.5 103z" />
    <glyph glyph-name="Ccircumflex" unicode="&#x108;" horiz-adv-x="688" 
d="M48 350q0 83 22.5 150t65 114.5t103.5 73t137 25.5q108 0 177.5 -49t103.5 -140l-113 -40q-20 59 -61 95t-110 36q-49 0 -87 -19t-63.5 -54t-39 -84t-13.5 -108t13 -107.5t39 -83.5t63.5 -54.5t87.5 -19.5q66 0 107 34t63 94l112 -41q-35 -86 -104 -135.5t-177 -49.5
q-76 0 -136.5 25.5t-102.5 72.5t-64.5 114.5t-22.5 150.5zM335 912h85l115 -115l-54 -52l-104 101l-101 -101l-54 52z" />
    <glyph glyph-name="ccircumflex" unicode="&#x109;" horiz-adv-x="503" 
d="M231 706h74l115 -128l-55 -50l-98 106l-98 -106l-53 50zM39 237q0 56 16.5 102t47 79t74 51t98.5 18q41 0 72.5 -10t55.5 -27.5t40.5 -41.5t28.5 -52l-103 -39q-10 38 -34.5 59.5t-64.5 21.5q-30 0 -51.5 -13.5t-35.5 -35.5t-20.5 -51.5t-6.5 -60.5t6.5 -59.5t20.5 -51
t35.5 -36t52.5 -13.5q42 0 63.5 22t34.5 54l105 -40q-14 -26 -32.5 -49t-42.5 -40t-55 -27t-71 -10q-54 0 -97 18t-73.5 50.5t-47 78.5t-16.5 103z" />
    <glyph glyph-name="Cdotaccent" unicode="&#x10a;" horiz-adv-x="688" 
d="M309 832q0 31 19.5 50.5t51.5 19.5t51.5 -19.5t19.5 -50.5q0 -30 -19.5 -49t-51.5 -19t-51.5 19t-19.5 49zM48 350q0 83 22.5 150t65 114.5t103.5 73t137 25.5q108 0 177.5 -49t103.5 -140l-113 -40q-20 59 -61 95t-110 36q-49 0 -87 -19t-63.5 -54t-39 -84t-13.5 -108
t13 -107.5t39 -83.5t63.5 -54.5t87.5 -19.5q66 0 107 34t63 94l112 -41q-35 -86 -104 -135.5t-177 -49.5q-76 0 -136.5 25.5t-102.5 72.5t-64.5 114.5t-22.5 150.5z" />
    <glyph glyph-name="cdotaccent" unicode="&#x10b;" horiz-adv-x="503" 
d="M39 237q0 56 16.5 102t47 79t74 51t98.5 18q41 0 72.5 -10t55.5 -27.5t40.5 -41.5t28.5 -52l-103 -39q-10 38 -34.5 59.5t-64.5 21.5q-30 0 -51.5 -13.5t-35.5 -35.5t-20.5 -51.5t-6.5 -60.5t6.5 -59.5t20.5 -51t35.5 -36t52.5 -13.5q42 0 63.5 22t34.5 54l105 -40
q-14 -26 -32.5 -49t-42.5 -40t-55 -27t-71 -10q-54 0 -97 18t-73.5 50.5t-47 78.5t-16.5 103zM201 612q0 32 19.5 51t50.5 19t50.5 -19t19.5 -51q0 -28 -19 -48t-51 -20t-51 20t-19 48z" />
    <glyph glyph-name="Ccaron" unicode="&#x10c;" horiz-adv-x="688" 
d="M48 350q0 83 22.5 150t65 114.5t103.5 73t137 25.5q108 0 177.5 -49t103.5 -140l-113 -40q-20 59 -61 95t-110 36q-49 0 -87 -19t-63.5 -54t-39 -84t-13.5 -108t13 -107.5t39 -83.5t63.5 -54.5t87.5 -19.5q66 0 107 34t63 94l112 -41q-35 -86 -104 -135.5t-177 -49.5
q-76 0 -136.5 25.5t-102.5 72.5t-64.5 114.5t-22.5 150.5zM222 867l54 51l102 -101l102 101l54 -51l-114 -116h-85z" />
    <glyph glyph-name="ccaron" unicode="&#x10d;" horiz-adv-x="503" 
d="M306 534h-73l-116 128l55 50l98 -106l98 106l54 -50zM39 237q0 56 16.5 102t47 79t74 51t98.5 18q41 0 72.5 -10t55.5 -27.5t40.5 -41.5t28.5 -52l-103 -39q-10 38 -34.5 59.5t-64.5 21.5q-30 0 -51.5 -13.5t-35.5 -35.5t-20.5 -51.5t-6.5 -60.5t6.5 -59.5t20.5 -51
t35.5 -36t52.5 -13.5q42 0 63.5 22t34.5 54l105 -40q-14 -26 -32.5 -49t-42.5 -40t-55 -27t-71 -10q-54 0 -97 18t-73.5 50.5t-47 78.5t-16.5 103z" />
    <glyph glyph-name="Dcaron" unicode="&#x10e;" horiz-adv-x="707" 
d="M168 867l54 51l102 -101l102 101l54 -51l-114 -116h-85zM81 700h248q77 0 138 -23.5t104 -68.5t65.5 -110t22.5 -148t-22.5 -148t-65.5 -110t-104 -68.5t-138 -23.5h-248v700zM537 350q0 57 -12.5 103.5t-39 80t-67.5 51.5t-98 18h-120v-506h120q57 0 98 18t67.5 51.5
t39 80t12.5 103.5z" />
    <glyph glyph-name="dcaron" unicode="&#x10f;" horiz-adv-x="588" 
d="M698 708l-64 -177l-64 17l41 183zM256 487q53 0 89.5 -21.5t57.5 -51.5v286h113v-700h-108v70q-10 -16 -24 -31t-33 -26.5t-43.5 -18.5t-55.5 -7q-45 0 -84 17.5t-67.5 50t-45 78.5t-16.5 104t16.5 104t46 78.5t69 50t85.5 17.5zM403 262q0 37 -12 63t-30 42t-40 23
t-42 7q-29 0 -51.5 -12t-38.5 -33.5t-24.5 -51t-8.5 -63.5q0 -35 8.5 -64t24 -50.5t37.5 -33.5t50 -12q21 0 43 7t41 23t31 41.5t12 63.5v50z" />
    <glyph glyph-name="Dcroat" unicode="&#x110;" horiz-adv-x="726" 
d="M100 321h-81v85h81v294h248q77 0 138 -23.5t104 -68.5t65.5 -110t22.5 -148t-22.5 -148t-65.5 -110t-104 -68.5t-138 -23.5h-248v321zM556 350q0 57 -12.5 103.5t-39 80t-67.5 51.5t-98 18h-120v-197h165v-85h-165v-224h120q57 0 98 18t67.5 51.5t39 80t12.5 103.5z" />
    <glyph glyph-name="dcroat" unicode="&#x111;" horiz-adv-x="588" 
d="M251 629h152v71h113v-71h61v-82h-61v-547h-108v70q-10 -16 -24 -31t-33 -26.5t-43.5 -18.5t-55.5 -7q-45 0 -84 17.5t-67.5 50t-45 78.5t-16.5 104t16.5 104t46 78.5t69 50t85.5 17.5q53 0 89.5 -21.5t57.5 -51.5v133h-152v82zM403 262q0 37 -12 63t-30 42t-40 23t-42 7
q-29 0 -51.5 -12t-38.5 -33.5t-24.5 -51t-8.5 -63.5q0 -35 8.5 -64t24 -50.5t37.5 -33.5t50 -12q21 0 43 7t41 23t31 41.5t12 63.5v50z" />
    <glyph glyph-name="Emacron" unicode="&#x112;" horiz-adv-x="575" 
d="M169 850h273v-75h-273v75zM81 0v700h443v-97h-326v-194h304v-97h-304v-215h332v-97h-449z" />
    <glyph glyph-name="emacron" unicode="&#x113;" horiz-adv-x="525" 
d="M476 104q-28 -54 -77.5 -85.5t-124.5 -31.5q-54 0 -97.5 18t-74 51t-47 79t-16.5 103q0 56 16.5 102t47 78.5t73 50.5t94.5 18q57 0 99 -20t69.5 -53.5t41 -78t13.5 -92.5v-32h-338q1 -27 8 -52t21 -44.5t35.5 -31t53.5 -11.5q44 0 67.5 20t37.5 51zM269 404
q-51 0 -79 -33t-33 -85h222q-2 57 -32 87.5t-78 30.5zM131 630h273v-74h-273v74z" />
    <glyph glyph-name="Ebreve" unicode="&#x114;" horiz-adv-x="575" 
d="M225 901q5 -29 26 -49.5t53 -20.5t53 20.5t26 49.5l83 -24q-12 -54 -55.5 -86.5t-106.5 -32.5t-106.5 32.5t-55.5 86.5zM81 0v700h443v-97h-326v-194h304v-97h-304v-215h332v-97h-449z" />
    <glyph glyph-name="ebreve" unicode="&#x115;" horiz-adv-x="525" 
d="M476 104q-28 -54 -77.5 -85.5t-124.5 -31.5q-54 0 -97.5 18t-74 51t-47 79t-16.5 103q0 56 16.5 102t47 78.5t73 50.5t94.5 18q57 0 99 -20t69.5 -53.5t41 -78t13.5 -92.5v-32h-338q1 -27 8 -52t21 -44.5t35.5 -31t53.5 -11.5q44 0 67.5 20t37.5 51zM269 404
q-51 0 -79 -33t-33 -85h222q-2 57 -32 87.5t-78 30.5zM189 688q5 -29 26 -49.5t53 -20.5t53 20.5t26 49.5l83 -24q-12 -53 -55.5 -86t-106.5 -33t-106.5 33t-55.5 86z" />
    <glyph glyph-name="Edotaccent" unicode="&#x116;" horiz-adv-x="575" 
d="M234 832q0 31 19.5 50.5t51.5 19.5t51.5 -19.5t19.5 -50.5q0 -30 -19.5 -49t-51.5 -19t-51.5 19t-19.5 49zM81 0v700h443v-97h-326v-194h304v-97h-304v-215h332v-97h-449z" />
    <glyph glyph-name="edotaccent" unicode="&#x117;" horiz-adv-x="525" 
d="M476 104q-28 -54 -77.5 -85.5t-124.5 -31.5q-54 0 -97.5 18t-74 51t-47 79t-16.5 103q0 56 16.5 102t47 78.5t73 50.5t94.5 18q57 0 99 -20t69.5 -53.5t41 -78t13.5 -92.5v-32h-338q1 -27 8 -52t21 -44.5t35.5 -31t53.5 -11.5q44 0 67.5 20t37.5 51zM269 404
q-51 0 -79 -33t-33 -85h222q-2 57 -32 87.5t-78 30.5zM198 612q0 32 19.5 51t50.5 19t50.5 -19t19.5 -51q0 -28 -19 -48t-51 -20t-51 20t-19 48z" />
    <glyph glyph-name="Eogonek" unicode="&#x118;" horiz-adv-x="575" 
d="M472 0q-54 -28 -77.5 -52t-23.5 -47q0 -16 10.5 -26t32.5 -10q16 0 29.5 8t29.5 31l46 -42q-26 -34 -55 -49t-64 -15q-21 0 -41 5t-35.5 16.5t-25 29t-9.5 42.5q0 38 19.5 62.5t51.5 46.5h-279v700h443v-97h-326v-194h304v-97h-304v-215h332v-97h-58z" />
    <glyph glyph-name="eogonek" unicode="&#x119;" horiz-adv-x="525" 
d="M282 -99q0 -16 10.5 -26t32.5 -10q16 0 29.5 8t29.5 31l46 -42q-26 -34 -55 -49t-64 -15q-21 0 -41 5t-35.5 16.5t-25 29t-9.5 42.5q0 32 14 55t39 42q-50 3 -89.5 22.5t-67.5 52t-42.5 77t-14.5 98.5q0 56 16.5 102t47 78.5t73 50.5t94.5 18q57 0 99 -20t69.5 -53.5
t41 -78t13.5 -92.5v-32h-338q1 -27 8 -52t21 -44.5t35.5 -31t53.5 -11.5q44 0 67.5 20t37.5 51l98 -39q-32 -59 -92 -96q-54 -33 -78 -57t-24 -50zM269 404q-51 0 -79 -33t-33 -85h222q-2 57 -32 87.5t-78 30.5z" />
    <glyph glyph-name="Ecaron" unicode="&#x11a;" horiz-adv-x="575" 
d="M149 867l54 51l102 -101l102 101l54 -51l-114 -116h-85zM81 0v700h443v-97h-326v-194h304v-97h-304v-215h332v-97h-449z" />
    <glyph glyph-name="ecaron" unicode="&#x11b;" horiz-adv-x="525" 
d="M304 534h-73l-116 128l55 50l98 -106l98 106l54 -50zM476 104q-28 -54 -77.5 -85.5t-124.5 -31.5q-54 0 -97.5 18t-74 51t-47 79t-16.5 103q0 56 16.5 102t47 78.5t73 50.5t94.5 18q57 0 99 -20t69.5 -53.5t41 -78t13.5 -92.5v-32h-338q1 -27 8 -52t21 -44.5t35.5 -31
t53.5 -11.5q44 0 67.5 20t37.5 51zM269 404q-51 0 -79 -33t-33 -85h222q-2 57 -32 87.5t-78 30.5z" />
    <glyph glyph-name="Gcircumflex" unicode="&#x11c;" horiz-adv-x="733" 
d="M354 366h304v-366h-107v73q-11 -16 -27.5 -31.5t-40 -27.5t-53.5 -19.5t-69 -7.5q-77 0 -135 28t-98 77t-60 115t-20 142q0 80 23 147t66 115t105 75t140 27q100 0 171 -47t109 -135l-109 -43q-23 59 -66.5 93.5t-110.5 34.5q-46 0 -84 -17.5t-65 -52t-42 -85.5t-15 -117
q0 -128 52.5 -194t152.5 -66q33 0 63.5 9t54.5 27t38 45.5t14 65.5v42h-191v93zM337 912h85l115 -115l-54 -52l-104 101l-101 -101l-54 52z" />
    <glyph glyph-name="gcircumflex" unicode="&#x11d;" horiz-adv-x="534" 
d="M225 706h74l115 -128l-55 -50l-98 106l-98 -106l-53 50zM503 412q-7 7 -16.5 9.5t-18.5 2.5q-13 0 -22.5 -3.5t-14.5 -8.5q17 -18 26 -44t9 -54q0 -41 -17 -72t-45 -53t-64.5 -33t-76.5 -11q-29 0 -45.5 4t-26.5 4q-11 0 -25.5 -8t-14.5 -28q0 -13 9.5 -20t28.5 -10.5
t47.5 -5.5t65.5 -5q42 -3 78.5 -10t64 -21t43 -38t15.5 -62q0 -42 -19.5 -72t-53 -49t-78.5 -28t-96 -9q-48 0 -89 7.5t-71 24t-47 41t-17 59.5q0 36 19.5 64.5t48.5 40.5q-27 13 -39 35t-12 44q0 28 17.5 51t49.5 37q-26 20 -41.5 50.5t-15.5 70.5q0 42 17 75t45 55
t63.5 33.5t73.5 11.5q32 0 60 -7.5t49 -17.5q19 16 42 25.5t56 9.5q18 0 33 -3t26 -8zM170 314q0 -48 26.5 -71t65.5 -23q40 0 66.5 23t26.5 71t-26.5 72.5t-66.5 24.5q-39 0 -65.5 -24.5t-26.5 -72.5zM275 -12q-35 2 -61.5 4.5t-43.5 6.5q-20 -9 -29 -28.5t-9 -40.5
q0 -36 35 -51.5t93 -15.5q29 0 54.5 4t44 13t29 22.5t10.5 32.5q0 30 -28.5 40t-94.5 13z" />
    <glyph glyph-name="Gbreve" unicode="&#x11e;" horiz-adv-x="733" 
d="M303 901q5 -29 26 -49.5t53 -20.5t53 20.5t26 49.5l83 -24q-12 -54 -55.5 -86.5t-106.5 -32.5t-106.5 32.5t-55.5 86.5zM354 366h304v-366h-107v73q-11 -16 -27.5 -31.5t-40 -27.5t-53.5 -19.5t-69 -7.5q-77 0 -135 28t-98 77t-60 115t-20 142q0 80 23 147t66 115t105 75
t140 27q100 0 171 -47t109 -135l-109 -43q-23 59 -66.5 93.5t-110.5 34.5q-46 0 -84 -17.5t-65 -52t-42 -85.5t-15 -117q0 -128 52.5 -194t152.5 -66q33 0 63.5 9t54.5 27t38 45.5t14 65.5v42h-191v93z" />
    <glyph glyph-name="gbreve" unicode="&#x11f;" horiz-adv-x="534" 
d="M503 412q-7 7 -16.5 9.5t-18.5 2.5q-13 0 -22.5 -3.5t-14.5 -8.5q17 -18 26 -44t9 -54q0 -41 -17 -72t-45 -53t-64.5 -33t-76.5 -11q-29 0 -45.5 4t-26.5 4q-11 0 -25.5 -8t-14.5 -28q0 -13 9.5 -20t28.5 -10.5t47.5 -5.5t65.5 -5q42 -3 78.5 -10t64 -21t43 -38t15.5 -62
q0 -42 -19.5 -72t-53 -49t-78.5 -28t-96 -9q-48 0 -89 7.5t-71 24t-47 41t-17 59.5q0 36 19.5 64.5t48.5 40.5q-27 13 -39 35t-12 44q0 28 17.5 51t49.5 37q-26 20 -41.5 50.5t-15.5 70.5q0 42 17 75t45 55t63.5 33.5t73.5 11.5q32 0 60 -7.5t49 -17.5q19 16 42 25.5t56 9.5
q18 0 33 -3t26 -8zM170 314q0 -48 26.5 -71t65.5 -23q40 0 66.5 23t26.5 71t-26.5 72.5t-66.5 24.5q-39 0 -65.5 -24.5t-26.5 -72.5zM275 -12q-35 2 -61.5 4.5t-43.5 6.5q-20 -9 -29 -28.5t-9 -40.5q0 -36 35 -51.5t93 -15.5q29 0 54.5 4t44 13t29 22.5t10.5 32.5
q0 30 -28.5 40t-94.5 13zM183 688q5 -29 26 -49.5t53 -20.5t53 20.5t26 49.5l83 -24q-12 -53 -55.5 -86t-106.5 -33t-106.5 33t-55.5 86z" />
    <glyph glyph-name="Gdotaccent" unicode="&#x120;" horiz-adv-x="733" 
d="M309 832q0 31 19.5 50.5t51.5 19.5t51.5 -19.5t19.5 -50.5q0 -30 -19.5 -49t-51.5 -19t-51.5 19t-19.5 49zM354 366h304v-366h-107v73q-11 -16 -27.5 -31.5t-40 -27.5t-53.5 -19.5t-69 -7.5q-77 0 -135 28t-98 77t-60 115t-20 142q0 80 23 147t66 115t105 75t140 27
q100 0 171 -47t109 -135l-109 -43q-23 59 -66.5 93.5t-110.5 34.5q-46 0 -84 -17.5t-65 -52t-42 -85.5t-15 -117q0 -128 52.5 -194t152.5 -66q33 0 63.5 9t54.5 27t38 45.5t14 65.5v42h-191v93z" />
    <glyph glyph-name="gdotaccent" unicode="&#x121;" horiz-adv-x="534" 
d="M503 412q-7 7 -16.5 9.5t-18.5 2.5q-13 0 -22.5 -3.5t-14.5 -8.5q17 -18 26 -44t9 -54q0 -41 -17 -72t-45 -53t-64.5 -33t-76.5 -11q-29 0 -45.5 4t-26.5 4q-11 0 -25.5 -8t-14.5 -28q0 -13 9.5 -20t28.5 -10.5t47.5 -5.5t65.5 -5q42 -3 78.5 -10t64 -21t43 -38t15.5 -62
q0 -42 -19.5 -72t-53 -49t-78.5 -28t-96 -9q-48 0 -89 7.5t-71 24t-47 41t-17 59.5q0 36 19.5 64.5t48.5 40.5q-27 13 -39 35t-12 44q0 28 17.5 51t49.5 37q-26 20 -41.5 50.5t-15.5 70.5q0 42 17 75t45 55t63.5 33.5t73.5 11.5q32 0 60 -7.5t49 -17.5q19 16 42 25.5t56 9.5
q18 0 33 -3t26 -8zM170 314q0 -48 26.5 -71t65.5 -23q40 0 66.5 23t26.5 71t-26.5 72.5t-66.5 24.5q-39 0 -65.5 -24.5t-26.5 -72.5zM275 -12q-35 2 -61.5 4.5t-43.5 6.5q-20 -9 -29 -28.5t-9 -40.5q0 -36 35 -51.5t93 -15.5q29 0 54.5 4t44 13t29 22.5t10.5 32.5
q0 30 -28.5 40t-94.5 13zM191 612q0 32 19.5 51t50.5 19t50.5 -19t19.5 -51q0 -28 -19 -48t-51 -20t-51 20t-19 48z" />
    <glyph glyph-name="Gcommaaccent" unicode="&#x122;" horiz-adv-x="733" 
d="M433 -140q0 -15 -4 -34.5t-16 -37.5t-32.5 -32t-53.5 -18l-16 43q9 0 19 3.5t18.5 9.5t14.5 14t6 18v3q-2 -1 -12 -1q-22 0 -39.5 16.5t-17.5 42.5q0 21 15 40.5t47 19.5q37 0 54 -27t17 -60zM354 366h304v-366h-107v73q-11 -16 -27.5 -31.5t-40 -27.5t-53.5 -19.5
t-69 -7.5q-77 0 -135 28t-98 77t-60 115t-20 142q0 80 23 147t66 115t105 75t140 27q100 0 171 -47t109 -135l-109 -43q-23 59 -66.5 93.5t-110.5 34.5q-46 0 -84 -17.5t-65 -52t-42 -85.5t-15 -117q0 -128 52.5 -194t152.5 -66q33 0 63.5 9t54.5 27t38 45.5t14 65.5v42
h-191v93z" />
    <glyph glyph-name="gcommaaccent" unicode="&#x123;" horiz-adv-x="534" 
d="M194 616q0 15 4 34t16 37t32.5 32t53.5 19l16 -43q-9 0 -19.5 -3.5t-19 -9.5t-14.5 -14t-6 -18v-3q2 0 5 0.5t7 0.5q23 0 40 -16.5t17 -42.5q0 -21 -15 -40.5t-47 -19.5q-37 0 -53.5 27t-16.5 60zM503 412q-7 7 -16.5 9.5t-18.5 2.5q-13 0 -22.5 -3.5t-14.5 -8.5
q17 -18 26 -44t9 -54q0 -41 -17 -72t-45 -53t-64.5 -33t-76.5 -11q-29 0 -45.5 4t-26.5 4q-11 0 -25.5 -8t-14.5 -28q0 -13 9.5 -20t28.5 -10.5t47.5 -5.5t65.5 -5q42 -3 78.5 -10t64 -21t43 -38t15.5 -62q0 -42 -19.5 -72t-53 -49t-78.5 -28t-96 -9q-48 0 -89 7.5t-71 24
t-47 41t-17 59.5q0 36 19.5 64.5t48.5 40.5q-27 13 -39 35t-12 44q0 28 17.5 51t49.5 37q-26 20 -41.5 50.5t-15.5 70.5q0 42 17 75t45 55t63.5 33.5t73.5 11.5q32 0 60 -7.5t49 -17.5q19 16 42 25.5t56 9.5q18 0 33 -3t26 -8zM170 314q0 -48 26.5 -71t65.5 -23
q40 0 66.5 23t26.5 71t-26.5 72.5t-66.5 24.5q-39 0 -65.5 -24.5t-26.5 -72.5zM275 -12q-35 2 -61.5 4.5t-43.5 6.5q-20 -9 -29 -28.5t-9 -40.5q0 -36 35 -51.5t93 -15.5q29 0 54.5 4t44 13t29 22.5t10.5 32.5q0 30 -28.5 40t-94.5 13z" />
    <glyph glyph-name="Hcircumflex" unicode="&#x124;" horiz-adv-x="701" 
d="M81 700h118v-290h303v290h118v-700h-118v312h-303v-312h-118v700zM307 912h85l115 -115l-54 -52l-104 101l-101 -101l-54 52z" />
    <glyph glyph-name="hcircumflex" unicode="&#x125;" horiz-adv-x="565" 
d="M72 700h114v-291q18 32 52.5 55t91.5 23q34 0 65 -10t53.5 -30t36 -50t13.5 -70v-327h-114v300q0 25 -7.5 43t-19.5 29.5t-28 16.5t-33 5q-21 0 -41 -9t-35.5 -27t-24.5 -45t-9 -62v-251h-114v700zM85 912h85l115 -115l-54 -52l-104 101l-101 -101l-54 52z" />
    <glyph glyph-name="Hbar" unicode="&#x126;" horiz-adv-x="701" 
d="M81 499h-73v89h73v112h118v-112h303v112h118v-112h73v-89h-73v-499h-118v312h-303v-312h-118v499zM502 410v89h-303v-89h303z" />
    <glyph glyph-name="hbar" unicode="&#x127;" horiz-adv-x="565" 
d="M72 547h-61v82h61v71h114v-71h151v-82h-151v-138q18 32 52.5 55t91.5 23q34 0 65 -10t53.5 -30t36 -50t13.5 -70v-327h-114v300q0 25 -7.5 43t-19.5 29.5t-28 16.5t-33 5q-21 0 -41 -9t-35.5 -27t-24.5 -45t-9 -62v-251h-114v547z" />
    <glyph glyph-name="Itilde" unicode="&#x128;" horiz-adv-x="281" 
d="M81 700h118v-700h-118v700zM69 892q27 0 46 -8.5t35 -18t30 -18t31 -8.5q16 0 26.5 7.5t18.5 16.5q8 11 14 25l56 -49q-11 -21 -28 -37q-14 -14 -36.5 -25.5t-54.5 -11.5q-26 0 -45 8t-34.5 18t-30 18t-31.5 8t-28 -7.5t-18 -16.5q-8 -11 -13 -23l-56 49q10 20 27 36
q14 14 36.5 25.5t54.5 11.5z" />
    <glyph glyph-name="itilde" unicode="&#x129;" horiz-adv-x="258" 
d="M72 474h114v-474h-114v474zM57 675q27 0 46 -8.5t35 -18t30 -18t31 -8.5q16 0 26.5 7.5t18.5 16.5q8 11 14 25l56 -49q-11 -21 -28 -37q-14 -14 -36.5 -25.5t-54.5 -11.5q-26 0 -45 8.5t-34.5 18t-30 18t-31.5 8.5t-28 -7.5t-18 -16.5q-8 -11 -13 -24l-56 49q10 20 27 36
q14 14 36.5 25.5t54.5 11.5z" />
    <glyph glyph-name="Imacron" unicode="&#x12a;" horiz-adv-x="281" 
d="M81 700h118v-700h-118v700zM4 850h273v-75h-273v75z" />
    <glyph glyph-name="imacron" unicode="&#x12b;" horiz-adv-x="258" 
d="M72 474h114v-474h-114v474zM-7 630h273v-74h-273v74z" />
    <glyph glyph-name="Ibreve" unicode="&#x12c;" horiz-adv-x="281" 
d="M81 700h118v-700h-118v700zM61 901q5 -29 26 -49.5t53 -20.5t53 20.5t26 49.5l83 -24q-12 -54 -55.5 -86.5t-106.5 -32.5t-106.5 32.5t-55.5 86.5z" />
    <glyph glyph-name="ibreve" unicode="&#x12d;" horiz-adv-x="258" 
d="M72 474h114v-474h-114v474zM50 688q5 -29 26 -49.5t53 -20.5t53 20.5t26 49.5l83 -24q-12 -53 -55.5 -86t-106.5 -33t-106.5 33t-55.5 86z" />
    <glyph glyph-name="Iogonek" unicode="&#x12e;" horiz-adv-x="281" 
d="M81 700h118v-700q-54 -26 -77.5 -51t-23.5 -48q0 -16 10.5 -26t32.5 -10q16 0 29.5 8t29.5 31l46 -42q-26 -34 -55 -49t-64 -15q-21 0 -41 5t-35.5 16.5t-25 29t-9.5 42.5q0 38 18 62.5t47 46.5v700z" />
    <glyph glyph-name="iogonek" unicode="&#x12f;" horiz-adv-x="258" 
d="M72 474h114v-474q-55 -26 -78 -51t-23 -48q0 -16 10.5 -26t32.5 -10q16 0 29.5 8t29.5 31l46 -42q-26 -34 -55 -49t-64 -15q-21 0 -41 5t-35.5 16.5t-25 29t-9.5 42.5q0 38 19.5 62.5t49.5 46.5v474zM59 643q0 32 19.5 50.5t50.5 18.5t50.5 -18.5t19.5 -50.5
q0 -29 -19 -49t-51 -20t-51 20t-19 49z" />
    <glyph glyph-name="Idotaccent" unicode="&#x130;" horiz-adv-x="281" 
d="M81 700h118v-700h-118v700zM69 832q0 31 19.5 50.5t51.5 19.5t51.5 -19.5t19.5 -50.5q0 -30 -19.5 -49t-51.5 -19t-51.5 19t-19.5 49z" />
    <glyph glyph-name="dotlessi" unicode="&#x131;" horiz-adv-x="258" 
d="M72 474h114v-474h-114v474z" />
    <glyph glyph-name="IJ" unicode="&#x132;" horiz-adv-x="724" 
d="M81 700h118v-700h-118v700zM442 84q49 0 68 36t19 111v469h119v-469q0 -53 -8.5 -97.5t-31 -77t-61.5 -51t-101 -18.5q-71 0 -112.5 22.5t-69.5 57.5l78 77q25 -29 46.5 -44.5t53.5 -15.5z" />
    <glyph glyph-name="ij" unicode="&#x133;" horiz-adv-x="519" 
d="M59 643q0 32 19.5 50.5t50.5 18.5t50.5 -18.5t19.5 -50.5q0 -29 -19 -49t-51 -20t-51 20t-19 49zM72 474h114v-474h-114v474zM447 -47q0 -46 -15.5 -78t-39.5 -51.5t-53.5 -28t-58.5 -8.5q-32 0 -61 9t-54 24l46 85q11 -8 27 -16t36 -8q28 0 43.5 20t15.5 59v514h114
v-521zM320 643q0 32 19.5 50.5t50.5 18.5t50.5 -18.5t19.5 -50.5q0 -29 -19 -49t-51 -20t-51 20t-19 49z" />
    <glyph glyph-name="Jcircumflex" unicode="&#x134;" horiz-adv-x="465" 
d="M183 84q49 0 68 36t19 111v469h119v-469q0 -53 -8.5 -97.5t-31 -77t-61.5 -51t-101 -18.5q-71 0 -112.5 22.5t-69.5 57.5l78 77q25 -29 46.5 -44.5t53.5 -15.5zM285 912h85l115 -115l-54 -52l-104 101l-101 -101l-54 52z" />
    <glyph glyph-name="jcircumflex" unicode="&#x135;" horiz-adv-x="261" 
d="M189 -48q0 -46 -15.5 -78t-39.5 -51.5t-53.5 -28t-58.5 -8.5q-32 0 -61 8.5t-55 23.5l47 88q11 -8 27 -16t36 -8q29 0 44.5 19.5t15.5 57.5v515h113v-522zM94 706h74l115 -128l-55 -50l-98 106l-98 -106l-53 50z" />
    <glyph glyph-name="Kcommaaccent" unicode="&#x136;" horiz-adv-x="644" 
d="M399 -140q0 -15 -4 -34.5t-16 -37.5t-32.5 -32t-53.5 -18l-16 43q9 0 19 3.5t18.5 9.5t14.5 14t6 18v3q-2 -1 -12 -1q-22 0 -39.5 16.5t-17.5 42.5q0 21 15 40.5t47 19.5q37 0 54 -27t17 -60zM267 334l-68 -74v-260h-118v700h118v-295l270 295h138l-258 -282l283 -418
h-142z" />
    <glyph glyph-name="kcommaaccent" unicode="&#x137;" horiz-adv-x="534" 
d="M350 -140q0 -15 -4 -34.5t-16 -37.5t-32.5 -32t-53.5 -18l-16 43q9 0 19 3.5t18.5 9.5t14.5 14t6 18v3q-2 -1 -12 -1q-22 0 -39.5 16.5t-17.5 42.5q0 21 15 40.5t47 19.5q37 0 54 -27t17 -60zM234 230l-48 -44v-186h-114v700h114v-396l184 170h133l-187 -174l213 -300
h-134z" />
    <glyph glyph-name="kgreenlandic" unicode="&#x138;" horiz-adv-x="534" 
d="M235 229l-49 -45v-184h-114v474h114v-170l184 170h133l-187 -174l213 -300h-134z" />
    <glyph glyph-name="Lacute" unicode="&#x139;" horiz-adv-x="527" 
d="M308 857l-202 -109l-37 60l189 131zM81 700h118v-603h308v-97h-426v700z" />
    <glyph glyph-name="lacute" unicode="&#x13a;" horiz-adv-x="258" 
d="M246 857l-202 -109l-37 60l189 131zM72 700h114v-700h-114v700z" />
    <glyph glyph-name="Lcommaaccent" unicode="&#x13b;" horiz-adv-x="527" 
d="M351 -140q0 -15 -4 -34.5t-16 -37.5t-32.5 -32t-53.5 -18l-16 43q9 0 19 3.5t18.5 9.5t14.5 14t6 18v3q-2 -1 -12 -1q-22 0 -39.5 16.5t-17.5 42.5q0 21 15 40.5t47 19.5q37 0 54 -27t17 -60zM81 700h118v-603h308v-97h-426v700z" />
    <glyph glyph-name="lcommaaccent" unicode="&#x13c;" horiz-adv-x="258" 
d="M198 -140q0 -15 -4 -34.5t-16 -37.5t-32.5 -32t-53.5 -18l-16 43q9 0 19 3.5t18.5 9.5t14.5 14t6 18v3q-2 -1 -12 -1q-22 0 -39.5 16.5t-17.5 42.5q0 21 15 40.5t47 19.5q37 0 54 -27t17 -60zM72 700h114v-700h-114v700z" />
    <glyph glyph-name="Lcaron" unicode="&#x13d;" horiz-adv-x="527" 
d="M406 708l-64 -177l-64 17l41 183zM81 700h118v-603h308v-97h-426v700z" />
    <glyph glyph-name="lcaron" unicode="&#x13e;" horiz-adv-x="258" 
d="M368 708l-64 -177l-64 17l41 183zM72 700h114v-700h-114v700z" />
    <glyph glyph-name="Ldot" unicode="&#x13f;" horiz-adv-x="527" 
d="M81 700h118v-603h308v-97h-426v700zM310 359q0 32 19.5 51t50.5 19t50.5 -19t19.5 -51q0 -28 -19 -48t-51 -20t-51 20t-19 48z" />
    <glyph glyph-name="ldot" unicode="&#x140;" horiz-adv-x="386" 
d="M72 700h114v-700h-114v700zM234 349q0 32 19.5 51t50.5 19t50.5 -19t19.5 -51q0 -28 -19 -48t-51 -20t-51 20t-19 48z" />
    <glyph glyph-name="Lslash" unicode="&#x141;" horiz-adv-x="553" 
d="M106 242l-58 -34l-45 76l103 61v355h118v-286l131 78l44 -77l-175 -104v-214h308v-97h-426v242z" />
    <glyph glyph-name="lslash" unicode="&#x142;" horiz-adv-x="318" 
d="M102 282l-60 -35l-43 74l103 61v318h114v-250l74 44l43 -75l-117 -69v-350h-114v282z" />
    <glyph glyph-name="Nacute" unicode="&#x143;" horiz-adv-x="726" 
d="M505 857l-202 -109l-37 60l189 131zM81 700h124q72 -114 136 -214q27 -43 55 -87t53.5 -84.5t46.5 -74.5t35 -55h3v515h111v-700h-124q-71 112 -134 211q-27 42 -55 86.5t-53.5 85t-47 75t-36.5 57.5h-3v-515h-111v700z" />
    <glyph glyph-name="nacute" unicode="&#x144;" horiz-adv-x="565" 
d="M428 641l-202 -109l-37 60l189 131zM72 474h109v-72q21 37 57 61t92 24q34 0 65 -10t53.5 -30t36 -50t13.5 -70v-327h-114v300q0 25 -7.5 43t-20 29.5t-28.5 16.5t-32 5q-21 0 -41 -9t-35.5 -27t-24.5 -45t-9 -62v-251h-114v474z" />
    <glyph glyph-name="Ncommaaccent" unicode="&#x145;" horiz-adv-x="726" 
d="M438 -140q0 -15 -4 -34.5t-16 -37.5t-32.5 -32t-53.5 -18l-16 43q9 0 19 3.5t18.5 9.5t14.5 14t6 18v3q-2 -1 -12 -1q-22 0 -39.5 16.5t-17.5 42.5q0 21 15 40.5t47 19.5q37 0 54 -27t17 -60zM81 700h124q72 -114 136 -214q27 -43 55 -87t53.5 -84.5t46.5 -74.5t35 -55h3
v515h111v-700h-124q-71 112 -134 211q-27 42 -55 86.5t-53.5 85t-47 75t-36.5 57.5h-3v-515h-111v700z" />
    <glyph glyph-name="ncommaaccent" unicode="&#x146;" horiz-adv-x="565" 
d="M355 -140q0 -15 -4 -34.5t-16 -37.5t-32.5 -32t-53.5 -18l-16 43q9 0 19 3.5t18.5 9.5t14.5 14t6 18v3q-2 -1 -12 -1q-22 0 -39.5 16.5t-17.5 42.5q0 21 15 40.5t47 19.5q37 0 54 -27t17 -60zM72 474h109v-72q21 37 57 61t92 24q34 0 65 -10t53.5 -30t36 -50t13.5 -70
v-327h-114v300q0 25 -7.5 43t-20 29.5t-28.5 16.5t-32 5q-21 0 -41 -9t-35.5 -27t-24.5 -45t-9 -62v-251h-114v474z" />
    <glyph glyph-name="Ncaron" unicode="&#x147;" horiz-adv-x="726" 
d="M205 867l54 51l102 -101l102 101l54 -51l-114 -116h-85zM81 700h124q72 -114 136 -214q27 -43 55 -87t53.5 -84.5t46.5 -74.5t35 -55h3v515h111v-700h-124q-71 112 -134 211q-27 42 -55 86.5t-53.5 85t-47 75t-36.5 57.5h-3v-515h-111v700z" />
    <glyph glyph-name="ncaron" unicode="&#x148;" horiz-adv-x="565" 
d="M325 534h-73l-116 128l55 50l98 -106l98 106l54 -50zM72 474h109v-72q21 37 57 61t92 24q34 0 65 -10t53.5 -30t36 -50t13.5 -70v-327h-114v300q0 25 -7.5 43t-20 29.5t-28.5 16.5t-32 5q-21 0 -41 -9t-35.5 -27t-24.5 -45t-9 -62v-251h-114v474z" />
    <glyph glyph-name="Eng" unicode="&#x14a;" horiz-adv-x="726" 
d="M81 700h124q72 -114 136 -213q27 -43 55 -87t53.5 -83.5t46.5 -73t35 -54.5h3v511h111v-721q0 -97 -47.5 -144.5t-139.5 -47.5q-60 0 -98.5 19.5t-64.5 49.5l76 76q20 -22 39 -36t45 -14q38 0 55.5 28.5t17.5 73.5v12q-5 7 -26 40.5t-52 81t-67.5 104.5t-72 112
t-66 102.5t-49.5 77.5h-3v-514h-111v700z" />
    <glyph glyph-name="eng" unicode="&#x14b;" horiz-adv-x="565" 
d="M384 300q0 25 -7.5 43t-20 29.5t-28.5 16.5t-32 5q-21 0 -41 -9t-35.5 -27t-24.5 -45t-9 -62v-251h-114v474h109v-72q21 37 57 61t92 24q34 0 65 -10t53.5 -30t36 -50t13.5 -70v-375q0 -46 -15.5 -78t-39.5 -51.5t-54 -28t-59 -8.5q-32 0 -60.5 8.5t-54.5 23.5l46 88
q11 -8 27 -16t37 -8q28 0 43.5 19.5t15.5 57.5v341v0z" />
    <glyph glyph-name="Omacron" unicode="&#x14c;" horiz-adv-x="749" 
d="M238 850h273v-75h-273v75zM48 350q0 84 23.5 151.5t66.5 114.5t103 72t133 25t133.5 -25t103.5 -72t66.5 -114.5t23.5 -151.5t-23.5 -151.5t-66.5 -114.5t-103.5 -72t-133.5 -25t-133 25t-103 72t-66.5 114.5t-23.5 151.5zM170 350q0 -57 12.5 -106t38 -84.5t64 -55.5
t89.5 -20q52 0 90.5 20t64 55.5t38 84.5t12.5 106t-12.5 106t-38 84.5t-64 55.5t-90.5 20q-51 0 -89.5 -20t-64 -55.5t-38 -84.5t-12.5 -106z" />
    <glyph glyph-name="omacron" unicode="&#x14d;" horiz-adv-x="553" 
d="M140 630h273v-74h-273v74zM276 487q55 0 99 -18t75 -51t47.5 -79t16.5 -102t-16.5 -102t-47.5 -79t-75 -51t-99 -18t-99 18t-74.5 51t-47 79t-16.5 102t16.5 102t47 79t74.5 51t99 18zM276 74q31 0 54 13t38 35t22.5 51.5t7.5 63.5t-7.5 63.5t-22.5 51.5t-38 35t-54 13
t-53.5 -13t-37.5 -35t-22.5 -51.5t-7.5 -63.5t7.5 -63.5t22.5 -51.5t37.5 -35t53.5 -13z" />
    <glyph glyph-name="Obreve" unicode="&#x14e;" horiz-adv-x="749" 
d="M295 901q5 -29 26 -49.5t53 -20.5t53 20.5t26 49.5l83 -24q-12 -54 -55.5 -86.5t-106.5 -32.5t-106.5 32.5t-55.5 86.5zM48 350q0 84 23.5 151.5t66.5 114.5t103 72t133 25t133.5 -25t103.5 -72t66.5 -114.5t23.5 -151.5t-23.5 -151.5t-66.5 -114.5t-103.5 -72
t-133.5 -25t-133 25t-103 72t-66.5 114.5t-23.5 151.5zM170 350q0 -57 12.5 -106t38 -84.5t64 -55.5t89.5 -20q52 0 90.5 20t64 55.5t38 84.5t12.5 106t-12.5 106t-38 84.5t-64 55.5t-90.5 20q-51 0 -89.5 -20t-64 -55.5t-38 -84.5t-12.5 -106z" />
    <glyph glyph-name="obreve" unicode="&#x14f;" horiz-adv-x="553" 
d="M276 487q55 0 99 -18t75 -51t47.5 -79t16.5 -102t-16.5 -102t-47.5 -79t-75 -51t-99 -18t-99 18t-74.5 51t-47 79t-16.5 102t16.5 102t47 79t74.5 51t99 18zM276 74q31 0 54 13t38 35t22.5 51.5t7.5 63.5t-7.5 63.5t-22.5 51.5t-38 35t-54 13t-53.5 -13t-37.5 -35
t-22.5 -51.5t-7.5 -63.5t7.5 -63.5t22.5 -51.5t37.5 -35t53.5 -13zM197 688q5 -29 26 -49.5t53 -20.5t53 20.5t26 49.5l83 -24q-12 -53 -55.5 -86t-106.5 -33t-106.5 33t-55.5 86z" />
    <glyph glyph-name="Ohungarumlaut" unicode="&#x150;" horiz-adv-x="749" 
d="M48 350q0 84 23.5 151.5t66.5 114.5t103 72t133 25t133.5 -25t103.5 -72t66.5 -114.5t23.5 -151.5t-23.5 -151.5t-66.5 -114.5t-103.5 -72t-133.5 -25t-133 25t-103 72t-66.5 114.5t-23.5 151.5zM170 350q0 -57 12.5 -106t38 -84.5t64 -55.5t89.5 -20q52 0 90.5 20
t64 55.5t38 84.5t12.5 106t-12.5 106t-38 84.5t-64 55.5t-90.5 20q-51 0 -89.5 -20t-64 -55.5t-38 -84.5t-12.5 -106zM654 870l-192 -121l-40 56l176 143zM421 870l-192 -121l-41 56l176 143z" />
    <glyph glyph-name="ohungarumlaut" unicode="&#x151;" horiz-adv-x="553" 
d="M559 654l-192 -121l-40 56l176 143zM326 654l-192 -121l-41 56l176 143zM276 487q55 0 99 -18t75 -51t47.5 -79t16.5 -102t-16.5 -102t-47.5 -79t-75 -51t-99 -18t-99 18t-74.5 51t-47 79t-16.5 102t16.5 102t47 79t74.5 51t99 18zM276 74q31 0 54 13t38 35t22.5 51.5
t7.5 63.5t-7.5 63.5t-22.5 51.5t-38 35t-54 13t-53.5 -13t-37.5 -35t-22.5 -51.5t-7.5 -63.5t7.5 -63.5t22.5 -51.5t37.5 -35t53.5 -13z" />
    <glyph glyph-name="OE" unicode="&#x152;" horiz-adv-x="1058" 
d="M48 350q0 84 24 151t67 114.5t101 72.5t126 25q70 0 120.5 -25.5t79.5 -70.5v83h441v-97h-324v-194h302v-97h-302v-215h330v-97h-447v82q-30 -45 -80 -70t-116 -25q-71 0 -130 25.5t-101.5 72.5t-66.5 114t-24 151zM170 350q0 -57 13 -105.5t38.5 -84.5t63 -56t87.5 -20
q48 0 84.5 19.5t60.5 53.5t36.5 80.5t12.5 100.5v21q0 58 -14 105.5t-39.5 81t-61.5 51.5t-81 18q-48 0 -85.5 -20t-63 -55t-38.5 -84t-13 -106z" />
    <glyph glyph-name="oe" unicode="&#x153;" horiz-adv-x="875" 
d="M826 104q-28 -54 -77.5 -85.5t-124.5 -31.5q-57 0 -100.5 21.5t-72.5 60.5q-29 -39 -73.5 -60.5t-101.5 -21.5q-55 0 -99 18t-74.5 51t-47 79t-16.5 102t16.5 102t47 79t74.5 51t99 18q57 0 101.5 -22t73.5 -61q29 39 72 61t97 22q56 0 98 -20t69.5 -53.5t41.5 -78
t14 -92.5v-32h-340q1 -27 8 -52t21.5 -44.5t37 -31t54.5 -11.5q42 0 65.5 20t37.5 51zM619 404q-51 0 -80 -33t-34 -85h223q-2 57 -32.5 87.5t-76.5 30.5zM276 74q31 0 54.5 13t38.5 35t22.5 51.5t7.5 63.5t-7.5 63.5t-22.5 51.5t-38.5 35t-54.5 13t-53.5 -13t-37.5 -35
t-22.5 -51.5t-7.5 -63.5t7.5 -63.5t22.5 -51.5t37.5 -35t53.5 -13z" />
    <glyph glyph-name="Racute" unicode="&#x154;" horiz-adv-x="645" 
d="M582 500q0 -78 -40 -128.5t-107 -70.5l175 -301h-135l-162 287h-115v-287h-117v700h251q46 0 90.5 -9.5t80 -32.5t57.5 -61.5t22 -96.5zM462 497q0 57 -38 81.5t-111 24.5h-115v-221h123q74 0 107.5 30.5t33.5 84.5zM446 857l-202 -109l-37 60l189 131z" />
    <glyph glyph-name="racute" unicode="&#x155;" horiz-adv-x="384" 
d="M376 641l-202 -109l-37 60l189 131zM356 371q-11 9 -25.5 13.5t-29.5 4.5q-21 0 -41.5 -9t-37 -27.5t-26.5 -47t-10 -66.5v-239h-114v474h107v-77q20 45 55.5 67.5t84.5 22.5q14 0 30 -2.5t30 -8.5z" />
    <glyph glyph-name="Rcommaaccent" unicode="&#x156;" horiz-adv-x="645" 
d="M390 -140q0 -15 -4 -34.5t-16 -37.5t-32.5 -32t-53.5 -18l-16 43q9 0 19 3.5t18.5 9.5t14.5 14t6 18v3q-2 -1 -12 -1q-22 0 -39.5 16.5t-17.5 42.5q0 21 15 40.5t47 19.5q37 0 54 -27t17 -60zM582 500q0 -78 -40 -128.5t-107 -70.5l175 -301h-135l-162 287h-115v-287
h-117v700h251q46 0 90.5 -9.5t80 -32.5t57.5 -61.5t22 -96.5zM462 497q0 57 -38 81.5t-111 24.5h-115v-221h123q74 0 107.5 30.5t33.5 84.5z" />
    <glyph glyph-name="rcommaaccent" unicode="&#x157;" horiz-adv-x="384" 
d="M198 -140q0 -15 -4 -34.5t-16 -37.5t-32.5 -32t-53.5 -18l-16 43q9 0 19 3.5t18.5 9.5t14.5 14t6 18v3q-2 -1 -12 -1q-22 0 -39.5 16.5t-17.5 42.5q0 21 15 40.5t47 19.5q37 0 54 -27t17 -60zM356 371q-11 9 -25.5 13.5t-29.5 4.5q-21 0 -41.5 -9t-37 -27.5t-26.5 -47
t-10 -66.5v-239h-114v474h107v-77q20 45 55.5 67.5t84.5 22.5q14 0 30 -2.5t30 -8.5z" />
    <glyph glyph-name="Rcaron" unicode="&#x158;" horiz-adv-x="645" 
d="M156 867l54 51l102 -101l102 101l54 -51l-114 -116h-85zM582 500q0 -78 -40 -128.5t-107 -70.5l175 -301h-135l-162 287h-115v-287h-117v700h251q46 0 90.5 -9.5t80 -32.5t57.5 -61.5t22 -96.5zM462 497q0 57 -38 81.5t-111 24.5h-115v-221h123q74 0 107.5 30.5
t33.5 84.5z" />
    <glyph glyph-name="rcaron" unicode="&#x159;" horiz-adv-x="384" 
d="M261 534h-73l-116 128l55 50l98 -106l98 106l54 -50zM356 371q-11 9 -25.5 13.5t-29.5 4.5q-21 0 -41.5 -9t-37 -27.5t-26.5 -47t-10 -66.5v-239h-114v474h107v-77q20 45 55.5 67.5t84.5 22.5q14 0 30 -2.5t30 -8.5z" />
    <glyph glyph-name="Sacute" unicode="&#x15a;" horiz-adv-x="638" 
d="M183 519q0 -25 8.5 -42t28 -29.5t51 -21.5t76.5 -16q60 -10 106 -26t77 -40.5t46.5 -59t15.5 -82.5t-19.5 -88t-54.5 -68t-84.5 -43.5t-110.5 -15.5q-65 0 -115.5 17t-86 45.5t-54.5 67t-21 81.5l117 18q2 -26 12 -50.5t29.5 -43t48.5 -29.5t70 -11q67 0 107 28.5
t40 84.5q0 24 -8.5 42t-27.5 31.5t-50 23t-76 16.5q-56 8 -101.5 22.5t-77.5 38t-49.5 58t-17.5 82.5q0 49 18.5 87t52.5 64t80.5 39.5t102.5 13.5q107 0 176.5 -49.5t86.5 -138.5l-119 -27q-8 56 -44 88t-103 32q-66 0 -98 -27t-32 -72zM447 857l-202 -109l-37 60l189 131z
" />
    <glyph glyph-name="sacute" unicode="&#x15b;" horiz-adv-x="478" 
d="M362 641l-202 -109l-37 60l189 131zM158 348q0 -32 27 -44t71 -19q37 -5 71 -14.5t59.5 -26t41 -42t15.5 -62.5q0 -72 -55.5 -112.5t-148.5 -40.5q-88 0 -144 36.5t-64 106.5l110 16q4 -40 30 -58t69 -18q40 0 64.5 15t24.5 47q0 28 -23 41.5t-82 22.5q-41 6 -74 16.5
t-56.5 27t-36.5 41t-13 59.5q0 37 16 65t43 46t62.5 27t73.5 9q39 0 73 -9t60 -25.5t42.5 -41t21.5 -54.5l-110 -23q-5 34 -27 52.5t-62 18.5q-33 0 -56 -14.5t-23 -42.5z" />
    <glyph glyph-name="Scircumflex" unicode="&#x15c;" horiz-adv-x="638" 
d="M183 519q0 -25 8.5 -42t28 -29.5t51 -21.5t76.5 -16q60 -10 106 -26t77 -40.5t46.5 -59t15.5 -82.5t-19.5 -88t-54.5 -68t-84.5 -43.5t-110.5 -15.5q-65 0 -115.5 17t-86 45.5t-54.5 67t-21 81.5l117 18q2 -26 12 -50.5t29.5 -43t48.5 -29.5t70 -11q67 0 107 28.5
t40 84.5q0 24 -8.5 42t-27.5 31.5t-50 23t-76 16.5q-56 8 -101.5 22.5t-77.5 38t-49.5 58t-17.5 82.5q0 49 18.5 87t52.5 64t80.5 39.5t102.5 13.5q107 0 176.5 -49.5t86.5 -138.5l-119 -27q-8 56 -44 88t-103 32q-66 0 -98 -27t-32 -72zM274 912h85l115 -115l-54 -52
l-104 101l-101 -101l-54 52z" />
    <glyph glyph-name="scircumflex" unicode="&#x15d;" horiz-adv-x="478" 
d="M203 706h74l115 -128l-55 -50l-98 106l-98 -106l-53 50zM158 348q0 -32 27 -44t71 -19q37 -5 71 -14.5t59.5 -26t41 -42t15.5 -62.5q0 -72 -55.5 -112.5t-148.5 -40.5q-88 0 -144 36.5t-64 106.5l110 16q4 -40 30 -58t69 -18q40 0 64.5 15t24.5 47q0 28 -23 41.5
t-82 22.5q-41 6 -74 16.5t-56.5 27t-36.5 41t-13 59.5q0 37 16 65t43 46t62.5 27t73.5 9q39 0 73 -9t60 -25.5t42.5 -41t21.5 -54.5l-110 -23q-5 34 -27 52.5t-62 18.5q-33 0 -56 -14.5t-23 -42.5z" />
    <glyph glyph-name="Scedilla" unicode="&#x15e;" horiz-adv-x="638" 
d="M258 -154q8 -8 21.5 -14t31.5 -6q20 0 30.5 11t10.5 29t-11 27t-28 9q-25 0 -39 -14l-30 32l30 70q-54 6 -95.5 24.5t-70.5 46.5t-45 63t-17 74l117 18q2 -26 12 -50.5t29.5 -43t48.5 -29.5t70 -11q67 0 107 28.5t40 84.5q0 24 -8.5 42t-27.5 31.5t-50 23t-76 16.5
q-56 8 -101.5 22.5t-77.5 38t-49.5 58t-17.5 82.5q0 49 18.5 87t52.5 64t80.5 39.5t102.5 13.5q107 0 176.5 -49.5t86.5 -138.5l-119 -27q-8 56 -44 88t-103 32q-66 0 -98 -27t-32 -72q0 -25 8.5 -42t28 -29.5t51 -21.5t76.5 -16q60 -10 106 -26t77 -40.5t46.5 -59
t15.5 -82.5t-19 -87.5t-53.5 -67.5t-83 -43.5t-108.5 -16.5l-17 -40q5 2 12.5 4t16.5 2q34 0 58 -21.5t24 -63.5q0 -47 -32 -72.5t-79 -25.5q-34 0 -55 10.5t-31 20.5z" />
    <glyph glyph-name="scedilla" unicode="&#x15f;" horiz-adv-x="478" 
d="M175 -154q8 -8 21.5 -14t31.5 -6q20 0 30.5 11t10.5 29t-11 27t-28 9q-25 0 -39 -14l-30 32l30 70q-69 9 -111 44.5t-49 95.5l110 16q4 -40 30 -58t69 -18q40 0 64.5 15t24.5 47q0 28 -23 41.5t-82 22.5q-41 6 -74 16.5t-56.5 27t-36.5 41t-13 59.5q0 37 16 65t43 46
t62.5 27t73.5 9q39 0 73 -9t60 -25.5t42.5 -41t21.5 -54.5l-110 -23q-5 34 -27 52.5t-62 18.5q-33 0 -56 -14.5t-23 -42.5q0 -32 27 -44t71 -19q37 -5 71 -14.5t59.5 -26t41 -42t15.5 -62.5q0 -71 -53.5 -111t-144.5 -42l-17 -40q5 2 12.5 4t16.5 2q34 0 58 -21.5t24 -63.5
q0 -47 -32 -72.5t-79 -25.5q-34 0 -55 10.5t-31 20.5z" />
    <glyph glyph-name="Scaron" unicode="&#x160;" horiz-adv-x="638" 
d="M183 519q0 -25 8.5 -42t28 -29.5t51 -21.5t76.5 -16q60 -10 106 -26t77 -40.5t46.5 -59t15.5 -82.5t-19.5 -88t-54.5 -68t-84.5 -43.5t-110.5 -15.5q-65 0 -115.5 17t-86 45.5t-54.5 67t-21 81.5l117 18q2 -26 12 -50.5t29.5 -43t48.5 -29.5t70 -11q67 0 107 28.5
t40 84.5q0 24 -8.5 42t-27.5 31.5t-50 23t-76 16.5q-56 8 -101.5 22.5t-77.5 38t-49.5 58t-17.5 82.5q0 49 18.5 87t52.5 64t80.5 39.5t102.5 13.5q107 0 176.5 -49.5t86.5 -138.5l-119 -27q-8 56 -44 88t-103 32q-66 0 -98 -27t-32 -72zM161 867l54 51l102 -101l102 101
l54 -51l-114 -116h-85z" />
    <glyph glyph-name="scaron" unicode="&#x161;" horiz-adv-x="478" 
d="M274 534h-73l-116 128l55 50l98 -106l98 106l54 -50zM158 348q0 -32 27 -44t71 -19q37 -5 71 -14.5t59.5 -26t41 -42t15.5 -62.5q0 -72 -55.5 -112.5t-148.5 -40.5q-88 0 -144 36.5t-64 106.5l110 16q4 -40 30 -58t69 -18q40 0 64.5 15t24.5 47q0 28 -23 41.5t-82 22.5
q-41 6 -74 16.5t-56.5 27t-36.5 41t-13 59.5q0 37 16 65t43 46t62.5 27t73.5 9q39 0 73 -9t60 -25.5t42.5 -41t21.5 -54.5l-110 -23q-5 34 -27 52.5t-62 18.5q-33 0 -56 -14.5t-23 -42.5z" />
    <glyph glyph-name="Tcommaaccent" unicode="&#x162;" horiz-adv-x="570" 
d="M355 -140q0 -15 -4 -34.5t-16 -37.5t-32.5 -32t-53.5 -18l-16 43q9 0 19 3.5t18.5 9.5t14.5 14t6 18v3q-2 -1 -12 -1q-22 0 -39.5 16.5t-17.5 42.5q0 21 15 40.5t47 19.5q37 0 54 -27t17 -60zM21 700h528v-97h-205v-603h-118v603h-205v97z" />
    <glyph glyph-name="tcommaaccent" unicode="&#x163;" horiz-adv-x="358" 
d="M264 -140q0 -15 -4 -34.5t-16 -37.5t-32.5 -32t-53.5 -18l-16 43q9 0 19 3.5t18.5 9.5t14.5 14t6 18v3q-2 -1 -12 -1q-22 0 -39.5 16.5t-17.5 42.5q0 21 15 40.5t47 19.5q37 0 54 -27t17 -60zM336 7q-18 -9 -43.5 -14.5t-53.5 -5.5q-66 0 -104 34.5t-38 100.5v268h-80v84
h80v135l113 52v-187h107v-84h-107v-254q0 -31 12.5 -43.5t32.5 -12.5q15 0 27 5t23 11z" />
    <glyph glyph-name="Tcaron" unicode="&#x164;" horiz-adv-x="570" 
d="M129 867l54 51l102 -101l102 101l54 -51l-114 -116h-85zM21 700h528v-97h-205v-603h-118v603h-205v97z" />
    <glyph glyph-name="tcaron" unicode="&#x165;" horiz-adv-x="358" 
d="M388 708l-64 -177l-64 17l41 183zM336 7q-18 -9 -43.5 -14.5t-53.5 -5.5q-66 0 -104 34.5t-38 100.5v268h-80v84h80v135l113 52v-187h107v-84h-107v-254q0 -31 12.5 -43.5t32.5 -12.5q15 0 27 5t23 11z" />
    <glyph glyph-name="Tbar" unicode="&#x166;" horiz-adv-x="570" 
d="M21 700h528v-97h-205v-173h132v-90h-132v-340h-118v340h-132v90h132v173h-205v97z" />
    <glyph glyph-name="tbar" unicode="&#x167;" horiz-adv-x="358" 
d="M336 7q-18 -9 -43.5 -14.5t-53.5 -5.5q-66 0 -104 34.5t-38 100.5v102h-80v81h80v85h-80v84h80v135l113 52v-187h107v-84h-107v-85h102v-81h-102v-88q0 -31 12.5 -43.5t32.5 -12.5q15 0 27 5t23 11z" />
    <glyph glyph-name="Utilde" unicode="&#x168;" horiz-adv-x="688" 
d="M272 892q27 0 46 -8.5t35 -18t30 -18t31 -8.5q16 0 26.5 7.5t18.5 16.5q8 11 14 25l56 -49q-11 -21 -28 -37q-14 -14 -36.5 -25.5t-54.5 -11.5q-26 0 -45 8t-34.5 18t-30 18t-31.5 8t-28 -7.5t-18 -16.5q-8 -11 -13 -23l-56 49q10 20 27 36q14 14 36.5 25.5t54.5 11.5z
M344 -13q-138 0 -202.5 69t-64.5 197v447h118v-448q0 -34 8 -64.5t25.5 -53.5t46 -36.5t69.5 -13.5t69.5 13.5t46 36.5t25.5 53.5t8 64.5v448h118v-447q0 -128 -64.5 -197t-202.5 -69z" />
    <glyph glyph-name="utilde" unicode="&#x169;" horiz-adv-x="560" 
d="M488 0h-108v71q-22 -37 -57 -60.5t-90 -23.5q-34 0 -64 10t-52.5 30t-35.5 49.5t-13 69.5v328h113v-300q0 -51 26.5 -72.5t59.5 -21.5q21 0 40.5 9t34.5 27t24 45t9 62v251h113v-474zM207 675q27 0 46 -8.5t35 -18t30 -18t31 -8.5q16 0 26.5 7.5t18.5 16.5q8 11 14 25
l56 -49q-11 -21 -28 -37q-14 -14 -36.5 -25.5t-54.5 -11.5q-26 0 -45 8.5t-34.5 18t-30 18t-31.5 8.5t-28 -7.5t-18 -16.5q-8 -11 -13 -24l-56 49q10 20 27 36q14 14 36.5 25.5t54.5 11.5z" />
    <glyph glyph-name="Umacron" unicode="&#x16a;" horiz-adv-x="688" 
d="M208 850h273v-75h-273v75zM344 -13q-138 0 -202.5 69t-64.5 197v447h118v-448q0 -34 8 -64.5t25.5 -53.5t46 -36.5t69.5 -13.5t69.5 13.5t46 36.5t25.5 53.5t8 64.5v448h118v-447q0 -128 -64.5 -197t-202.5 -69z" />
    <glyph glyph-name="umacron" unicode="&#x16b;" horiz-adv-x="560" 
d="M488 0h-108v71q-22 -37 -57 -60.5t-90 -23.5q-34 0 -64 10t-52.5 30t-35.5 49.5t-13 69.5v328h113v-300q0 -51 26.5 -72.5t59.5 -21.5q21 0 40.5 9t34.5 27t24 45t9 62v251h113v-474zM141 630h273v-74h-273v74z" />
    <glyph glyph-name="Ubreve" unicode="&#x16c;" horiz-adv-x="688" 
d="M265 901q5 -29 26 -49.5t53 -20.5t53 20.5t26 49.5l83 -24q-12 -54 -55.5 -86.5t-106.5 -32.5t-106.5 32.5t-55.5 86.5zM344 -13q-138 0 -202.5 69t-64.5 197v447h118v-448q0 -34 8 -64.5t25.5 -53.5t46 -36.5t69.5 -13.5t69.5 13.5t46 36.5t25.5 53.5t8 64.5v448h118
v-447q0 -128 -64.5 -197t-202.5 -69z" />
    <glyph glyph-name="ubreve" unicode="&#x16d;" horiz-adv-x="560" 
d="M488 0h-108v71q-22 -37 -57 -60.5t-90 -23.5q-34 0 -64 10t-52.5 30t-35.5 49.5t-13 69.5v328h113v-300q0 -51 26.5 -72.5t59.5 -21.5q21 0 40.5 9t34.5 27t24 45t9 62v251h113v-474zM198 688q5 -29 26 -49.5t53 -20.5t53 20.5t26 49.5l83 -24q-12 -53 -55.5 -86
t-106.5 -33t-106.5 33t-55.5 86z" />
    <glyph glyph-name="Uring" unicode="&#x16e;" horiz-adv-x="688" 
d="M344 -13q-138 0 -202.5 69t-64.5 197v447h118v-448q0 -34 8 -64.5t25.5 -53.5t46 -36.5t69.5 -13.5t69.5 13.5t46 36.5t25.5 53.5t8 64.5v448h118v-447q0 -128 -64.5 -197t-202.5 -69zM238 848q0 44 29 71.5t77 27.5t77 -27.5t29 -71.5q0 -42 -29 -71.5t-77 -29.5
t-77 29.5t-29 71.5zM298 848q0 -19 13 -32.5t33 -13.5t33 13.5t13 32.5t-13 32t-33 13t-33 -13t-13 -32z" />
    <glyph glyph-name="uring" unicode="&#x16f;" horiz-adv-x="560" 
d="M173 629q0 44 29 72t77 28t77 -28t29 -72q0 -42 -29 -71t-77 -29t-77 29t-29 71zM233 629q0 -18 13 -32t33 -14t33 14t13 32q0 20 -13 32.5t-33 12.5t-33 -12.5t-13 -32.5zM488 0h-108v71q-22 -37 -57 -60.5t-90 -23.5q-34 0 -64 10t-52.5 30t-35.5 49.5t-13 69.5v328
h113v-300q0 -51 26.5 -72.5t59.5 -21.5q21 0 40.5 9t34.5 27t24 45t9 62v251h113v-474z" />
    <glyph glyph-name="Uhungarumlaut" unicode="&#x170;" horiz-adv-x="688" 
d="M344 -13q-138 0 -202.5 69t-64.5 197v447h118v-448q0 -34 8 -64.5t25.5 -53.5t46 -36.5t69.5 -13.5t69.5 13.5t46 36.5t25.5 53.5t8 64.5v448h118v-447q0 -128 -64.5 -197t-202.5 -69zM620 870l-192 -121l-40 56l176 143zM387 870l-192 -121l-41 56l176 143z" />
    <glyph glyph-name="uhungarumlaut" unicode="&#x171;" horiz-adv-x="560" 
d="M488 0h-108v71q-22 -37 -57 -60.5t-90 -23.5q-34 0 -64 10t-52.5 30t-35.5 49.5t-13 69.5v328h113v-300q0 -51 26.5 -72.5t59.5 -21.5q21 0 40.5 9t34.5 27t24 45t9 62v251h113v-474zM541 654l-192 -121l-40 56l176 143zM308 654l-192 -121l-41 56l176 143z" />
    <glyph glyph-name="Uogonek" unicode="&#x172;" horiz-adv-x="688" 
d="M344 -13q-138 0 -202.5 69t-64.5 197v447h118v-448q0 -34 8 -64.5t25.5 -53.5t46 -36.5t69.5 -13.5t69.5 13.5t46 36.5t25.5 53.5t8 64.5v448h118v-447q0 -91 -31 -149.5t-95 -92.5q-44 -23 -75 -51.5t-31 -58.5q0 -16 10.5 -26t32.5 -10q16 0 29.5 8t29.5 31l46 -42
q-26 -34 -55 -49t-64 -15q-21 0 -41 5t-35.5 16.5t-25 29t-9.5 42.5q0 32 14 55t38 41h-5v0z" />
    <glyph glyph-name="uogonek" unicode="&#x173;" horiz-adv-x="560" 
d="M488 0q-48 -27 -74.5 -51t-26.5 -48q0 -16 11 -26t33 -10q16 0 29 8t29 31l46 -42q-26 -34 -55 -49t-64 -15q-21 0 -40.5 5t-35.5 16.5t-25.5 29t-9.5 42.5q0 37 20.5 61.5t54.5 47.5v71q-22 -37 -57 -60.5t-90 -23.5q-34 0 -64 10t-52.5 30t-35.5 49.5t-13 69.5v328h113
v-300q0 -51 26.5 -72.5t59.5 -21.5q21 0 40.5 9t34.5 27t24 45t9 62v251h113v-474z" />
    <glyph glyph-name="Wcircumflex" unicode="&#x174;" horiz-adv-x="926" 
d="M911 700l-186 -700h-130q-28 111 -53 210q-11 42 -21.5 86.5t-20.5 85.5t-18.5 76.5t-14.5 60.5h-3q-6 -25 -14.5 -60.5t-19 -76.5t-22 -85.5t-22.5 -86.5q-26 -99 -55 -210h-130l-185 700h120q31 -120 57 -227q11 -46 22.5 -93.5t22 -91t19 -81t13.5 -62.5h2
q5 25 14 62.5t20 81t23 91t24 93.5q27 107 59 227h111q32 -122 59 -230q12 -46 23.5 -94t22 -91.5t19 -79.5t13.5 -60h3q5 24 13.5 60t19 79.5t22.5 91.5t24 94q27 108 59 230h110zM422 912h85l115 -115l-54 -52l-104 101l-101 -101l-54 52z" />
    <glyph glyph-name="wcircumflex" unicode="&#x175;" horiz-adv-x="743" 
d="M338 706h74l115 -128l-55 -50l-98 106l-98 -106l-53 50zM426 474q25 -83 45 -155q9 -31 17.5 -62t16 -58.5t13 -49.5l8.5 -34h2q3 14 8.5 37t13 51t16 59t17.5 61q20 70 43 151h105l-145 -474h-118q-26 90 -46 164q-9 31 -17.5 62t-15.5 56.5t-12 43.5t-6 24
q-2 -6 -6.5 -24t-11.5 -43.5t-15.5 -56.5t-17.5 -62q-20 -74 -45 -164h-118l-145 474h112q24 -82 44 -152q9 -30 17.5 -61t15.5 -59t12.5 -50.5t8.5 -36.5h2q4 17 13 50.5t20 73.5t23 81.5t22 75.5t16.5 56l6.5 22h101z" />
    <glyph glyph-name="Ycircumflex" unicode="&#x176;" horiz-adv-x="658" 
d="M269 300l-259 400h136l186 -292l186 292h130l-260 -400v-300h-119v300zM287 912h85l115 -115l-54 -52l-104 101l-101 -101l-54 52z" />
    <glyph glyph-name="ycircumflex" unicode="&#x177;" horiz-adv-x="498" 
d="M120 -200l78 199l-186 475h116q29 -82 55 -152l22 -60t20.5 -56t16.5 -47t11 -31h2q3 10 10 31t16 47t20 56l22 60q26 70 55 152h108l-255 -674h-111zM215 706h74l115 -128l-55 -50l-98 106l-98 -106l-53 50z" />
    <glyph glyph-name="Ydieresis" unicode="&#x178;" horiz-adv-x="658" 
d="M269 300l-259 400h136l186 -292l186 292h130l-260 -400v-300h-119v300zM368 830q0 27 18 45t47 18t47 -18t18 -45t-18 -45t-47 -18t-47 18t-18 45zM164 830q0 27 18 45t47 18t47 -18t18 -45t-18 -45t-47 -18t-47 18t-18 45z" />
    <glyph glyph-name="Zacute" unicode="&#x179;" horiz-adv-x="620" 
d="M52 700h528v-87l-392 -516h389v-97h-536v85l393 518h-382v97zM453 857l-202 -109l-37 60l189 131z" />
    <glyph glyph-name="zacute" unicode="&#x17a;" horiz-adv-x="458" 
d="M366 641l-202 -109l-37 60l189 131zM44 474h377v-70l-247 -318h248v-86h-386v73l247 315h-239v86z" />
    <glyph glyph-name="Zdotaccent" unicode="&#x17b;" horiz-adv-x="620" 
d="M248 832q0 31 19.5 50.5t51.5 19.5t51.5 -19.5t19.5 -50.5q0 -30 -19.5 -49t-51.5 -19t-51.5 19t-19.5 49zM52 700h528v-87l-392 -516h389v-97h-536v85l393 518h-382v97z" />
    <glyph glyph-name="zdotaccent" unicode="&#x17c;" horiz-adv-x="458" 
d="M44 474h377v-70l-247 -318h248v-86h-386v73l247 315h-239v86zM163 612q0 32 19.5 51t50.5 19t50.5 -19t19.5 -51q0 -28 -19 -48t-51 -20t-51 20t-19 48z" />
    <glyph glyph-name="Zcaron" unicode="&#x17d;" horiz-adv-x="620" 
d="M161 867l54 51l102 -101l102 101l54 -51l-114 -116h-85zM52 700h528v-87l-392 -516h389v-97h-536v85l393 518h-382v97z" />
    <glyph glyph-name="zcaron" unicode="&#x17e;" horiz-adv-x="458" 
d="M271 534h-73l-116 128l55 50l98 -106l98 106l54 -50zM44 474h377v-70l-247 -318h248v-86h-386v73l247 315h-239v86z" />
    <glyph glyph-name="florin" unicode="&#x192;" horiz-adv-x="545" 
d="M134 424h90l13 123q5 45 21.5 77t41 52t54 29t61.5 9q35 0 65 -9.5t50 -23.5l-56 -88q-10 9 -25 17.5t-35 8.5q-30 0 -46.5 -22t-20.5 -60l-12 -113h110v-84h-118l-34 -325q-5 -47 -22 -78.5t-41.5 -51.5t-54.5 -28.5t-60 -8.5q-36 0 -66.5 9.5t-48.5 23.5l55 88
q10 -9 25 -17.5t35 -8.5q29 0 46 21t21 58l33 318h-81v84z" />
    <glyph glyph-name="Scommaaccent" unicode="&#x218;" horiz-adv-x="638" 
d="M397 -140q0 -15 -4 -34.5t-16 -37.5t-32.5 -32t-53.5 -18l-16 43q9 0 19 3.5t18.5 9.5t14.5 14t6 18v3q-2 -1 -12 -1q-22 0 -39.5 16.5t-17.5 42.5q0 21 15 40.5t47 19.5q37 0 54 -27t17 -60zM183 519q0 -25 8.5 -42t28 -29.5t51 -21.5t76.5 -16q60 -10 106 -26t77 -40.5
t46.5 -59t15.5 -82.5t-19.5 -88t-54.5 -68t-84.5 -43.5t-110.5 -15.5q-65 0 -115.5 17t-86 45.5t-54.5 67t-21 81.5l117 18q2 -26 12 -50.5t29.5 -43t48.5 -29.5t70 -11q67 0 107 28.5t40 84.5q0 24 -8.5 42t-27.5 31.5t-50 23t-76 16.5q-56 8 -101.5 22.5t-77.5 38
t-49.5 58t-17.5 82.5q0 49 18.5 87t52.5 64t80.5 39.5t102.5 13.5q107 0 176.5 -49.5t86.5 -138.5l-119 -27q-8 56 -44 88t-103 32q-66 0 -98 -27t-32 -72z" />
    <glyph glyph-name="scommaaccent" unicode="&#x219;" horiz-adv-x="478" 
d="M311 -140q0 -15 -4 -34.5t-16 -37.5t-32.5 -32t-53.5 -18l-16 43q9 0 19 3.5t18.5 9.5t14.5 14t6 18v3q-2 -1 -12 -1q-22 0 -39.5 16.5t-17.5 42.5q0 21 15 40.5t47 19.5q37 0 54 -27t17 -60zM158 348q0 -32 27 -44t71 -19q37 -5 71 -14.5t59.5 -26t41 -42t15.5 -62.5
q0 -72 -55.5 -112.5t-148.5 -40.5q-88 0 -144 36.5t-64 106.5l110 16q4 -40 30 -58t69 -18q40 0 64.5 15t24.5 47q0 28 -23 41.5t-82 22.5q-41 6 -74 16.5t-56.5 27t-36.5 41t-13 59.5q0 37 16 65t43 46t62.5 27t73.5 9q39 0 73 -9t60 -25.5t42.5 -41t21.5 -54.5l-110 -23
q-5 34 -27 52.5t-62 18.5q-33 0 -56 -14.5t-23 -42.5z" />
    <glyph glyph-name="dotlessj" unicode="&#x237;" horiz-adv-x="261" 
d="M189 -48q0 -46 -15.5 -78t-39.5 -51.5t-53.5 -28t-58.5 -8.5q-32 0 -61 8.5t-55 23.5l47 88q11 -8 27 -16t36 -8q29 0 44.5 19.5t15.5 57.5v515h113v-522z" />
    <glyph glyph-name="circumflex" unicode="&#x2c6;" 
d="M263 706h74l115 -128l-55 -50l-98 106l-98 -106l-53 50z" />
    <glyph glyph-name="caron" unicode="&#x2c7;" 
d="M336 534h-73l-116 128l55 50l98 -106l98 106l54 -50z" />
    <glyph glyph-name="breve" unicode="&#x2d8;" 
d="M221 688q5 -29 26 -49.5t53 -20.5t53 20.5t26 49.5l83 -24q-12 -53 -55.5 -86t-106.5 -33t-106.5 33t-55.5 86z" />
    <glyph glyph-name="dotaccent" unicode="&#x2d9;" 
d="M230 612q0 32 19.5 51t50.5 19t50.5 -19t19.5 -51q0 -28 -19 -48t-51 -20t-51 20t-19 48z" />
    <glyph glyph-name="ring" unicode="&#x2da;" 
d="M194 629q0 44 29 72t77 28t77 -28t29 -72q0 -42 -29 -71t-77 -29t-77 29t-29 71zM254 629q0 -18 13 -32t33 -14t33 14t13 32q0 20 -13 32.5t-33 12.5t-33 -12.5t-13 -32.5z" />
    <glyph glyph-name="ogonek" unicode="&#x2db;" 
d="M269 -99q0 -16 10.5 -26t32.5 -10q16 0 29.5 8t29.5 31l46 -42q-26 -34 -55 -49t-64 -15q-21 0 -41 5t-35.5 16.5t-25 29t-9.5 42.5q0 38 19.5 62.5t51.5 46.5h112q-54 -28 -77.5 -52t-23.5 -47z" />
    <glyph glyph-name="tilde" unicode="&#x2dc;" 
d="M231 675q27 0 46 -8.5t35 -18t30 -18t31 -8.5q16 0 26.5 7.5t18.5 16.5q8 11 14 25l56 -49q-11 -21 -28 -37q-14 -14 -36.5 -25.5t-54.5 -11.5q-26 0 -45 8.5t-34.5 18t-30 18t-31.5 8.5t-28 -7.5t-18 -16.5q-8 -11 -13 -24l-56 49q10 20 27 36q14 14 36.5 25.5
t54.5 11.5z" />
    <glyph glyph-name="hungarumlaut" unicode="&#x2dd;" 
d="M530 654l-192 -121l-40 56l176 143zM297 654l-192 -121l-41 56l176 143z" />
    <glyph glyph-name="uni0312" unicode="&#x312;" 
d="M241 616q0 15 4 34t16 37t32.5 32t53.5 19l16 -43q-9 0 -19.5 -3.5t-19 -9.5t-14.5 -14t-6 -18v-3q2 0 5 0.5t7 0.5q23 0 40 -16.5t17 -42.5q0 -21 -15 -40.5t-47 -19.5q-37 0 -53.5 27t-16.5 60z" />
    <glyph glyph-name="pi" unicode="&#x3c0;" horiz-adv-x="592" 
d="M526 388h-69v-260q0 -32 12 -42t27 -10q14 0 25.5 5t19.5 10l26 -85q-17 -8 -40.5 -13.5t-49.5 -5.5t-48 6.5t-39 22t-26.5 41.5t-9.5 66v265h-143v-388h-103v388h-69v86h487v-86z" />
    <glyph glyph-name="pi" unicode="&#x3d6;" horiz-adv-x="592" 
d="M526 388h-69v-260q0 -32 12 -42t27 -10q14 0 25.5 5t19.5 10l26 -85q-17 -8 -40.5 -13.5t-49.5 -5.5t-48 6.5t-39 22t-26.5 41.5t-9.5 66v265h-143v-388h-103v388h-69v86h487v-86z" />
    <glyph glyph-name="Wgrave" unicode="&#x1e80;" horiz-adv-x="926" 
d="M339 857l50 82l189 -131l-37 -60zM911 700l-186 -700h-130q-28 111 -53 210q-11 42 -21.5 86.5t-20.5 85.5t-18.5 76.5t-14.5 60.5h-3q-6 -25 -14.5 -60.5t-19 -76.5t-22 -85.5t-22.5 -86.5q-26 -99 -55 -210h-130l-185 700h120q31 -120 57 -227q11 -46 22.5 -93.5
t22 -91t19 -81t13.5 -62.5h2q5 25 14 62.5t20 81t23 91t24 93.5q27 107 59 227h111q32 -122 59 -230q12 -46 23.5 -94t22 -91.5t19 -79.5t13.5 -60h3q5 24 13.5 60t19 79.5t22.5 91.5t24 94q27 108 59 230h110z" />
    <glyph glyph-name="wgrave" unicode="&#x1e81;" horiz-adv-x="743" 
d="M426 474q25 -83 45 -155q9 -31 17.5 -62t16 -58.5t13 -49.5l8.5 -34h2q3 14 8.5 37t13 51t16 59t17.5 61q20 70 43 151h105l-145 -474h-118q-26 90 -46 164q-9 31 -17.5 62t-15.5 56.5t-12 43.5t-6 24q-2 -6 -6.5 -24t-11.5 -43.5t-15.5 -56.5t-17.5 -62
q-20 -74 -45 -164h-118l-145 474h112q24 -82 44 -152q9 -30 17.5 -61t15.5 -59t12.5 -50.5t8.5 -36.5h2q4 17 13 50.5t20 73.5t23 81.5t22 75.5t16.5 56l6.5 22h101zM246 641l50 82l189 -131l-37 -60z" />
    <glyph glyph-name="Wacute" unicode="&#x1e82;" horiz-adv-x="926" 
d="M591 857l-202 -109l-37 60l189 131zM911 700l-186 -700h-130q-28 111 -53 210q-11 42 -21.5 86.5t-20.5 85.5t-18.5 76.5t-14.5 60.5h-3q-6 -25 -14.5 -60.5t-19 -76.5t-22 -85.5t-22.5 -86.5q-26 -99 -55 -210h-130l-185 700h120q31 -120 57 -227q11 -46 22.5 -93.5
t22 -91t19 -81t13.5 -62.5h2q5 25 14 62.5t20 81t23 91t24 93.5q27 107 59 227h111q32 -122 59 -230q12 -46 23.5 -94t22 -91.5t19 -79.5t13.5 -60h3q5 24 13.5 60t19 79.5t22.5 91.5t24 94q27 108 59 230h110z" />
    <glyph glyph-name="wacute" unicode="&#x1e83;" horiz-adv-x="743" 
d="M502 641l-202 -109l-37 60l189 131zM426 474q25 -83 45 -155q9 -31 17.5 -62t16 -58.5t13 -49.5l8.5 -34h2q3 14 8.5 37t13 51t16 59t17.5 61q20 70 43 151h105l-145 -474h-118q-26 90 -46 164q-9 31 -17.5 62t-15.5 56.5t-12 43.5t-6 24q-2 -6 -6.5 -24t-11.5 -43.5
t-15.5 -56.5t-17.5 -62q-20 -74 -45 -164h-118l-145 474h112q24 -82 44 -152q9 -30 17.5 -61t15.5 -59t12.5 -50.5t8.5 -36.5h2q4 17 13 50.5t20 73.5t23 81.5t22 75.5t16.5 56l6.5 22h101z" />
    <glyph glyph-name="Wdieresis" unicode="&#x1e84;" horiz-adv-x="926" 
d="M502 830q0 27 18 45t47 18t47 -18t18 -45t-18 -45t-47 -18t-47 18t-18 45zM298 830q0 27 18 45t47 18t47 -18t18 -45t-18 -45t-47 -18t-47 18t-18 45zM911 700l-186 -700h-130q-28 111 -53 210q-11 42 -21.5 86.5t-20.5 85.5t-18.5 76.5t-14.5 60.5h-3
q-6 -25 -14.5 -60.5t-19 -76.5t-22 -85.5t-22.5 -86.5q-26 -99 -55 -210h-130l-185 700h120q31 -120 57 -227q11 -46 22.5 -93.5t22 -91t19 -81t13.5 -62.5h2q5 25 14 62.5t20 81t23 91t24 93.5q27 107 59 227h111q32 -122 59 -230q12 -46 23.5 -94t22 -91.5t19 -79.5
t13.5 -60h3q5 24 13.5 60t19 79.5t22.5 91.5t24 94q27 108 59 230h110z" />
    <glyph glyph-name="wdieresis" unicode="&#x1e85;" horiz-adv-x="743" 
d="M413 607q0 28 18 45.5t47 17.5t47 -17.5t18 -45.5q0 -26 -18 -44.5t-47 -18.5t-47 18.5t-18 44.5zM209 607q0 28 18 45.5t47 17.5t47 -17.5t18 -45.5q0 -26 -18 -44.5t-47 -18.5t-47 18.5t-18 44.5zM426 474q25 -83 45 -155q9 -31 17.5 -62t16 -58.5t13 -49.5l8.5 -34h2
q3 14 8.5 37t13 51t16 59t17.5 61q20 70 43 151h105l-145 -474h-118q-26 90 -46 164q-9 31 -17.5 62t-15.5 56.5t-12 43.5t-6 24q-2 -6 -6.5 -24t-11.5 -43.5t-15.5 -56.5t-17.5 -62q-20 -74 -45 -164h-118l-145 474h112q24 -82 44 -152q9 -30 17.5 -61t15.5 -59t12.5 -50.5
t8.5 -36.5h2q4 17 13 50.5t20 73.5t23 81.5t22 75.5t16.5 56l6.5 22h101z" />
    <glyph glyph-name="figuredash" unicode="&#x2012;" 
d="M57 331h486v-86h-486v86z" />
    <glyph glyph-name="endash" unicode="&#x2013;" horiz-adv-x="500" 
d="M57 331h386v-86h-386v86z" />
    <glyph glyph-name="emdash" unicode="&#x2014;" horiz-adv-x="870" 
d="M57 331h756v-86h-756v86z" />
    <glyph glyph-name="uni2015" unicode="&#x2015;" horiz-adv-x="1200" 
d="M1143 331v-86h-1086v86h1086z" />
    <glyph glyph-name="doublebar" unicode="&#x2016;" horiz-adv-x="444" 
d="M260 797h97v-966h-97v966zM87 797h96v-966h-96v966z" />
    <glyph glyph-name="quoteleft" unicode="&#x2018;" horiz-adv-x="237" 
d="M42 559q0 19 5 43.5t18.5 47.5t38 40.5t63.5 23.5l19 -51q-11 0 -23 -5t-22.5 -13.5t-17.5 -19.5t-7 -24v-6q5 1 15 1q26 0 46.5 -19.5t20.5 -50.5q0 -25 -17.5 -48t-55.5 -23q-22 0 -38 9t-26 23.5t-14.5 33t-4.5 38.5z" />
    <glyph glyph-name="quoteright" unicode="&#x2019;" horiz-adv-x="238" 
d="M196 609q0 -20 -5 -44t-18.5 -47t-38.5 -40.5t-64 -23.5l-18 51q10 0 22.5 5t22.5 13.5t17 20t7 24.5v6q-5 -2 -15 -2q-26 0 -46 20t-20 50q0 12 4 25t13 23t22.5 16.5t32.5 6.5q22 0 38 -8.5t26 -23t15 -33.5t5 -39z" />
    <glyph glyph-name="quotesinglbase" unicode="&#x201a;" horiz-adv-x="238" 
d="M196 32q0 -20 -5 -44t-19 -46.5t-38.5 -40t-63.5 -23.5l-19 51q11 0 23 5t22.5 13t17.5 19.5t7 24.5v6q-6 -2 -15 -2q-26 0 -46.5 20t-20.5 50q0 12 4.5 25t13.5 23t22.5 16.5t32.5 6.5q22 0 38 -8.5t26 -23t15 -33.5t5 -39z" />
    <glyph glyph-name="reversequoteleft" unicode="&#x201b;" horiz-adv-x="237" 
d="M42 609q0 20 4.5 39t14.5 33.5t26 23t38 8.5q38 0 55.5 -23t17.5 -48q0 -30 -20.5 -50t-46.5 -20q-10 0 -15 2v-6q0 -13 7 -24.5t17.5 -20t22.5 -13.5t23 -5l-19 -51q-39 6 -63.5 23.5t-38 40.5t-18.5 47t-5 44z" />
    <glyph glyph-name="quotedblleft" unicode="&#x201c;" horiz-adv-x="429" 
d="M42 559q0 19 5 43.5t18.5 47.5t38 40.5t63.5 23.5l19 -51q-11 0 -23 -5t-22.5 -13.5t-17.5 -19.5t-7 -24v-6q5 1 15 1q26 0 46.5 -19.5t20.5 -50.5q0 -25 -17.5 -48t-55.5 -23q-22 0 -38 9t-26 23.5t-14.5 33t-4.5 38.5zM233 559q0 19 5 43.5t18.5 47.5t38 40.5
t63.5 23.5l19 -51q-11 0 -23 -5t-22.5 -13.5t-17.5 -19.5t-7 -24v-6q5 1 15 1q26 0 46.5 -19.5t20.5 -50.5q0 -25 -17.5 -48t-55.5 -23q-22 0 -38 9t-26 23.5t-14.5 33t-4.5 38.5z" />
    <glyph glyph-name="quotedblright" unicode="&#x201d;" horiz-adv-x="429" 
d="M196 609q0 -20 -5 -44t-18.5 -47t-38.5 -40.5t-64 -23.5l-18 51q10 0 22.5 5t22.5 13.5t17 20t7 24.5v6q-5 -2 -15 -2q-26 0 -46 20t-20 50q0 12 4 25t13 23t22.5 16.5t32.5 6.5q22 0 38 -8.5t26 -23t15 -33.5t5 -39zM387 609q0 -20 -5 -44t-18.5 -47t-38.5 -40.5
t-64 -23.5l-18 51q10 0 22.5 5t22.5 13.5t17 20t7 24.5v6q-5 -2 -15 -2q-26 0 -46 20t-20 50q0 12 4 25t13 23t22.5 16.5t32.5 6.5q22 0 38 -8.5t26 -23t15 -33.5t5 -39z" />
    <glyph glyph-name="quotedblbase" unicode="&#x201e;" horiz-adv-x="429" 
d="M196 32q0 -20 -5 -44t-19 -46.5t-38.5 -40t-63.5 -23.5l-19 51q11 0 23 5t22.5 13t17.5 19.5t7 24.5v6q-6 -2 -15 -2q-26 0 -46.5 20t-20.5 50q0 12 4.5 25t13.5 23t22.5 16.5t32.5 6.5q22 0 38 -8.5t26 -23t15 -33.5t5 -39zM388 32q0 -20 -5 -44t-19 -46.5t-38.5 -40
t-63.5 -23.5l-19 51q11 0 23 5t22.5 13t17.5 19.5t7 24.5v6q-6 -2 -15 -2q-26 0 -46.5 20t-20.5 50q0 12 4.5 25t13.5 23t22.5 16.5t32.5 6.5q22 0 38 -8.5t26 -23t15 -33.5t5 -39z" />
    <glyph glyph-name="reversequotedblleft" unicode="&#x201f;" horiz-adv-x="429" 
d="M42 609q0 20 4.5 39t14.5 33.5t26 23t38 8.5q38 0 55.5 -23t17.5 -48q0 -30 -20.5 -50t-46.5 -20q-10 0 -15 2v-6q0 -13 7 -24.5t17.5 -20t22.5 -13.5t23 -5l-19 -51q-39 6 -63.5 23.5t-38 40.5t-18.5 47t-5 44zM233 609q0 20 4.5 39t14.5 33.5t26 23t38 8.5
q38 0 55.5 -23t17.5 -48q0 -30 -20.5 -50t-46.5 -20q-10 0 -15 2v-6q0 -13 7 -24.5t17.5 -20t22.5 -13.5t23 -5l-19 -51q-39 6 -63.5 23.5t-38 40.5t-18.5 47t-5 44z" />
    <glyph glyph-name="dagger" unicode="&#x2020;" horiz-adv-x="490" 
d="M28 481h163v219h108v-219h163v-95h-163v-508h-108v508h-163v95z" />
    <glyph glyph-name="daggerdbl" unicode="&#x2021;" horiz-adv-x="490" 
d="M28 200h163v197h-163v95h163v208h108v-208h163v-95h-163v-197h163v-95h-163v-227h-108v227h-163v95z" />
    <glyph glyph-name="bullet" unicode="&#x2022;" horiz-adv-x="371" 
d="M58 326q0 27 9.5 49.5t26.5 39t40 26t51 9.5t51.5 -9.5t40.5 -26t26.5 -39t9.5 -49.5q0 -53 -35.5 -87.5t-92.5 -34.5q-56 0 -91.5 34.5t-35.5 87.5z" />
    <glyph glyph-name="ellipsis" unicode="&#x2026;" horiz-adv-x="808" 
d="M604 60q0 30 19.5 50t51.5 20t51.5 -20t19.5 -50q0 -29 -19.5 -48.5t-51.5 -19.5t-51.5 19.5t-19.5 48.5zM333 60q0 30 19.5 50t51.5 20t51.5 -20t19.5 -50q0 -29 -19.5 -48.5t-51.5 -19.5t-51.5 19.5t-19.5 48.5zM62 60q0 30 19.5 50t51.5 20t51.5 -20t19.5 -50
q0 -29 -19.5 -48.5t-51.5 -19.5t-51.5 19.5t-19.5 48.5z" />
    <glyph glyph-name="perthousand" unicode="&#x2030;" horiz-adv-x="1275" 
d="M1236 171q0 -31 -8 -63.5t-27.5 -59.5t-51.5 -44t-79 -17t-78.5 17t-51 44t-28 59.5t-8.5 63.5t8.5 64t28 60t51 44t78.5 17t79 -17t51.5 -44t27.5 -60t8 -64zM993 171q0 -50 19 -81t58 -31q40 0 59 31t19 81q0 51 -19 82t-59 31q-39 0 -58 -31t-19 -82zM178 -13l437 726
h96l-438 -726h-95zM370 515q0 -32 -8 -64.5t-27.5 -59.5t-51.5 -44t-79 -17t-78.5 17t-51 44t-27.5 59.5t-8 64.5q0 31 8 63.5t27.5 59.5t51 44t78.5 17t79 -17t51.5 -44t27.5 -59.5t8 -63.5zM127 515q0 -51 19 -82t58 -31q40 0 59 31t19 82q0 50 -19 81t-59 31
q-39 0 -58 -31t-19 -81zM841 171q0 -31 -8 -63.5t-27.5 -59.5t-51.5 -44t-79 -17t-78.5 17t-51 44t-28 59.5t-8.5 63.5t8.5 64t28 60t51 44t78.5 17t79 -17t51.5 -44t27.5 -60t8 -64zM598 171q0 -50 19 -81t58 -31q40 0 59 31t19 81q0 51 -19 82t-59 31q-39 0 -58 -31
t-19 -82z" />
    <glyph glyph-name="guilsinglleft" unicode="&#x2039;" horiz-adv-x="310" 
d="M30 256l179 224l67 -50l-129 -174l129 -173l-67 -51z" />
    <glyph glyph-name="guilsinglright" unicode="&#x203a;" horiz-adv-x="310" 
d="M280 256l-179 -224l-67 51l129 173l-129 174l67 50z" />
    <glyph glyph-name="fraction" unicode="&#x2044;" horiz-adv-x="273" 
d="M-130 -13l437 726h96l-439 -726h-94z" />
    <glyph glyph-name="uni2070" unicode="&#x2070;" horiz-adv-x="396" 
d="M44 512q0 40 8.5 76t26.5 63t47.5 42.5t71.5 15.5t71.5 -15.5t47.5 -42.5t26.5 -63t8.5 -76q0 -41 -8.5 -76.5t-26.5 -62.5t-47.5 -42.5t-71.5 -15.5t-71.5 15.5t-47.5 42.5t-26.5 62.5t-8.5 76.5zM264 512q0 56 -15 90.5t-51 34.5q-35 0 -50.5 -34.5t-15.5 -90.5
q0 -55 15.5 -90t50.5 -35q36 0 51 35t15 90z" />
    <glyph glyph-name="uni2074" unicode="&#x2074;" horiz-adv-x="376" 
d="M27 460l154 238h108v-233h62l-10 -66h-52v-75h-82v75h-180v61zM208 465v161h-2l-103 -161h105z" />
    <glyph glyph-name="uni2075" unicode="&#x2075;" horiz-adv-x="361" 
d="M119 432q2 -21 17 -34t41 -13q29 0 46 17.5t17 44.5q0 26 -15 43t-44 17q-35 0 -57 -31l-72 13l24 209h228l-12 -70h-155l-11 -83q11 12 28.5 21t45.5 9q30 0 53.5 -10.5t39.5 -28t24 -40.5t8 -48q0 -28 -10.5 -52.5t-30 -42.5t-47 -28t-60.5 -10q-32 0 -56.5 8
t-41.5 21.5t-26.5 31t-11.5 36.5z" />
    <glyph glyph-name="uni2076" unicode="&#x2076;" horiz-adv-x="376" 
d="M200 641q-39 0 -57.5 -32.5t-20.5 -80.5q12 20 34.5 32t55.5 12q32 0 56.5 -11t40.5 -29t24 -40.5t8 -46.5q0 -26 -9.5 -49.5t-27.5 -41.5t-45 -28.5t-62 -10.5q-71 0 -112 45.5t-41 146.5q0 99 41 150.5t116 51.5q59 0 90 -28.5t41 -66.5l-80 -9q-4 14 -15.5 25
t-36.5 11zM198 507q-29 0 -46 -18t-17 -44q0 -27 16.5 -44.5t45.5 -17.5q25 0 43.5 15.5t18.5 46.5q0 26 -16 44t-45 18z" />
    <glyph glyph-name="uni2077" unicode="&#x2077;" horiz-adv-x="330" 
d="M37 698h270v-62q-17 -19 -39 -49t-42 -69.5t-34 -88t-14 -105.5h-87q0 51 12 96.5t30 84.5t39 70.5t39 52.5h-187z" />
    <glyph glyph-name="uni2078" unicode="&#x2078;" horiz-adv-x="371" 
d="M185 315q-36 0 -63 9.5t-45 25.5t-27 35.5t-9 40.5q0 39 22 63t51 31q-25 11 -43 32t-18 53q0 19 8.5 38t25 33.5t41.5 23.5t57 9q33 0 57.5 -9t41.5 -23.5t25.5 -33.5t8.5 -38q0 -32 -18 -53t-43 -32q28 -7 50.5 -31t22.5 -63q0 -21 -9 -40.5t-27.5 -35.5t-45.5 -25.5
t-63 -9.5zM132 600q0 -23 15.5 -35t37.5 -12q23 0 38.5 12t15.5 35q0 22 -15.5 33.5t-38.5 11.5q-22 0 -37.5 -11.5t-15.5 -33.5zM185 379q31 0 47.5 14.5t16.5 37.5q0 25 -17.5 39.5t-46.5 14.5q-28 0 -45.5 -14.5t-17.5 -39.5q0 -23 16.5 -37.5t46.5 -14.5z" />
    <glyph glyph-name="uni2079" unicode="&#x2079;" horiz-adv-x="376" 
d="M176 383q39 0 57.5 32.5t20.5 80.5q-12 -20 -34.5 -32t-55.5 -12q-32 0 -56.5 11t-40.5 29t-24 40.5t-8 46.5q0 25 9.5 48.5t27.5 41.5t45 29t62 11q71 0 112 -45.5t41 -146.5q0 -99 -41 -150.5t-116 -51.5q-59 0 -90 28.5t-41 66.5l80 9q4 -14 15.5 -25t36.5 -11z
M178 517q29 0 46 18t17 44q0 27 -16.5 44.5t-45.5 17.5q-25 0 -43.5 -15.5t-18.5 -46.5q0 -26 16 -44t45 -18z" />
    <glyph glyph-name="uni207A" unicode="&#x207a;" horiz-adv-x="366" 
d="M36 560h108v108h78v-108h108v-77h-108v-111h-78v111h-108v77z" />
    <glyph glyph-name="uni207B" unicode="&#x207b;" horiz-adv-x="373" 
d="M45 560h283v-77h-283v77z" />
    <glyph glyph-name="uni207C" unicode="&#x207c;" horiz-adv-x="373" 
d="M45 630h283v-77h-283v77zM45 489h283v-77h-283v77z" />
    <glyph glyph-name="uni207D" unicode="&#x207d;" horiz-adv-x="228" 
d="M45 501q0 36 8.5 70.5t24.5 64.5t38 54.5t48 39.5l46 -36q-45 -38 -65 -87t-20 -106t20 -106t65 -87l-46 -36q-26 15 -48 39.5t-38 55t-24.5 65t-8.5 69.5z" />
    <glyph glyph-name="uni207E" unicode="&#x207e;" horiz-adv-x="228" 
d="M183 501q0 -35 -9 -69.5t-24.5 -65t-37.5 -55t-48 -39.5l-46 36q46 38 66 87t20 106t-20 106t-66 87l46 36q26 -15 48 -39.5t37.5 -54.5t24.5 -64.5t9 -70.5z" />
    <glyph glyph-name="n.superior" unicode="&#x207f;" horiz-adv-x="393" 
d="M57 589h79v-46q13 23 36 39t59 16q45 0 76 -25.5t31 -76.5v-208h-82v186q0 32 -16 44.5t-36 12.5q-25 0 -45 -21t-20 -64v-158h-82v301z" />
    <glyph glyph-name="uni2080" unicode="&#x2080;" horiz-adv-x="396" 
d="M44 188q0 40 8.5 76t26.5 63t47.5 42.5t71.5 15.5t71.5 -15.5t47.5 -42.5t26.5 -63t8.5 -76q0 -41 -8.5 -76.5t-26.5 -62.5t-47.5 -42.5t-71.5 -15.5t-71.5 15.5t-47.5 42.5t-26.5 62.5t-8.5 76.5zM264 188q0 56 -15 90.5t-51 34.5q-35 0 -50.5 -34.5t-15.5 -90.5
q0 -55 15.5 -90t50.5 -35q36 0 51 35t15 90z" />
    <glyph glyph-name="uni2081" unicode="&#x2081;" horiz-adv-x="269" 
d="M202 376v-376h-88v286q-12 -9 -33 -16t-45 -8l-17 68q34 4 62 15.5t44 30.5h77z" />
    <glyph glyph-name="uni2082" unicode="&#x2082;" horiz-adv-x="372" 
d="M47 65q25 19 49 37q20 15 41 31.5t34 27.5q30 25 48.5 49t18.5 53q0 23 -14 37t-38 14q-30 0 -45 -22t-18 -46l-83 14q11 54 46.5 89.5t101.5 35.5q34 0 59.5 -10t43 -26.5t26 -38t8.5 -45.5q0 -42 -23.5 -75.5t-61.5 -64.5q-17 -14 -39 -29t-39 -26h166v-70h-281v65z
" />
    <glyph glyph-name="uni2083" unicode="&#x2083;" horiz-adv-x="366" 
d="M43 286q5 18 15 35.5t26 32t39.5 23t55.5 8.5q62 0 99 -31.5t37 -79.5q0 -32 -16 -52.5t-41 -28.5q28 -5 47.5 -28.5t19.5 -56.5q0 -23 -9.5 -44t-28.5 -37t-46 -25.5t-61 -9.5q-37 0 -64 9.5t-44 24.5t-26 33.5t-10 36.5q3 1 15 4t25.5 6.5t25.5 7t15 4.5q1 -10 4.5 -20
t10.5 -18t18.5 -13t28.5 -5q32 0 44.5 15t12.5 33q0 23 -18 36t-47 13q-4 0 -7.5 -0.5t-5.5 -0.5h-5v68q2 -1 5 -1h11q30 0 44 13t14 33q0 22 -14.5 33t-34.5 11q-24 0 -38.5 -14t-16.5 -34z" />
    <glyph glyph-name="uni2084" unicode="&#x2084;" horiz-adv-x="376" 
d="M27 136l154 238h108v-233h62l-10 -66h-52v-75h-82v75h-180v61zM208 141v161h-2l-103 -161h105z" />
    <glyph glyph-name="uni2085" unicode="&#x2085;" horiz-adv-x="361" 
d="M119 108q2 -21 17 -34t41 -13q29 0 46 17.5t17 44.5q0 26 -15 43t-44 17q-35 0 -57 -31l-72 13l24 209h228l-12 -70h-155l-11 -83q11 12 28.5 21t45.5 9q30 0 53.5 -10.5t39.5 -28t24 -40.5t8 -48q0 -28 -10.5 -52.5t-30 -42.5t-47 -28t-60.5 -10q-32 0 -56.5 8
t-41.5 21.5t-26.5 31t-11.5 36.5z" />
    <glyph glyph-name="uni2086" unicode="&#x2086;" horiz-adv-x="376" 
d="M200 317q-39 0 -57.5 -32.5t-20.5 -80.5q12 20 34.5 32t55.5 12q32 0 56.5 -11t40.5 -29t24 -40.5t8 -46.5q0 -26 -9.5 -49.5t-27.5 -41.5t-45 -28.5t-62 -10.5q-71 0 -112 45.5t-41 146.5q0 99 41 150.5t116 51.5q59 0 90 -28.5t41 -66.5l-80 -9q-4 14 -15.5 25
t-36.5 11zM198 183q-29 0 -46 -18t-17 -44q0 -27 16.5 -44.5t45.5 -17.5q25 0 43.5 15.5t18.5 46.5q0 26 -16 44t-45 18z" />
    <glyph glyph-name="uni2087" unicode="&#x2087;" horiz-adv-x="330" 
d="M37 374h270v-62q-17 -19 -39 -49t-42 -69.5t-34 -88t-14 -105.5h-87q0 51 12 96.5t30 84.5t39 70.5t39 52.5h-187z" />
    <glyph glyph-name="uni2088" unicode="&#x2088;" horiz-adv-x="371" 
d="M185 -9q-36 0 -63 9.5t-45 25.5t-27 35.5t-9 40.5q0 39 22 63t51 31q-25 11 -43 32t-18 53q0 19 8.5 38t25 33.5t41.5 23.5t57 9q33 0 57.5 -9t41.5 -23.5t25.5 -33.5t8.5 -38q0 -32 -18 -53t-43 -32q28 -7 50.5 -31t22.5 -63q0 -21 -9 -40.5t-27.5 -35.5t-45.5 -25.5
t-63 -9.5zM132 276q0 -23 15.5 -35t37.5 -12q23 0 38.5 12t15.5 35q0 22 -15.5 33.5t-38.5 11.5q-22 0 -37.5 -11.5t-15.5 -33.5zM185 55q31 0 47.5 14.5t16.5 37.5q0 25 -17.5 39.5t-46.5 14.5q-28 0 -45.5 -14.5t-17.5 -39.5q0 -23 16.5 -37.5t46.5 -14.5z" />
    <glyph glyph-name="uni2089" unicode="&#x2089;" horiz-adv-x="376" 
d="M176 59q39 0 57.5 32.5t20.5 80.5q-12 -20 -34.5 -32t-55.5 -12q-32 0 -56.5 11t-40.5 29t-24 40.5t-8 46.5q0 25 9.5 48.5t27.5 41.5t45 29t62 11q71 0 112 -45.5t41 -146.5q0 -99 -41 -150.5t-116 -51.5q-59 0 -90 28.5t-41 66.5l80 9q4 -14 15.5 -25t36.5 -11z
M178 193q29 0 46 18t17 44q0 27 -16.5 44.5t-45.5 17.5q-25 0 -43.5 -15.5t-18.5 -46.5q0 -26 16 -44t45 -18z" />
    <glyph glyph-name="uni208A" unicode="&#x208a;" horiz-adv-x="366" 
d="M36 236h108v108h78v-108h108v-77h-108v-111h-78v111h-108v77z" />
    <glyph glyph-name="uni208B" unicode="&#x208b;" horiz-adv-x="373" 
d="M45 236h283v-77h-283v77z" />
    <glyph glyph-name="uni208C" unicode="&#x208c;" horiz-adv-x="373" 
d="M45 306h283v-77h-283v77zM45 165h283v-77h-283v77z" />
    <glyph glyph-name="uni208D" unicode="&#x208d;" horiz-adv-x="228" 
d="M45 177q0 36 8.5 70.5t24.5 64.5t38 54.5t48 39.5l46 -36q-45 -38 -65 -87t-20 -106t20 -106t65 -87l-46 -36q-26 15 -48 39.5t-38 55t-24.5 65t-8.5 69.5z" />
    <glyph glyph-name="uni208E" unicode="&#x208e;" horiz-adv-x="228" 
d="M183 177q0 -35 -9 -69.5t-24.5 -65t-37.5 -55t-48 -39.5l-46 36q46 38 66 87t20 106t-20 106t-66 87l46 36q26 -15 48 -39.5t37.5 -54.5t24.5 -64.5t9 -70.5z" />
    <glyph glyph-name="Euro" unicode="&#x20ac;" horiz-adv-x="642" 
d="M91 340v18.5t1 18.5h-65v73h76q12 56 37.5 101.5t63 78t86.5 50.5t108 18q76 0 129.5 -28t87.5 -72l-78 -63q-25 34 -61.5 53t-79.5 19q-59 0 -108.5 -38.5t-70.5 -118.5h227v-73h-238q-1 -8 -1 -16v-16v-16.5t1 -16.5h238v-73h-226q18 -71 62.5 -116t115.5 -45
q45 0 80 19t62 52l77 -63q-38 -45 -91 -72t-128 -27q-63 0 -112.5 19t-86.5 52.5t-61 79.5t-35 101h-74v73h64v28v0z" />
    <glyph glyph-name="servicemark" unicode="&#x2120;" horiz-adv-x="716" 
d="M120 624q0 -19 17 -26.5t49 -14.5q19 -4 37 -9.5t32 -15t22 -24t8 -35.5q0 -24 -9.5 -41.5t-26 -29t-37.5 -17t-45 -5.5q-55 0 -88 23t-36 60l68 11q5 -41 57 -41q5 0 13.5 1t16 4.5t13 10.5t5.5 19q0 17 -16.5 25t-55.5 15q-50 8 -71.5 30t-21.5 54q0 45 32 66t80 21
q44 0 76.5 -18.5t41.5 -57.5l-66 -15q-9 39 -54 39q-20 0 -30.5 -8t-10.5 -21zM468 411q-5 16 -14.5 43t-20 56.5t-19.5 58t-14 47.5h-1v-205h-61v289h90q18 -53 33 -97q13 -38 24.5 -72.5t14.5 -45.5q2 11 13 45.5t23 72.5q14 44 31 97h90v-289h-59v205h-1q-5 -18 -15 -48
t-20.5 -60.5t-20 -57.5t-13.5 -39h-60z" />
    <glyph glyph-name="trademark" unicode="&#x2122;" horiz-adv-x="689" 
d="M441 411q-5 16 -14.5 43t-20 56.5t-19.5 58t-14 47.5h-1v-205h-61v289h90q18 -53 33 -97q13 -38 24.5 -72.5t14.5 -45.5q2 11 13 45.5t23 72.5q14 44 31 97h90v-289h-59v205h-1q-5 -18 -15 -48t-20.5 -60.5t-20 -57.5t-13.5 -39h-60zM28 700h233v-56h-83v-233h-68v233
h-82v56z" />
    <glyph glyph-name="estimated" unicode="&#x212e;" horiz-adv-x="770" 
d="M694 164q-20 -42 -47.5 -75t-65 -56t-85 -35t-108.5 -12q-83 0 -146.5 26.5t-106 74.5t-64 115t-21.5 149q0 90 24.5 157.5t68.5 113.5t106.5 69t137.5 23q85 0 148 -28.5t104 -77.5t61 -115.5t20 -141.5v-28h-553q3 -63 18 -114.5t42.5 -87.5t68 -55.5t93.5 -19.5
q50 0 87.5 12t65 32t46 47t29.5 57zM388 654q-57 0 -97 -20t-66 -56t-40 -85.5t-18 -108.5h435q-4 61 -19 110.5t-41 85t-64.5 55t-89.5 19.5z" />
    <glyph glyph-name="uni2153" unicode="&#x2153;" horiz-adv-x="802" 
d="M479 286q5 18 15 35.5t26 32t39.5 23t55.5 8.5q62 0 99 -31.5t37 -79.5q0 -32 -16 -52.5t-41 -28.5q28 -5 47.5 -28.5t19.5 -56.5q0 -23 -9.5 -44t-28.5 -37t-46 -25.5t-61 -9.5q-37 0 -64 9.5t-44 24.5t-26 33.5t-10 36.5q3 1 15 4t25.5 6.5t25.5 7t15 4.5
q1 -10 4.5 -20t10.5 -18t18.5 -13t28.5 -5q32 0 44.5 15t12.5 33q0 23 -18 36t-47 13q-4 0 -7.5 -0.5t-5.5 -0.5h-5v68q2 -1 5 -1h11q30 0 44 13t14 33q0 22 -14.5 33t-34.5 11q-24 0 -38.5 -14t-16.5 -34zM202 700v-376h-88v286q-12 -9 -33 -16t-45 -8l-17 68q34 4 62 15.5
t44 30.5h77zM100 -13l437 726h96l-439 -726h-94z" />
    <glyph glyph-name="uni2154" unicode="&#x2154;" horiz-adv-x="895" 
d="M47 389q25 19 49 37q20 15 41 31.5t34 27.5q30 25 48.5 49t18.5 53q0 23 -14 37t-38 14q-30 0 -45 -22t-18 -46l-83 14q11 54 46.5 89.5t101.5 35.5q34 0 59.5 -10t43 -26.5t26 -38t8.5 -45.5q0 -42 -23.5 -75.5t-61.5 -64.5q-17 -14 -39 -29t-39 -26h166v-70h-281v65z
M572 286q5 18 15 35.5t26 32t39.5 23t55.5 8.5q62 0 99 -31.5t37 -79.5q0 -32 -16 -52.5t-41 -28.5q28 -5 47.5 -28.5t19.5 -56.5q0 -23 -9.5 -44t-28.5 -37t-46 -25.5t-61 -9.5q-37 0 -64 9.5t-44 24.5t-26 33.5t-10 36.5q3 1 15 4t25.5 6.5t25.5 7t15 4.5q1 -10 4.5 -20
t10.5 -18t18.5 -13t28.5 -5q32 0 44.5 15t12.5 33q0 23 -18 36t-47 13q-4 0 -7.5 -0.5t-5.5 -0.5h-5v68q2 -1 5 -1h11q30 0 44 13t14 33q0 22 -14.5 33t-34.5 11q-24 0 -38.5 -14t-16.5 -34zM193 -13l437 726h96l-439 -726h-94z" />
    <glyph glyph-name="uni2155" unicode="&#x2155;" horiz-adv-x="797" 
d="M556 108q2 -21 17 -34t41 -13q29 0 46 17.5t17 44.5q0 26 -15 43t-44 17q-35 0 -57 -31l-72 13l24 209h228l-12 -70h-155l-11 -83q11 12 28.5 21t45.5 9q30 0 53.5 -10.5t39.5 -28t24 -40.5t8 -48q0 -28 -10.5 -52.5t-30 -42.5t-47 -28t-60.5 -10q-32 0 -56.5 8
t-41.5 21.5t-26.5 31t-11.5 36.5zM202 700v-376h-88v286q-12 -9 -33 -16t-45 -8l-17 68q34 4 62 15.5t44 30.5h77zM100 -13l437 726h96l-439 -726h-94z" />
    <glyph glyph-name="uni2156" unicode="&#x2156;" horiz-adv-x="890" 
d="M649 108q2 -21 17 -34t41 -13q29 0 46 17.5t17 44.5q0 26 -15 43t-44 17q-35 0 -57 -31l-72 13l24 209h228l-12 -70h-155l-11 -83q11 12 28.5 21t45.5 9q30 0 53.5 -10.5t39.5 -28t24 -40.5t8 -48q0 -28 -10.5 -52.5t-30 -42.5t-47 -28t-60.5 -10q-32 0 -56.5 8
t-41.5 21.5t-26.5 31t-11.5 36.5zM47 389q25 19 49 37q20 15 41 31.5t34 27.5q30 25 48.5 49t18.5 53q0 23 -14 37t-38 14q-30 0 -45 -22t-18 -46l-83 14q11 54 46.5 89.5t101.5 35.5q34 0 59.5 -10t43 -26.5t26 -38t8.5 -45.5q0 -42 -23.5 -75.5t-61.5 -64.5
q-17 -14 -39 -29t-39 -26h166v-70h-281v65zM193 -13l437 726h96l-439 -726h-94z" />
    <glyph glyph-name="uni2157" unicode="&#x2157;" horiz-adv-x="871" 
d="M630 108q2 -21 17 -34t41 -13q29 0 46 17.5t17 44.5q0 26 -15 43t-44 17q-35 0 -57 -31l-72 13l24 209h228l-12 -70h-155l-11 -83q11 12 28.5 21t45.5 9q30 0 53.5 -10.5t39.5 -28t24 -40.5t8 -48q0 -28 -10.5 -52.5t-30 -42.5t-47 -28t-60.5 -10q-32 0 -56.5 8
t-41.5 21.5t-26.5 31t-11.5 36.5zM43 610q5 18 15 35.5t26 32t39.5 23t55.5 8.5q62 0 99 -31.5t37 -79.5q0 -32 -16 -52.5t-41 -28.5q28 -5 47.5 -28.5t19.5 -56.5q0 -23 -9.5 -44t-28.5 -37t-46 -25.5t-61 -9.5q-37 0 -64 9.5t-44 24.5t-26 33.5t-10 36.5q3 1 15 4
t25.5 6.5t25.5 7t15 4.5q1 -10 4.5 -20t10.5 -18t18.5 -13t28.5 -5q32 0 44.5 15t12.5 33q0 23 -18 36t-47 13q-4 0 -7.5 -0.5t-5.5 -0.5h-5v68q2 -1 5 -1h11q30 0 44 13t14 33q0 22 -14.5 33t-34.5 11q-24 0 -38.5 -14t-16.5 -34zM174 -13l437 726h96l-439 -726h-94z" />
    <glyph glyph-name="uni2158" unicode="&#x2158;" horiz-adv-x="897" 
d="M27 460l154 238h108v-233h62l-10 -66h-52v-75h-82v75h-180v61zM208 465v161h-2l-103 -161h105zM656 108q2 -21 17 -34t41 -13q29 0 46 17.5t17 44.5q0 26 -15 43t-44 17q-35 0 -57 -31l-72 13l24 209h228l-12 -70h-155l-11 -83q11 12 28.5 21t45.5 9q30 0 53.5 -10.5
t39.5 -28t24 -40.5t8 -48q0 -28 -10.5 -52.5t-30 -42.5t-47 -28t-60.5 -10q-32 0 -56.5 8t-41.5 21.5t-26.5 31t-11.5 36.5zM200 -13l437 726h96l-439 -726h-94z" />
    <glyph glyph-name="uni2159" unicode="&#x2159;" horiz-adv-x="799" 
d="M623 317q-39 0 -57.5 -32.5t-20.5 -80.5q12 20 34.5 32t55.5 12q32 0 56.5 -11t40.5 -29t24 -40.5t8 -46.5q0 -26 -9.5 -49.5t-27.5 -41.5t-45 -28.5t-62 -10.5q-71 0 -112 45.5t-41 146.5q0 99 41 150.5t116 51.5q59 0 90 -28.5t41 -66.5l-80 -9q-4 14 -15.5 25
t-36.5 11zM621 183q-29 0 -46 -18t-17 -44q0 -27 16.5 -44.5t45.5 -17.5q25 0 43.5 15.5t18.5 46.5q0 26 -16 44t-45 18zM202 700v-376h-88v286q-12 -9 -33 -16t-45 -8l-17 68q34 4 62 15.5t44 30.5h77zM100 -13l437 726h96l-439 -726h-94z" />
    <glyph glyph-name="uni215A" unicode="&#x215a;" horiz-adv-x="865" 
d="M689 317q-39 0 -57.5 -32.5t-20.5 -80.5q12 20 34.5 32t55.5 12q32 0 56.5 -11t40.5 -29t24 -40.5t8 -46.5q0 -26 -9.5 -49.5t-27.5 -41.5t-45 -28.5t-62 -10.5q-71 0 -112 45.5t-41 146.5q0 99 41 150.5t116 51.5q59 0 90 -28.5t41 -66.5l-80 -9q-4 14 -15.5 25
t-36.5 11zM687 183q-29 0 -46 -18t-17 -44q0 -27 16.5 -44.5t45.5 -17.5q25 0 43.5 15.5t18.5 46.5q0 26 -16 44t-45 18zM119 432q2 -21 17 -34t41 -13q29 0 46 17.5t17 44.5q0 26 -15 43t-44 17q-35 0 -57 -31l-72 13l24 209h228l-12 -70h-155l-11 -83q11 12 28.5 21
t45.5 9q30 0 53.5 -10.5t39.5 -28t24 -40.5t8 -48q0 -28 -10.5 -52.5t-30 -42.5t-47 -28t-60.5 -10q-32 0 -56.5 8t-41.5 21.5t-26.5 31t-11.5 36.5zM166 -13l437 726h96l-439 -726h-94z" />
    <glyph glyph-name="uni215B" unicode="&#x215b;" horiz-adv-x="803" 
d="M202 700v-376h-88v286q-12 -9 -33 -16t-45 -8l-17 68q34 4 62 15.5t44 30.5h77zM617 -9q-36 0 -63 9.5t-45 25.5t-27 35.5t-9 40.5q0 39 22 63t51 31q-25 11 -43 32t-18 53q0 19 8.5 38t25 33.5t41.5 23.5t57 9q33 0 57.5 -9t41.5 -23.5t25.5 -33.5t8.5 -38
q0 -32 -18 -53t-43 -32q28 -7 50.5 -31t22.5 -63q0 -21 -9 -40.5t-27.5 -35.5t-45.5 -25.5t-63 -9.5zM564 276q0 -23 15.5 -35t37.5 -12q23 0 38.5 12t15.5 35q0 22 -15.5 33.5t-38.5 11.5q-22 0 -37.5 -11.5t-15.5 -33.5zM617 55q31 0 47.5 14.5t16.5 37.5q0 25 -17.5 39.5
t-46.5 14.5q-28 0 -45.5 -14.5t-17.5 -39.5q0 -23 16.5 -37.5t46.5 -14.5zM100 -13l437 726h96l-439 -726h-94z" />
    <glyph glyph-name="uni215C" unicode="&#x215c;" horiz-adv-x="877" 
d="M43 610q5 18 15 35.5t26 32t39.5 23t55.5 8.5q62 0 99 -31.5t37 -79.5q0 -32 -16 -52.5t-41 -28.5q28 -5 47.5 -28.5t19.5 -56.5q0 -23 -9.5 -44t-28.5 -37t-46 -25.5t-61 -9.5q-37 0 -64 9.5t-44 24.5t-26 33.5t-10 36.5q3 1 15 4t25.5 6.5t25.5 7t15 4.5q1 -10 4.5 -20
t10.5 -18t18.5 -13t28.5 -5q32 0 44.5 15t12.5 33q0 23 -18 36t-47 13q-4 0 -7.5 -0.5t-5.5 -0.5h-5v68q2 -1 5 -1h11q30 0 44 13t14 33q0 22 -14.5 33t-34.5 11q-24 0 -38.5 -14t-16.5 -34zM691 -9q-36 0 -63 9.5t-45 25.5t-27 35.5t-9 40.5q0 39 22 63t51 31
q-25 11 -43 32t-18 53q0 19 8.5 38t25 33.5t41.5 23.5t57 9q33 0 57.5 -9t41.5 -23.5t25.5 -33.5t8.5 -38q0 -32 -18 -53t-43 -32q28 -7 50.5 -31t22.5 -63q0 -21 -9 -40.5t-27.5 -35.5t-45.5 -25.5t-63 -9.5zM638 276q0 -23 15.5 -35t37.5 -12q23 0 38.5 12t15.5 35
q0 22 -15.5 33.5t-38.5 11.5q-22 0 -37.5 -11.5t-15.5 -33.5zM691 55q31 0 47.5 14.5t16.5 37.5q0 25 -17.5 39.5t-46.5 14.5q-28 0 -45.5 -14.5t-17.5 -39.5q0 -23 16.5 -37.5t46.5 -14.5zM174 -13l437 726h96l-439 -726h-94z" />
    <glyph glyph-name="uni215D" unicode="&#x215d;" horiz-adv-x="869" 
d="M119 432q2 -21 17 -34t41 -13q29 0 46 17.5t17 44.5q0 26 -15 43t-44 17q-35 0 -57 -31l-72 13l24 209h228l-12 -70h-155l-11 -83q11 12 28.5 21t45.5 9q30 0 53.5 -10.5t39.5 -28t24 -40.5t8 -48q0 -28 -10.5 -52.5t-30 -42.5t-47 -28t-60.5 -10q-32 0 -56.5 8
t-41.5 21.5t-26.5 31t-11.5 36.5zM683 -9q-36 0 -63 9.5t-45 25.5t-27 35.5t-9 40.5q0 39 22 63t51 31q-25 11 -43 32t-18 53q0 19 8.5 38t25 33.5t41.5 23.5t57 9q33 0 57.5 -9t41.5 -23.5t25.5 -33.5t8.5 -38q0 -32 -18 -53t-43 -32q28 -7 50.5 -31t22.5 -63
q0 -21 -9 -40.5t-27.5 -35.5t-45.5 -25.5t-63 -9.5zM630 276q0 -23 15.5 -35t37.5 -12q23 0 38.5 12t15.5 35q0 22 -15.5 33.5t-38.5 11.5q-22 0 -37.5 -11.5t-15.5 -33.5zM683 55q31 0 47.5 14.5t16.5 37.5q0 25 -17.5 39.5t-46.5 14.5q-28 0 -45.5 -14.5t-17.5 -39.5
q0 -23 16.5 -37.5t46.5 -14.5zM166 -13l437 726h96l-439 -726h-94z" />
    <glyph glyph-name="uni215E" unicode="&#x215e;" horiz-adv-x="800" 
d="M37 698h270v-62q-17 -19 -39 -49t-42 -69.5t-34 -88t-14 -105.5h-87q0 51 12 96.5t30 84.5t39 70.5t39 52.5h-187zM614 -9q-36 0 -63 9.5t-45 25.5t-27 35.5t-9 40.5q0 39 22 63t51 31q-25 11 -43 32t-18 53q0 19 8.5 38t25 33.5t41.5 23.5t57 9q33 0 57.5 -9t41.5 -23.5
t25.5 -33.5t8.5 -38q0 -32 -18 -53t-43 -32q28 -7 50.5 -31t22.5 -63q0 -21 -9 -40.5t-27.5 -35.5t-45.5 -25.5t-63 -9.5zM561 276q0 -23 15.5 -35t37.5 -12q23 0 38.5 12t15.5 35q0 22 -15.5 33.5t-38.5 11.5q-22 0 -37.5 -11.5t-15.5 -33.5zM614 55q31 0 47.5 14.5
t16.5 37.5q0 25 -17.5 39.5t-46.5 14.5q-28 0 -45.5 -14.5t-17.5 -39.5q0 -23 16.5 -37.5t46.5 -14.5zM97 -13l437 726h96l-439 -726h-94z" />
    <glyph glyph-name="uni215F" unicode="&#x215f;" horiz-adv-x="627" 
d="M202 700v-376h-88v286q-12 -9 -33 -16t-45 -8l-17 68q34 4 62 15.5t44 30.5h77zM100 -13l437 726h96l-439 -726h-94z" />
    <glyph glyph-name="arrowleft" unicode="&#x2190;" horiz-adv-x="850" 
d="M777 395v-92h-539l183 -184l-64 -64l-294 294l294 294l64 -64l-183 -184h539z" />
    <glyph glyph-name="arrowup" unicode="&#x2191;" horiz-adv-x="775" 
d="M434 0h-93v539l-184 -182l-63 64l293 294l294 -294l-64 -64l-183 182v-539z" />
    <glyph glyph-name="arrowright" unicode="&#x2192;" horiz-adv-x="850" 
d="M612 395l-183 184l64 64l294 -294l-294 -294l-64 64l183 184h-539v92h539z" />
    <glyph glyph-name="arrowdown" unicode="&#x2193;" horiz-adv-x="775" 
d="M434 161l183 182l64 -64l-294 -294l-293 294l63 64l184 -182v539h93v-539z" />
    <glyph glyph-name="uni2196" unicode="&#x2196;" horiz-adv-x="750" 
d="M668 227l-65 -65l-382 381v-259h-90v416h415v-91h-259z" />
    <glyph glyph-name="uni2197" unicode="&#x2197;" horiz-adv-x="750" 
d="M463 609h-259v91h415v-416h-90v259l-382 -381l-65 65z" />
    <glyph glyph-name="uni2198" unicode="&#x2198;" horiz-adv-x="750" 
d="M82 473l65 65l382 -381v259h90v-416h-415v91h259z" />
    <glyph glyph-name="uni2199" unicode="&#x2199;" horiz-adv-x="750" 
d="M287 91h259v-91h-415v416h90v-259l382 381l65 -65z" />
    <glyph glyph-name="partialdiff" unicode="&#x2202;" horiz-adv-x="571" 
d="M91 624q27 39 70.5 64t112.5 25q122 0 184 -89t62 -264q0 -191 -68 -281.5t-188 -90.5q-55 0 -96 17.5t-68.5 47t-41.5 69t-14 83.5q0 42 13 83t39.5 73t68 52t98.5 20q29 0 53.5 -6t43.5 -15.5t32.5 -21t22.5 -22.5q0 53 -7 99.5t-23.5 81.5t-44 55t-69.5 20
q-43 0 -67.5 -19t-39.5 -42zM267 345q-29 0 -49 -11.5t-33.5 -31t-19.5 -44t-6 -51.5q0 -61 27.5 -95.5t75.5 -34.5q33 0 59 15.5t44.5 41t28 59.5t9.5 70q-7 17 -21 32t-32 26t-39.5 17.5t-43.5 6.5z" />
    <glyph glyph-name="Delta" unicode="&#x2206;" horiz-adv-x="719" 
d="M677 0h-634l253 700h130zM188 90h341l-171 490z" />
    <glyph glyph-name="product" unicode="&#x220f;" horiz-adv-x="668" 
d="M75 700h518v-700h-114v606h-290v-606h-114v700z" />
    <glyph glyph-name="summation" unicode="&#x2211;" horiz-adv-x="555" 
d="M507 0h-459v85l178 265l-178 265v85h459v-94h-328l172 -256l-172 -256h328v-94z" />
    <glyph glyph-name="minus" unicode="&#x2212;" 
d="M52 370h496v-91h-496v91z" />
    <glyph glyph-name="radical" unicode="&#x221a;" horiz-adv-x="630" 
d="M26 382l173 56l106 -316l205 578h105l-259 -700h-107l-116 332l-82 -27z" />
    <glyph glyph-name="infinity" unicode="&#x221e;" horiz-adv-x="791" 
d="M565 139q-52 0 -91 26t-79 80q-39 -54 -78 -80t-92 -26q-36 0 -68.5 11.5t-57 35t-39.5 58t-15 81.5t15 82t39.5 58.5t57 35t68.5 11.5q53 0 92 -26t78 -80q40 54 79 80t91 26q36 0 68.5 -11.5t57.5 -35t40 -58.5t15 -82t-15 -81.5t-40 -58t-57.5 -35t-68.5 -11.5z
M445 325q23 -42 51 -70t66 -28q36 0 60.5 24.5t24.5 73.5q0 50 -24.5 74.5t-60.5 24.5q-38 0 -66 -28.5t-51 -70.5zM346 325q-23 42 -51 70.5t-67 28.5q-35 0 -59.5 -24.5t-24.5 -74.5q0 -49 24.5 -73.5t59.5 -24.5q39 0 67 28t51 70z" />
    <glyph glyph-name="integral" unicode="&#x222b;" horiz-adv-x="362" 
d="M124 546q0 46 13.5 78t36 51.5t51 28.5t57.5 9q35 0 63.5 -10t48.5 -24l-46 -86q-9 10 -23.5 18t-32.5 8q-27 0 -41 -22t-14 -61v-520q0 -46 -13.5 -78t-36 -51.5t-51 -28.5t-57.5 -9q-35 0 -63.5 10t-47.5 24l45 86q10 -10 24 -18t32 -8q27 0 41 22t14 61v520z" />
    <glyph glyph-name="approxequal" unicode="&#x2248;" 
d="M389 348q-34 0 -59 9.5t-45.5 20.5t-39 20.5t-39.5 9.5q-22 0 -37 -9t-25 -20q-11 -12 -19 -28l-73 57q14 26 36 46q19 17 49 31.5t72 14.5q35 0 60 -9.5t45.5 -20.5t39 -20.5t40.5 -9.5q21 0 36 9t25 20q11 12 19 29l73 -57q-14 -27 -36 -47q-19 -17 -49 -31.5
t-73 -14.5zM389 152q-34 0 -59 9.5t-45.5 20.5t-39 20.5t-39.5 9.5q-22 0 -37 -9t-25 -20q-11 -12 -19 -28l-73 57q14 26 36 46q19 17 49 31.5t72 14.5q35 0 60 -9.5t45.5 -20.5t39 -20.5t40.5 -9.5q21 0 36 9t25 20q11 12 19 29l73 -57q-14 -27 -36 -47q-19 -17 -49 -31.5
t-73 -14.5z" />
    <glyph glyph-name="notequal" unicode="&#x2260;" 
d="M52 463h286l98 159l69 -42l-72 -117h115v-91h-171l-61 -98h232v-91h-288l-96 -157l-70 42l71 115h-113v91h169l61 98h-230v91z" />
    <glyph glyph-name="equivalence" unicode="&#x2261;" 
d="M52 569h496v-90h-496v90zM52 370h496v-90h-496v90zM52 171h496v-90h-496v90z" />
    <glyph glyph-name="lessequal" unicode="&#x2264;" 
d="M53 337v102l494 197v-103l-383 -144l383 -143v-104zM547 0h-494v91h494v-91z" />
    <glyph glyph-name="greaterequal" unicode="&#x2265;" 
d="M547 441v-101l-494 -198v103l383 144l-383 144v103zM53 91h494v-91h-494v91z" />
    <glyph glyph-name="squaremultiply" unicode="&#x22a0;" horiz-adv-x="850" 
d="M75 700h700v-700h-700v700zM162 80h526v540h-526v-540zM425 289l-156 -156l-62 61l157 156l-157 157l62 61l156 -156l156 156l62 -61l-156 -157l156 -156l-62 -61z" />
    <glyph glyph-name="blacksquare" unicode="&#x25a0;" horiz-adv-x="850" 
d="M75 700h700v-700h-700v700z" />
    <glyph glyph-name="blacksquare" unicode="&#xe740;" horiz-adv-x="850" 
d="M75 700h700v-700h-700v700z" />
    <glyph glyph-name="whitesquare" unicode="&#x25a1;" horiz-adv-x="850" 
d="M75 700h700v-700h-700v700zM162 80h526v540h-526v-540z" />
    <glyph glyph-name="blacksmallsquare" unicode="&#x25aa;" 
d="M63 474h474v-474h-474v474z" />
    <glyph glyph-name="whitesmallsquare" unicode="&#x25ab;" 
d="M63 474h474v-474h-474v474zM143 73h314v328h-314v-328z" />
    <glyph glyph-name="triagup" unicode="&#x25b2;" horiz-adv-x="800" 
d="M50 0l350 716l350 -716h-700z" />
    <glyph glyph-name="triagrt" unicode="&#x25ba;" horiz-adv-x="785" 
d="M50 700l685 -350l-685 -350v700z" />
    <glyph glyph-name="triagdn" unicode="&#x25bc;" horiz-adv-x="800" 
d="M750 700l-350 -716l-350 716h700z" />
    <glyph glyph-name="triaglf" unicode="&#x25c4;" horiz-adv-x="785" 
d="M735 0l-685 350l685 350v-700z" />
    <glyph glyph-name="lozenge" unicode="&#x25ca;" horiz-adv-x="587" 
d="M532 350l-179 -350h-119l-179 350l179 350h119zM174 350l120 -237l119 237l-119 237z" />
    <glyph glyph-name="whitecircle" unicode="&#x25cb;" horiz-adv-x="850" 
d="M62 350q0 75 28.5 141.5t78 115.5t115.5 77.5t141 28.5t141 -28.5t115.5 -77.5t78 -115.5t28.5 -141.5t-28.5 -141.5t-78 -115.5t-115.5 -77.5t-141 -28.5t-141 28.5t-115.5 77.5t-78 115.5t-28.5 141.5zM700 350q0 58 -21.5 110t-58.5 90t-87.5 60.5t-107.5 22.5
t-107.5 -22.5t-87.5 -60.5t-58.5 -90t-21.5 -110q0 -59 21.5 -110.5t58.5 -89.5t87.5 -60.5t107.5 -22.5t107.5 22.5t87.5 60.5t58.5 89.5t21.5 110.5z" />
    <glyph glyph-name="whitecircle" unicode="&#x25ef;" horiz-adv-x="850" 
d="M62 350q0 75 28.5 141.5t78 115.5t115.5 77.5t141 28.5t141 -28.5t115.5 -77.5t78 -115.5t28.5 -141.5t-28.5 -141.5t-78 -115.5t-115.5 -77.5t-141 -28.5t-141 28.5t-115.5 77.5t-78 115.5t-28.5 141.5zM700 350q0 58 -21.5 110t-58.5 90t-87.5 60.5t-107.5 22.5
t-107.5 -22.5t-87.5 -60.5t-58.5 -90t-21.5 -110q0 -59 21.5 -110.5t58.5 -89.5t87.5 -60.5t107.5 -22.5t107.5 22.5t87.5 60.5t58.5 89.5t21.5 110.5z" />
    <glyph glyph-name="blackcircle" unicode="&#x25cf;" horiz-adv-x="850" 
d="M788 350q0 -75 -29 -141t-78.5 -115.5t-115.5 -78t-140 -28.5t-140 28.5t-115.5 78t-78.5 115.5t-29 141t29 141t78.5 115.5t115.5 78t140 28.5t140 -28.5t115.5 -78t78.5 -115.5t29 -141z" />
    <glyph glyph-name="uni25E2" unicode="&#x25e2;" horiz-adv-x="800" 
d="M539 700l221 -716l-717 220z" />
    <glyph glyph-name="uni25E3" unicode="&#x25e3;" horiz-adv-x="800" 
d="M757 204l-717 -220l221 716z" />
    <glyph glyph-name="uni25E4" unicode="&#x25e4;" horiz-adv-x="800" 
d="M261 -16l-221 716l717 -220z" />
    <glyph glyph-name="uni25E5" unicode="&#x25e5;" horiz-adv-x="800" 
d="M43 480l717 220l-221 -716z" />
    <glyph glyph-name="ballotboxwithx" unicode="&#x2612;" 
d="M63 474h474v-474h-474v474zM143 73h314v328h-314v-328zM300 182l-64 -65l-56 55l65 65l-65 65l56 56l64 -66l65 65l56 -55l-66 -65l66 -64l-56 -56z" />
    <glyph glyph-name="mediumwhitecircle" unicode="&#x26aa;" 
d="M50 237q0 52 19.5 97.5t53.5 79.5t79.5 53.5t97.5 19.5t97.5 -19.5t79.5 -53.5t53.5 -79.5t19.5 -97.5t-19.5 -97.5t-53.5 -79.5t-79.5 -53.5t-97.5 -19.5t-97.5 19.5t-79.5 53.5t-53.5 79.5t-19.5 97.5zM468 237q0 37 -13 69t-36 56t-53.5 37.5t-65.5 13.5t-65.5 -13.5
t-53.5 -37.5t-36 -56t-13 -69t13 -69t36 -56t53.5 -37.5t65.5 -13.5t65.5 13.5t53.5 37.5t36 56t13 69z" />
    <glyph glyph-name="mediumblackcircle" unicode="&#x26ab;" 
d="M49 237q0 52 20 97.5t54 79.5t79.5 53.5t96.5 19.5q52 0 98 -19.5t80 -53.5t54 -79.5t20 -97.5t-20 -97.5t-54 -79.5t-80 -53.5t-98 -19.5q-51 0 -96.5 19.5t-79.5 53.5t-54 79.5t-20 97.5z" />
    <glyph glyph-name="anglebracketleft" unicode="&#x3008;" horiz-adv-x="335" 
d="M233 792l87 -32l-157 -453l157 -453l-87 -32l-185 485z" />
    <glyph glyph-name="anglebracketright" unicode="&#x3009;" horiz-adv-x="335" 
d="M287 307l-185 -485l-87 32l156 453l-156 453l87 32z" />
    <glyph glyph-name="aogonek.school" unicode="&#xe150;" horiz-adv-x="579" 
d="M39 237q0 58 16 104t44.5 78.5t67.5 50t84 17.5q54 0 91.5 -23t55.5 -58v68h109v-474q-48 -27 -74.5 -51t-26.5 -48q0 -16 11 -26t33 -10q16 0 29 8t29 31l46 -42q-26 -34 -55 -49t-64 -15q-21 0 -40.5 5t-35.5 16.5t-25.5 29t-9.5 42.5q0 37 20 61.5t54 47.5v70
q-9 -16 -22.5 -31t-32 -26.5t-42.5 -18.5t-54 -7q-44 0 -82 17.5t-66 50t-44 78.5t-16 104zM274 397q-27 0 -49 -12t-37.5 -33.5t-23.5 -51t-8 -63.5q0 -35 8 -64t23 -50.5t36 -33.5t48 -12q20 0 42 7.5t40 24t29.5 42.5t11.5 64v44q0 37 -11.5 63.5t-29 43t-39 24
t-40.5 7.5z" />
    <glyph glyph-name="a.school" unicode="&#xe151;" horiz-adv-x="579" 
d="M39 237q0 58 16 104t44.5 78.5t67.5 50t84 17.5q54 0 91.5 -23t55.5 -58v68h109v-474h-109v70q-9 -16 -22.5 -31t-32 -26.5t-42.5 -18.5t-54 -7q-44 0 -82 17.5t-66 50t-44 78.5t-16 104zM274 397q-27 0 -49 -12t-37.5 -33.5t-23.5 -51t-8 -63.5q0 -35 8 -64t23 -50.5
t36 -33.5t48 -12q20 0 42 7.5t40 24t29.5 42.5t11.5 64v44q0 37 -11.5 63.5t-29 43t-39 24t-40.5 7.5z" />
    <glyph glyph-name="agrave.school" unicode="&#xe152;" horiz-adv-x="579" 
d="M39 237q0 58 16 104t44.5 78.5t67.5 50t84 17.5q54 0 91.5 -23t55.5 -58v68h109v-474h-109v70q-9 -16 -22.5 -31t-32 -26.5t-42.5 -18.5t-54 -7q-44 0 -82 17.5t-66 50t-44 78.5t-16 104zM274 397q-27 0 -49 -12t-37.5 -33.5t-23.5 -51t-8 -63.5q0 -35 8 -64t23 -50.5
t36 -33.5t48 -12q20 0 42 7.5t40 24t29.5 42.5t11.5 64v44q0 37 -11.5 63.5t-29 43t-39 24t-40.5 7.5zM151 641l50 82l189 -131l-37 -60z" />
    <glyph glyph-name="aacute.school" unicode="&#xe153;" horiz-adv-x="579" 
d="M39 237q0 58 16 104t44.5 78.5t67.5 50t84 17.5q54 0 91.5 -23t55.5 -58v68h109v-474h-109v70q-9 -16 -22.5 -31t-32 -26.5t-42.5 -18.5t-54 -7q-44 0 -82 17.5t-66 50t-44 78.5t-16 104zM274 397q-27 0 -49 -12t-37.5 -33.5t-23.5 -51t-8 -63.5q0 -35 8 -64t23 -50.5
t36 -33.5t48 -12q20 0 42 7.5t40 24t29.5 42.5t11.5 64v44q0 37 -11.5 63.5t-29 43t-39 24t-40.5 7.5zM390 641l-202 -109l-37 60l189 131z" />
    <glyph glyph-name="acircumflex.school" unicode="&#xe154;" horiz-adv-x="579" 
d="M235 706h74l115 -128l-55 -50l-98 106l-98 -106l-53 50zM39 237q0 58 16 104t44.5 78.5t67.5 50t84 17.5q54 0 91.5 -23t55.5 -58v68h109v-474h-109v70q-9 -16 -22.5 -31t-32 -26.5t-42.5 -18.5t-54 -7q-44 0 -82 17.5t-66 50t-44 78.5t-16 104zM274 397q-27 0 -49 -12
t-37.5 -33.5t-23.5 -51t-8 -63.5q0 -35 8 -64t23 -50.5t36 -33.5t48 -12q20 0 42 7.5t40 24t29.5 42.5t11.5 64v44q0 37 -11.5 63.5t-29 43t-39 24t-40.5 7.5z" />
    <glyph glyph-name="adieresis.school" unicode="&#xe155;" horiz-adv-x="579" 
d="M309 607q0 28 18 45.5t47 17.5t47 -17.5t18 -45.5q0 -26 -18 -44.5t-47 -18.5t-47 18.5t-18 44.5zM105 607q0 28 18 45.5t47 17.5t47 -17.5t18 -45.5q0 -26 -18 -44.5t-47 -18.5t-47 18.5t-18 44.5zM39 237q0 58 16 104t44.5 78.5t67.5 50t84 17.5q54 0 91.5 -23
t55.5 -58v68h109v-474h-109v70q-9 -16 -22.5 -31t-32 -26.5t-42.5 -18.5t-54 -7q-44 0 -82 17.5t-66 50t-44 78.5t-16 104zM274 397q-27 0 -49 -12t-37.5 -33.5t-23.5 -51t-8 -63.5q0 -35 8 -64t23 -50.5t36 -33.5t48 -12q20 0 42 7.5t40 24t29.5 42.5t11.5 64v44
q0 37 -11.5 63.5t-29 43t-39 24t-40.5 7.5z" />
    <glyph glyph-name="atilde.school" unicode="&#xe156;" horiz-adv-x="579" 
d="M39 237q0 58 16 104t44.5 78.5t67.5 50t84 17.5q54 0 91.5 -23t55.5 -58v68h109v-474h-109v70q-9 -16 -22.5 -31t-32 -26.5t-42.5 -18.5t-54 -7q-44 0 -82 17.5t-66 50t-44 78.5t-16 104zM274 397q-27 0 -49 -12t-37.5 -33.5t-23.5 -51t-8 -63.5q0 -35 8 -64t23 -50.5
t36 -33.5t48 -12q20 0 42 7.5t40 24t29.5 42.5t11.5 64v44q0 37 -11.5 63.5t-29 43t-39 24t-40.5 7.5zM199 675q27 0 46 -8.5t35 -18t30 -18t31 -8.5q16 0 26.5 7.5t18.5 16.5q8 11 14 25l56 -49q-11 -21 -28 -37q-14 -14 -36.5 -25.5t-54.5 -11.5q-26 0 -45 8.5t-34.5 18
t-30 18t-31.5 8.5t-28 -7.5t-18 -16.5q-8 -11 -13 -24l-56 49q10 20 27 36q14 14 36.5 25.5t54.5 11.5z" />
    <glyph glyph-name="aring.school" unicode="&#xe157;" horiz-adv-x="579" 
d="M39 237q0 58 16 104t44.5 78.5t67.5 50t84 17.5q54 0 91.5 -23t55.5 -58v68h109v-474h-109v70q-9 -16 -22.5 -31t-32 -26.5t-42.5 -18.5t-54 -7q-44 0 -82 17.5t-66 50t-44 78.5t-16 104zM274 397q-27 0 -49 -12t-37.5 -33.5t-23.5 -51t-8 -63.5q0 -35 8 -64t23 -50.5
t36 -33.5t48 -12q20 0 42 7.5t40 24t29.5 42.5t11.5 64v44q0 37 -11.5 63.5t-29 43t-39 24t-40.5 7.5zM165 629q0 44 29 72t77 28t77 -28t29 -72q0 -42 -29 -71t-77 -29t-77 29t-29 71zM225 629q0 -18 13 -32t33 -14t33 14t13 32q0 20 -13 32.5t-33 12.5t-33 -12.5
t-13 -32.5z" />
    <glyph glyph-name="amacron.school" unicode="&#xe159;" horiz-adv-x="579" 
d="M39 237q0 58 16 104t44.5 78.5t67.5 50t84 17.5q54 0 91.5 -23t55.5 -58v68h109v-474h-109v70q-9 -16 -22.5 -31t-32 -26.5t-42.5 -18.5t-54 -7q-44 0 -82 17.5t-66 50t-44 78.5t-16 104zM274 397q-27 0 -49 -12t-37.5 -33.5t-23.5 -51t-8 -63.5q0 -35 8 -64t23 -50.5
t36 -33.5t48 -12q20 0 42 7.5t40 24t29.5 42.5t11.5 64v44q0 37 -11.5 63.5t-29 43t-39 24t-40.5 7.5zM135 630h273v-74h-273v74z" />
    <glyph glyph-name="abreve.school" unicode="&#xe15a;" horiz-adv-x="579" 
d="M39 237q0 58 16 104t44.5 78.5t67.5 50t84 17.5q54 0 91.5 -23t55.5 -58v68h109v-474h-109v70q-9 -16 -22.5 -31t-32 -26.5t-42.5 -18.5t-54 -7q-44 0 -82 17.5t-66 50t-44 78.5t-16 104zM274 397q-27 0 -49 -12t-37.5 -33.5t-23.5 -51t-8 -63.5q0 -35 8 -64t23 -50.5
t36 -33.5t48 -12q20 0 42 7.5t40 24t29.5 42.5t11.5 64v44q0 37 -11.5 63.5t-29 43t-39 24t-40.5 7.5zM187 688q5 -29 26 -49.5t53 -20.5t53 20.5t26 49.5l83 -24q-12 -53 -55.5 -86t-106.5 -33t-106.5 33t-55.5 86z" />
    <glyph glyph-name="g.school" unicode="&#xe161;" horiz-adv-x="588" 
d="M403 80q-21 -29 -57.5 -50.5t-93.5 -21.5q-45 0 -84 16.5t-67.5 47t-45 74.5t-16.5 99q0 56 16.5 100.5t46 76t69 48.5t85.5 17q56 0 94 -23t58 -58v68h108v-439q0 -121 -59.5 -184.5t-186.5 -63.5q-85 0 -136.5 31.5t-75.5 90.5l104 38q12 -32 37 -52.5t75 -20.5
q37 0 62 13t40 35t21 50.5t6 60.5v47zM403 260q0 38 -12 64.5t-30 42.5t-40 23t-42 7q-29 0 -51.5 -11.5t-38.5 -32t-24.5 -48.5t-8.5 -60t8.5 -59t24 -46.5t37.5 -31t50 -11.5q20 0 42.5 7t41 23t31 42t12.5 64v27z" />
    <glyph glyph-name="gcircumflex.school" unicode="&#xe163;" horiz-adv-x="588" 
d="M238 706h74l115 -128l-55 -50l-98 106l-98 -106l-53 50zM403 80q-21 -29 -57.5 -50.5t-93.5 -21.5q-45 0 -84 16.5t-67.5 47t-45 74.5t-16.5 99q0 56 16.5 100.5t46 76t69 48.5t85.5 17q56 0 94 -23t58 -58v68h108v-439q0 -121 -59.5 -184.5t-186.5 -63.5
q-85 0 -136.5 31.5t-75.5 90.5l104 38q12 -32 37 -52.5t75 -20.5q37 0 62 13t40 35t21 50.5t6 60.5v47zM403 260q0 38 -12 64.5t-30 42.5t-40 23t-42 7q-29 0 -51.5 -11.5t-38.5 -32t-24.5 -48.5t-8.5 -60t8.5 -59t24 -46.5t37.5 -31t50 -11.5q20 0 42.5 7t41 23t31 42
t12.5 64v27z" />
    <glyph glyph-name="gbreve.school" unicode="&#xe166;" horiz-adv-x="588" 
d="M403 80q-21 -29 -57.5 -50.5t-93.5 -21.5q-45 0 -84 16.5t-67.5 47t-45 74.5t-16.5 99q0 56 16.5 100.5t46 76t69 48.5t85.5 17q56 0 94 -23t58 -58v68h108v-439q0 -121 -59.5 -184.5t-186.5 -63.5q-85 0 -136.5 31.5t-75.5 90.5l104 38q12 -32 37 -52.5t75 -20.5
q37 0 62 13t40 35t21 50.5t6 60.5v47zM403 260q0 38 -12 64.5t-30 42.5t-40 23t-42 7q-29 0 -51.5 -11.5t-38.5 -32t-24.5 -48.5t-8.5 -60t8.5 -59t24 -46.5t37.5 -31t50 -11.5q20 0 42.5 7t41 23t31 42t12.5 64v27zM191 688q5 -29 26 -49.5t53 -20.5t53 20.5t26 49.5
l83 -24q-12 -53 -55.5 -86t-106.5 -33t-106.5 33t-55.5 86z" />
    <glyph glyph-name="gdotaccent.school" unicode="&#xe167;" horiz-adv-x="588" 
d="M205 612q0 32 19.5 51t50.5 19t50.5 -19t19.5 -51q0 -28 -19 -48t-51 -20t-51 20t-19 48zM403 80q-21 -29 -57.5 -50.5t-93.5 -21.5q-45 0 -84 16.5t-67.5 47t-45 74.5t-16.5 99q0 56 16.5 100.5t46 76t69 48.5t85.5 17q56 0 94 -23t58 -58v68h108v-439
q0 -121 -59.5 -184.5t-186.5 -63.5q-85 0 -136.5 31.5t-75.5 90.5l104 38q12 -32 37 -52.5t75 -20.5q37 0 62 13t40 35t21 50.5t6 60.5v47zM403 260q0 38 -12 64.5t-30 42.5t-40 23t-42 7q-29 0 -51.5 -11.5t-38.5 -32t-24.5 -48.5t-8.5 -60t8.5 -59t24 -46.5t37.5 -31
t50 -11.5q20 0 42.5 7t41 23t31 42t12.5 64v27z" />
    <glyph glyph-name="gcommaaccent.school" unicode="&#xe168;" horiz-adv-x="588" 
d="M210 616q0 15 4 34t16 37t32.5 32t53.5 19l16 -43q-9 0 -19.5 -3.5t-19 -9.5t-14.5 -14t-6 -18v-3q2 0 5 0.5t7 0.5q23 0 40 -16.5t17 -42.5q0 -21 -15 -40.5t-47 -19.5q-37 0 -53.5 27t-16.5 60zM403 80q-21 -29 -57.5 -50.5t-93.5 -21.5q-45 0 -84 16.5t-67.5 47
t-45 74.5t-16.5 99q0 56 16.5 100.5t46 76t69 48.5t85.5 17q56 0 94 -23t58 -58v68h108v-439q0 -121 -59.5 -184.5t-186.5 -63.5q-85 0 -136.5 31.5t-75.5 90.5l104 38q12 -32 37 -52.5t75 -20.5q37 0 62 13t40 35t21 50.5t6 60.5v47zM403 260q0 38 -12 64.5t-30 42.5
t-40 23t-42 7q-29 0 -51.5 -11.5t-38.5 -32t-24.5 -48.5t-8.5 -60t8.5 -59t24 -46.5t37.5 -31t50 -11.5q20 0 42.5 7t41 23t31 42t12.5 64v27z" />
    <glyph glyph-name="y.school" unicode="&#xe16b;" horiz-adv-x="498" 
d="M277 -76q-28 -74 -67.5 -105.5t-91.5 -31.5q-29 0 -52 6t-37 14l32 86q20 -15 46 -15q22 0 38.5 14.5t32.5 54.5l20 51l-186 476h116q29 -82 55 -152l22 -60t20.5 -56t16.5 -47t11 -31h2q3 10 10 31t16 47t20 56l22 60q26 70 55 152h108z" />
    <glyph glyph-name="yacute.school" unicode="&#xe16d;" horiz-adv-x="498" 
d="M277 -76q-28 -74 -67.5 -105.5t-91.5 -31.5q-29 0 -52 6t-37 14l32 86q20 -15 46 -15q22 0 38.5 14.5t32.5 54.5l20 51l-186 476h116q29 -82 55 -152l22 -60t20.5 -56t16.5 -47t11 -31h2q3 10 10 31t16 47t20 56l22 60q26 70 55 152h108zM389 641l-202 -109l-37 60
l189 131z" />
    <glyph glyph-name="ycircumflex.school" unicode="&#xe16e;" horiz-adv-x="498" 
d="M216 706h74l115 -128l-55 -50l-98 106l-98 -106l-53 50zM277 -76q-28 -74 -67.5 -105.5t-91.5 -31.5q-29 0 -52 6t-37 14l32 86q20 -15 46 -15q22 0 38.5 14.5t32.5 54.5l20 51l-186 476h116q29 -82 55 -152l22 -60t20.5 -56t16.5 -47t11 -31h2q3 10 10 31t16 47t20 56
l22 60q26 70 55 152h108z" />
    <glyph glyph-name="ydieresis.school" unicode="&#xe16f;" horiz-adv-x="498" 
d="M290 607q0 28 18 45.5t47 17.5t47 -17.5t18 -45.5q0 -26 -18 -44.5t-47 -18.5t-47 18.5t-18 44.5zM86 607q0 28 18 45.5t47 17.5t47 -17.5t18 -45.5q0 -26 -18 -44.5t-47 -18.5t-47 18.5t-18 44.5zM277 -76q-28 -74 -67.5 -105.5t-91.5 -31.5q-29 0 -52 6t-37 14l32 86
q20 -15 46 -15q22 0 38.5 14.5t32.5 54.5l20 51l-186 476h116q29 -82 55 -152l22 -60t20.5 -56t16.5 -47t11 -31h2q3 10 10 31t16 47t20 56l22 60q26 70 55 152h108z" />
    <glyph glyph-name="ordfeminine.school" unicode="&#xe182;" horiz-adv-x="456" 
d="M36 508q0 45 12.5 80.5t34.5 61t52.5 39t65.5 13.5q42 0 71 -18t43 -45v52h85v-366h-85v54q-14 -26 -42 -45.5t-75 -19.5q-35 0 -64.5 13.5t-51 38.5t-34 61t-12.5 81zM312 521q0 28 -8 49.5t-21.5 35t-30.5 20.5t-34 7q-42 0 -66.5 -35.5t-24.5 -89.5t24 -89.5t66 -35.5
q17 0 34 6.5t30.5 20.5t22 34.5t8.5 49.5v27z" />
    <glyph glyph-name="p.smcp" unicode="&#xe200;" horiz-adv-x="544" 
d="M192 204v-204h-111v564h211q49 0 89.5 -10t69.5 -32t44.5 -55.5t15.5 -79.5q0 -47 -16 -81.5t-45.5 -57t-69.5 -33.5t-88 -11h-100zM396 387q0 48 -29 66t-89 18h-86v-175h86q60 0 89 21.5t29 69.5z" />
    <glyph glyph-name="p.smcp" unicode="&#xf770;" horiz-adv-x="544" 
d="M192 204v-204h-111v564h211q49 0 89.5 -10t69.5 -32t44.5 -55.5t15.5 -79.5q0 -47 -16 -81.5t-45.5 -57t-69.5 -33.5t-88 -11h-100zM396 387q0 48 -29 66t-89 18h-86v-175h86q60 0 89 21.5t29 69.5z" />
    <glyph glyph-name="a.smcp" unicode="&#xe201;" horiz-adv-x="557" 
d="M540 0h-115l-47 136h-204l-47 -136h-110l203 564h117zM274 449q-2 -6 -5.5 -19t-8.5 -30t-11 -37t-12 -39q-14 -46 -32 -100h143q-18 54 -33 100q-6 19 -12.5 39t-11.5 37t-9 30t-5 19h-3z" />
    <glyph glyph-name="a.smcp" unicode="&#xf761;" horiz-adv-x="557" 
d="M540 0h-115l-47 136h-204l-47 -136h-110l203 564h117zM274 449q-2 -6 -5.5 -19t-8.5 -30t-11 -37t-12 -39q-14 -46 -32 -100h143q-18 54 -33 100q-6 19 -12.5 39t-11.5 37t-9 30t-5 19h-3z" />
    <glyph glyph-name="b.smcp" unicode="&#xe202;" horiz-adv-x="558" 
d="M81 564h236q82 0 125.5 -40.5t43.5 -104.5q0 -27 -7.5 -48t-20 -36t-28 -25t-31.5 -16q19 -3 39 -11t36 -23t26.5 -38t10.5 -55q0 -36 -13.5 -67t-38 -53t-58 -34.5t-73.5 -12.5h-247v564zM190 474v-142h88q48 0 71 16.5t23 56.5q0 35 -20.5 52t-65.5 17h-96zM190 90h100
q62 0 84.5 21.5t22.5 55.5q0 44 -28.5 60t-80.5 16h-98v-153z" />
    <glyph glyph-name="b.smcp" unicode="&#xf762;" horiz-adv-x="558" 
d="M81 564h236q82 0 125.5 -40.5t43.5 -104.5q0 -27 -7.5 -48t-20 -36t-28 -25t-31.5 -16q19 -3 39 -11t36 -23t26.5 -38t10.5 -55q0 -36 -13.5 -67t-38 -53t-58 -34.5t-73.5 -12.5h-247v564zM190 474v-142h88q48 0 71 16.5t23 56.5q0 35 -20.5 52t-65.5 17h-96zM190 90h100
q62 0 84.5 21.5t22.5 55.5q0 44 -28.5 60t-80.5 16h-98v-153z" />
    <glyph glyph-name="c.smcp" unicode="&#xe203;" horiz-adv-x="589" 
d="M51 281q0 69 19 123.5t54.5 93t85.5 58.5t113 20q89 0 148.5 -39.5t85.5 -116.5l-109 -38q-15 47 -45 73.5t-83 26.5q-38 0 -66 -14.5t-47.5 -41t-29 -63.5t-9.5 -82q0 -44 9.5 -80.5t28.5 -63t48 -41.5t67 -15q49 0 79.5 24t46.5 72l108 -38q-29 -71 -86.5 -111.5
t-148.5 -40.5q-62 0 -111.5 20t-84.5 58t-54 92.5t-19 123.5z" />
    <glyph glyph-name="c.smcp" unicode="&#xf763;" horiz-adv-x="589" 
d="M51 281q0 69 19 123.5t54.5 93t85.5 58.5t113 20q89 0 148.5 -39.5t85.5 -116.5l-109 -38q-15 47 -45 73.5t-83 26.5q-38 0 -66 -14.5t-47.5 -41t-29 -63.5t-9.5 -82q0 -44 9.5 -80.5t28.5 -63t48 -41.5t67 -15q49 0 79.5 24t46.5 72l108 -38q-29 -71 -86.5 -111.5
t-148.5 -40.5q-62 0 -111.5 20t-84.5 58t-54 92.5t-19 123.5z" />
    <glyph glyph-name="d.smcp" unicode="&#xe204;" horiz-adv-x="615" 
d="M81 564h207q64 0 115 -19t86.5 -55t54.5 -88.5t19 -119.5q0 -135 -73 -208.5t-202 -73.5h-207v564zM446 282q0 85 -39 137t-124 52h-90v-378h90q85 0 124 51.5t39 137.5z" />
    <glyph glyph-name="d.smcp" unicode="&#xf764;" horiz-adv-x="615" 
d="M81 564h207q64 0 115 -19t86.5 -55t54.5 -88.5t19 -119.5q0 -135 -73 -208.5t-202 -73.5h-207v564zM446 282q0 85 -39 137t-124 52h-90v-378h90q85 0 124 51.5t39 137.5z" />
    <glyph glyph-name="e.smcp" unicode="&#xe205;" horiz-adv-x="505" 
d="M81 0v564h375v-93h-263v-135h245v-92h-245v-151h268v-93h-380z" />
    <glyph glyph-name="e.smcp" unicode="&#xf765;" horiz-adv-x="505" 
d="M81 0v564h375v-93h-263v-135h245v-92h-245v-151h268v-93h-380z" />
    <glyph glyph-name="f.smcp" unicode="&#xe206;" horiz-adv-x="500" 
d="M81 0v564h377v-93h-265v-135h245v-92h-245v-244h-112z" />
    <glyph glyph-name="f.smcp" unicode="&#xf766;" horiz-adv-x="500" 
d="M81 0v564h377v-93h-265v-135h245v-92h-245v-244h-112z" />
    <glyph glyph-name="g.smcp" unicode="&#xe207;" horiz-adv-x="632" 
d="M305 304h254v-304h-100v61q-17 -28 -55.5 -51t-99.5 -23q-60 0 -106.5 23t-79 63t-49.5 94t-17 116q0 64 19 118t55 93t87.5 60.5t116.5 21.5q81 0 142 -36.5t90 -108.5l-102 -42q-17 45 -51.5 69.5t-83.5 24.5q-70 0 -113 -52t-43 -155q0 -96 39 -146t112 -50
q25 0 48.5 6.5t42.5 19.5t30.5 33.5t11.5 47.5v29h-148v88z" />
    <glyph glyph-name="g.smcp" unicode="&#xf767;" horiz-adv-x="632" 
d="M305 304h254v-304h-100v61q-17 -28 -55.5 -51t-99.5 -23q-60 0 -106.5 23t-79 63t-49.5 94t-17 116q0 64 19 118t55 93t87.5 60.5t116.5 21.5q81 0 142 -36.5t90 -108.5l-102 -42q-17 45 -51.5 69.5t-83.5 24.5q-70 0 -113 -52t-43 -155q0 -96 39 -146t112 -50
q25 0 48.5 6.5t42.5 19.5t30.5 33.5t11.5 47.5v29h-148v88z" />
    <glyph glyph-name="h.smcp" unicode="&#xe208;" horiz-adv-x="613" 
d="M81 564h112v-227h227v227h112v-564h-112v244h-227v-244h-112v564z" />
    <glyph glyph-name="h.smcp" unicode="&#xf768;" horiz-adv-x="613" 
d="M81 564h112v-227h227v227h112v-564h-112v244h-227v-244h-112v564z" />
    <glyph glyph-name="i.smcp" unicode="&#xe209;" horiz-adv-x="274" 
d="M81 564h112v-564h-112v564z" />
    <glyph glyph-name="i.smcp" unicode="&#xf769;" horiz-adv-x="274" 
d="M81 564h112v-564h-112v564z" />
    <glyph glyph-name="j.smcp" unicode="&#xe20a;" horiz-adv-x="410" 
d="M159 80q35 0 49 25.5t14 78.5v380h113v-380q0 -44 -8 -80t-27.5 -62t-53 -40.5t-84.5 -14.5q-60 0 -97 19t-60 47l76 73q19 -22 36 -34t42 -12z" />
    <glyph glyph-name="j.smcp" unicode="&#xf76a;" horiz-adv-x="410" 
d="M159 80q35 0 49 25.5t14 78.5v380h113v-380q0 -44 -8 -80t-27.5 -62t-53 -40.5t-84.5 -14.5q-60 0 -97 19t-60 47l76 73q19 -22 36 -34t42 -12z" />
    <glyph glyph-name="k.smcp" unicode="&#xe20b;" horiz-adv-x="557" 
d="M243 252l-50 -52v-200h-112v564h112v-223l201 223h130l-204 -228l225 -336h-135z" />
    <glyph glyph-name="k.smcp" unicode="&#xf76b;" horiz-adv-x="557" 
d="M243 252l-50 -52v-200h-112v564h112v-223l201 223h130l-204 -228l225 -336h-135z" />
    <glyph glyph-name="l.smcp" unicode="&#xe20c;" horiz-adv-x="461" 
d="M81 564h112v-471h248v-93h-360v564z" />
    <glyph glyph-name="l.smcp" unicode="&#xf76c;" horiz-adv-x="461" 
d="M81 564h112v-471h248v-93h-360v564z" />
    <glyph glyph-name="m.smcp" unicode="&#xe20d;" horiz-adv-x="761" 
d="M331 0q-9 23 -21 56t-25.5 71t-28.5 78.5t-28.5 79.5t-25 74t-18.5 61h-2v-420h-101v564h154q37 -106 68 -196q13 -38 26 -76.5t24 -71t19.5 -57t11.5 -34.5q3 10 11 34.5t18.5 57t23 71t25.5 76.5q30 90 66 196h152v-564h-101v420h-2q-8 -26 -20 -62t-26 -77t-29 -83
t-28.5 -80t-25 -69t-17.5 -49h-100z" />
    <glyph glyph-name="m.smcp" unicode="&#xf76d;" horiz-adv-x="761" 
d="M331 0q-9 23 -21 56t-25.5 71t-28.5 78.5t-28.5 79.5t-25 74t-18.5 61h-2v-420h-101v564h154q37 -106 68 -196q13 -38 26 -76.5t24 -71t19.5 -57t11.5 -34.5q3 10 11 34.5t18.5 57t23 71t25.5 76.5q30 90 66 196h152v-564h-101v420h-2q-8 -26 -20 -62t-26 -77t-29 -83
t-28.5 -80t-25 -69t-17.5 -49h-100z" />
    <glyph glyph-name="n.smcp" unicode="&#xe20e;" horiz-adv-x="629" 
d="M81 564h114q55 -85 103 -162q21 -33 42 -66.5t40.5 -64.5t35.5 -57t27 -44h2v394h103v-564h-114q-54 83 -102 159q-21 32 -42 65.5t-40.5 65t-36 58t-27.5 45.5h-2v-393h-103v564z" />
    <glyph glyph-name="n.smcp" unicode="&#xf76e;" horiz-adv-x="629" 
d="M81 564h114q55 -85 103 -162q21 -33 42 -66.5t40.5 -64.5t35.5 -57t27 -44h2v394h103v-564h-114q-54 83 -102 159q-21 32 -42 65.5t-40.5 65t-36 58t-27.5 45.5h-2v-393h-103v564z" />
    <glyph glyph-name="o.smcp" unicode="&#xe20f;" horiz-adv-x="646" 
d="M52 282q0 69 19.5 123.5t55 92.5t85.5 58t111 20t111 -20t85.5 -58t55 -92.5t19.5 -123.5t-19.5 -123.5t-55 -93t-85.5 -58.5t-111 -20t-111 20t-85.5 58.5t-55 93t-19.5 123.5zM169 282q0 -45 9.5 -82t28.5 -63.5t48 -41.5t68 -15t68 15t48 41.5t28.5 63.5t9.5 82
q0 44 -9.5 81t-28.5 63.5t-48 41.5t-68 15t-68 -15t-48 -41.5t-28.5 -63.5t-9.5 -81z" />
    <glyph glyph-name="o.smcp" unicode="&#xf76f;" horiz-adv-x="646" 
d="M52 282q0 69 19.5 123.5t55 92.5t85.5 58t111 20t111 -20t85.5 -58t55 -92.5t19.5 -123.5t-19.5 -123.5t-55 -93t-85.5 -58.5t-111 -20t-111 20t-85.5 58.5t-55 93t-19.5 123.5zM169 282q0 -45 9.5 -82t28.5 -63.5t48 -41.5t68 -15t68 15t48 41.5t28.5 63.5t9.5 82
q0 44 -9.5 81t-28.5 63.5t-48 41.5t-68 15t-68 -15t-48 -41.5t-28.5 -63.5t-9.5 -81z" />
    <glyph glyph-name="q.smcp" unicode="&#xe211;" horiz-adv-x="644" 
d="M51 282q0 69 19.5 123.5t55 92.5t85.5 58t111 20t111 -20t85.5 -58t55 -92.5t19.5 -123.5q0 -75 -23 -133t-65 -96l54 -57l-61 -55l-62 67q-26 -10 -54 -15.5t-60 -5.5q-61 0 -111 20t-85.5 58.5t-55 93t-19.5 123.5zM168 282q0 -45 9.5 -82t28.5 -63.5t48 -41.5t68 -15
q21 0 43 5l-55 60l59 55l64 -70q22 27 32.5 65.5t10.5 86.5q0 44 -9.5 81t-28.5 63.5t-48 41.5t-68 15t-68 -15t-48 -41.5t-28.5 -63.5t-9.5 -81z" />
    <glyph glyph-name="q.smcp" unicode="&#xf771;" horiz-adv-x="644" 
d="M51 282q0 69 19.5 123.5t55 92.5t85.5 58t111 20t111 -20t85.5 -58t55 -92.5t19.5 -123.5q0 -75 -23 -133t-65 -96l54 -57l-61 -55l-62 67q-26 -10 -54 -15.5t-60 -5.5q-61 0 -111 20t-85.5 58.5t-55 93t-19.5 123.5zM168 282q0 -45 9.5 -82t28.5 -63.5t48 -41.5t68 -15
q21 0 43 5l-55 60l59 55l64 -70q22 27 32.5 65.5t10.5 86.5q0 44 -9.5 81t-28.5 63.5t-48 41.5t-68 15t-68 -15t-48 -41.5t-28.5 -63.5t-9.5 -81z" />
    <glyph glyph-name="r.smcp" unicode="&#xe212;" horiz-adv-x="561" 
d="M502 396q0 -63 -29 -103t-80 -58l134 -235h-127l-122 220h-87v-220h-110v564h210q45 0 83.5 -9t67 -29.5t44.5 -52.5t16 -77zM388 394q0 43 -28 60.5t-83 17.5h-86v-162h89q108 0 108 84z" />
    <glyph glyph-name="r.smcp" unicode="&#xf772;" horiz-adv-x="561" 
d="M502 396q0 -63 -29 -103t-80 -58l134 -235h-127l-122 220h-87v-220h-110v564h210q45 0 83.5 -9t67 -29.5t44.5 -52.5t16 -77zM388 394q0 43 -28 60.5t-83 17.5h-86v-162h89q108 0 108 84z" />
    <glyph glyph-name="s.smcp" unicode="&#xe213;" horiz-adv-x="549" 
d="M172 415q0 -38 31 -53.5t102 -27.5q40 -7 75.5 -18t62.5 -29.5t43 -47t16 -71.5q0 -42 -16.5 -76t-46.5 -57t-71 -35.5t-90 -12.5q-54 0 -96 14t-71.5 37t-46 54t-17.5 66l111 18q4 -42 32.5 -70.5t88.5 -28.5q46 0 77.5 20t31.5 62q0 37 -30.5 53.5t-93.5 27.5
q-44 7 -81 18t-65 30t-43.5 48t-15.5 71t15.5 73.5t43.5 53t66.5 32t84.5 10.5q91 0 150 -39t73 -114l-112 -25q-7 43 -35 66t-81 23q-46 0 -69 -19t-23 -53z" />
    <glyph glyph-name="s.smcp" unicode="&#xf773;" horiz-adv-x="549" 
d="M172 415q0 -38 31 -53.5t102 -27.5q40 -7 75.5 -18t62.5 -29.5t43 -47t16 -71.5q0 -42 -16.5 -76t-46.5 -57t-71 -35.5t-90 -12.5q-54 0 -96 14t-71.5 37t-46 54t-17.5 66l111 18q4 -42 32.5 -70.5t88.5 -28.5q46 0 77.5 20t31.5 62q0 37 -30.5 53.5t-93.5 27.5
q-44 7 -81 18t-65 30t-43.5 48t-15.5 71t15.5 73.5t43.5 53t66.5 32t84.5 10.5q91 0 150 -39t73 -114l-112 -25q-7 43 -35 66t-81 23q-46 0 -69 -19t-23 -53z" />
    <glyph glyph-name="t.smcp" unicode="&#xe214;" horiz-adv-x="482" 
d="M21 564h440v-94h-164v-470h-112v470h-164v94z" />
    <glyph glyph-name="t.smcp" unicode="&#xf774;" horiz-adv-x="482" 
d="M21 564h440v-94h-164v-470h-112v470h-164v94z" />
    <glyph glyph-name="u.smcp" unicode="&#xe215;" horiz-adv-x="598" 
d="M298 -13q-115 0 -168.5 54t-53.5 159v364h112v-365q0 -23 5.5 -44t18 -37.5t33.5 -26.5t53 -10t53.5 10t34.5 26.5t18.5 37.5t5.5 44v365h112v-364q0 -105 -54 -159t-170 -54z" />
    <glyph glyph-name="u.smcp" unicode="&#xf775;" horiz-adv-x="598" 
d="M298 -13q-115 0 -168.5 54t-53.5 159v364h112v-365q0 -23 5.5 -44t18 -37.5t33.5 -26.5t53 -10t53.5 10t34.5 26.5t18.5 37.5t5.5 44v365h112v-364q0 -105 -54 -159t-170 -54z" />
    <glyph glyph-name="v.smcp" unicode="&#xe216;" horiz-adv-x="558" 
d="M136 564q30 -86 58 -166q12 -34 24 -70.5t24 -71t22 -65t17 -54.5h2q7 24 17 54.5t21.5 65t24 71t24.5 70.5q27 80 58 166h115l-209 -564h-112l-206 564h120z" />
    <glyph glyph-name="v.smcp" unicode="&#xf776;" horiz-adv-x="558" 
d="M136 564q30 -86 58 -166q12 -34 24 -70.5t24 -71t22 -65t17 -54.5h2q7 24 17 54.5t21.5 65t24 71t24.5 70.5q27 80 58 166h115l-209 -564h-112l-206 564h120z" />
    <glyph glyph-name="w.smcp" unicode="&#xe217;" horiz-adv-x="767" 
d="M751 564l-145 -564h-124q-22 83 -40 159l-16.5 66t-16 65.5t-14 58.5t-10.5 47h-2q-4 -20 -10.5 -47t-14 -58.5t-16 -65.5l-16.5 -66q-19 -76 -40 -159h-124l-146 564h113q22 -93 41 -177q8 -36 16.5 -73t16.5 -71.5t14 -63.5t10 -49h1q4 20 11 49t15 63.5t17.5 71.5
t18.5 73q21 84 46 177h104q23 -94 44 -178q9 -36 18 -73t17 -71.5t14.5 -63.5t10.5 -48h2q4 19 10.5 48t14.5 63.5t16.5 71.5t17.5 73q20 84 43 178h103z" />
    <glyph glyph-name="w.smcp" unicode="&#xf777;" horiz-adv-x="767" 
d="M751 564l-145 -564h-124q-22 83 -40 159l-16.5 66t-16 65.5t-14 58.5t-10.5 47h-2q-4 -20 -10.5 -47t-14 -58.5t-16 -65.5l-16.5 -66q-19 -76 -40 -159h-124l-146 564h113q22 -93 41 -177q8 -36 16.5 -73t16.5 -71.5t14 -63.5t10 -49h1q4 20 11 49t15 63.5t17.5 71.5
t18.5 73q21 84 46 177h104q23 -94 44 -178q9 -36 18 -73t17 -71.5t14.5 -63.5t10.5 -48h2q4 19 10.5 48t14.5 63.5t16.5 71.5t17.5 73q20 84 43 178h103z" />
    <glyph glyph-name="x.smcp" unicode="&#xe218;" horiz-adv-x="576" 
d="M352 297l208 -297h-132l-143 203l-143 -203h-126l206 291l-188 273h132l124 -180l123 180h126z" />
    <glyph glyph-name="x.smcp" unicode="&#xf778;" horiz-adv-x="576" 
d="M352 297l208 -297h-132l-143 203l-143 -203h-126l206 291l-188 273h132l124 -180l123 180h126z" />
    <glyph glyph-name="y.smcp" unicode="&#xe219;" horiz-adv-x="557" 
d="M221 237l-211 327h128l143 -223l142 223h124l-213 -327v-237h-113v237z" />
    <glyph glyph-name="y.smcp" unicode="&#xf779;" horiz-adv-x="557" 
d="M221 237l-211 327h128l143 -223l142 223h124l-213 -327v-237h-113v237z" />
    <glyph glyph-name="z.smcp" unicode="&#xe21a;" horiz-adv-x="526" 
d="M50 564h435v-84l-303 -387h301v-93h-442v83l305 388h-296v93z" />
    <glyph glyph-name="z.smcp" unicode="&#xf77a;" horiz-adv-x="526" 
d="M50 564h435v-84l-303 -387h301v-93h-442v83l305 388h-296v93z" />
    <glyph glyph-name="anocross.smcp" unicode="&#xe220;" horiz-adv-x="557" 
d="M277 443h-3l-147 -443h-110l203 564h117l203 -564h-115z" />
    <glyph glyph-name="aacute.smcp" unicode="&#xe221;" horiz-adv-x="557" 
d="M405 719l-202 -109l-37 60l189 131zM540 0h-115l-47 136h-204l-47 -136h-110l203 564h117zM274 449q-2 -6 -5.5 -19t-8.5 -30t-11 -37t-12 -39q-14 -46 -32 -100h143q-18 54 -33 100q-6 19 -12.5 39t-11.5 37t-9 30t-5 19h-3z" />
    <glyph glyph-name="aacute.smcp" unicode="&#xf7e1;" horiz-adv-x="557" 
d="M405 719l-202 -109l-37 60l189 131zM540 0h-115l-47 136h-204l-47 -136h-110l203 564h117zM274 449q-2 -6 -5.5 -19t-8.5 -30t-11 -37t-12 -39q-14 -46 -32 -100h143q-18 54 -33 100q-6 19 -12.5 39t-11.5 37t-9 30t-5 19h-3z" />
    <glyph glyph-name="agrave.smcp" unicode="&#xe222;" horiz-adv-x="557" 
d="M540 0h-115l-47 136h-204l-47 -136h-110l203 564h117zM274 449q-2 -6 -5.5 -19t-8.5 -30t-11 -37t-12 -39q-14 -46 -32 -100h143q-18 54 -33 100q-6 19 -12.5 39t-11.5 37t-9 30t-5 19h-3zM152 719l50 82l189 -131l-37 -60z" />
    <glyph glyph-name="agrave.smcp" unicode="&#xf7e0;" horiz-adv-x="557" 
d="M540 0h-115l-47 136h-204l-47 -136h-110l203 564h117zM274 449q-2 -6 -5.5 -19t-8.5 -30t-11 -37t-12 -39q-14 -46 -32 -100h143q-18 54 -33 100q-6 19 -12.5 39t-11.5 37t-9 30t-5 19h-3zM152 719l50 82l189 -131l-37 -60z" />
    <glyph glyph-name="acircumflex.smcp" unicode="&#xe223;" horiz-adv-x="557" 
d="M241 786h74l115 -128l-55 -50l-98 106l-98 -106l-53 50zM540 0h-115l-47 136h-204l-47 -136h-110l203 564h117zM274 449q-2 -6 -5.5 -19t-8.5 -30t-11 -37t-12 -39q-14 -46 -32 -100h143q-18 54 -33 100q-6 19 -12.5 39t-11.5 37t-9 30t-5 19h-3z" />
    <glyph glyph-name="acircumflex.smcp" unicode="&#xf7e2;" horiz-adv-x="557" 
d="M241 786h74l115 -128l-55 -50l-98 106l-98 -106l-53 50zM540 0h-115l-47 136h-204l-47 -136h-110l203 564h117zM274 449q-2 -6 -5.5 -19t-8.5 -30t-11 -37t-12 -39q-14 -46 -32 -100h143q-18 54 -33 100q-6 19 -12.5 39t-11.5 37t-9 30t-5 19h-3z" />
    <glyph glyph-name="adieresis.smcp" unicode="&#xe224;" horiz-adv-x="557" 
d="M316 686q0 28 18 45.5t47 17.5t47 -17.5t18 -45.5q0 -26 -18 -44.5t-47 -18.5t-47 18.5t-18 44.5zM112 686q0 28 18 45.5t47 17.5t47 -17.5t18 -45.5q0 -26 -18 -44.5t-47 -18.5t-47 18.5t-18 44.5zM540 0h-115l-47 136h-204l-47 -136h-110l203 564h117zM274 449
q-2 -6 -5.5 -19t-8.5 -30t-11 -37t-12 -39q-14 -46 -32 -100h143q-18 54 -33 100q-6 19 -12.5 39t-11.5 37t-9 30t-5 19h-3z" />
    <glyph glyph-name="adieresis.smcp" unicode="&#xf7e4;" horiz-adv-x="557" 
d="M316 686q0 28 18 45.5t47 17.5t47 -17.5t18 -45.5q0 -26 -18 -44.5t-47 -18.5t-47 18.5t-18 44.5zM112 686q0 28 18 45.5t47 17.5t47 -17.5t18 -45.5q0 -26 -18 -44.5t-47 -18.5t-47 18.5t-18 44.5zM540 0h-115l-47 136h-204l-47 -136h-110l203 564h117zM274 449
q-2 -6 -5.5 -19t-8.5 -30t-11 -37t-12 -39q-14 -46 -32 -100h143q-18 54 -33 100q-6 19 -12.5 39t-11.5 37t-9 30t-5 19h-3z" />
    <glyph glyph-name="atilde.smcp" unicode="&#xe225;" horiz-adv-x="557" 
d="M540 0h-115l-47 136h-204l-47 -136h-110l203 564h117zM274 449q-2 -6 -5.5 -19t-8.5 -30t-11 -37t-12 -39q-14 -46 -32 -100h143q-18 54 -33 100q-6 19 -12.5 39t-11.5 37t-9 30t-5 19h-3zM209 748q27 0 46 -8.5t35 -18t30 -18t31 -8.5q16 0 26.5 7.5t18.5 16.5
q8 11 14 25l56 -49q-11 -21 -28 -37q-14 -14 -36.5 -25.5t-54.5 -11.5q-26 0 -45 8.5t-34.5 18t-30 18t-31.5 8.5t-28 -7.5t-18 -16.5q-8 -11 -13 -24l-56 49q10 20 27 36q14 14 36.5 25.5t54.5 11.5z" />
    <glyph glyph-name="atilde.smcp" unicode="&#xf7e3;" horiz-adv-x="557" 
d="M540 0h-115l-47 136h-204l-47 -136h-110l203 564h117zM274 449q-2 -6 -5.5 -19t-8.5 -30t-11 -37t-12 -39q-14 -46 -32 -100h143q-18 54 -33 100q-6 19 -12.5 39t-11.5 37t-9 30t-5 19h-3zM209 748q27 0 46 -8.5t35 -18t30 -18t31 -8.5q16 0 26.5 7.5t18.5 16.5
q8 11 14 25l56 -49q-11 -21 -28 -37q-14 -14 -36.5 -25.5t-54.5 -11.5q-26 0 -45 8.5t-34.5 18t-30 18t-31.5 8.5t-28 -7.5t-18 -16.5q-8 -11 -13 -24l-56 49q10 20 27 36q14 14 36.5 25.5t54.5 11.5z" />
    <glyph glyph-name="aring.smcp" unicode="&#xe226;" horiz-adv-x="557" 
d="M172 711q0 44 29 72t77 28t77 -28t29 -72q0 -42 -29 -71t-77 -29t-77 29t-29 71zM232 711q0 -18 13 -32t33 -14t33 14t13 32q0 20 -13 32.5t-33 12.5t-33 -12.5t-13 -32.5zM540 0h-115l-47 136h-204l-47 -136h-110l203 564h117zM274 449q-2 -6 -5.5 -19t-8.5 -30t-11 -37
t-12 -39q-14 -46 -32 -100h143q-18 54 -33 100q-6 19 -12.5 39t-11.5 37t-9 30t-5 19h-3z" />
    <glyph glyph-name="aring.smcp" unicode="&#xf7e5;" horiz-adv-x="557" 
d="M172 711q0 44 29 72t77 28t77 -28t29 -72q0 -42 -29 -71t-77 -29t-77 29t-29 71zM232 711q0 -18 13 -32t33 -14t33 14t13 32q0 20 -13 32.5t-33 12.5t-33 -12.5t-13 -32.5zM540 0h-115l-47 136h-204l-47 -136h-110l203 564h117zM274 449q-2 -6 -5.5 -19t-8.5 -30t-11 -37
t-12 -39q-14 -46 -32 -100h143q-18 54 -33 100q-6 19 -12.5 39t-11.5 37t-9 30t-5 19h-3z" />
    <glyph glyph-name="amacron.smcp" unicode="&#xe228;" horiz-adv-x="557" 
d="M142 699h273v-74h-273v74zM540 0h-115l-47 136h-204l-47 -136h-110l203 564h117zM274 449q-2 -6 -5.5 -19t-8.5 -30t-11 -37t-12 -39q-14 -46 -32 -100h143q-18 54 -33 100q-6 19 -12.5 39t-11.5 37t-9 30t-5 19h-3z" />
    <glyph glyph-name="amacron.smcp" unicode="&#xf641;" horiz-adv-x="557" 
d="M142 699h273v-74h-273v74zM540 0h-115l-47 136h-204l-47 -136h-110l203 564h117zM274 449q-2 -6 -5.5 -19t-8.5 -30t-11 -37t-12 -39q-14 -46 -32 -100h143q-18 54 -33 100q-6 19 -12.5 39t-11.5 37t-9 30t-5 19h-3z" />
    <glyph glyph-name="abreve.smcp" unicode="&#xe229;" horiz-adv-x="557" 
d="M540 0h-115l-47 136h-204l-47 -136h-110l203 564h117zM274 449q-2 -6 -5.5 -19t-8.5 -30t-11 -37t-12 -39q-14 -46 -32 -100h143q-18 54 -33 100q-6 19 -12.5 39t-11.5 37t-9 30t-5 19h-3zM199 760q5 -29 26 -49.5t53 -20.5t53 20.5t26 49.5l83 -24q-12 -53 -55.5 -86
t-106.5 -33t-106.5 33t-55.5 86z" />
    <glyph glyph-name="abreve.smcp" unicode="&#xf640;" horiz-adv-x="557" 
d="M540 0h-115l-47 136h-204l-47 -136h-110l203 564h117zM274 449q-2 -6 -5.5 -19t-8.5 -30t-11 -37t-12 -39q-14 -46 -32 -100h143q-18 54 -33 100q-6 19 -12.5 39t-11.5 37t-9 30t-5 19h-3zM199 760q5 -29 26 -49.5t53 -20.5t53 20.5t26 49.5l83 -24q-12 -53 -55.5 -86
t-106.5 -33t-106.5 33t-55.5 86z" />
    <glyph glyph-name="f_f_j" unicode="&#xe22a;" horiz-adv-x="884" 
d="M518 390v-390h-113v390h-195v-390h-113v390h-80v84h80v57q0 50 15 84t39 54.5t54 29.5t60 9q37 0 71 -9.5t54 -25.5l-47 -86q-11 10 -28 18.5t-39 8.5q-29 0 -47.5 -19t-18.5 -63v-58h195v39q0 52 17 90t45 62.5t64.5 36t75.5 11.5q54 0 100 -21.5t72 -59.5l-79 -68
q-16 22 -36 38.5t-53 16.5q-43 0 -68 -29t-25 -80v-36h294v-521q0 -46 -15.5 -78t-39.5 -51.5t-54 -28t-59 -8.5q-32 0 -61 8.5t-55 23.5l47 88q11 -8 27 -16t37 -8q28 0 43.5 19.5t15.5 57.5v430h-180z" />
    <glyph glyph-name="f_f_j" unicode="&#xe384;" horiz-adv-x="884" 
d="M518 390v-390h-113v390h-195v-390h-113v390h-80v84h80v57q0 50 15 84t39 54.5t54 29.5t60 9q37 0 71 -9.5t54 -25.5l-47 -86q-11 10 -28 18.5t-39 8.5q-29 0 -47.5 -19t-18.5 -63v-58h195v39q0 52 17 90t45 62.5t64.5 36t75.5 11.5q54 0 100 -21.5t72 -59.5l-79 -68
q-16 22 -36 38.5t-53 16.5q-43 0 -68 -29t-25 -80v-36h294v-521q0 -46 -15.5 -78t-39.5 -51.5t-54 -28t-59 -8.5q-32 0 -61 8.5t-55 23.5l47 88q11 -8 27 -16t37 -8q28 0 43.5 19.5t15.5 57.5v430h-180z" />
    <glyph glyph-name="f_f_k" unicode="&#xe22b;" horiz-adv-x="1183" 
d="M17 474h80v59q0 49 14.5 83t38.5 54t53.5 29t59.5 9q37 0 70.5 -9.5t53.5 -24.5l-46 -87q-11 10 -27.5 18.5t-38.5 8.5q-29 0 -47 -19t-18 -61v-60h194v67q0 45 12.5 77.5t34.5 53.5t50.5 31t61.5 10q30 0 61 -8t51 -22l-42 -87q-11 10 -26.5 16t-32.5 6q-56 0 -56 -77
v-67h101v-84h-101v-390h-114v390h-194v-390h-113v390h-80v84zM883 230l-48 -44v-186h-114v700h114v-396l184 170h133l-187 -174l213 -300h-134z" />
    <glyph glyph-name="f_f_k" unicode="&#xe385;" horiz-adv-x="1183" 
d="M17 474h80v59q0 49 14.5 83t38.5 54t53.5 29t59.5 9q37 0 70.5 -9.5t53.5 -24.5l-46 -87q-11 10 -27.5 18.5t-38.5 8.5q-29 0 -47 -19t-18 -61v-60h194v67q0 45 12.5 77.5t34.5 53.5t50.5 31t61.5 10q30 0 61 -8t51 -22l-42 -87q-11 10 -26.5 16t-32.5 6q-56 0 -56 -77
v-67h101v-84h-101v-390h-114v390h-194v-390h-113v390h-80v84zM883 230l-48 -44v-186h-114v700h114v-396l184 170h133l-187 -174l213 -300h-134z" />
    <glyph glyph-name="aogonek.smcp" unicode="&#xe22f;" horiz-adv-x="557" 
d="M540 0q-54 -27 -78.5 -51.5t-24.5 -47.5q0 -16 10.5 -26t32.5 -10q16 0 29.5 8t29.5 31l46 -42q-26 -34 -55 -49t-64 -15q-21 0 -41 5t-35.5 16.5t-25 29t-9.5 42.5q0 38 19.5 62.5t50.5 46.5l-47 136h-204l-47 -136h-110l203 564h117zM274 449q-2 -6 -5.5 -19t-8.5 -30
t-11 -37t-12 -39q-14 -46 -32 -100h143q-18 54 -33 100q-6 19 -12.5 39t-11.5 37t-9 30t-5 19h-3z" />
    <glyph glyph-name="aogonek.smcp" unicode="&#xf642;" horiz-adv-x="557" 
d="M540 0q-54 -27 -78.5 -51.5t-24.5 -47.5q0 -16 10.5 -26t32.5 -10q16 0 29.5 8t29.5 31l46 -42q-26 -34 -55 -49t-64 -15q-21 0 -41 5t-35.5 16.5t-25 29t-9.5 42.5q0 38 19.5 62.5t50.5 46.5l-47 136h-204l-47 -136h-110l203 564h117zM274 449q-2 -6 -5.5 -19t-8.5 -30
t-11 -37t-12 -39q-14 -46 -32 -100h143q-18 54 -33 100q-6 19 -12.5 39t-11.5 37t-9 30t-5 19h-3z" />
    <glyph glyph-name="edieresis.smcp" unicode="&#xe230;" horiz-adv-x="505" 
d="M306 686q0 28 18 45.5t47 17.5t47 -17.5t18 -45.5q0 -26 -18 -44.5t-47 -18.5t-47 18.5t-18 44.5zM102 686q0 28 18 45.5t47 17.5t47 -17.5t18 -45.5q0 -26 -18 -44.5t-47 -18.5t-47 18.5t-18 44.5zM81 0v564h375v-93h-263v-135h245v-92h-245v-151h268v-93h-380z" />
    <glyph glyph-name="edieresis.smcp" unicode="&#xf7eb;" horiz-adv-x="505" 
d="M306 686q0 28 18 45.5t47 17.5t47 -17.5t18 -45.5q0 -26 -18 -44.5t-47 -18.5t-47 18.5t-18 44.5zM102 686q0 28 18 45.5t47 17.5t47 -17.5t18 -45.5q0 -26 -18 -44.5t-47 -18.5t-47 18.5t-18 44.5zM81 0v564h375v-93h-263v-135h245v-92h-245v-151h268v-93h-380z" />
    <glyph glyph-name="ae.smcp" unicode="&#xe231;" horiz-adv-x="801" 
d="M380 0v136h-174l-73 -136h-120l308 564h431v-93h-263v-135h245v-92h-245v-151h268v-93h-377zM253 224h127v235h-3z" />
    <glyph glyph-name="ae.smcp" unicode="&#xf7e6;" horiz-adv-x="801" 
d="M380 0v136h-174l-73 -136h-120l308 564h431v-93h-263v-135h245v-92h-245v-151h268v-93h-377zM253 224h127v235h-3z" />
    <glyph glyph-name="cacute.smcp" unicode="&#xe234;" horiz-adv-x="589" 
d="M436 719l-202 -109l-37 60l189 131zM51 281q0 69 19 123.5t54.5 93t85.5 58.5t113 20q89 0 148.5 -39.5t85.5 -116.5l-109 -38q-15 47 -45 73.5t-83 26.5q-38 0 -66 -14.5t-47.5 -41t-29 -63.5t-9.5 -82q0 -44 9.5 -80.5t28.5 -63t48 -41.5t67 -15q49 0 79.5 24t46.5 72
l108 -38q-29 -71 -86.5 -111.5t-148.5 -40.5q-62 0 -111.5 20t-84.5 58t-54 92.5t-19 123.5z" />
    <glyph glyph-name="cacute.smcp" unicode="&#xf643;" horiz-adv-x="589" 
d="M436 719l-202 -109l-37 60l189 131zM51 281q0 69 19 123.5t54.5 93t85.5 58.5t113 20q89 0 148.5 -39.5t85.5 -116.5l-109 -38q-15 47 -45 73.5t-83 26.5q-38 0 -66 -14.5t-47.5 -41t-29 -63.5t-9.5 -82q0 -44 9.5 -80.5t28.5 -63t48 -41.5t67 -15q49 0 79.5 24t46.5 72
l108 -38q-29 -71 -86.5 -111.5t-148.5 -40.5q-62 0 -111.5 20t-84.5 58t-54 92.5t-19 123.5z" />
    <glyph glyph-name="ccircumflex.smcp" unicode="&#xe235;" horiz-adv-x="589" 
d="M282 786h74l115 -128l-55 -50l-98 106l-98 -106l-53 50zM51 281q0 69 19 123.5t54.5 93t85.5 58.5t113 20q89 0 148.5 -39.5t85.5 -116.5l-109 -38q-15 47 -45 73.5t-83 26.5q-38 0 -66 -14.5t-47.5 -41t-29 -63.5t-9.5 -82q0 -44 9.5 -80.5t28.5 -63t48 -41.5t67 -15
q49 0 79.5 24t46.5 72l108 -38q-29 -71 -86.5 -111.5t-148.5 -40.5q-62 0 -111.5 20t-84.5 58t-54 92.5t-19 123.5z" />
    <glyph glyph-name="ccircumflex.smcp" unicode="&#xf628;" horiz-adv-x="589" 
d="M282 786h74l115 -128l-55 -50l-98 106l-98 -106l-53 50zM51 281q0 69 19 123.5t54.5 93t85.5 58.5t113 20q89 0 148.5 -39.5t85.5 -116.5l-109 -38q-15 47 -45 73.5t-83 26.5q-38 0 -66 -14.5t-47.5 -41t-29 -63.5t-9.5 -82q0 -44 9.5 -80.5t28.5 -63t48 -41.5t67 -15
q49 0 79.5 24t46.5 72l108 -38q-29 -71 -86.5 -111.5t-148.5 -40.5q-62 0 -111.5 20t-84.5 58t-54 92.5t-19 123.5z" />
    <glyph glyph-name="ccaron.smcp" unicode="&#xe236;" horiz-adv-x="589" 
d="M358 612h-73l-116 128l55 50l98 -106l98 106l54 -50zM51 281q0 69 19 123.5t54.5 93t85.5 58.5t113 20q89 0 148.5 -39.5t85.5 -116.5l-109 -38q-15 47 -45 73.5t-83 26.5q-38 0 -66 -14.5t-47.5 -41t-29 -63.5t-9.5 -82q0 -44 9.5 -80.5t28.5 -63t48 -41.5t67 -15
q49 0 79.5 24t46.5 72l108 -38q-29 -71 -86.5 -111.5t-148.5 -40.5q-62 0 -111.5 20t-84.5 58t-54 92.5t-19 123.5z" />
    <glyph glyph-name="ccaron.smcp" unicode="&#xf644;" horiz-adv-x="589" 
d="M358 612h-73l-116 128l55 50l98 -106l98 106l54 -50zM51 281q0 69 19 123.5t54.5 93t85.5 58.5t113 20q89 0 148.5 -39.5t85.5 -116.5l-109 -38q-15 47 -45 73.5t-83 26.5q-38 0 -66 -14.5t-47.5 -41t-29 -63.5t-9.5 -82q0 -44 9.5 -80.5t28.5 -63t48 -41.5t67 -15
q49 0 79.5 24t46.5 72l108 -38q-29 -71 -86.5 -111.5t-148.5 -40.5q-62 0 -111.5 20t-84.5 58t-54 92.5t-19 123.5z" />
    <glyph glyph-name="cdotaccent.smcp" unicode="&#xe237;" horiz-adv-x="589" 
d="M51 281q0 69 19 123.5t54.5 93t85.5 58.5t113 20q89 0 148.5 -39.5t85.5 -116.5l-109 -38q-15 47 -45 73.5t-83 26.5q-38 0 -66 -14.5t-47.5 -41t-29 -63.5t-9.5 -82q0 -44 9.5 -80.5t28.5 -63t48 -41.5t67 -15q49 0 79.5 24t46.5 72l108 -38q-29 -71 -86.5 -111.5
t-148.5 -40.5q-62 0 -111.5 20t-84.5 58t-54 92.5t-19 123.5zM253 688q0 32 19.5 51t50.5 19t50.5 -19t19.5 -51q0 -28 -19 -48t-51 -20t-51 20t-19 48z" />
    <glyph glyph-name="cdotaccent.smcp" unicode="&#xf629;" horiz-adv-x="589" 
d="M51 281q0 69 19 123.5t54.5 93t85.5 58.5t113 20q89 0 148.5 -39.5t85.5 -116.5l-109 -38q-15 47 -45 73.5t-83 26.5q-38 0 -66 -14.5t-47.5 -41t-29 -63.5t-9.5 -82q0 -44 9.5 -80.5t28.5 -63t48 -41.5t67 -15q49 0 79.5 24t46.5 72l108 -38q-29 -71 -86.5 -111.5
t-148.5 -40.5q-62 0 -111.5 20t-84.5 58t-54 92.5t-19 123.5zM253 688q0 32 19.5 51t50.5 19t50.5 -19t19.5 -51q0 -28 -19 -48t-51 -20t-51 20t-19 48z" />
    <glyph glyph-name="ccedilla.smcp" unicode="&#xe238;" horiz-adv-x="589" 
d="M260 -154q8 -8 21.5 -14t31.5 -6q20 0 30.5 11t10.5 29t-11 27t-28 9q-25 0 -39 -14l-30 32l30 70q-105 14 -165 89.5t-60 201.5q0 69 19 123.5t54.5 93t85.5 58.5t113 20q89 0 148.5 -39.5t85.5 -116.5l-109 -38q-15 47 -45 73.5t-83 26.5q-38 0 -66 -14.5t-47.5 -41
t-29 -63.5t-9.5 -82q0 -44 9.5 -80.5t28.5 -63t48 -41.5t67 -15q49 0 79.5 24t46.5 72l108 -38q-28 -69 -83 -109t-142 -43l-17 -40q5 2 12.5 4t16.5 2q34 0 58 -21.5t24 -63.5q0 -47 -32 -72.5t-79 -25.5q-34 0 -55 10.5t-31 20.5z" />
    <glyph glyph-name="ccedilla.smcp" unicode="&#xf7e7;" horiz-adv-x="589" 
d="M260 -154q8 -8 21.5 -14t31.5 -6q20 0 30.5 11t10.5 29t-11 27t-28 9q-25 0 -39 -14l-30 32l30 70q-105 14 -165 89.5t-60 201.5q0 69 19 123.5t54.5 93t85.5 58.5t113 20q89 0 148.5 -39.5t85.5 -116.5l-109 -38q-15 47 -45 73.5t-83 26.5q-38 0 -66 -14.5t-47.5 -41
t-29 -63.5t-9.5 -82q0 -44 9.5 -80.5t28.5 -63t48 -41.5t67 -15q49 0 79.5 24t46.5 72l108 -38q-28 -69 -83 -109t-142 -43l-17 -40q5 2 12.5 4t16.5 2q34 0 58 -21.5t24 -63.5q0 -47 -32 -72.5t-79 -25.5q-34 0 -55 10.5t-31 20.5z" />
    <glyph glyph-name="dcaron.smcp" unicode="&#xe239;" horiz-adv-x="615" 
d="M323 612h-73l-116 128l55 50l98 -106l98 106l54 -50zM81 564h207q64 0 115 -19t86.5 -55t54.5 -88.5t19 -119.5q0 -135 -73 -208.5t-202 -73.5h-207v564zM446 282q0 85 -39 137t-124 52h-90v-378h90q85 0 124 51.5t39 137.5z" />
    <glyph glyph-name="dcaron.smcp" unicode="&#xf645;" horiz-adv-x="615" 
d="M323 612h-73l-116 128l55 50l98 -106l98 106l54 -50zM81 564h207q64 0 115 -19t86.5 -55t54.5 -88.5t19 -119.5q0 -135 -73 -208.5t-202 -73.5h-207v564zM446 282q0 85 -39 137t-124 52h-90v-378h90q85 0 124 51.5t39 137.5z" />
    <glyph glyph-name="dcroat.smcp" unicode="&#xe23c;" horiz-adv-x="629" 
d="M95 252h-63v79h63v233h207q64 0 115 -19t86.5 -55t54.5 -88.5t19 -119.5q0 -135 -73 -208.5t-202 -73.5h-207v252zM460 282q0 85 -39 137t-124 52h-90v-140h121v-79h-121v-159h90q85 0 124 51.5t39 137.5z" />
    <glyph glyph-name="dcroat.smcp" unicode="&#xf646;" horiz-adv-x="629" 
d="M95 252h-63v79h63v233h207q64 0 115 -19t86.5 -55t54.5 -88.5t19 -119.5q0 -135 -73 -208.5t-202 -73.5h-207v252zM460 282q0 85 -39 137t-124 52h-90v-140h121v-79h-121v-159h90q85 0 124 51.5t39 137.5z" />
    <glyph glyph-name="eacute.smcp" unicode="&#xe23d;" horiz-adv-x="505" 
d="M403 719l-202 -109l-37 60l189 131zM81 0v564h375v-93h-263v-135h245v-92h-245v-151h268v-93h-380z" />
    <glyph glyph-name="eacute.smcp" unicode="&#xf7e9;" horiz-adv-x="505" 
d="M403 719l-202 -109l-37 60l189 131zM81 0v564h375v-93h-263v-135h245v-92h-245v-151h268v-93h-380z" />
    <glyph glyph-name="egrave.smcp" unicode="&#xe23e;" horiz-adv-x="505" 
d="M81 0v564h375v-93h-263v-135h245v-92h-245v-151h268v-93h-380zM144 719l50 82l189 -131l-37 -60z" />
    <glyph glyph-name="egrave.smcp" unicode="&#xf7e8;" horiz-adv-x="505" 
d="M81 0v564h375v-93h-263v-135h245v-92h-245v-151h268v-93h-380zM144 719l50 82l189 -131l-37 -60z" />
    <glyph glyph-name="ecircumflex.smcp" unicode="&#xe23f;" horiz-adv-x="505" 
d="M231 786h74l115 -128l-55 -50l-98 106l-98 -106l-53 50zM81 0v564h375v-93h-263v-135h245v-92h-245v-151h268v-93h-380z" />
    <glyph glyph-name="ecircumflex.smcp" unicode="&#xf7ea;" horiz-adv-x="505" 
d="M231 786h74l115 -128l-55 -50l-98 106l-98 -106l-53 50zM81 0v564h375v-93h-263v-135h245v-92h-245v-151h268v-93h-380z" />
    <glyph glyph-name="gcommaaccent.smcp" unicode="&#xe240;" horiz-adv-x="632" 
d="M379 -140q0 -15 -4 -34.5t-16 -37.5t-32.5 -32t-53.5 -18l-16 43q9 0 19 3.5t18.5 9.5t14.5 14t6 18v3q-2 -1 -12 -1q-22 0 -39.5 16.5t-17.5 42.5q0 21 15 40.5t47 19.5q37 0 54 -27t17 -60zM305 304h254v-304h-100v61q-17 -28 -55.5 -51t-99.5 -23q-60 0 -106.5 23
t-79 63t-49.5 94t-17 116q0 64 19 118t55 93t87.5 60.5t116.5 21.5q81 0 142 -36.5t90 -108.5l-102 -42q-17 45 -51.5 69.5t-83.5 24.5q-70 0 -113 -52t-43 -155q0 -96 39 -146t112 -50q25 0 48.5 6.5t42.5 19.5t30.5 33.5t11.5 47.5v29h-148v88z" />
    <glyph glyph-name="gcommaaccent.smcp" unicode="&#xf64c;" horiz-adv-x="632" 
d="M379 -140q0 -15 -4 -34.5t-16 -37.5t-32.5 -32t-53.5 -18l-16 43q9 0 19 3.5t18.5 9.5t14.5 14t6 18v3q-2 -1 -12 -1q-22 0 -39.5 16.5t-17.5 42.5q0 21 15 40.5t47 19.5q37 0 54 -27t17 -60zM305 304h254v-304h-100v61q-17 -28 -55.5 -51t-99.5 -23q-60 0 -106.5 23
t-79 63t-49.5 94t-17 116q0 64 19 118t55 93t87.5 60.5t116.5 21.5q81 0 142 -36.5t90 -108.5l-102 -42q-17 45 -51.5 69.5t-83.5 24.5q-70 0 -113 -52t-43 -155q0 -96 39 -146t112 -50q25 0 48.5 6.5t42.5 19.5t30.5 33.5t11.5 47.5v29h-148v88z" />
    <glyph glyph-name="ecaron.smcp" unicode="&#xe241;" horiz-adv-x="505" 
d="M306 612h-73l-116 128l55 50l98 -106l98 106l54 -50zM81 0v564h375v-93h-263v-135h245v-92h-245v-151h268v-93h-380z" />
    <glyph glyph-name="ecaron.smcp" unicode="&#xf647;" horiz-adv-x="505" 
d="M306 612h-73l-116 128l55 50l98 -106l98 106l54 -50zM81 0v564h375v-93h-263v-135h245v-92h-245v-151h268v-93h-380z" />
    <glyph glyph-name="emacron.smcp" unicode="&#xe242;" horiz-adv-x="505" 
d="M81 0v564h375v-93h-263v-135h245v-92h-245v-151h268v-93h-380zM134 699h273v-74h-273v74z" />
    <glyph glyph-name="emacron.smcp" unicode="&#xf649;" horiz-adv-x="505" 
d="M81 0v564h375v-93h-263v-135h245v-92h-245v-151h268v-93h-380zM134 699h273v-74h-273v74z" />
    <glyph glyph-name="ebreve.smcp" unicode="&#xe243;" horiz-adv-x="505" 
d="M81 0v564h375v-93h-263v-135h245v-92h-245v-151h268v-93h-380zM189 760q5 -29 26 -49.5t53 -20.5t53 20.5t26 49.5l83 -24q-12 -53 -55.5 -86t-106.5 -33t-106.5 33t-55.5 86z" />
    <glyph glyph-name="ebreve.smcp" unicode="&#xf62a;" horiz-adv-x="505" 
d="M81 0v564h375v-93h-263v-135h245v-92h-245v-151h268v-93h-380zM189 760q5 -29 26 -49.5t53 -20.5t53 20.5t26 49.5l83 -24q-12 -53 -55.5 -86t-106.5 -33t-106.5 33t-55.5 86z" />
    <glyph glyph-name="edotaccent.smcp" unicode="&#xe246;" horiz-adv-x="505" 
d="M81 0v564h375v-93h-263v-135h245v-92h-245v-151h268v-93h-380zM201 688q0 32 19.5 51t50.5 19t50.5 -19t19.5 -51q0 -28 -19 -48t-51 -20t-51 20t-19 48z" />
    <glyph glyph-name="edotaccent.smcp" unicode="&#xf648;" horiz-adv-x="505" 
d="M81 0v564h375v-93h-263v-135h245v-92h-245v-151h268v-93h-380zM201 688q0 32 19.5 51t50.5 19t50.5 -19t19.5 -51q0 -28 -19 -48t-51 -20t-51 20t-19 48z" />
    <glyph glyph-name="eogonek.smcp" unicode="&#xe249;" horiz-adv-x="505" 
d="M400 0q-54 -28 -77.5 -52t-23.5 -47q0 -16 10.5 -26t32.5 -10q16 0 29.5 8t29.5 31l46 -42q-26 -34 -55 -49t-64 -15q-21 0 -41 5t-35.5 16.5t-25 29t-9.5 42.5q0 38 19.5 62.5t51.5 46.5h-207v564h375v-93h-263v-135h245v-92h-245v-151h268v-93h-61z" />
    <glyph glyph-name="eogonek.smcp" unicode="&#xf64a;" horiz-adv-x="505" 
d="M400 0q-54 -28 -77.5 -52t-23.5 -47q0 -16 10.5 -26t32.5 -10q16 0 29.5 8t29.5 31l46 -42q-26 -34 -55 -49t-64 -15q-21 0 -41 5t-35.5 16.5t-25 29t-9.5 42.5q0 38 19.5 62.5t51.5 46.5h-207v564h375v-93h-263v-135h245v-92h-245v-151h268v-93h-61z" />
    <glyph glyph-name="gcircumflex.smcp" unicode="&#xe24b;" horiz-adv-x="632" 
d="M305 304h254v-304h-100v61q-17 -28 -55.5 -51t-99.5 -23q-60 0 -106.5 23t-79 63t-49.5 94t-17 116q0 64 19 118t55 93t87.5 60.5t116.5 21.5q81 0 142 -36.5t90 -108.5l-102 -42q-17 45 -51.5 69.5t-83.5 24.5q-70 0 -113 -52t-43 -155q0 -96 39 -146t112 -50
q25 0 48.5 6.5t42.5 19.5t30.5 33.5t11.5 47.5v29h-148v88zM288 786h74l115 -128l-55 -50l-98 106l-98 -106l-53 50z" />
    <glyph glyph-name="gcircumflex.smcp" unicode="&#xf62c;" horiz-adv-x="632" 
d="M305 304h254v-304h-100v61q-17 -28 -55.5 -51t-99.5 -23q-60 0 -106.5 23t-79 63t-49.5 94t-17 116q0 64 19 118t55 93t87.5 60.5t116.5 21.5q81 0 142 -36.5t90 -108.5l-102 -42q-17 45 -51.5 69.5t-83.5 24.5q-70 0 -113 -52t-43 -155q0 -96 39 -146t112 -50
q25 0 48.5 6.5t42.5 19.5t30.5 33.5t11.5 47.5v29h-148v88zM288 786h74l115 -128l-55 -50l-98 106l-98 -106l-53 50z" />
    <glyph glyph-name="gbreve.smcp" unicode="&#xe24e;" horiz-adv-x="632" 
d="M305 304h254v-304h-100v61q-17 -28 -55.5 -51t-99.5 -23q-60 0 -106.5 23t-79 63t-49.5 94t-17 116q0 64 19 118t55 93t87.5 60.5t116.5 21.5q81 0 142 -36.5t90 -108.5l-102 -42q-17 45 -51.5 69.5t-83.5 24.5q-70 0 -113 -52t-43 -155q0 -96 39 -146t112 -50
q25 0 48.5 6.5t42.5 19.5t30.5 33.5t11.5 47.5v29h-148v88zM247 760q5 -29 26 -49.5t53 -20.5t53 20.5t26 49.5l83 -24q-12 -53 -55.5 -86t-106.5 -33t-106.5 33t-55.5 86z" />
    <glyph glyph-name="gbreve.smcp" unicode="&#xf64b;" horiz-adv-x="632" 
d="M305 304h254v-304h-100v61q-17 -28 -55.5 -51t-99.5 -23q-60 0 -106.5 23t-79 63t-49.5 94t-17 116q0 64 19 118t55 93t87.5 60.5t116.5 21.5q81 0 142 -36.5t90 -108.5l-102 -42q-17 45 -51.5 69.5t-83.5 24.5q-70 0 -113 -52t-43 -155q0 -96 39 -146t112 -50
q25 0 48.5 6.5t42.5 19.5t30.5 33.5t11.5 47.5v29h-148v88zM247 760q5 -29 26 -49.5t53 -20.5t53 20.5t26 49.5l83 -24q-12 -53 -55.5 -86t-106.5 -33t-106.5 33t-55.5 86z" />
    <glyph glyph-name="gdotaccent.smcp" unicode="&#xe24f;" horiz-adv-x="632" 
d="M305 304h254v-304h-100v61q-17 -28 -55.5 -51t-99.5 -23q-60 0 -106.5 23t-79 63t-49.5 94t-17 116q0 64 19 118t55 93t87.5 60.5t116.5 21.5q81 0 142 -36.5t90 -108.5l-102 -42q-17 45 -51.5 69.5t-83.5 24.5q-70 0 -113 -52t-43 -155q0 -96 39 -146t112 -50
q25 0 48.5 6.5t42.5 19.5t30.5 33.5t11.5 47.5v29h-148v88zM257 688q0 32 19.5 51t50.5 19t50.5 -19t19.5 -51q0 -28 -19 -48t-51 -20t-51 20t-19 48z" />
    <glyph glyph-name="gdotaccent.smcp" unicode="&#xf62d;" horiz-adv-x="632" 
d="M305 304h254v-304h-100v61q-17 -28 -55.5 -51t-99.5 -23q-60 0 -106.5 23t-79 63t-49.5 94t-17 116q0 64 19 118t55 93t87.5 60.5t116.5 21.5q81 0 142 -36.5t90 -108.5l-102 -42q-17 45 -51.5 69.5t-83.5 24.5q-70 0 -113 -52t-43 -155q0 -96 39 -146t112 -50
q25 0 48.5 6.5t42.5 19.5t30.5 33.5t11.5 47.5v29h-148v88zM257 688q0 32 19.5 51t50.5 19t50.5 -19t19.5 -51q0 -28 -19 -48t-51 -20t-51 20t-19 48z" />
    <glyph glyph-name="hcircumflex.smcp" unicode="&#xe253;" horiz-adv-x="613" 
d="M270 786h74l115 -128l-55 -50l-98 106l-98 -106l-53 50zM81 564h112v-227h227v227h112v-564h-112v244h-227v-244h-112v564z" />
    <glyph glyph-name="hcircumflex.smcp" unicode="&#xf62f;" horiz-adv-x="613" 
d="M270 786h74l115 -128l-55 -50l-98 106l-98 -106l-53 50zM81 564h112v-227h227v227h112v-564h-112v244h-227v-244h-112v564z" />
    </font>
</defs>
</svg>
