<?xml version="1.0" standalone="no"?>
<!DOCTYPE svg PUBLIC "-//W3C//DTD SVG 1.1//EN" "http://www.w3.org/Graphics/SVG/1.1/DTD/svg11.dtd" >
<svg xmlns="http://www.w3.org/2000/svg" xmlns:xlink="http://www.w3.org/1999/xlink" version="1.1">
<metadata>
Created by FontForge 20160407 at Mon Aug 29 18:53:24 2016
 By Jimmy Warting
Copyright (c) 2011-2016 by Josh FInklea. All rights reserved.
</metadata>
<defs>
<font id="PostGrotesk-Book" horiz-adv-x="600" >
  <font-face 
    font-family="Post Grotesk"
    font-weight="400"
    font-stretch="normal"
    units-per-em="1000"
    panose-1="2 0 0 0 0 0 0 0 0 0"
    ascent="800"
    descent="-200"
    x-height="472"
    cap-height="700"
    bbox="-130 -252 1279 927"
    underline-thickness="50"
    underline-position="-100"
    unicode-range="U+000D-F301"
  />
<missing-glyph horiz-adv-x="840" 
d="M70 700h700v-700h-700v700zM140 70h560v560h-560v-560zM233 113l-50 50l188 187l-188 187l50 50l187 -188l187 188l50 -50l-188 -187l188 -187l-50 -50l-187 188z" />
    <glyph glyph-name="interrobang" unicode="&#x21;&#x3f;" horiz-adv-x="515" 
d="M371 341q-21 -17 -36 -30.5t-25 -27t-15 -30t-5 -38.5v-31h-67l-10 452q-26 -9 -44 -26t-29.5 -38.5t-17.5 -44.5t-8 -43l-84 14q7 45 24.5 84.5t46 68t68 45t92.5 16.5q55 0 95.5 -17.5t66.5 -45t39 -62.5t13 -70q0 -32 -10 -58t-25 -47.5t-33.5 -38.5t-35.5 -32z
M389 520q0 38 -20.5 72t-67.5 46l-6 -263l26 25q26 24 47 50.5t21 69.5zM201 48q0 24 15.5 39t40.5 15t40.5 -15t15.5 -39q0 -23 -15.5 -39t-40.5 -16t-40.5 16t-15.5 39z" />
    <glyph glyph-name="f_b" unicode="fb" horiz-adv-x="894" 
d="M20 472h80v89q0 42 11.5 71t31 46.5t44.5 25.5t51 8q31 0 61.5 -7.5t46.5 -18.5l-37 -68q-10 8 -27.5 14.5t-35.5 6.5q-62 0 -62 -83v-84h105v-64h-105v-408h-84v408h-80v64zM633 484q47 0 86.5 -17t68.5 -49.5t45.5 -78.5t16.5 -103t-16.5 -103t-45.5 -78.5t-68.5 -49.5
t-86.5 -17q-31 0 -55 7t-43 18.5t-33 26.5t-24 31v-71h-79v700h84v-288q23 29 58.5 50.5t91.5 21.5zM483 204q0 -40 13.5 -68t34 -45.5t45.5 -25.5t48 -8q32 0 58 13.5t44 37.5t27.5 57t9.5 71t-9.5 71t-27.5 57t-44 37.5t-58 13.5q-23 0 -48 -8t-45.5 -25.5t-34 -45.5
t-13.5 -68v-64z" />
    <glyph glyph-name="f_h" unicode="fh" horiz-adv-x="871" 
d="M400 700h84v-293q22 34 56 55.5t88 21.5q34 0 64.5 -10t53.5 -29.5t36.5 -49t13.5 -68.5v-327h-84v314q0 27 -9 46t-23 31.5t-32.5 18t-36.5 5.5q-25 0 -48 -11t-40.5 -31t-28 -49.5t-10.5 -66.5v-257h-84v700zM20 472h80v89q0 42 11.5 71t31 46.5t44.5 25.5t51 8
q31 0 61.5 -7.5t46.5 -18.5l-37 -68q-10 8 -27.5 14.5t-35.5 6.5q-62 0 -62 -83v-84h105v-64h-105v-408h-84v408h-80v64z" />
    <glyph glyph-name="f_k" unicode="fk" horiz-adv-x="822" 
d="M538 247l-55 -51v-196h-84v700h84v-416l203 188h99l-185 -172l217 -300h-102zM20 472h80v89q0 42 11.5 71t31 46.5t44.5 25.5t51 8q31 0 61.5 -7.5t46.5 -18.5l-37 -68q-10 8 -27.5 14.5t-35.5 6.5q-62 0 -62 -83v-84h105v-64h-105v-408h-84v408h-80v64z" />
    <glyph glyph-name="fi" unicode="fi" horiz-adv-x="564" 
d="M387 656q0 25 15.5 40t39.5 15t39.5 -15t15.5 -40q0 -22 -15.5 -38t-39.5 -16t-39.5 16t-15.5 38zM400 472h84v-472h-84v472zM20 472h80v89q0 42 11.5 71t31 46.5t44.5 25.5t51 8q30 0 60 -7.5t46 -18.5l-35 -68q-10 8 -27.5 14.5t-35.5 6.5q-62 0 -62 -83v-84h105v-64
h-105v-408h-84v408h-80v64z" />
    <glyph glyph-name="fl" unicode="fl" horiz-adv-x="563" 
d="M399 700h84v-700h-84v700zM20 472h80v89q0 42 11.5 71t31 46.5t44.5 25.5t51 8q31 0 61.5 -7.5t46.5 -18.5l-37 -68q-10 8 -27.5 14.5t-35.5 6.5q-62 0 -62 -83v-84h105v-64h-105v-408h-84v408h-80v64z" />
    <glyph glyph-name="interrobangdown" unicode="&#xa1;&#xbf;" horiz-adv-x="500" 
d="M314 452q0 -24 -15.5 -39t-40.5 -15t-40.5 15t-15.5 39q0 23 15.5 39t40.5 16t40.5 -16t15.5 -39zM144 159q21 17 36 30.5t25 27t15 29.5t5 39v31h67l10 -452q26 9 44 26t29.5 38.5t17.5 44.5t8 43l84 -14q-8 -45 -25 -84.5t-45.5 -68t-68.5 -45t-92 -16.5
q-55 0 -95.5 17.5t-66.5 45t-39 62.5t-13 70q0 32 10 58t25 47.5t33.5 38.5t35.5 32zM126 -20q0 -38 20.5 -72t67.5 -46l6 263l-26 -25q-26 -24 -47 -50.5t-21 -69.5z" />
    <glyph glyph-name="interrobangdown.cap" unicode="&#xe441;&#xe444;" horiz-adv-x="515" 
d="M314 652q0 -24 -15.5 -39t-40.5 -15t-40.5 15t-15.5 39q0 23 15.5 39t40.5 16t40.5 -16t15.5 -39zM144 359q21 17 36 30.5t25 27t15 29.5t5 39v31h67l10 -452q26 9 44 26t29.5 38.5t17.5 44.5t8 43l84 -14q-8 -45 -25 -84.5t-45.5 -68t-68.5 -45t-92 -16.5
q-55 0 -95.5 17.5t-66.5 45t-39 62.5t-13 70q0 32 10 58t25 47.5t33.5 38.5t35.5 32zM126 180q0 -38 20.5 -72t67.5 -46l6 263l-26 -25q-26 -24 -47 -50.5t-21 -69.5z" />
    <glyph glyph-name="fj" unicode="fj" horiz-adv-x="566" 
d="M486 -61q0 -41 -13 -69.5t-34 -46.5t-47.5 -26.5t-54.5 -8.5q-29 0 -54 7.5t-51 21.5l37 67q12 -8 27.5 -16t38.5 -8q35 0 51 23.5t16 60.5v528h84v-533zM389 656q0 25 15.5 40t39.5 15t39.5 -15t15.5 -40q0 -22 -15.5 -38t-39.5 -16t-39.5 16t-15.5 38zM20 472h80v89
q0 42 11.5 71t31 46.5t44.5 25.5t51 8q30 0 60 -7.5t46 -18.5l-35 -68q-10 8 -27.5 14.5t-35.5 6.5q-62 0 -62 -83v-84h105v-64h-105v-408h-84v408h-80v64z" />
    <glyph glyph-name=".notdef" horiz-adv-x="840" 
d="M70 700h700v-700h-700v700zM140 70h560v560h-560v-560zM233 113l-50 50l188 187l-188 187l50 50l187 -188l187 188l50 -50l-188 -187l188 -187l-50 -50l-187 188z" />
    <glyph glyph-name="NULL" horiz-adv-x="0" 
 />
    <glyph glyph-name="NULL" horiz-adv-x="0" 
 />
    <glyph glyph-name="nonmarkingreturn" unicode="&#xd;" horiz-adv-x="251" 
 />
    <glyph glyph-name="space" unicode=" " horiz-adv-x="235" 
 />
    <glyph glyph-name="exclam" unicode="!" horiz-adv-x="250" 
d="M159 186h-68l-12 514h92zM70 48q0 24 15 39t40 15t40 -15t15 -39q0 -23 -15 -39t-40 -16t-40 16t-15 39z" />
    <glyph glyph-name="quotedbl" unicode="&#x22;" horiz-adv-x="338" 
d="M217 478l-19 222h85l-19 -222h-47zM74 478l-19 222h85l-19 -222h-47z" />
    <glyph glyph-name="numbersign" unicode="#" horiz-adv-x="625" 
d="M356 217h-140l-38 -217h-67l38 217h-114v62h125l26 149h-113v62h125l37 210h67l-37 -210h140l37 210h67l-37 -210h118v-62h-130l-26 -149h119v-62h-130l-39 -217h-66zM227 279h140l26 149h-140z" />
    <glyph glyph-name="dollar" unicode="$" horiz-adv-x="578" 
d="M322 695q87 -8 137.5 -54t61.5 -116l-73 -19q-3 21 -11 41.5t-22.5 37.5t-37 29t-55.5 17v-244q48 -12 86 -27t65 -38t41.5 -55t14.5 -77q0 -41 -13.5 -75.5t-39.5 -61t-64.5 -42.5t-89.5 -20v-96h-59v96q-51 4 -90.5 21t-67 43t-42.5 60.5t-16 72.5l72 12q0 -9 5 -31
t20.5 -45.5t43.5 -43.5t75 -25v269q-53 13 -90.5 30t-61 39.5t-34.5 52t-11 67.5q0 36 12 68t36.5 56.5t61.5 40t87 18.5v102h59v-103zM142 518q0 -44 29 -72.5t92 -45.5v233q-39 -3 -62.5 -16t-36.5 -30.5t-17.5 -36t-4.5 -32.5zM452 188q0 50 -30 77t-100 45v-254
q57 8 93.5 41.5t36.5 90.5z" />
    <glyph glyph-name="percent" unicode="%" horiz-adv-x="841" 
d="M170 -12l436 724h75l-439 -724h-72zM362 517q0 -29 -8 -60.5t-26.5 -58.5t-49.5 -44.5t-77 -17.5t-77 17.5t-49.5 44.5t-26.5 58.5t-8 60.5q0 28 8 60t26.5 59t49.5 44.5t77 17.5t77 -17.5t49.5 -44.5t26.5 -59t8 -60zM112 517q0 -56 22 -89.5t67 -33.5t67 33.5t22 89.5
t-22 89.5t-67 33.5t-67 -33.5t-22 -89.5zM801 169q0 -29 -8 -60.5t-26.5 -58.5t-49.5 -44.5t-77 -17.5t-77 17.5t-49.5 44.5t-26.5 58.5t-8 60.5q0 28 8 60t26.5 59t49.5 44.5t77 17.5t77 -17.5t49.5 -44.5t26.5 -59t8 -60zM551 169q0 -56 22 -89.5t67 -33.5t67 33.5
t22 89.5t-22 89.5t-67 33.5t-67 -33.5t-22 -89.5z" />
    <glyph glyph-name="ampersand" unicode="&#x26;" horiz-adv-x="642" 
d="M38 194q0 45 15 80t37.5 61.5t47.5 45.5t46 31q-32 44 -48.5 77.5t-16.5 72.5q0 27 9 54t28 48.5t49.5 34.5t74.5 13q40 0 70 -11.5t50 -32t30 -47.5t10 -58q0 -27 -7.5 -50.5t-25 -44.5t-45 -41t-66.5 -41l176 -208q16 29 22 62.5t7 71.5l68 -30q-3 -24 -6 -44.5t-8 -39
t-13 -37t-21 -39.5l104 -122h-95l-56 66q-31 -32 -77 -55t-117 -23q-114 0 -178 52.5t-64 153.5zM195 563q0 -29 14 -57.5t43 -66.5q22 11 42 23t35.5 27t25 33t9.5 41q0 34 -22 59.5t-64 25.5q-40 0 -61.5 -24t-21.5 -61zM278 53q55 0 93 20.5t56 45.5l-199 237
q-19 -9 -38 -24.5t-34.5 -36t-25 -46t-9.5 -54.5q0 -63 41.5 -102.5t115.5 -39.5z" />
    <glyph glyph-name="quotesingle" unicode="'" horiz-adv-x="195" 
d="M74 478l-19 222h85l-19 -222h-47z" />
    <glyph glyph-name="parenleft" unicode="(" horiz-adv-x="334" 
d="M70 307q0 76 16 149.5t45 138t68 115.5t86 82l49 -30q-49 -44 -83 -95.5t-55 -108.5t-30.5 -120t-9.5 -131t9.5 -130.5t30.5 -120t55 -109t83 -95.5l-49 -30q-47 31 -86 82t-68 115.5t-45 138t-16 149.5z" />
    <glyph glyph-name="parenright" unicode=")" horiz-adv-x="334" 
d="M264 307q0 -76 -16 -149.5t-45 -138t-68.5 -115.5t-85.5 -82l-49 30q97 88 137.5 203.5t40.5 251.5q0 135 -40.5 250.5t-137.5 204.5l49 30q46 -31 85.5 -82t68.5 -115.5t45 -138t16 -149.5z" />
    <glyph glyph-name="asterisk" unicode="*" horiz-adv-x="378" 
d="M217 700v-122l112 42l19 -57l-118 -33l76 -96l-49 -36l-68 102l-68 -102l-49 36l76 96l-118 33l19 57l112 -42v122h56z" />
    <glyph glyph-name="plus" unicode="+" 
d="M54 358h211v212h69v-212h212v-69h-212v-218h-69v218h-211v69z" />
    <glyph glyph-name="comma" unicode="," horiz-adv-x="263" 
d="M193 24q0 -17 -4 -37.5t-15 -39.5t-30 -34t-50 -21l-15 40q20 1 37.5 18.5t17.5 40.5v6q-1 -1 -3 -1h-8q-20 0 -36.5 15.5t-16.5 39.5q0 20 14 38t43 18q35 0 50.5 -25t15.5 -58z" />
    <glyph glyph-name="hyphen" unicode="-" horiz-adv-x="375" 
d="M60 321h255v-67h-255v67z" />
    <glyph glyph-name="period" unicode="." horiz-adv-x="258" 
d="M70 50q0 25 16.5 41t42.5 16t42.5 -16t16.5 -41t-16.5 -41t-42.5 -16t-42.5 16t-16.5 41z" />
    <glyph glyph-name="slash" unicode="/" horiz-adv-x="390" 
d="M10 -115l298 869h72l-299 -869h-71z" />
    <glyph glyph-name="zero" unicode="0" 
d="M300 698q64 0 109.5 -27.5t74 -75.5t41.5 -112.5t13 -139.5t-13 -139.5t-41.5 -112.5t-74 -75.5t-109.5 -27.5t-109.5 27.5t-74 75.5t-41.5 112.5t-13 139.5t13 139.5t41.5 112.5t74 75.5t109.5 27.5zM300 57q42 0 70.5 24.5t46.5 64.5t25.5 91.5t7.5 105.5t-7.5 105.5
t-25.5 91.5t-46.5 64.5t-70.5 24.5t-70.5 -24.5t-46.5 -64.5t-25.5 -91.5t-7.5 -105.5t7.5 -105.5t25.5 -91.5t46.5 -64.5t70.5 -24.5z" />
    <glyph glyph-name="one" unicode="1" 
d="M108 67h169v526q-24 -20 -61.5 -32.5t-85.5 -13.5l-12 62q66 7 105.5 27t67.5 52h72v-621h155v-67h-410v67z" />
    <glyph glyph-name="two" unicode="2" 
d="M83 66q54 50 103 97q21 20 43 41t42 40.5t38 37.5t30 32q40 45 62.5 88t22.5 94q0 61 -32.5 97t-86.5 36q-34 0 -58 -14.5t-40.5 -37t-25.5 -50.5t-12 -56l-84 14q7 46 24.5 85t45 67.5t65.5 44.5t88 16q53 0 91.5 -18t63 -46.5t36.5 -64.5t12 -73q0 -63 -30.5 -117
t-78.5 -108q-24 -27 -51 -54t-55 -53t-55 -49.5t-52 -44.5h329v-70h-435v66z" />
    <glyph glyph-name="three" unicode="3" 
d="M88 536q5 24 19.5 52.5t39.5 53t61.5 40.5t87.5 16q49 0 87.5 -15t65 -40.5t40.5 -59.5t14 -71q0 -55 -29 -95.5t-79 -59.5q28 -6 51 -22.5t39 -39t25 -51t9 -58.5q0 -37 -14 -72.5t-42.5 -63.5t-70.5 -45t-99 -17q-59 0 -100.5 18t-67.5 44t-38 56t-13 53l81 20
q3 -18 10 -39.5t22.5 -40t41 -31t65.5 -12.5q36 0 62 10.5t43 28.5t25.5 41t8.5 49q0 59 -42 96.5t-123 37.5q-7 0 -13 -0.5t-11 -0.5h-10v72q5 -1 10 -1h23q73 0 112 35.5t39 91.5q0 54 -35.5 84.5t-87.5 30.5q-30 0 -52.5 -10.5t-38 -26.5t-24 -36.5t-11.5 -39.5z" />
    <glyph glyph-name="four" unicode="4" 
d="M448 686v-455h109l-12 -66h-97v-165h-80v165h-319v64l290 457h109zM368 231v380h-2l-238 -380h240z" />
    <glyph glyph-name="five" unicode="5" 
d="M158 183q3 -25 12 -48t25.5 -40.5t40.5 -28t56 -10.5t59 11.5t46.5 32.5t30 50.5t10.5 65.5q0 30 -7.5 59t-24.5 52.5t-43.5 38t-63.5 14.5q-47 0 -81 -21.5t-49 -53.5l-70 11l39 370h353l-12 -70h-277l-24 -217q17 17 47.5 33t82.5 16q54 0 94.5 -20t67.5 -53t40.5 -74
t13.5 -83q0 -46 -16 -87.5t-46 -73t-73.5 -50.5t-98.5 -19q-56 0 -95.5 18.5t-65 45t-37.5 57t-12 54.5z" />
    <glyph glyph-name="six" unicode="6" 
d="M321 630q-46 0 -78 -22t-52 -59.5t-29.5 -88t-11.5 -108.5q18 37 61 64t112 27q54 0 95 -19t68 -50.5t41 -72t14 -83.5q0 -47 -15 -88.5t-44 -73t-71.5 -50t-97.5 -18.5q-126 0 -183.5 88t-57.5 252q0 178 63 274t187 96q49 0 83.5 -13.5t58.5 -35.5t38 -49.5t21 -55.5
l-83 -12q-5 15 -12.5 32.5t-21 32t-34 24t-51.5 9.5zM312 377q-68 0 -107 -43t-39 -112q0 -35 10.5 -66t29.5 -53.5t46 -35.5t61 -13q30 0 56.5 11t45.5 32t30 50.5t11 67.5q0 36 -9.5 65.5t-28 51t-45.5 33.5t-61 12z" />
    <glyph glyph-name="seven" unicode="7" 
d="M86 686h443v-55q-35 -43 -78.5 -107.5t-82 -145.5t-65 -176.5t-26.5 -201.5h-87q0 104 26 199t64 175t81 142t77 100h-364z" />
    <glyph glyph-name="eight" unicode="8" 
d="M300 -12q-60 0 -104 17t-73.5 45t-44 63.5t-14.5 71.5q0 29 9.5 57t26.5 51.5t41 40t54 22.5q-48 17 -79 57.5t-31 96.5q0 35 14 69t41 60.5t67 42.5t93 16t93 -16t67 -42.5t41 -60.5t14 -69q0 -56 -31 -96.5t-79 -57.5q30 -6 54 -22.5t41 -40t26.5 -51.5t9.5 -57
q0 -36 -14.5 -71.5t-44 -63.5t-73.5 -45t-104 -17zM431 513q0 57 -36 88.5t-95 31.5t-95 -31.5t-36 -88.5q0 -26 8 -49t24.5 -40t41 -27t57.5 -10t57.5 10t41 27t24.5 40t8 49zM300 54q46 0 75 13t45.5 32.5t23 43t6.5 43.5q0 26 -9 50t-27.5 42.5t-47 29.5t-66.5 11
t-66.5 -11t-47 -29.5t-27.5 -42.5t-9 -50q0 -20 6.5 -43.5t23 -43t45.5 -32.5t75 -13z" />
    <glyph glyph-name="nine" unicode="9" 
d="M279 56q46 0 78 22t52 59.5t29.5 88t11.5 108.5q-18 -37 -61 -64t-112 -27q-54 0 -95 19t-68 50.5t-41 72t-14 83.5q0 46 15 88t44 73.5t71.5 50t97.5 18.5q126 0 183.5 -88.5t57.5 -251.5q0 -179 -63 -274.5t-187 -95.5q-49 0 -83.5 13.5t-58.5 35.5t-38 49.5t-21 55.5
l83 12q5 -15 12.5 -32.5t21 -32t34 -24t51.5 -9.5zM288 309q68 0 107 43t39 112q0 35 -10.5 66t-29.5 53.5t-46 35.5t-61 13q-30 0 -56.5 -11t-45.5 -32t-30 -51t-11 -67q0 -36 9.5 -65.5t28 -51t45 -33.5t61.5 -12z" />
    <glyph glyph-name="colon" unicode=":" horiz-adv-x="258" 
d="M70 422q0 25 16.5 41t42.5 16t42.5 -16t16.5 -41t-16.5 -41t-42.5 -16t-42.5 16t-16.5 41zM70 50q0 25 16.5 41t42.5 16t42.5 -16t16.5 -41t-16.5 -41t-42.5 -16t-42.5 16t-16.5 41z" />
    <glyph glyph-name="semicolon" unicode=";" horiz-adv-x="263" 
d="M72 422q0 25 16.5 41t42.5 16t42.5 -16t16.5 -41t-16.5 -41t-42.5 -16t-42.5 16t-16.5 41zM193 24q0 -17 -4 -37.5t-15 -39.5t-30 -34t-50 -21l-15 40q20 1 37.5 18.5t17.5 40.5v6q-1 -1 -3 -1h-8q-20 0 -36.5 15.5t-16.5 39.5q0 20 14 38t43 18q35 0 50.5 -25t15.5 -58z
" />
    <glyph glyph-name="less" unicode="&#x3c;" 
d="M50 288v68l491 232v-83l-401 -182l401 -182v-83z" />
    <glyph glyph-name="equal" unicode="=" 
d="M54 450h492v-68h-492v68zM54 268h492v-68h-492v68z" />
    <glyph glyph-name="greater" unicode="&#x3e;" 
d="M550 358v-68l-491 -232v83l401 182l-401 182v83z" />
    <glyph glyph-name="question" unicode="?" horiz-adv-x="515" 
d="M212 184v35q0 55 30 96.5t73 79.5q14 12 27.5 25t24 27.5t16.5 32t6 40.5q0 54 -34.5 89t-93.5 35q-36 0 -62 -14t-44 -36.5t-28 -51t-13 -58.5l-84 14q7 45 24.5 84.5t46 68t68 45t92.5 16.5q55 0 95.5 -17.5t66.5 -45t39 -62.5t13 -70q0 -32 -10 -58t-25 -47.5
t-33.5 -38.5t-35.5 -32q-35 -30 -55 -63t-20 -66v-28h-84zM199 48q0 24 15.5 39t40.5 15t40.5 -15t15.5 -39q0 -23 -15.5 -39t-40.5 -16t-40.5 16t-15.5 39z" />
    <glyph glyph-name="at" unicode="@" horiz-adv-x="948" 
d="M610 468h73l-52 -272q-3 -14 -3 -25q0 -28 14 -42.5t37 -14.5q25 0 52 15.5t49 44.5t36 72t14 97q0 67 -22.5 124t-64 97.5t-100.5 63.5t-131 23q-80 0 -150.5 -29.5t-123 -82.5t-83 -128.5t-30.5 -166.5q0 -87 28 -154t77 -112.5t115.5 -68.5t142.5 -23q46 0 86 8t74 22
t64 31.5t57 37.5l40 -57q-25 -19 -56.5 -38t-72 -34t-89.5 -24.5t-108 -9.5q-111 0 -192.5 34t-135.5 92t-80.5 135t-26.5 164q0 108 37.5 194.5t101 147t147.5 93t176 32.5q83 0 155 -25.5t125 -72.5t83.5 -114t30.5 -151q0 -59 -16 -113t-45.5 -95t-72 -65.5t-96.5 -24.5
q-28 0 -47 7t-31 18.5t-18.5 24.5t-9.5 25q-12 -20 -28.5 -34.5t-35 -23.5t-38.5 -13t-38 -4q-33 0 -61.5 12.5t-49 36.5t-32.5 58t-12 77q0 51 16 94.5t44 76t65 51t79 18.5q45 0 78.5 -19t44.5 -47zM575 271q7 34 2.5 61.5t-17 46t-32.5 28.5t-42 10q-28 0 -53 -14
t-43.5 -38t-29 -56t-10.5 -67q0 -57 24 -92.5t67 -35.5q48 0 81.5 34t44.5 85z" />
    <glyph glyph-name="A" unicode="A" horiz-adv-x="628" 
d="M609 0h-91l-68 190h-278l-68 -190h-85l255 700h80zM309 587q-3 -11 -10 -31t-15.5 -45t-18 -53.5t-19.5 -56.5q-23 -66 -50 -143h230q-27 77 -50 143q-10 28 -20 56.5t-19 53.5t-16 45t-10 31h-2z" />
    <glyph glyph-name="B" unicode="B" horiz-adv-x="625" 
d="M90 700h244q106 0 158.5 -46t52.5 -127q0 -38 -10.5 -65.5t-27 -47t-37 -31.5t-39.5 -19q28 -4 53.5 -16t45.5 -32t32 -49t12 -67q0 -44 -16.5 -81t-46.5 -63.5t-72 -41t-92 -14.5h-257v700zM176 632v-237h131q73 0 112 31t39 94q0 112 -140 112h-142zM176 68h141
q49 0 82 11t52.5 29t27.5 41.5t8 49.5q0 35 -12.5 59.5t-35.5 39.5t-55 22t-70 7h-138v-259z" />
    <glyph glyph-name="C" unicode="C" horiz-adv-x="667" 
d="M53 350q0 81 21.5 147.5t62 114t99 74t131.5 26.5q102 0 166 -49.5t99 -130.5l-81 -30q-11 29 -27.5 54.5t-39.5 44t-53 29.5t-68 11q-51 0 -92 -20.5t-69.5 -58.5t-43.5 -92t-15 -120q0 -65 14.5 -118.5t42.5 -92t69 -59.5t93 -21q73 0 119 38.5t70 100.5l81 -30
q-35 -84 -100 -132t-166 -48q-74 0 -132 26.5t-98.5 74.5t-61.5 114.5t-21 146.5z" />
    <glyph glyph-name="D" unicode="D" horiz-adv-x="698" 
d="M90 700h236q73 0 132 -24t100 -69t63 -110t22 -147q0 -83 -22 -148t-63 -110t-100 -68.5t-132 -23.5h-236v700zM553 350q0 63 -14 114.5t-44 88t-75.5 57t-108.5 20.5h-134v-560h134q63 0 108.5 20.5t75.5 57t44 88t14 114.5z" />
    <glyph glyph-name="E" unicode="E" horiz-adv-x="556" 
d="M90 0v700h410v-70h-323v-234h302v-70h-302v-256h330v-70h-417z" />
    <glyph glyph-name="F" unicode="F" horiz-adv-x="540" 
d="M90 0v700h411v-70h-324v-234h303v-70h-303v-326h-87z" />
    <glyph glyph-name="G" unicode="G" horiz-adv-x="717" 
d="M350 344h287v-344h-80v74q-10 -14 -26 -29t-39.5 -28t-55.5 -21t-73 -8q-75 0 -133 28t-97 76.5t-59.5 114.5t-20.5 143q0 79 22 145.5t63.5 114.5t101 75t133.5 27q95 0 162 -47t105 -133l-81 -30q-24 62 -70.5 100.5t-120.5 38.5q-50 0 -91.5 -19.5t-71 -57t-46 -92.5
t-16.5 -127q0 -137 59 -211.5t165 -74.5q39 0 73 10t58.5 31t39 52.5t14.5 73.5v50h-202v68z" />
    <glyph glyph-name="H" unicode="H" horiz-adv-x="694" 
d="M90 700h87v-303h340v303h87v-700h-87v327h-340v-327h-87v700z" />
    <glyph glyph-name="I" unicode="I" horiz-adv-x="267" 
d="M90 700h87v-700h-87v700z" />
    <glyph glyph-name="J" unicode="J" horiz-adv-x="436" 
d="M163 58q55 0 78 42t23 131v469h87v-469q0 -48 -7 -92t-26.5 -77.5t-55.5 -53.5t-94 -20q-61 0 -97.5 21t-65.5 55l56 57q27 -32 48 -47.5t54 -15.5z" />
    <glyph glyph-name="K" unicode="K" horiz-adv-x="618" 
d="M254 358l-77 -80v-278h-87v700h87v-317l301 317h104l-268 -282l291 -418h-105z" />
    <glyph glyph-name="L" unicode="L" horiz-adv-x="509" 
d="M90 700h87v-630h310v-70h-397v700z" />
    <glyph glyph-name="M" unicode="M" horiz-adv-x="853" 
d="M389 0q-13 32 -31 77t-38.5 97.5t-42 109t-41.5 110.5t-37 102.5t-28 84.5h-2v-581h-79v700h115q54 -145 101 -267q19 -52 39 -104t37 -97t29.5 -78t18.5 -48q5 15 17.5 48t29 78t35.5 97l38 104q45 122 99 267h114v-700h-79v581h-2q-12 -37 -30 -87.5t-39 -106.5
t-43 -114t-42 -110t-37 -94.5t-27 -68.5h-75z" />
    <glyph glyph-name="N" unicode="N" horiz-adv-x="723" 
d="M90 700h92q83 -128 156 -240q31 -48 62.5 -97t60 -93.5t52 -80.5t37.5 -58h2v569h81v-700h-92q-81 125 -153 236q-31 47 -62.5 96t-60.5 93.5t-53 82t-39 61.5h-2v-569h-81v700z" />
    <glyph glyph-name="O" unicode="O" horiz-adv-x="730" 
d="M53 350q0 84 22.5 151t64 114t99 72t126.5 25t126.5 -25t99 -72t64 -114t22.5 -151t-22.5 -151t-64 -114t-99 -72t-126.5 -25t-126.5 25t-99 72t-64 114t-22.5 151zM143 350q0 -61 14 -114t41.5 -92.5t69 -62t97.5 -22.5q55 0 97 22.5t69.5 62t41.5 92.5t14 114t-14 114
t-41.5 92.5t-69.5 62t-97 22.5q-56 0 -97.5 -22.5t-69 -62t-41.5 -92.5t-14 -114z" />
    <glyph glyph-name="P" unicode="P" horiz-adv-x="601" 
d="M177 285v-285h-87v700h242q54 0 98 -11.5t75 -36.5t48 -64t17 -94q0 -53 -17.5 -92.5t-49 -65.5t-75.5 -38.5t-96 -12.5h-155zM482 494q0 75 -41.5 105.5t-129.5 30.5h-134v-275h134q86 0 128.5 33.5t42.5 105.5z" />
    <glyph glyph-name="Q" unicode="Q" horiz-adv-x="730" 
d="M507 20q-62 -32 -142 -32q-69 0 -126.5 25t-99 72t-64 114t-22.5 151t22.5 151t64 114t99 72t126.5 25t126.5 -25t99 -72t64 -114t22.5 -151q0 -97 -29.5 -170t-82.5 -120l76 -80l-51 -46zM143 350q0 -61 14 -114t41.5 -92.5t69 -62t97.5 -22.5q49 0 88 18l-69 74l50 46
l76 -80q38 40 57.5 100.5t19.5 132.5q0 61 -14 114t-41.5 92.5t-69.5 62t-97 22.5q-56 0 -97.5 -22.5t-69 -62t-41.5 -92.5t-14 -114z" />
    <glyph glyph-name="R" unicode="R" horiz-adv-x="635" 
d="M568 513q0 -78 -44 -130t-116 -69l188 -314h-106l-178 308h-136v-308h-86v700h246q31 0 71 -7t76 -27t60.5 -56.5t24.5 -96.5zM481 508q0 63 -42.5 92.5t-123.5 29.5h-139v-253h154q41 0 69.5 10.5t46.5 28.5t26.5 41.5t8.5 50.5z" />
    <glyph glyph-name="S" unicode="S" horiz-adv-x="623" 
d="M158 522q0 -27 8 -46t27.5 -33t51 -23.5t79.5 -17.5q58 -9 104 -24t77.5 -38.5t48.5 -57.5t17 -83q0 -47 -17.5 -86t-50 -66.5t-80 -43t-107.5 -15.5q-64 0 -112.5 16t-82 44.5t-51.5 66.5t-20 82l86 13q2 -28 12 -55.5t31 -49t54.5 -35t82.5 -13.5q80 0 121.5 36
t41.5 99q0 28 -9 49.5t-29.5 37.5t-54.5 26.5t-83 17.5q-115 16 -175 60t-60 131q0 46 17.5 82.5t49 62t76 39.5t97.5 14q105 0 169.5 -49t78.5 -135l-86 -22q-9 63 -47 99.5t-116 36.5q-77 0 -113 -33t-36 -87z" />
    <glyph glyph-name="T" unicode="T" horiz-adv-x="547" 
d="M23 700h501v-70h-207v-630h-87v630h-207v70z" />
    <glyph glyph-name="U" unicode="U" horiz-adv-x="680" 
d="M340 -12q-131 0 -193 65.5t-62 195.5v451h87v-452q0 -36 8 -70t27.5 -60.5t52 -43t80.5 -16.5t80.5 16.5t52 43t27.5 60.5t8 70v452h87v-451q0 -130 -62 -195.5t-193 -65.5z" />
    <glyph glyph-name="V" unicode="V" horiz-adv-x="629" 
d="M109 700q42 -118 82 -228q17 -47 34.5 -96.5t34 -97t30.5 -90t25 -75.5h2q10 33 24.5 75.5t31 90t34.5 97t35 96.5q40 110 83 228h87l-259 -700h-80l-256 700h92z" />
    <glyph glyph-name="W" unicode="W" horiz-adv-x="909" 
d="M892 700l-197 -700h-86q-34 123 -64 234q-13 47 -26 96t-24.5 94.5t-21 84t-15.5 65.5h-2q-6 -27 -16.5 -65.5t-23 -84t-26 -94.5t-26.5 -96q-31 -111 -66 -234h-86l-195 700h89q35 -126 65 -240q13 -48 26 -98.5t25 -96.5t21.5 -85.5t15.5 -66.5h2q6 27 16 66.5t22 85.5
t25.5 96.5t27.5 98.5q31 114 67 240h81q35 -131 66 -246q13 -49 26.5 -99.5t25 -96.5t21 -83.5t14.5 -61.5h2q5 24 15 61.5t22 83.5t25.5 96.5t27.5 99.5q32 115 68 246h79z" />
    <glyph glyph-name="X" unicode="X" horiz-adv-x="649" 
d="M373 369l259 -369h-104l-207 297l-205 -297h-99l255 365l-232 335h104l182 -264l180 264h98z" />
    <glyph glyph-name="Y" unicode="Y" horiz-adv-x="618" 
d="M265 307l-254 393h100l201 -315l202 315h93l-255 -393v-307h-87v307z" />
    <glyph glyph-name="Z" unicode="Z" horiz-adv-x="613" 
d="M56 700h512v-59l-416 -572h414v-69h-521v57l418 573h-407v70z" />
    <glyph glyph-name="bracketleft" unicode="[" horiz-adv-x="305" 
d="M90 762h185v-60h-108v-789h108v-60h-185v909z" />
    <glyph glyph-name="backslash" unicode="\" horiz-adv-x="390" 
d="M309 -115l-299 869h72l298 -869h-71z" />
    <glyph glyph-name="bracketright" unicode="]" horiz-adv-x="305" 
d="M30 -147v60h108v789h-108v60h185v-909h-185z" />
    <glyph glyph-name="asciicircum" unicode="^" horiz-adv-x="535" 
d="M485 351h-85l-134 268l-137 -268h-79l183 349h69z" />
    <glyph glyph-name="underscore" unicode="_" horiz-adv-x="474" 
d="M9 -61h456v-55h-456v55z" />
    <glyph glyph-name="grave" unicode="`" 
d="M199 639l41 61l166 -124l-29 -44z" />
    <glyph glyph-name="a" unicode="a" horiz-adv-x="507" 
d="M366 0q-4 8 -7.5 25t-3.5 37q-26 -32 -64 -53t-97 -21q-33 0 -61 9.5t-49 26.5t-32.5 42t-11.5 55q0 47 25.5 78.5t69 50t100.5 26t119 7.5v29q0 48 -25 78t-79 30t-79.5 -26.5t-27.5 -64.5l-84 12q4 36 21 62.5t43.5 44.5t60 27t69.5 9q85 0 134 -44t49 -120v-256
q0 -23 3 -36.5t8 -27.5h-81zM219 53q26 0 50.5 9t43 25.5t30 40.5t11.5 54v41q-51 0 -93 -5.5t-72 -17t-47 -30t-17 -43.5q0 -36 25.5 -55t68.5 -19z" />
    <glyph glyph-name="b" unicode="b" horiz-adv-x="575" 
d="M314 484q47 0 86.5 -17t68.5 -49.5t45.5 -78.5t16.5 -103t-16.5 -103t-45.5 -78.5t-68.5 -49.5t-86.5 -17q-31 0 -55 7t-43 18.5t-33 26.5t-24 31v-71h-79v700h84v-288q23 29 58.5 50.5t91.5 21.5zM164 204q0 -40 13.5 -68t34 -45.5t45.5 -25.5t48 -8q32 0 58 13.5
t44 37.5t27.5 57t9.5 71t-9.5 71t-27.5 57t-44 37.5t-58 13.5q-23 0 -48 -8t-45.5 -25.5t-34 -45.5t-13.5 -68v-64z" />
    <glyph glyph-name="c" unicode="c" horiz-adv-x="491" 
d="M44 236q0 54 15 99.5t43.5 78.5t70 51.5t95.5 18.5q38 0 68 -9.5t53 -26.5t39.5 -39.5t27.5 -49.5l-78 -30q-11 40 -38.5 63.5t-74.5 23.5q-33 0 -58.5 -14t-42 -38.5t-25 -57t-8.5 -69.5t8.5 -70t25.5 -57.5t42 -38.5t59 -14q50 0 74.5 25t38.5 59l78 -30
q-27 -53 -71.5 -88t-118.5 -35q-53 0 -94.5 18.5t-70 51.5t-43.5 78.5t-15 99.5z" />
    <glyph glyph-name="d" unicode="d" horiz-adv-x="575" 
d="M261 484q56 0 91.5 -21.5t58.5 -50.5v288h84v-700h-79v71q-10 -16 -24 -31t-33 -26.5t-43 -18.5t-55 -7q-47 0 -86.5 17t-68.5 49.5t-45.5 78.5t-16.5 103t16.5 103t45.5 78.5t68.5 49.5t86.5 17zM411 271q0 42 -14.5 70t-35.5 44.5t-45.5 23t-45.5 6.5q-32 0 -58 -13.5
t-44 -37.5t-27.5 -57t-9.5 -71t9.5 -71t27.5 -57t44 -37.5t58 -13.5q21 0 45.5 6.5t45.5 23t35.5 44.5t14.5 70v70z" />
    <glyph glyph-name="e" unicode="e" horiz-adv-x="515" 
d="M463 108q-27 -54 -73.5 -87t-120.5 -33q-53 0 -95 18.5t-71 52t-44 79t-15 99.5q0 53 15.5 98.5t44 78.5t70 51.5t92.5 18.5q54 0 94 -19.5t66.5 -52t39.5 -75t13 -88.5v-28h-349q1 -33 10 -63.5t25.5 -54t42.5 -37t62 -13.5q49 0 75 22t44 63zM264 419q-57 0 -91 -38.5
t-40 -96.5h260q-3 63 -38.5 99t-90.5 36z" />
    <glyph glyph-name="f" unicode="f" horiz-adv-x="320" 
d="M20 472h80v89q0 42 13.5 71t35 46.5t49 25.5t55.5 8q33 0 64.5 -8.5t48.5 -20.5l-37 -68q-11 9 -29 16.5t-41 7.5q-37 0 -56 -22t-19 -61v-84h110v-64h-110v-408h-84v408h-80v64z" />
    <glyph glyph-name="g" unicode="g" horiz-adv-x="522" 
d="M497 423q-7 8 -18.5 11t-22.5 3q-16 0 -28 -5t-17 -10q20 -20 30 -49t10 -58q0 -40 -15.5 -71.5t-42.5 -53t-62 -32.5t-74 -11q-29 0 -49 4.5t-29 4.5q-5 0 -12.5 -2t-15 -7t-12.5 -13.5t-5 -20.5q0 -13 7.5 -20.5t25 -12t46 -7.5t70.5 -6q50 -3 88.5 -10t65 -20.5
t40 -35t13.5 -55.5q0 -43 -18.5 -73t-51 -49t-75.5 -27.5t-92 -8.5q-47 0 -86 7.5t-68 23t-45 40t-16 58.5q0 40 22 70t46 40q-26 11 -38 30.5t-12 41.5q0 28 17 51.5t48 37.5q-23 18 -40.5 48.5t-17.5 75.5q0 42 16 74t43 53.5t61.5 33t71.5 11.5q32 0 60.5 -7t49.5 -18
q16 14 39.5 24.5t58.5 10.5q28 0 49 -8zM146 314q0 -54 32.5 -82t78.5 -28t78.5 28t32.5 82t-32.5 83t-78.5 29t-78.5 -29t-32.5 -83zM261 -3q-39 2 -60.5 4t-40.5 7q-21 -9 -33.5 -30.5t-12.5 -50.5q0 -44 40 -63t100 -19q34 0 63 5.5t50 16.5t33 28.5t12 40.5
q0 17 -7.5 27.5t-25.5 17.5t-47 10.5t-71 5.5z" />
    <glyph glyph-name="h" unicode="h" horiz-adv-x="551" 
d="M80 700h84v-293q22 34 56 55.5t88 21.5q34 0 64.5 -10t53.5 -29.5t36.5 -49t13.5 -68.5v-327h-84v314q0 27 -9 46t-23 31.5t-32.5 18t-36.5 5.5q-25 0 -48 -11t-40.5 -31t-28 -49.5t-10.5 -66.5v-257h-84v700z" />
    <glyph glyph-name="i" unicode="i" horiz-adv-x="244" 
d="M67 656q0 25 15.5 40t39.5 15t39.5 -15t15.5 -40q0 -22 -15.5 -38t-39.5 -16t-39.5 16t-15.5 38zM80 472h84v-472h-84v472z" />
    <glyph glyph-name="j" unicode="j" horiz-adv-x="246" 
d="M166 -61q0 -41 -13 -69.5t-34 -46.5t-47.5 -26.5t-54.5 -8.5q-29 0 -54 7.5t-51 21.5l37 67q12 -8 27.5 -16t38.5 -8q35 0 51 23.5t16 60.5v528h84v-533zM69 656q0 25 15.5 40t39.5 15t39.5 -15t15.5 -40q0 -22 -15.5 -38t-39.5 -16t-39.5 16t-15.5 38z" />
    <glyph glyph-name="k" unicode="k" horiz-adv-x="503" 
d="M219 247l-55 -51v-196h-84v700h84v-416l203 188h99l-185 -172l217 -300h-102z" />
    <glyph glyph-name="l" unicode="l" horiz-adv-x="244" 
d="M80 700h84v-700h-84v700z" />
    <glyph glyph-name="m" unicode="m" horiz-adv-x="827" 
d="M80 472h79v-71q23 38 57 60.5t85 22.5q50 0 87.5 -22t54.5 -64q10 16 25 31.5t35 27.5t43.5 19.5t49.5 7.5q32 0 60.5 -10t49.5 -29.5t33.5 -49t12.5 -68.5v-327h-84v314q0 27 -8 46t-20.5 31.5t-29 18t-33.5 5.5q-23 0 -44.5 -11t-38 -31t-26.5 -49.5t-10 -66.5v-257
h-84v314q0 27 -8 46t-21 31.5t-29.5 18t-33.5 5.5q-23 0 -44 -11t-37.5 -31t-26.5 -49.5t-10 -66.5v-257h-84v472z" />
    <glyph glyph-name="n" unicode="n" horiz-adv-x="551" 
d="M80 472h79v-71q25 38 60.5 60.5t88.5 22.5q34 0 65 -10t53.5 -29.5t36 -49t13.5 -68.5v-327h-84v314q0 27 -9 46t-23.5 31.5t-32.5 18t-36 5.5q-25 0 -48 -11t-40.5 -31t-28 -49.5t-10.5 -66.5v-257h-84v472z" />
    <glyph glyph-name="o" unicode="o" horiz-adv-x="542" 
d="M271 484q54 0 96 -18.5t71.5 -51.5t44.5 -78.5t15 -99.5t-15 -99.5t-44.5 -78.5t-71.5 -51.5t-96 -18.5t-96 18.5t-71.5 51.5t-44.5 78.5t-15 99.5t15 99.5t44.5 78.5t71.5 51.5t96 18.5zM271 55q35 0 61.5 14.5t44 39t26 57.5t8.5 70t-8.5 70t-26 57.5t-44 39
t-61.5 14.5t-61.5 -14.5t-44 -39t-26 -57.5t-8.5 -70t8.5 -70t26 -57.5t44 -39t61.5 -14.5z" />
    <glyph glyph-name="p" unicode="p" horiz-adv-x="575" 
d="M314 -12q-56 0 -91.5 21.5t-58.5 50.5v-260h-84v672h79v-71q10 16 24 31t33 26.5t43 18.5t55 7q47 0 86.5 -17t68.5 -49.5t45.5 -78.5t16.5 -103t-16.5 -103t-45.5 -78.5t-68.5 -49.5t-86.5 -17zM164 204q0 -40 13.5 -68t34 -45.5t45.5 -25.5t48 -8q32 0 58 13.5t44 37.5
t27.5 57t9.5 71t-9.5 71t-27.5 57t-44 37.5t-58 13.5q-23 0 -48 -8t-45.5 -25.5t-34 -45.5t-13.5 -68v-64z" />
    <glyph glyph-name="q" unicode="q" horiz-adv-x="575" 
d="M261 -12q-47 0 -86.5 17t-68.5 49.5t-45.5 78.5t-16.5 103t16.5 103t45.5 78.5t68.5 49.5t86.5 17q31 0 55 -7t43 -18.5t33 -26.5t24 -31v71h79v-672h-84v260q-23 -29 -58.5 -50.5t-91.5 -21.5zM411 271q0 42 -14.5 70t-35.5 44.5t-45.5 23t-45.5 6.5q-32 0 -58 -13.5
t-44 -37.5t-27.5 -57t-9.5 -71t9.5 -71t27.5 -57t44 -37.5t58 -13.5q21 0 45.5 6.5t45.5 23t35.5 44.5t14.5 70v70z" />
    <glyph glyph-name="r" unicode="r" horiz-adv-x="360" 
d="M336 395q-10 9 -23.5 14.5t-30.5 5.5q-24 0 -45.5 -11.5t-37.5 -32.5t-25.5 -50.5t-9.5 -65.5v-255h-84v472h79v-74q18 43 55.5 64.5t82.5 21.5q14 0 29.5 -2.5t28.5 -8.5z" />
    <glyph glyph-name="s" unicode="s" horiz-adv-x="463" 
d="M133 349q0 -34 27 -49.5t83 -23.5q37 -6 70 -15t57.5 -25.5t38.5 -40.5t14 -60q0 -68 -51 -107.5t-141 -39.5q-87 0 -137 38t-58 110l83 11q5 -48 32 -71t81 -23q51 0 79 20t28 57q0 33 -27 49.5t-95 27.5q-90 14 -129 47.5t-39 90.5q0 34 14.5 60t39.5 43.5t57.5 26.5
t68.5 9q77 0 127.5 -35.5t58.5 -97.5l-83 -17q-5 41 -31 63.5t-75 22.5q-40 0 -66.5 -17.5t-26.5 -53.5z" />
    <glyph glyph-name="t" unicode="t" horiz-adv-x="332" 
d="M307 7q-14 -8 -36.5 -13.5t-48.5 -5.5q-31 0 -54 9.5t-38 25.5t-22.5 37t-7.5 44v304h-80v64h80v135l84 38v-173h110v-64h-110v-296q0 -26 13 -40t36 -14q13 0 25 4t22 11z" />
    <glyph glyph-name="u" unicode="u" horiz-adv-x="547" 
d="M467 0h-79v71q-25 -38 -59.5 -60.5t-87.5 -22.5q-34 0 -64 10t-52.5 29.5t-36 49t-13.5 68.5v327h84v-314q0 -27 8.5 -46t23 -31.5t32 -18t35.5 -5.5q24 0 47 11t40 31t27.5 49.5t10.5 66.5v257h84v-472z" />
    <glyph glyph-name="v" unicode="v" horiz-adv-x="479" 
d="M16 472h89q33 -91 60 -169q12 -33 23.5 -67.5t22 -64.5t18.5 -54t12 -37h2q4 13 11.5 37t18 54t22.5 64.5t24 67.5q28 78 61 169h83l-181 -472h-85z" />
    <glyph glyph-name="w" unicode="w" horiz-adv-x="724" 
d="M400 472q28 -91 53 -168q10 -33 20.5 -66.5t19 -62.5t15 -51.5t9.5 -34.5h2q3 15 9.5 39t15 54t18 63t19.5 65q23 76 49 162h78l-151 -472h-82q-28 89 -51 165q-10 32 -20 64.5t-18.5 60.5t-14.5 49.5t-9 32.5q-4 -14 -13.5 -47t-22 -74.5t-26 -86t-25 -81t-19 -60
l-7.5 -23.5h-82l-151 472h83q27 -88 50 -165q10 -33 19.5 -66t18 -62.5t14.5 -53t9 -36.5h2q5 17 15.5 52t23 78t26.5 87.5t25.5 81.5t19 60.5l7.5 23.5h71z" />
    <glyph glyph-name="x" unicode="x" horiz-adv-x="469" 
d="M18 0l171 243l-159 229h96l112 -164l109 164h88l-155 -223l171 -249h-95l-124 184l-124 -184h-90z" />
    <glyph glyph-name="y" unicode="y" horiz-adv-x="481" 
d="M120 -200l82 202l-186 470h87q35 -90 64 -166q12 -32 24.5 -64.5t23 -60.5t18.5 -49t11 -31h2q3 10 10 31t17.5 49t23 60.5t24.5 64.5q29 76 63 166h81l-259 -672h-86z" />
    <glyph glyph-name="z" unicode="z" horiz-adv-x="439" 
d="M47 472h352v-51l-258 -355h258v-66h-359v54l256 352h-249v66z" />
    <glyph glyph-name="braceleft" unicode="{" horiz-adv-x="334" 
d="M205 483q0 -44 -6.5 -74.5t-19.5 -50.5t-32 -31.5t-43 -16.5q24 -5 43 -16.5t32 -31.5t19.5 -50.5t6.5 -73.5v-57q0 -35 2.5 -66t13.5 -55.5t32.5 -41t60.5 -20.5v-56q-67 2 -104.5 24.5t-55.5 59.5t-22 87t-4 107v17q0 29 -2.5 53t-11.5 43t-26.5 31t-47.5 17v59
q30 5 47.5 17t26.5 31t11.5 43t2.5 53v17q0 57 4 107t22 87t55.5 59.5t104.5 24.5v-56q-39 -5 -60.5 -21t-32.5 -40.5t-13.5 -55.5t-2.5 -66v-57z" />
    <glyph glyph-name="bar" unicode="|" horiz-adv-x="263" 
d="M95 797h73v-966h-73v966z" />
    <glyph glyph-name="braceright" unicode="}" horiz-adv-x="334" 
d="M129 540q0 35 -2.5 66t-13.5 55.5t-32.5 40.5t-60.5 21v56q67 -2 104.5 -24.5t55.5 -59.5t22 -87t4 -107v-17q0 -29 2.5 -53t11.5 -43t26.5 -31t47.5 -17v-59q-30 -5 -47.5 -17t-26.5 -31t-11.5 -43t-2.5 -53v-17q0 -57 -4 -107t-22 -87t-55.5 -59.5t-104.5 -24.5v56
q39 4 60.5 20.5t32.5 41t13.5 55.5t2.5 66v57q0 43 6.5 73.5t19.5 50.5t32 31.5t43 16.5q-24 5 -43 16.5t-32 31.5t-19.5 50.5t-6.5 74.5v57z" />
    <glyph glyph-name="asciitilde" unicode="~" horiz-adv-x="597" 
d="M393 235q-35 0 -61 10.5t-47.5 23t-41.5 23t-44 10.5q-23 0 -38.5 -9.5t-26.5 -20.5q-12 -13 -20 -30l-60 39q13 25 34 45q18 17 46 31t69 14q35 0 61 -10.5t47.5 -23t41.5 -23t44 -10.5q23 0 38.5 9.5t26.5 20.5q12 13 20 30l60 -39q-13 -26 -34 -45q-18 -17 -46 -31
t-69 -14z" />
    <glyph glyph-name="nonbreakingspace" unicode="&#xa0;" horiz-adv-x="235" 
 />
    <glyph glyph-name="exclamdown" unicode="&#xa1;" horiz-adv-x="250" 
d="M70 452q0 23 15 39t40 16t40 -16t15 -39q0 -24 -15 -39t-40 -15t-40 15t-15 39zM171 -200h-92l12 514h68z" />
    <glyph glyph-name="cent" unicode="&#xa2;" horiz-adv-x="496" 
d="M46 345q0 45 11.5 86t35.5 74t60 55.5t84 28.5v102h59v-100q67 -6 106.5 -40.5t60.5 -82.5l-74 -29q-10 35 -33 57.5t-60 29.5v-361q39 7 60 31t34 54l74 -28q-26 -48 -65 -81.5t-103 -40.5v-100h-59v101q-48 6 -83.5 28t-59.5 55t-36 74.5t-12 86.5zM128 346
q0 -29 5 -58t18 -53.5t33.5 -42.5t52.5 -25v358q-30 -6 -50.5 -23.5t-33.5 -41.5t-19 -53.5t-6 -60.5z" />
    <glyph glyph-name="sterling" unicode="&#xa3;" horiz-adv-x="551" 
d="M108 321h-59v64h59v112q0 37 10.5 73.5t33.5 64.5t60.5 45.5t91.5 17.5q39 0 69.5 -9.5t53.5 -26.5t39.5 -40t27.5 -50l-77 -29q-14 42 -41 65.5t-72 23.5q-30 0 -51.5 -11t-34.5 -29t-19 -41.5t-6 -48.5v-117h172v-64h-172v-149q0 -45 -12 -70.5t-30 -33.5l1 -2
q6 2 20.5 3.5t34.5 1.5q30 0 49 -2.5t34.5 -5.5t30.5 -5.5t35 -2.5q43 0 64.5 16t35.5 57l75 -24q-21 -61 -59 -88.5t-107 -27.5q-22 0 -38.5 2.5t-34.5 5.5t-41 5.5t-58 2.5q-48 0 -78.5 -4.5t-50.5 -11.5l-19 64q22 10 34.5 23.5t19 29t8 32.5t1.5 34v150z" />
    <glyph glyph-name="currency" unicode="&#xa4;" horiz-adv-x="606" 
d="M303 585q77 0 139 -45l69 72l53 -53l-71 -68q22 -29 34.5 -65t12.5 -75t-12.5 -75t-34.5 -65l71 -68l-53 -53l-69 72q-62 -45 -139 -45t-139 45l-69 -72l-53 53l71 68q-22 29 -34.5 65t-12.5 75t12.5 75t34.5 65l-71 68l53 53l69 -72q62 45 139 45zM303 188q33 0 63 12.5
t52 34.5t35 52t13 64t-13 64t-35 52t-52 34.5t-63 12.5t-63 -12.5t-52 -34.5t-35 -52t-13 -64t13 -64t35 -52t52 -34.5t63 -12.5z" />
    <glyph glyph-name="yen" unicode="&#xa5;" horiz-adv-x="604" 
d="M344 226v-226h-85v226h-170v57h170v17l-32 49h-138v57h101l-180 280h98l196 -311l199 311h91l-182 -280h103v-57h-140l-31 -49v-17h171v-57h-171z" />
    <glyph glyph-name="brokenbar" unicode="&#xa6;" horiz-adv-x="263" 
d="M95 797h73v-385h-73v385zM95 216h73v-385h-73v385z" />
    <glyph glyph-name="section" unicode="&#xa7;" horiz-adv-x="524" 
d="M484 238q0 -48 -25.5 -78t-73.5 -53q32 -23 48 -53t16 -75q0 -41 -14.5 -72.5t-40 -53.5t-61 -33t-78.5 -11q-75 0 -126 35.5t-68 95.5l75 24q11 -42 40.5 -67.5t80.5 -25.5q57 0 84.5 27.5t27.5 72.5q0 28 -10 49t-28.5 36.5t-44.5 28t-58 23.5q-33 12 -66.5 24.5
t-60.5 32t-44 48t-17 70.5q0 48 25.5 78t73.5 53q-32 23 -48 53t-16 75q0 41 14.5 72.5t40 53.5t61 33t78.5 11q75 0 126 -35.5t68 -95.5l-75 -24q-11 42 -40.5 67.5t-80.5 25.5q-57 0 -84.5 -27.5t-27.5 -72.5q0 -28 10 -49t28.5 -36.5t44.5 -28t58 -23.5
q33 -12 66.5 -24.5t60.5 -32t44 -48t17 -70.5zM330 139q32 11 52.5 33t20.5 59q0 43 -23 64.5t-71 38.5q-21 7 -41 15.5t-36 15.5t-26.5 12t-11.5 5q-33 -11 -53 -33t-20 -59q0 -43 23 -64.5t71 -38.5q21 -8 41.5 -16.5t37.5 -15.5q19 -8 36 -16z" />
    <glyph glyph-name="dieresis" unicode="&#xa8;" 
d="M343 602q0 23 15 37.5t38 14.5t38 -14.5t15 -37.5q0 -22 -15 -37.5t-38 -15.5t-38 15.5t-15 37.5zM151 602q0 23 15 37.5t38 14.5t38 -14.5t15 -37.5q0 -22 -15 -37.5t-38 -15.5t-38 15.5t-15 37.5z" />
    <glyph glyph-name="copyright" unicode="&#xa9;" horiz-adv-x="820" 
d="M410 -12q-75 0 -141.5 27t-115.5 75t-77.5 114.5t-28.5 146.5q0 79 28.5 145t77.5 114t115.5 75t141.5 27t141.5 -27t115.5 -75t77.5 -114t28.5 -145q0 -80 -28.5 -146.5t-77.5 -114.5t-115.5 -75t-141.5 -27zM410 43q62 0 117 23t96 63.5t65 97t24 124.5q0 67 -24 123
t-65 96.5t-96 63.5t-117 23t-117 -23t-96 -63.5t-65 -96.5t-24 -123q0 -68 24 -124.5t65 -97t96 -63.5t117 -23zM223 351q0 46 14.5 84t40 65t61 41.5t77.5 14.5q61 0 99 -28t60 -73l-57 -22q-12 30 -37 50t-65 20q-56 0 -91 -41t-35 -111q0 -69 34.5 -110.5t90.5 -41.5
q40 0 65.5 20t37.5 51l57 -22q-22 -48 -60.5 -75t-98.5 -27q-43 0 -78.5 15t-61 42t-39.5 65t-14 83z" />
    <glyph glyph-name="ordfeminine" unicode="&#xaa;" horiz-adv-x="411" 
d="M292 327q-3 6 -6 18.5t-3 28.5q-19 -24 -47.5 -41t-69.5 -17q-24 0 -47 6.5t-41 20t-29 33.5t-11 47q0 35 20 58.5t53.5 38t78 20.5t92.5 6v22q0 37 -19.5 60.5t-61.5 23.5t-61.5 -20.5t-21.5 -50.5l-65 10q3 28 16.5 48.5t33.5 34.5t46 21t55 7q66 0 104 -34t38 -94
v-199q0 -20 2.5 -28.5t6.5 -19.5h-63zM179 367q19 0 38 7t33 19.5t23 31t9 42.5v32q-79 0 -128 -17.5t-49 -57.5q0 -28 22 -42.5t52 -14.5z" />
    <glyph glyph-name="guillemotleft" unicode="&#xab;" horiz-adv-x="490" 
d="M231 256l169 212l50 -38l-129 -174l129 -173l-50 -38zM35 256l169 212l50 -38l-128 -174l128 -173l-50 -38z" />
    <glyph glyph-name="logicalnot" unicode="&#xac;" 
d="M54 363h492v-244h-72v175h-420v69z" />
    <glyph glyph-name="uni00AD" unicode="&#xad;" horiz-adv-x="375" 
d="M60 321h255v-67h-255v67z" />
    <glyph glyph-name="registered" unicode="&#xae;" horiz-adv-x="820" 
d="M410 -12q-75 0 -141.5 27t-115.5 75t-77.5 114.5t-28.5 146.5q0 79 28.5 145t77.5 114t115.5 75t141.5 27t141.5 -27t115.5 -75t77.5 -114t28.5 -145q0 -80 -28.5 -146.5t-77.5 -114.5t-115.5 -75t-141.5 -27zM410 43q62 0 117 23t96 63.5t65 97t24 124.5q0 67 -24 123
t-65 96.5t-96 63.5t-117 23t-117 -23t-96 -63.5t-65 -96.5t-24 -123q0 -68 24 -124.5t65 -97t96 -63.5t117 -23zM564 437q0 -44 -21.5 -73t-58.5 -40l95 -166h-73l-89 162h-74v-162h-61v389h150q18 0 41 -3.5t43.5 -15t34 -33.5t13.5 -58zM500 435q0 60 -77 60h-80v-122h87
q38 0 54 18t16 44z" />
    <glyph glyph-name="macron" unicode="&#xaf;" 
d="M170 620h259v-59h-259v59z" />
    <glyph glyph-name="degree" unicode="&#xb0;" horiz-adv-x="386" 
d="M346 562q0 -33 -11.5 -60.5t-31.5 -47.5t-48.5 -31t-61.5 -11t-61.5 11t-48.5 31t-31.5 47.5t-11.5 60.5t11.5 60.5t31.5 47.5t48.5 31t61.5 11t61.5 -11t48.5 -31t31.5 -47.5t11.5 -60.5zM280 562q0 39 -23.5 66t-63.5 27t-63.5 -27t-23.5 -66t23.5 -66t63.5 -27
t63.5 27t23.5 66z" />
    <glyph glyph-name="plusminus" unicode="&#xb1;" 
d="M54 416h211v198h69v-198h212v-69h-212v-204h-69v204h-211v69zM54 68h492v-68h-492v68z" />
    <glyph glyph-name="twosuperior" unicode="&#xb2;" horiz-adv-x="363" 
d="M47 377q27 23 53 44q22 18 44.5 36.5t36.5 31.5q27 25 43 49.5t16 53.5q0 27 -16 43.5t-42 16.5q-17 0 -29.5 -7t-21 -17.5t-13.5 -24.5t-6 -27l-68 11q10 52 43 86.5t96 34.5q33 0 57 -10t40 -26t24 -36.5t8 -42.5q0 -40 -22.5 -73.5t-57.5 -65.5q-19 -17 -45.5 -37.5
t-47.5 -35.5h176v-57h-268v53z" />
    <glyph glyph-name="threesuperior" unicode="&#xb3;" horiz-adv-x="361" 
d="M48 614q4 16 13 32.5t24.5 30t38 22.5t53.5 9q62 0 95.5 -31.5t33.5 -74.5q0 -32 -17 -53t-45 -31q32 -6 51.5 -31.5t19.5 -57.5q0 -21 -8.5 -41t-25.5 -35.5t-43 -25.5t-61 -10q-37 0 -63 10.5t-42.5 26t-24 32.5t-7.5 30q6 2 15 4.5t18.5 5t18 5t14.5 4.5q1 -9 5 -20
t12 -20.5t21 -16t33 -6.5q38 0 52.5 18.5t14.5 39.5q0 26 -21 42.5t-60 16.5q-5 0 -8 -0.5t-5 -0.5h-5v59q2 -1 5 -1h12q37 0 55 15.5t18 39.5q0 25 -17 38.5t-42 13.5q-28 0 -44 -16.5t-18 -38.5z" />
    <glyph glyph-name="acute" unicode="&#xb4;" 
d="M401 639l-178 -107l-29 44l166 124z" />
    <glyph glyph-name="mu" unicode="&#xb5;" horiz-adv-x="552" 
d="M472 0h-79v71q-25 -38 -59.5 -60.5t-87.5 -22.5q-23 0 -43.5 5.5t-38.5 15.5v-207h-84v670h84v-314q0 -27 8.5 -46t23 -31.5t32 -18t35.5 -5.5q24 0 47 11t40 31t27.5 49.5t10.5 66.5v257h84v-472z" />
    <glyph glyph-name="mu" unicode="&#x3bc;" horiz-adv-x="552" 
d="M472 0h-79v71q-25 -38 -59.5 -60.5t-87.5 -22.5q-23 0 -43.5 5.5t-38.5 15.5v-207h-84v670h84v-314q0 -27 8.5 -46t23 -31.5t32 -18t35.5 -5.5q24 0 47 11t40 31t27.5 49.5t10.5 66.5v257h84v-472z" />
    <glyph glyph-name="paragraph" unicode="&#xb6;" horiz-adv-x="604" 
d="M235 305q-39 2 -74 18t-61 42.5t-41 62t-15 76.5q0 42 16 78t43.5 62t64 41t77.5 15h337v-61h-73v-777h-70v777h-134v-777h-70v443z" />
    <glyph glyph-name="periodcentered" unicode="&#xb7;" horiz-adv-x="252" 
d="M70 287q0 24 15.5 39.5t40.5 15.5t40.5 -15.5t15.5 -39.5q0 -23 -15.5 -38.5t-40.5 -15.5t-40.5 15.5t-15.5 38.5z" />
    <glyph glyph-name="cedilla" unicode="&#xb8;" 
d="M237 -156q7 -6 19.5 -12.5t31.5 -6.5q20 0 31 11.5t11 30.5q0 40 -40 40q-13 0 -22 -4t-16 -9l-27 27l32 79h45l-22 -56q12 7 30 7q33 0 55.5 -21.5t22.5 -60.5q0 -43 -28 -67.5t-72 -24.5q-30 0 -50 9.5t-29 18.5z" />
    <glyph glyph-name="onesuperior" unicode="&#xb9;" horiz-adv-x="258" 
d="M183 700v-376h-71v302q-12 -9 -32.5 -15t-44.5 -7l-13 56q32 4 58.5 13.5t40.5 26.5h62z" />
    <glyph glyph-name="ordmasculine" unicode="&#xba;" horiz-adv-x="439" 
d="M220 702q40 0 73 -13.5t56.5 -38.5t36.5 -60.5t13 -80.5t-13 -80.5t-36.5 -60.5t-56.5 -38.5t-73 -13.5t-73 13.5t-57 38.5t-37 60.5t-13 80.5t13 80.5t37 60.5t57 38.5t73 13.5zM220 368q28 0 49 11t35 30.5t21 45t7 54.5t-7 54.5t-21 44.5t-35 30t-49 11q-29 0 -50 -11
t-34.5 -30t-20.5 -44.5t-7 -54.5t7 -54.5t20.5 -45t34.5 -30.5t50 -11z" />
    <glyph glyph-name="guillemotright" unicode="&#xbb;" horiz-adv-x="490" 
d="M455 256l-169 -211l-50 38l128 173l-128 174l50 38zM259 256l-169 -211l-50 38l129 173l-129 174l50 38z" />
    <glyph glyph-name="onequarter" unicode="&#xbc;" horiz-adv-x="731" 
d="M87 -12l436 724h75l-439 -724h-72zM183 700v-376h-71v302q-12 -9 -32.5 -15t-44.5 -7l-13 56q32 4 58.5 13.5t40.5 26.5h62zM392 134l163 240h85v-239h63l-10 -54h-53v-81h-67v81h-181v53zM573 135v173h-1l-118 -173h119z" />
    <glyph glyph-name="onehalf" unicode="&#xbd;" horiz-adv-x="754" 
d="M87 -12l436 724h75l-439 -724h-72zM183 700v-376h-71v302q-12 -9 -32.5 -15t-44.5 -7l-13 56q32 4 58.5 13.5t40.5 26.5h62zM438 53q27 23 53 44q22 18 44.5 36.5t36.5 31.5q27 25 43 49.5t16 53.5q0 27 -16 43.5t-42 16.5q-17 0 -29.5 -7t-21 -17.5t-13.5 -24.5t-6 -27
l-68 11q10 52 43 86.5t96 34.5q33 0 57 -10t40 -26t24 -36.5t8 -42.5q0 -40 -22.5 -73.5t-57.5 -65.5q-19 -17 -45.5 -37.5t-47.5 -35.5h176v-57h-268v53z" />
    <glyph glyph-name="threequarters" unicode="&#xbe;" horiz-adv-x="810" 
d="M166 -12l436 724h75l-439 -724h-72zM48 614q4 16 13 32.5t24.5 30t38 22.5t53.5 9q62 0 95.5 -31.5t33.5 -74.5q0 -32 -17 -53t-45 -31q32 -6 51.5 -31.5t19.5 -57.5q0 -21 -8.5 -41t-25.5 -35.5t-43 -25.5t-61 -10q-37 0 -63 10.5t-42.5 26t-24 32.5t-7.5 30q6 2 15 4.5
t18.5 5t18 5t14.5 4.5q1 -9 5 -20t12 -20.5t21 -16t33 -6.5q38 0 52.5 18.5t14.5 39.5q0 26 -21 42.5t-60 16.5q-5 0 -8 -0.5t-5 -0.5h-5v59q2 -1 5 -1h12q37 0 55 15.5t18 39.5q0 25 -17 38.5t-42 13.5q-28 0 -44 -16.5t-18 -38.5zM471 134l163 240h85v-239h63l-10 -54h-53
v-81h-67v81h-181v53zM652 135v173h-1l-118 -173h119z" />
    <glyph glyph-name="questiondown" unicode="&#xbf;" horiz-adv-x="500" 
d="M316 452q0 -24 -15.5 -39t-40.5 -15t-40.5 15t-15.5 39q0 23 15.5 39t40.5 16t40.5 -16t15.5 -39zM303 316v-35q0 -55 -30 -96.5t-73 -79.5q-14 -12 -27.5 -25t-24 -27.5t-16.5 -32.5t-6 -40q0 -54 34.5 -89t93.5 -35q36 0 62 14t44 36.5t28 51t13 58.5l84 -14
q-8 -45 -25 -84.5t-45.5 -68t-68.5 -45t-92 -16.5q-55 0 -95.5 17.5t-66.5 45t-39 62.5t-13 70q0 32 10 58t25 47.5t33.5 38.5t35.5 32q35 30 55 63t20 66v28h84z" />
    <glyph glyph-name="Agrave" unicode="&#xc0;" horiz-adv-x="628" 
d="M196 855l41 61l166 -124l-29 -44zM609 0h-91l-68 190h-278l-68 -190h-85l255 700h80zM309 587q-3 -11 -10 -31t-15.5 -45t-18 -53.5t-19.5 -56.5q-23 -66 -50 -143h230q-27 77 -50 143q-10 28 -20 56.5t-19 53.5t-16 45t-10 31h-2z" />
    <glyph glyph-name="Aacute" unicode="&#xc1;" horiz-adv-x="628" 
d="M433 855l-178 -107l-29 44l166 124zM609 0h-91l-68 190h-278l-68 -190h-85l255 700h80zM309 587q-3 -11 -10 -31t-15.5 -45t-18 -53.5t-19.5 -56.5q-23 -66 -50 -143h230q-27 77 -50 143q-10 28 -20 56.5t-19 53.5t-16 45t-10 31h-2z" />
    <glyph glyph-name="Acircumflex" unicode="&#xc2;" horiz-adv-x="628" 
d="M283 900h59l114 -116l-42 -39l-102 98l-99 -98l-42 39zM609 0h-91l-68 190h-278l-68 -190h-85l255 700h80zM309 587q-3 -11 -10 -31t-15.5 -45t-18 -53.5t-19.5 -56.5q-23 -66 -50 -143h230q-27 77 -50 143q-10 28 -20 56.5t-19 53.5t-16 45t-10 31h-2z" />
    <glyph glyph-name="Atilde" unicode="&#xc3;" horiz-adv-x="628" 
d="M244 875q25 0 44 -8t34.5 -17.5t29.5 -17.5t31 -8q16 0 27 7t19 16q9 10 14 23l43 -39q-10 -18 -25 -32q-13 -12 -33 -22t-49 -10q-26 0 -44 8t-33.5 17t-29.5 17t-31 8t-27.5 -7.5t-18.5 -15.5q-9 -10 -14 -22l-43 39q9 18 24 32q13 12 33 22t49 10zM609 0h-91l-68 190
h-278l-68 -190h-85l255 700h80zM309 587q-3 -11 -10 -31t-15.5 -45t-18 -53.5t-19.5 -56.5q-23 -66 -50 -143h230q-27 77 -50 143q-10 28 -20 56.5t-19 53.5t-16 45t-10 31h-2z" />
    <glyph glyph-name="Adieresis" unicode="&#xc4;" horiz-adv-x="628" 
d="M357 820q0 23 15 37.5t38 14.5t38 -14.5t15 -37.5q0 -22 -15 -37.5t-38 -15.5t-38 15.5t-15 37.5zM165 820q0 23 15 37.5t38 14.5t38 -14.5t15 -37.5q0 -22 -15 -37.5t-38 -15.5t-38 15.5t-15 37.5zM609 0h-91l-68 190h-278l-68 -190h-85l255 700h80zM309 587
q-3 -11 -10 -31t-15.5 -45t-18 -53.5t-19.5 -56.5q-23 -66 -50 -143h230q-27 77 -50 143q-10 28 -20 56.5t-19 53.5t-16 45t-10 31h-2z" />
    <glyph glyph-name="Aring" unicode="&#xc5;" horiz-adv-x="628" 
d="M216 835q0 41 27 66.5t71 25.5t71 -25.5t27 -66.5q0 -39 -27 -66t-71 -27t-71 27t-27 66zM264 835q0 -20 14 -35.5t36 -15.5t36 15.5t14 35.5q0 21 -14 35.5t-36 14.5t-36 -14.5t-14 -35.5zM609 0h-91l-68 190h-278l-68 -190h-85l255 700h80zM309 587q-3 -11 -10 -31
t-15.5 -45t-18 -53.5t-19.5 -56.5q-23 -66 -50 -143h230q-27 77 -50 143q-10 28 -20 56.5t-19 53.5t-16 45t-10 31h-2z" />
    <glyph glyph-name="AE" unicode="&#xc6;" horiz-adv-x="922" 
d="M456 0v190h-241l-109 -190h-91l402 700h449v-70h-323v-234h302v-70h-302v-256h330v-70h-417zM253 258h203v354h-4z" />
    <glyph glyph-name="Ccedilla" unicode="&#xc7;" horiz-adv-x="667" 
d="M311 -156q7 -6 19.5 -12.5t31.5 -6.5q20 0 31 11.5t11 30.5q0 40 -40 40q-13 0 -22 -4t-16 -9l-27 27l28 69q-65 7 -116 36t-86 76t-53.5 110t-18.5 138q0 81 21.5 147.5t62 114t99 74t131.5 26.5q102 0 166 -49.5t99 -130.5l-81 -30q-11 29 -27.5 54.5t-39.5 44
t-53 29.5t-68 11q-51 0 -92 -20.5t-69.5 -58.5t-43.5 -92t-15 -120q0 -65 14.5 -118.5t42.5 -92t69 -59.5t93 -21q73 0 119 38.5t70 100.5l81 -30q-35 -83 -98.5 -130.5t-162.5 -49.5l-17 -44q12 7 30 7q33 0 55.5 -21.5t22.5 -60.5q0 -43 -28 -67.5t-72 -24.5
q-30 0 -50 9.5t-29 18.5z" />
    <glyph glyph-name="Egrave" unicode="&#xc8;" horiz-adv-x="556" 
d="M192 855l41 61l166 -124l-29 -44zM90 0v700h410v-70h-323v-234h302v-70h-302v-256h330v-70h-417z" />
    <glyph glyph-name="Eacute" unicode="&#xc9;" horiz-adv-x="556" 
d="M416 855l-178 -107l-29 44l166 124zM90 0v700h410v-70h-323v-234h302v-70h-302v-256h330v-70h-417z" />
    <glyph glyph-name="Ecircumflex" unicode="&#xca;" horiz-adv-x="556" 
d="M264 900h59l114 -116l-42 -39l-102 98l-99 -98l-42 39zM90 0v700h410v-70h-323v-234h302v-70h-302v-256h330v-70h-417z" />
    <glyph glyph-name="Edieresis" unicode="&#xcb;" horiz-adv-x="556" 
d="M340 820q0 23 15 37.5t38 14.5t38 -14.5t15 -37.5q0 -22 -15 -37.5t-38 -15.5t-38 15.5t-15 37.5zM148 820q0 23 15 37.5t38 14.5t38 -14.5t15 -37.5q0 -22 -15 -37.5t-38 -15.5t-38 15.5t-15 37.5zM90 0v700h410v-70h-323v-234h302v-70h-302v-256h330v-70h-417z" />
    <glyph glyph-name="Igrave" unicode="&#xcc;" horiz-adv-x="267" 
d="M33 855l41 61l166 -124l-29 -44zM90 700h87v-700h-87v700z" />
    <glyph glyph-name="Iacute" unicode="&#xcd;" horiz-adv-x="267" 
d="M234 855l-178 -107l-29 44l166 124zM90 700h87v-700h-87v700z" />
    <glyph glyph-name="Icircumflex" unicode="&#xce;" horiz-adv-x="267" 
d="M103 900h59l114 -116l-42 -39l-102 98l-99 -98l-42 39zM90 700h87v-700h-87v700z" />
    <glyph glyph-name="Idieresis" unicode="&#xcf;" horiz-adv-x="267" 
d="M176 820q0 23 15 37.5t38 14.5t38 -14.5t15 -37.5q0 -22 -15 -37.5t-38 -15.5t-38 15.5t-15 37.5zM-16 820q0 23 15 37.5t38 14.5t38 -14.5t15 -37.5q0 -22 -15 -37.5t-38 -15.5t-38 15.5t-15 37.5zM90 700h87v-700h-87v700z" />
    <glyph glyph-name="Eth" unicode="&#xd0;" horiz-adv-x="717" 
d="M109 397v303h236q73 0 132 -24t100 -69t63 -110t22 -147q0 -83 -22 -148t-63 -110t-100 -68.5t-132 -23.5h-236v334h-89v63h89zM572 350q0 63 -14 114.5t-44 88t-75.5 57t-108.5 20.5h-134v-233h189v-63h-189v-264h134q63 0 108.5 20.5t75.5 57t44 88t14 114.5z" />
    <glyph glyph-name="Ntilde" unicode="&#xd1;" horiz-adv-x="723" 
d="M293 875q25 0 44 -8t34.5 -17.5t29.5 -17.5t31 -8q16 0 27 7t19 16q9 10 14 23l43 -39q-10 -18 -25 -32q-13 -12 -33 -22t-49 -10q-26 0 -44 8t-33.5 17t-29.5 17t-31 8t-27.5 -7.5t-18.5 -15.5q-9 -10 -14 -22l-43 39q9 18 24 32q13 12 33 22t49 10zM90 700h92
q83 -128 156 -240q31 -48 62.5 -97t60 -93.5t52 -80.5t37.5 -58h2v569h81v-700h-92q-81 125 -153 236q-31 47 -62.5 96t-60.5 93.5t-53 82t-39 61.5h-2v-569h-81v700z" />
    <glyph glyph-name="Ograve" unicode="&#xd2;" horiz-adv-x="730" 
d="M265 855l41 61l166 -124l-29 -44zM53 350q0 84 22.5 151t64 114t99 72t126.5 25t126.5 -25t99 -72t64 -114t22.5 -151t-22.5 -151t-64 -114t-99 -72t-126.5 -25t-126.5 25t-99 72t-64 114t-22.5 151zM143 350q0 -61 14 -114t41.5 -92.5t69 -62t97.5 -22.5q55 0 97 22.5
t69.5 62t41.5 92.5t14 114t-14 114t-41.5 92.5t-69.5 62t-97 22.5q-56 0 -97.5 -22.5t-69 -62t-41.5 -92.5t-14 -114z" />
    <glyph glyph-name="Oacute" unicode="&#xd3;" horiz-adv-x="730" 
d="M466 855l-178 -107l-29 44l166 124zM53 350q0 84 22.5 151t64 114t99 72t126.5 25t126.5 -25t99 -72t64 -114t22.5 -151t-22.5 -151t-64 -114t-99 -72t-126.5 -25t-126.5 25t-99 72t-64 114t-22.5 151zM143 350q0 -61 14 -114t41.5 -92.5t69 -62t97.5 -22.5q55 0 97 22.5
t69.5 62t41.5 92.5t14 114t-14 114t-41.5 92.5t-69.5 62t-97 22.5q-56 0 -97.5 -22.5t-69 -62t-41.5 -92.5t-14 -114z" />
    <glyph glyph-name="Ocircumflex" unicode="&#xd4;" horiz-adv-x="730" 
d="M336 900h59l114 -116l-42 -39l-102 98l-99 -98l-42 39zM53 350q0 84 22.5 151t64 114t99 72t126.5 25t126.5 -25t99 -72t64 -114t22.5 -151t-22.5 -151t-64 -114t-99 -72t-126.5 -25t-126.5 25t-99 72t-64 114t-22.5 151zM143 350q0 -61 14 -114t41.5 -92.5t69 -62
t97.5 -22.5q55 0 97 22.5t69.5 62t41.5 92.5t14 114t-14 114t-41.5 92.5t-69.5 62t-97 22.5q-56 0 -97.5 -22.5t-69 -62t-41.5 -92.5t-14 -114z" />
    <glyph glyph-name="Otilde" unicode="&#xd5;" horiz-adv-x="730" 
d="M297 875q25 0 44 -8t34.5 -17.5t29.5 -17.5t31 -8q16 0 27 7t19 16q9 10 14 23l43 -39q-10 -18 -25 -32q-13 -12 -33 -22t-49 -10q-26 0 -44 8t-33.5 17t-29.5 17t-31 8t-27.5 -7.5t-18.5 -15.5q-9 -10 -14 -22l-43 39q9 18 24 32q13 12 33 22t49 10zM53 350
q0 84 22.5 151t64 114t99 72t126.5 25t126.5 -25t99 -72t64 -114t22.5 -151t-22.5 -151t-64 -114t-99 -72t-126.5 -25t-126.5 25t-99 72t-64 114t-22.5 151zM143 350q0 -61 14 -114t41.5 -92.5t69 -62t97.5 -22.5q55 0 97 22.5t69.5 62t41.5 92.5t14 114t-14 114t-41.5 92.5
t-69.5 62t-97 22.5q-56 0 -97.5 -22.5t-69 -62t-41.5 -92.5t-14 -114z" />
    <glyph glyph-name="Odieresis" unicode="&#xd6;" horiz-adv-x="730" 
d="M408 820q0 23 15 37.5t38 14.5t38 -14.5t15 -37.5q0 -22 -15 -37.5t-38 -15.5t-38 15.5t-15 37.5zM216 820q0 23 15 37.5t38 14.5t38 -14.5t15 -37.5q0 -22 -15 -37.5t-38 -15.5t-38 15.5t-15 37.5zM53 350q0 84 22.5 151t64 114t99 72t126.5 25t126.5 -25t99 -72
t64 -114t22.5 -151t-22.5 -151t-64 -114t-99 -72t-126.5 -25t-126.5 25t-99 72t-64 114t-22.5 151zM143 350q0 -61 14 -114t41.5 -92.5t69 -62t97.5 -22.5q55 0 97 22.5t69.5 62t41.5 92.5t14 114t-14 114t-41.5 92.5t-69.5 62t-97 22.5q-56 0 -97.5 -22.5t-69 -62
t-41.5 -92.5t-14 -114z" />
    <glyph glyph-name="multiply" unicode="&#xd7;" 
d="M468 107l-169 169l-168 -169l-49 49l169 168l-169 169l49 49l168 -169l169 169l49 -49l-169 -169l169 -168z" />
    <glyph glyph-name="Oslash" unicode="&#xd8;" horiz-adv-x="730" 
d="M53 350q0 84 22.5 151t64 114t99 72t126.5 25q92 0 162 -44l52 84l54 -33l-56 -91q48 -48 74 -117.5t26 -160.5q0 -84 -22.5 -151t-64 -114t-99 -72t-126.5 -25q-91 0 -160 42l-55 -89l-55 33l59 96q-48 47 -74.5 118t-26.5 162zM143 350q0 -63 14 -116t42 -92l287 461
q-24 18 -54.5 28t-66.5 10q-56 0 -97.5 -22.5t-69 -62t-41.5 -92.5t-14 -114zM587 350q0 61 -14 113.5t-41 92.5l-286 -461q50 -36 119 -36q55 0 97 22.5t69.5 62t41.5 92.5t14 114z" />
    <glyph glyph-name="Ugrave" unicode="&#xd9;" horiz-adv-x="680" 
d="M221 855l41 61l166 -124l-29 -44zM340 -12q-131 0 -193 65.5t-62 195.5v451h87v-452q0 -36 8 -70t27.5 -60.5t52 -43t80.5 -16.5t80.5 16.5t52 43t27.5 60.5t8 70v452h87v-451q0 -130 -62 -195.5t-193 -65.5z" />
    <glyph glyph-name="Uacute" unicode="&#xda;" horiz-adv-x="680" 
d="M459 855l-178 -107l-29 44l166 124zM340 -12q-131 0 -193 65.5t-62 195.5v451h87v-452q0 -36 8 -70t27.5 -60.5t52 -43t80.5 -16.5t80.5 16.5t52 43t27.5 60.5t8 70v452h87v-451q0 -130 -62 -195.5t-193 -65.5z" />
    <glyph glyph-name="Ucircumflex" unicode="&#xdb;" horiz-adv-x="680" 
d="M310 900h59l114 -116l-42 -39l-102 98l-99 -98l-42 39zM340 -12q-131 0 -193 65.5t-62 195.5v451h87v-452q0 -36 8 -70t27.5 -60.5t52 -43t80.5 -16.5t80.5 16.5t52 43t27.5 60.5t8 70v452h87v-451q0 -130 -62 -195.5t-193 -65.5z" />
    <glyph glyph-name="Udieresis" unicode="&#xdc;" horiz-adv-x="680" 
d="M383 820q0 23 15 37.5t38 14.5t38 -14.5t15 -37.5q0 -22 -15 -37.5t-38 -15.5t-38 15.5t-15 37.5zM191 820q0 23 15 37.5t38 14.5t38 -14.5t15 -37.5q0 -22 -15 -37.5t-38 -15.5t-38 15.5t-15 37.5zM340 -12q-131 0 -193 65.5t-62 195.5v451h87v-452q0 -36 8 -70
t27.5 -60.5t52 -43t80.5 -16.5t80.5 16.5t52 43t27.5 60.5t8 70v452h87v-451q0 -130 -62 -195.5t-193 -65.5z" />
    <glyph glyph-name="Yacute" unicode="&#xdd;" horiz-adv-x="618" 
d="M436 855l-178 -107l-29 44l166 124zM265 307l-254 393h100l201 -315l202 315h93l-255 -393v-307h-87v307z" />
    <glyph glyph-name="Thorn" unicode="&#xde;" horiz-adv-x="601" 
d="M90 0v700h87v-128h155q54 0 98 -11.5t75 -36.5t48 -64t17 -94q0 -53 -17.5 -92.5t-49 -65.5t-75.5 -38.5t-96 -12.5h-155v-157h-87zM482 366q0 75 -41.5 105.5t-129.5 30.5h-134v-275h134q86 0 128.5 33.5t42.5 105.5z" />
    <glyph glyph-name="germandbls" unicode="&#xdf;" horiz-adv-x="555" 
d="M80 487q0 43 10.5 83.5t33.5 72t61 50.5t94 19q48 0 85 -15t62 -40t38 -58.5t13 -69.5q0 -56 -27.5 -95t-74.5 -58q31 -7 56.5 -24t43 -41t27 -54t9.5 -62q0 -47 -15.5 -85t-43 -65t-65 -42t-81.5 -15q-24 0 -45.5 4t-38.5 11v70q15 -8 38.5 -12.5t43.5 -4.5
q58 0 89.5 38.5t31.5 101.5q0 30 -10 56.5t-29.5 46t-48.5 31t-67 11.5q-5 0 -9.5 -0.5t-8.5 -0.5h-9v64q5 -1 9 -1h17q30 0 53.5 10t39 27t23.5 40t8 50q0 57 -32.5 86t-80.5 29q-32 0 -54 -12.5t-35.5 -33.5t-20 -50t-6.5 -62v-487h-84v487z" />
    <glyph glyph-name="agrave" unicode="&#xe0;" horiz-adv-x="507" 
d="M150 639l41 61l166 -124l-29 -44zM366 0q-4 8 -7.5 25t-3.5 37q-26 -32 -64 -53t-97 -21q-33 0 -61 9.5t-49 26.5t-32.5 42t-11.5 55q0 47 25.5 78.5t69 50t100.5 26t119 7.5v29q0 48 -25 78t-79 30t-79.5 -26.5t-27.5 -64.5l-84 12q4 36 21 62.5t43.5 44.5t60 27t69.5 9
q85 0 134 -44t49 -120v-256q0 -23 3 -36.5t8 -27.5h-81zM219 53q26 0 50.5 9t43 25.5t30 40.5t11.5 54v41q-51 0 -93 -5.5t-72 -17t-47 -30t-17 -43.5q0 -36 25.5 -55t68.5 -19z" />
    <glyph glyph-name="aacute" unicode="&#xe1;" horiz-adv-x="507" 
d="M356 639l-178 -107l-29 44l166 124zM366 0q-4 8 -7.5 25t-3.5 37q-26 -32 -64 -53t-97 -21q-33 0 -61 9.5t-49 26.5t-32.5 42t-11.5 55q0 47 25.5 78.5t69 50t100.5 26t119 7.5v29q0 48 -25 78t-79 30t-79.5 -26.5t-27.5 -64.5l-84 12q4 36 21 62.5t43.5 44.5t60 27
t69.5 9q85 0 134 -44t49 -120v-256q0 -23 3 -36.5t8 -27.5h-81zM219 53q26 0 50.5 9t43 25.5t30 40.5t11.5 54v41q-51 0 -93 -5.5t-72 -17t-47 -30t-17 -43.5q0 -36 25.5 -55t68.5 -19z" />
    <glyph glyph-name="acircumflex" unicode="&#xe2;" horiz-adv-x="507" 
d="M222 694h55l112 -129l-42 -37l-98 107l-99 -107l-41 37zM366 0q-4 8 -7.5 25t-3.5 37q-26 -32 -64 -53t-97 -21q-33 0 -61 9.5t-49 26.5t-32.5 42t-11.5 55q0 47 25.5 78.5t69 50t100.5 26t119 7.5v29q0 48 -25 78t-79 30t-79.5 -26.5t-27.5 -64.5l-84 12q4 36 21 62.5
t43.5 44.5t60 27t69.5 9q85 0 134 -44t49 -120v-256q0 -23 3 -36.5t8 -27.5h-81zM219 53q26 0 50.5 9t43 25.5t30 40.5t11.5 54v41q-51 0 -93 -5.5t-72 -17t-47 -30t-17 -43.5q0 -36 25.5 -55t68.5 -19z" />
    <glyph glyph-name="atilde" unicode="&#xe3;" horiz-adv-x="507" 
d="M189 661q25 0 44 -8t34.5 -17.5t29.5 -17.5t31 -8q16 0 27 7t19 16q9 10 14 23l43 -39q-10 -18 -25 -32q-13 -12 -33 -22t-49 -10q-26 0 -44 8t-33.5 17t-29.5 17t-31 8t-27.5 -7.5t-18.5 -15.5q-9 -10 -14 -22l-43 39q9 18 24 32q13 12 33 22t49 10zM366 0q-4 8 -7.5 25
t-3.5 37q-26 -32 -64 -53t-97 -21q-33 0 -61 9.5t-49 26.5t-32.5 42t-11.5 55q0 47 25.5 78.5t69 50t100.5 26t119 7.5v29q0 48 -25 78t-79 30t-79.5 -26.5t-27.5 -64.5l-84 12q4 36 21 62.5t43.5 44.5t60 27t69.5 9q85 0 134 -44t49 -120v-256q0 -23 3 -36.5t8 -27.5h-81z
M219 53q26 0 50.5 9t43 25.5t30 40.5t11.5 54v41q-51 0 -93 -5.5t-72 -17t-47 -30t-17 -43.5q0 -36 25.5 -55t68.5 -19z" />
    <glyph glyph-name="adieresis" unicode="&#xe4;" horiz-adv-x="507" 
d="M293 602q0 23 15 37.5t38 14.5t38 -14.5t15 -37.5q0 -22 -15 -37.5t-38 -15.5t-38 15.5t-15 37.5zM101 602q0 23 15 37.5t38 14.5t38 -14.5t15 -37.5q0 -22 -15 -37.5t-38 -15.5t-38 15.5t-15 37.5zM366 0q-4 8 -7.5 25t-3.5 37q-26 -32 -64 -53t-97 -21q-33 0 -61 9.5
t-49 26.5t-32.5 42t-11.5 55q0 47 25.5 78.5t69 50t100.5 26t119 7.5v29q0 48 -25 78t-79 30t-79.5 -26.5t-27.5 -64.5l-84 12q4 36 21 62.5t43.5 44.5t60 27t69.5 9q85 0 134 -44t49 -120v-256q0 -23 3 -36.5t8 -27.5h-81zM219 53q26 0 50.5 9t43 25.5t30 40.5t11.5 54v41
q-51 0 -93 -5.5t-72 -17t-47 -30t-17 -43.5q0 -36 25.5 -55t68.5 -19z" />
    <glyph glyph-name="aring" unicode="&#xe5;" horiz-adv-x="507" 
d="M155 619q0 41 27 66.5t71 25.5t71 -25.5t27 -66.5q0 -39 -27 -66t-71 -27t-71 27t-27 66zM203 619q0 -20 14 -35.5t36 -15.5t36 15.5t14 35.5q0 21 -14 35.5t-36 14.5t-36 -14.5t-14 -35.5zM366 0q-4 8 -7.5 25t-3.5 37q-26 -32 -64 -53t-97 -21q-33 0 -61 9.5t-49 26.5
t-32.5 42t-11.5 55q0 47 25.5 78.5t69 50t100.5 26t119 7.5v29q0 48 -25 78t-79 30t-79.5 -26.5t-27.5 -64.5l-84 12q4 36 21 62.5t43.5 44.5t60 27t69.5 9q85 0 134 -44t49 -120v-256q0 -23 3 -36.5t8 -27.5h-81zM219 53q26 0 50.5 9t43 25.5t30 40.5t11.5 54v41
q-51 0 -93 -5.5t-72 -17t-47 -30t-17 -43.5q0 -36 25.5 -55t68.5 -19z" />
    <glyph glyph-name="ae" unicode="&#xe6;" horiz-adv-x="816" 
d="M764 108q-27 -54 -73.5 -87t-119.5 -33q-61 0 -106 25t-72 70q-32 -47 -75.5 -71t-109.5 -24q-80 0 -124 36t-44 99q0 46 25.5 76.5t69 49.5t100.5 27t119 8v28q0 48 -25 78t-79 30t-79.5 -26.5t-27.5 -64.5l-84 12q4 36 21 62.5t43.5 44.5t60 27t69.5 9q54 0 94 -19.5
t63 -54.5q28 35 67.5 54.5t90.5 19.5q54 0 93.5 -19.5t66 -52t39.5 -75t13 -88.5v-26h-347q1 -34 10 -64.5t25.5 -54t42 -37.5t61.5 -14q48 0 74 22t44 63zM566 419q-56 0 -90 -38.5t-40 -96.5h258q-3 63 -38.5 99t-89.5 36zM219 53q26 0 50.5 9t43 25.5t30 40.5t11.5 54v41
q-51 0 -93 -5.5t-72.5 -17.5t-47 -30t-16.5 -43q0 -36 26 -55t68 -19z" />
    <glyph glyph-name="ccedilla" unicode="&#xe7;" horiz-adv-x="491" 
d="M196 -156q7 -6 19.5 -12.5t31.5 -6.5q20 0 31 11.5t11 30.5q0 40 -40 40q-13 0 -22 -4t-16 -9l-27 27l29 73q-41 9 -72 30.5t-53 53t-33 71.5t-11 87q0 54 15 99.5t43.5 78.5t70 51.5t95.5 18.5q38 0 68 -9.5t53 -26.5t39.5 -39.5t27.5 -49.5l-78 -30q-11 40 -38.5 63.5
t-74.5 23.5q-33 0 -58.5 -14t-42 -38.5t-25 -57t-8.5 -69.5t8.5 -70t25.5 -57.5t42 -38.5t59 -14q50 0 74.5 25t38.5 59l78 -30q-27 -53 -71.5 -88t-118.5 -35h-11l-17 -44q12 7 30 7q33 0 55.5 -21.5t22.5 -60.5q0 -43 -28 -67.5t-72 -24.5q-30 0 -50 9.5t-29 18.5z" />
    <glyph glyph-name="egrave" unicode="&#xe8;" horiz-adv-x="515" 
d="M151 639l41 61l166 -124l-29 -44zM463 108q-27 -54 -73.5 -87t-120.5 -33q-53 0 -95 18.5t-71 52t-44 79t-15 99.5q0 53 15.5 98.5t44 78.5t70 51.5t92.5 18.5q54 0 94 -19.5t66.5 -52t39.5 -75t13 -88.5v-28h-349q1 -33 10 -63.5t25.5 -54t42.5 -37t62 -13.5q49 0 75 22
t44 63zM264 419q-57 0 -91 -38.5t-40 -96.5h260q-3 63 -38.5 99t-90.5 36z" />
    <glyph glyph-name="eacute" unicode="&#xe9;" horiz-adv-x="515" 
d="M368 639l-178 -107l-29 44l166 124zM463 108q-27 -54 -73.5 -87t-120.5 -33q-53 0 -95 18.5t-71 52t-44 79t-15 99.5q0 53 15.5 98.5t44 78.5t70 51.5t92.5 18.5q54 0 94 -19.5t66.5 -52t39.5 -75t13 -88.5v-28h-349q1 -33 10 -63.5t25.5 -54t42.5 -37t62 -13.5
q49 0 75 22t44 63zM264 419q-57 0 -91 -38.5t-40 -96.5h260q-3 63 -38.5 99t-90.5 36z" />
    <glyph glyph-name="ecircumflex" unicode="&#xea;" horiz-adv-x="515" 
d="M237 694h55l112 -129l-42 -37l-98 107l-99 -107l-41 37zM463 108q-27 -54 -73.5 -87t-120.5 -33q-53 0 -95 18.5t-71 52t-44 79t-15 99.5q0 53 15.5 98.5t44 78.5t70 51.5t92.5 18.5q54 0 94 -19.5t66.5 -52t39.5 -75t13 -88.5v-28h-349q1 -33 10 -63.5t25.5 -54
t42.5 -37t62 -13.5q49 0 75 22t44 63zM264 419q-57 0 -91 -38.5t-40 -96.5h260q-3 63 -38.5 99t-90.5 36z" />
    <glyph glyph-name="edieresis" unicode="&#xeb;" horiz-adv-x="515" 
d="M308 602q0 23 15 37.5t38 14.5t38 -14.5t15 -37.5q0 -22 -15 -37.5t-38 -15.5t-38 15.5t-15 37.5zM116 602q0 23 15 37.5t38 14.5t38 -14.5t15 -37.5q0 -22 -15 -37.5t-38 -15.5t-38 15.5t-15 37.5zM463 108q-27 -54 -73.5 -87t-120.5 -33q-53 0 -95 18.5t-71 52t-44 79
t-15 99.5q0 53 15.5 98.5t44 78.5t70 51.5t92.5 18.5q54 0 94 -19.5t66.5 -52t39.5 -75t13 -88.5v-28h-349q1 -33 10 -63.5t25.5 -54t42.5 -37t62 -13.5q49 0 75 22t44 63zM264 419q-57 0 -91 -38.5t-40 -96.5h260q-3 63 -38.5 99t-90.5 36z" />
    <glyph glyph-name="igrave" unicode="&#xec;" horiz-adv-x="244" 
d="M19 639l41 61l166 -124l-29 -44zM80 472h84v-472h-84v472z" />
    <glyph glyph-name="iacute" unicode="&#xed;" horiz-adv-x="244" 
d="M225 639l-178 -107l-29 44l166 124zM80 472h84v-472h-84v472z" />
    <glyph glyph-name="icircumflex" unicode="&#xee;" horiz-adv-x="244" 
d="M95 694h55l112 -129l-42 -37l-98 107l-99 -107l-41 37zM80 472h84v-472h-84v472z" />
    <glyph glyph-name="idieresis" unicode="&#xef;" horiz-adv-x="244" 
d="M165 602q0 23 15 37.5t38 14.5t38 -14.5t15 -37.5q0 -22 -15 -37.5t-38 -15.5t-38 15.5t-15 37.5zM-27 602q0 23 15 37.5t38 14.5t38 -14.5t15 -37.5q0 -22 -15 -37.5t-38 -15.5t-38 15.5t-15 37.5zM80 472h84v-472h-84v472z" />
    <glyph glyph-name="eth" unicode="&#xf0;" horiz-adv-x="542" 
d="M170 583l70 43q-45 37 -100 58l50 49q30 -11 59.5 -27.5t56.5 -39.5l75 46l31 -52l-60 -37q32 -35 58.5 -77.5t46 -90.5t30.5 -101t11 -109q0 -62 -16.5 -109.5t-46.5 -80.5t-72 -50t-92 -17q-51 0 -93 17t-72 49.5t-46 78.5t-16 103q0 58 17 104t46 78t68 49t83 17
q43 0 74 -14.5t48 -36.5q-18 41 -41.5 78.5t-52.5 70.5l-84 -52zM131 236q0 -37 8.5 -70t26 -57.5t43.5 -39t61 -14.5q34 0 60.5 14t44.5 39t27 58t9 72q0 86 -40.5 132.5t-101.5 46.5q-34 0 -60 -14.5t-43 -39t-26 -57.5t-9 -70z" />
    <glyph glyph-name="ntilde" unicode="&#xf1;" horiz-adv-x="551" 
d="M219 661q25 0 44 -8t34.5 -17.5t29.5 -17.5t31 -8q16 0 27 7t19 16q9 10 14 23l43 -39q-10 -18 -25 -32q-13 -12 -33 -22t-49 -10q-26 0 -44 8t-33.5 17t-29.5 17t-31 8t-27.5 -7.5t-18.5 -15.5q-9 -10 -14 -22l-43 39q9 18 24 32q13 12 33 22t49 10zM80 472h79v-71
q25 38 60.5 60.5t88.5 22.5q34 0 65 -10t53.5 -29.5t36 -49t13.5 -68.5v-327h-84v314q0 27 -9 46t-23.5 31.5t-32.5 18t-36 5.5q-25 0 -48 -11t-40.5 -31t-28 -49.5t-10.5 -66.5v-257h-84v472z" />
    <glyph glyph-name="ograve" unicode="&#xf2;" horiz-adv-x="542" 
d="M170 639l41 61l166 -124l-29 -44zM271 484q54 0 96 -18.5t71.5 -51.5t44.5 -78.5t15 -99.5t-15 -99.5t-44.5 -78.5t-71.5 -51.5t-96 -18.5t-96 18.5t-71.5 51.5t-44.5 78.5t-15 99.5t15 99.5t44.5 78.5t71.5 51.5t96 18.5zM271 55q35 0 61.5 14.5t44 39t26 57.5t8.5 70
t-8.5 70t-26 57.5t-44 39t-61.5 14.5t-61.5 -14.5t-44 -39t-26 -57.5t-8.5 -70t8.5 -70t26 -57.5t44 -39t61.5 -14.5z" />
    <glyph glyph-name="oacute" unicode="&#xf3;" horiz-adv-x="542" 
d="M376 639l-178 -107l-29 44l166 124zM271 484q54 0 96 -18.5t71.5 -51.5t44.5 -78.5t15 -99.5t-15 -99.5t-44.5 -78.5t-71.5 -51.5t-96 -18.5t-96 18.5t-71.5 51.5t-44.5 78.5t-15 99.5t15 99.5t44.5 78.5t71.5 51.5t96 18.5zM271 55q35 0 61.5 14.5t44 39t26 57.5t8.5 70
t-8.5 70t-26 57.5t-44 39t-61.5 14.5t-61.5 -14.5t-44 -39t-26 -57.5t-8.5 -70t8.5 -70t26 -57.5t44 -39t61.5 -14.5z" />
    <glyph glyph-name="ocircumflex" unicode="&#xf4;" horiz-adv-x="542" 
d="M245 694h55l112 -129l-42 -37l-98 107l-99 -107l-41 37zM271 484q54 0 96 -18.5t71.5 -51.5t44.5 -78.5t15 -99.5t-15 -99.5t-44.5 -78.5t-71.5 -51.5t-96 -18.5t-96 18.5t-71.5 51.5t-44.5 78.5t-15 99.5t15 99.5t44.5 78.5t71.5 51.5t96 18.5zM271 55q35 0 61.5 14.5
t44 39t26 57.5t8.5 70t-8.5 70t-26 57.5t-44 39t-61.5 14.5t-61.5 -14.5t-44 -39t-26 -57.5t-8.5 -70t8.5 -70t26 -57.5t44 -39t61.5 -14.5z" />
    <glyph glyph-name="otilde" unicode="&#xf5;" horiz-adv-x="542" 
d="M203 661q25 0 44 -8t34.5 -17.5t29.5 -17.5t31 -8q16 0 27 7t19 16q9 10 14 23l43 -39q-10 -18 -25 -32q-13 -12 -33 -22t-49 -10q-26 0 -44 8t-33.5 17t-29.5 17t-31 8t-27.5 -7.5t-18.5 -15.5q-9 -10 -14 -22l-43 39q9 18 24 32q13 12 33 22t49 10zM271 484
q54 0 96 -18.5t71.5 -51.5t44.5 -78.5t15 -99.5t-15 -99.5t-44.5 -78.5t-71.5 -51.5t-96 -18.5t-96 18.5t-71.5 51.5t-44.5 78.5t-15 99.5t15 99.5t44.5 78.5t71.5 51.5t96 18.5zM271 55q35 0 61.5 14.5t44 39t26 57.5t8.5 70t-8.5 70t-26 57.5t-44 39t-61.5 14.5
t-61.5 -14.5t-44 -39t-26 -57.5t-8.5 -70t8.5 -70t26 -57.5t44 -39t61.5 -14.5z" />
    <glyph glyph-name="odieresis" unicode="&#xf6;" horiz-adv-x="542" 
d="M314 602q0 23 15 37.5t38 14.5t38 -14.5t15 -37.5q0 -22 -15 -37.5t-38 -15.5t-38 15.5t-15 37.5zM122 602q0 23 15 37.5t38 14.5t38 -14.5t15 -37.5q0 -22 -15 -37.5t-38 -15.5t-38 15.5t-15 37.5zM271 484q54 0 96 -18.5t71.5 -51.5t44.5 -78.5t15 -99.5t-15 -99.5
t-44.5 -78.5t-71.5 -51.5t-96 -18.5t-96 18.5t-71.5 51.5t-44.5 78.5t-15 99.5t15 99.5t44.5 78.5t71.5 51.5t96 18.5zM271 55q35 0 61.5 14.5t44 39t26 57.5t8.5 70t-8.5 70t-26 57.5t-44 39t-61.5 14.5t-61.5 -14.5t-44 -39t-26 -57.5t-8.5 -70t8.5 -70t26 -57.5t44 -39
t61.5 -14.5z" />
    <glyph glyph-name="divide" unicode="&#xf7;" 
d="M244 505q0 24 15.5 39.5t40.5 15.5t40.5 -15.5t15.5 -39.5q0 -23 -15.5 -38.5t-40.5 -15.5t-40.5 15.5t-15.5 38.5zM54 358h492v-69h-492v69zM244 141q0 23 15.5 38.5t40.5 15.5t40.5 -15.5t15.5 -38.5q0 -24 -15.5 -39.5t-40.5 -15.5t-40.5 15.5t-15.5 39.5z" />
    <glyph glyph-name="oslash" unicode="&#xf8;" horiz-adv-x="542" 
d="M271 484q30 0 56.5 -6.5t49.5 -17.5l43 70l52 -31l-45 -73q35 -34 53 -82.5t18 -107.5q0 -54 -15 -99.5t-44.5 -78.5t-71.5 -51.5t-96 -18.5q-29 0 -53.5 5.5t-46.5 14.5l-46 -74l-53 31l47 77q-37 33 -56 83t-19 111q0 54 15 99.5t44.5 78.5t71.5 51.5t96 18.5zM131 236
q0 -36 7.5 -67.5t24.5 -56.5l176 286q-30 19 -68 19q-35 0 -61.5 -14.5t-44 -39t-26 -57.5t-8.5 -70zM271 55q35 0 61.5 14.5t44 39t26 57.5t8.5 70q0 33 -7 63.5t-21 54.5l-175 -284q27 -15 63 -15z" />
    <glyph glyph-name="ugrave" unicode="&#xf9;" horiz-adv-x="547" 
d="M161 639l41 61l166 -124l-29 -44zM467 0h-79v71q-25 -38 -59.5 -60.5t-87.5 -22.5q-34 0 -64 10t-52.5 29.5t-36 49t-13.5 68.5v327h84v-314q0 -27 8.5 -46t23 -31.5t32 -18t35.5 -5.5q24 0 47 11t40 31t27.5 49.5t10.5 66.5v257h84v-472z" />
    <glyph glyph-name="uacute" unicode="&#xfa;" horiz-adv-x="547" 
d="M380 639l-178 -107l-29 44l166 124zM467 0h-79v71q-25 -38 -59.5 -60.5t-87.5 -22.5q-34 0 -64 10t-52.5 29.5t-36 49t-13.5 68.5v327h84v-314q0 -27 8.5 -46t23 -31.5t32 -18t35.5 -5.5q24 0 47 11t40 31t27.5 49.5t10.5 66.5v257h84v-472z" />
    <glyph glyph-name="ucircumflex" unicode="&#xfb;" horiz-adv-x="547" 
d="M244 694h55l112 -129l-42 -37l-98 107l-99 -107l-41 37zM467 0h-79v71q-25 -38 -59.5 -60.5t-87.5 -22.5q-34 0 -64 10t-52.5 29.5t-36 49t-13.5 68.5v327h84v-314q0 -27 8.5 -46t23 -31.5t32 -18t35.5 -5.5q24 0 47 11t40 31t27.5 49.5t10.5 66.5v257h84v-472z" />
    <glyph glyph-name="udieresis" unicode="&#xfc;" horiz-adv-x="547" 
d="M314 602q0 23 15 37.5t38 14.5t38 -14.5t15 -37.5q0 -22 -15 -37.5t-38 -15.5t-38 15.5t-15 37.5zM122 602q0 23 15 37.5t38 14.5t38 -14.5t15 -37.5q0 -22 -15 -37.5t-38 -15.5t-38 15.5t-15 37.5zM467 0h-79v71q-25 -38 -59.5 -60.5t-87.5 -22.5q-34 0 -64 10
t-52.5 29.5t-36 49t-13.5 68.5v327h84v-314q0 -27 8.5 -46t23 -31.5t32 -18t35.5 -5.5q24 0 47 11t40 31t27.5 49.5t10.5 66.5v257h84v-472z" />
    <glyph glyph-name="yacute" unicode="&#xfd;" horiz-adv-x="481" 
d="M362 639l-178 -107l-29 44l166 124zM120 -200l82 202l-186 470h87q35 -90 64 -166q12 -32 24.5 -64.5t23 -60.5t18.5 -49t11 -31h2q3 10 10 31t17.5 49t23 60.5t24.5 64.5q29 76 63 166h81l-259 -672h-86z" />
    <glyph glyph-name="thorn" unicode="&#xfe;" horiz-adv-x="575" 
d="M531 236q0 -57 -16.5 -103t-45.5 -78.5t-68.5 -49.5t-86.5 -17q-56 0 -91.5 21.5t-58.5 50.5v-260h-84v900h84v-288q23 29 58.5 50.5t91.5 21.5q47 0 86.5 -17t68.5 -49.5t45.5 -78.5t16.5 -103zM444 236q0 38 -9.5 71t-27.5 57t-44 37.5t-58 13.5q-23 0 -48 -8
t-45.5 -25.5t-34 -45.5t-13.5 -68v-64q0 -40 13.5 -68t34 -45.5t45.5 -25.5t48 -8q32 0 58 13.5t44 37.5t27.5 57t9.5 71z" />
    <glyph glyph-name="ydieresis" unicode="&#xff;" horiz-adv-x="481" 
d="M287 602q0 23 15 37.5t38 14.5t38 -14.5t15 -37.5q0 -22 -15 -37.5t-38 -15.5t-38 15.5t-15 37.5zM95 602q0 23 15 37.5t38 14.5t38 -14.5t15 -37.5q0 -22 -15 -37.5t-38 -15.5t-38 15.5t-15 37.5zM120 -200l82 202l-186 470h87q35 -90 64 -166q12 -32 24.5 -64.5
t23 -60.5t18.5 -49t11 -31h2q3 10 10 31t17.5 49t23 60.5t24.5 64.5q29 76 63 166h81l-259 -672h-86z" />
    <glyph glyph-name="Amacron" unicode="&#x100;" horiz-adv-x="628" 
d="M183 836h259v-59h-259v59zM609 0h-91l-68 190h-278l-68 -190h-85l255 700h80zM309 587q-3 -11 -10 -31t-15.5 -45t-18 -53.5t-19.5 -56.5q-23 -66 -50 -143h230q-27 77 -50 143q-10 28 -20 56.5t-19 53.5t-16 45t-10 31h-2z" />
    <glyph glyph-name="amacron" unicode="&#x101;" horiz-adv-x="507" 
d="M122 620h259v-59h-259v59zM366 0q-4 8 -7.5 25t-3.5 37q-26 -32 -64 -53t-97 -21q-33 0 -61 9.5t-49 26.5t-32.5 42t-11.5 55q0 47 25.5 78.5t69 50t100.5 26t119 7.5v29q0 48 -25 78t-79 30t-79.5 -26.5t-27.5 -64.5l-84 12q4 36 21 62.5t43.5 44.5t60 27t69.5 9
q85 0 134 -44t49 -120v-256q0 -23 3 -36.5t8 -27.5h-81zM219 53q26 0 50.5 9t43 25.5t30 40.5t11.5 54v41q-51 0 -93 -5.5t-72 -17t-47 -30t-17 -43.5q0 -36 25.5 -55t68.5 -19z" />
    <glyph glyph-name="Abreve" unicode="&#x102;" horiz-adv-x="628" 
d="M226 891q5 -31 28.5 -53t58.5 -22t58.5 22t28.5 53l65 -20q-11 -49 -51.5 -80t-100.5 -31t-100.5 31t-51.5 80zM609 0h-91l-68 190h-278l-68 -190h-85l255 700h80zM309 587q-3 -11 -10 -31t-15.5 -45t-18 -53.5t-19.5 -56.5q-23 -66 -50 -143h230q-27 77 -50 143
q-10 28 -20 56.5t-19 53.5t-16 45t-10 31h-2z" />
    <glyph glyph-name="abreve" unicode="&#x103;" horiz-adv-x="507" 
d="M162 673q5 -31 28.5 -53t58.5 -22t58.5 22t28.5 53l65 -20q-11 -49 -51.5 -80t-100.5 -31t-100.5 31t-51.5 80zM366 0q-4 8 -7.5 25t-3.5 37q-26 -32 -64 -53t-97 -21q-33 0 -61 9.5t-49 26.5t-32.5 42t-11.5 55q0 47 25.5 78.5t69 50t100.5 26t119 7.5v29q0 48 -25 78
t-79 30t-79.5 -26.5t-27.5 -64.5l-84 12q4 36 21 62.5t43.5 44.5t60 27t69.5 9q85 0 134 -44t49 -120v-256q0 -23 3 -36.5t8 -27.5h-81zM219 53q26 0 50.5 9t43 25.5t30 40.5t11.5 54v41q-51 0 -93 -5.5t-72 -17t-47 -30t-17 -43.5q0 -36 25.5 -55t68.5 -19z" />
    <glyph glyph-name="Aogonek" unicode="&#x104;" horiz-adv-x="628" 
d="M510 -104q0 -17 10.5 -28t31.5 -11q16 0 29 8t27 29l31 -31q-22 -31 -47 -44.5t-54 -13.5q-15 0 -31.5 4t-30 13.5t-22.5 25.5t-9 40q0 40 21 65t51 47h1l-68 190h-278l-68 -190h-85l255 700h80l255 -700q-58 -28 -78.5 -54.5t-20.5 -49.5zM309 587q-3 -11 -10 -31
t-15.5 -45t-18 -53.5t-19.5 -56.5q-23 -66 -50 -143h230q-27 77 -50 143q-10 28 -20 56.5t-19 53.5t-16 45t-10 31h-2z" />
    <glyph glyph-name="aogonek" unicode="&#x105;" horiz-adv-x="507" 
d="M366 0q-4 8 -7.5 25t-3.5 37q-26 -32 -64 -53t-97 -21q-33 0 -61 9.5t-49 26.5t-32.5 42t-11.5 55q0 47 25.5 78.5t69 50t100.5 26t119 7.5v29q0 48 -25 78t-79 30t-79.5 -26.5t-27.5 -64.5l-84 12q4 36 21 62.5t43.5 44.5t60 27t69.5 9q85 0 134 -44t49 -120v-256
q0 -23 3 -36.5t8 -27.5h-81zM219 53q26 0 50.5 9t43 25.5t30 40.5t11.5 54v41q-51 0 -93 -5.5t-72 -17t-47 -30t-17 -43.5q0 -36 25.5 -55t68.5 -19zM348 -104q0 -17 10.5 -28t31.5 -11q16 0 29 8t27 29l31 -31q-22 -31 -47 -44.5t-54 -13.5q-15 0 -31.5 4t-30 13.5
t-22.5 25.5t-9 40q0 40 24.5 65t58.5 47h81q-54 -31 -76.5 -56t-22.5 -48z" />
    <glyph glyph-name="Cacute" unicode="&#x106;" horiz-adv-x="667" 
d="M467 855l-178 -107l-29 44l166 124zM53 350q0 81 21.5 147.5t62 114t99 74t131.5 26.5q102 0 166 -49.5t99 -130.5l-81 -30q-11 29 -27.5 54.5t-39.5 44t-53 29.5t-68 11q-51 0 -92 -20.5t-69.5 -58.5t-43.5 -92t-15 -120q0 -65 14.5 -118.5t42.5 -92t69 -59.5t93 -21
q73 0 119 38.5t70 100.5l81 -30q-35 -84 -100 -132t-166 -48q-74 0 -132 26.5t-98.5 74.5t-61.5 114.5t-21 146.5z" />
    <glyph glyph-name="cacute" unicode="&#x107;" horiz-adv-x="491" 
d="M368 639l-178 -107l-29 44l166 124zM44 236q0 54 15 99.5t43.5 78.5t70 51.5t95.5 18.5q38 0 68 -9.5t53 -26.5t39.5 -39.5t27.5 -49.5l-78 -30q-11 40 -38.5 63.5t-74.5 23.5q-33 0 -58.5 -14t-42 -38.5t-25 -57t-8.5 -69.5t8.5 -70t25.5 -57.5t42 -38.5t59 -14
q50 0 74.5 25t38.5 59l78 -30q-27 -53 -71.5 -88t-118.5 -35q-53 0 -94.5 18.5t-70 51.5t-43.5 78.5t-15 99.5z" />
    <glyph glyph-name="Ccircumflex" unicode="&#x108;" horiz-adv-x="667" 
d="M333 900h59l114 -116l-42 -39l-102 98l-99 -98l-42 39zM53 350q0 81 21.5 147.5t62 114t99 74t131.5 26.5q102 0 166 -49.5t99 -130.5l-81 -30q-11 29 -27.5 54.5t-39.5 44t-53 29.5t-68 11q-51 0 -92 -20.5t-69.5 -58.5t-43.5 -92t-15 -120q0 -65 14.5 -118.5t42.5 -92
t69 -59.5t93 -21q73 0 119 38.5t70 100.5l81 -30q-35 -84 -100 -132t-166 -48q-74 0 -132 26.5t-98.5 74.5t-61.5 114.5t-21 146.5z" />
    <glyph glyph-name="ccircumflex" unicode="&#x109;" horiz-adv-x="491" 
d="M237 694h55l112 -129l-42 -37l-98 107l-99 -107l-41 37zM44 236q0 54 15 99.5t43.5 78.5t70 51.5t95.5 18.5q38 0 68 -9.5t53 -26.5t39.5 -39.5t27.5 -49.5l-78 -30q-11 40 -38.5 63.5t-74.5 23.5q-33 0 -58.5 -14t-42 -38.5t-25 -57t-8.5 -69.5t8.5 -70t25.5 -57.5
t42 -38.5t59 -14q50 0 74.5 25t38.5 59l78 -30q-27 -53 -71.5 -88t-118.5 -35q-53 0 -94.5 18.5t-70 51.5t-43.5 78.5t-15 99.5z" />
    <glyph glyph-name="Cdotaccent" unicode="&#x10a;" horiz-adv-x="667" 
d="M312 819q0 24 15.5 39.5t40.5 15.5t40.5 -15.5t15.5 -39.5q0 -23 -15.5 -38.5t-40.5 -15.5t-40.5 15.5t-15.5 38.5zM53 350q0 81 21.5 147.5t62 114t99 74t131.5 26.5q102 0 166 -49.5t99 -130.5l-81 -30q-11 29 -27.5 54.5t-39.5 44t-53 29.5t-68 11q-51 0 -92 -20.5
t-69.5 -58.5t-43.5 -92t-15 -120q0 -65 14.5 -118.5t42.5 -92t69 -59.5t93 -21q73 0 119 38.5t70 100.5l81 -30q-35 -84 -100 -132t-166 -48q-74 0 -132 26.5t-98.5 74.5t-61.5 114.5t-21 146.5z" />
    <glyph glyph-name="cdotaccent" unicode="&#x10b;" horiz-adv-x="491" 
d="M214 603q0 25 15.5 40t39.5 15t39.5 -15t15.5 -40q0 -22 -15.5 -38t-39.5 -16t-39.5 16t-15.5 38zM44 236q0 54 15 99.5t43.5 78.5t70 51.5t95.5 18.5q38 0 68 -9.5t53 -26.5t39.5 -39.5t27.5 -49.5l-78 -30q-11 40 -38.5 63.5t-74.5 23.5q-33 0 -58.5 -14t-42 -38.5
t-25 -57t-8.5 -69.5t8.5 -70t25.5 -57.5t42 -38.5t59 -14q50 0 74.5 25t38.5 59l78 -30q-27 -53 -71.5 -88t-118.5 -35q-53 0 -94.5 18.5t-70 51.5t-43.5 78.5t-15 99.5z" />
    <glyph glyph-name="Ccaron" unicode="&#x10c;" horiz-adv-x="667" 
d="M221 868l43 39l99 -98l101 98l42 -39l-113 -116h-60zM53 350q0 81 21.5 147.5t62 114t99 74t131.5 26.5q102 0 166 -49.5t99 -130.5l-81 -30q-11 29 -27.5 54.5t-39.5 44t-53 29.5t-68 11q-51 0 -92 -20.5t-69.5 -58.5t-43.5 -92t-15 -120q0 -65 14.5 -118.5t42.5 -92
t69 -59.5t93 -21q73 0 119 38.5t70 100.5l81 -30q-35 -84 -100 -132t-166 -48q-74 0 -132 26.5t-98.5 74.5t-61.5 114.5t-21 146.5z" />
    <glyph glyph-name="ccaron" unicode="&#x10d;" horiz-adv-x="491" 
d="M293 534h-55l-112 129l42 37l98 -107l99 107l41 -37zM44 236q0 54 15 99.5t43.5 78.5t70 51.5t95.5 18.5q38 0 68 -9.5t53 -26.5t39.5 -39.5t27.5 -49.5l-78 -30q-11 40 -38.5 63.5t-74.5 23.5q-33 0 -58.5 -14t-42 -38.5t-25 -57t-8.5 -69.5t8.5 -70t25.5 -57.5
t42 -38.5t59 -14q50 0 74.5 25t38.5 59l78 -30q-27 -53 -71.5 -88t-118.5 -35q-53 0 -94.5 18.5t-70 51.5t-43.5 78.5t-15 99.5z" />
    <glyph glyph-name="Dcaron" unicode="&#x10e;" horiz-adv-x="698" 
d="M166 868l43 39l99 -98l101 98l42 -39l-113 -116h-60zM90 700h236q73 0 132 -24t100 -69t63 -110t22 -147q0 -83 -22 -148t-63 -110t-100 -68.5t-132 -23.5h-236v700zM553 350q0 63 -14 114.5t-44 88t-75.5 57t-108.5 20.5h-134v-560h134q63 0 108.5 20.5t75.5 57t44 88
t14 114.5z" />
    <glyph glyph-name="dcaron" unicode="&#x10f;" horiz-adv-x="575" 
d="M648 690l-60 -159l-47 12l39 165zM261 484q56 0 91.5 -21.5t58.5 -50.5v288h84v-700h-79v71q-10 -16 -24 -31t-33 -26.5t-43 -18.5t-55 -7q-47 0 -86.5 17t-68.5 49.5t-45.5 78.5t-16.5 103t16.5 103t45.5 78.5t68.5 49.5t86.5 17zM411 271q0 42 -14.5 70t-35.5 44.5
t-45.5 23t-45.5 6.5q-32 0 -58 -13.5t-44 -37.5t-27.5 -57t-9.5 -71t9.5 -71t27.5 -57t44 -37.5t58 -13.5q21 0 45.5 6.5t45.5 23t35.5 44.5t14.5 70v70z" />
    <glyph glyph-name="Dcroat" unicode="&#x110;" horiz-adv-x="717" 
d="M109 397v303h236q73 0 132 -24t100 -69t63 -110t22 -147q0 -83 -22 -148t-63 -110t-100 -68.5t-132 -23.5h-236v334h-89v63h89zM572 350q0 63 -14 114.5t-44 88t-75.5 57t-108.5 20.5h-134v-233h189v-63h-189v-264h134q63 0 108.5 20.5t75.5 57t44 88t14 114.5z" />
    <glyph glyph-name="dcroat" unicode="&#x111;" horiz-adv-x="575" 
d="M255 614h156v86h84v-86h62v-63h-62v-551h-79v71q-10 -16 -24 -31t-33 -26.5t-43 -18.5t-55 -7q-47 0 -86.5 17t-68.5 49.5t-45.5 78.5t-16.5 103t16.5 103t45.5 78.5t68.5 49.5t86.5 17q56 0 91.5 -21.5t58.5 -50.5v139h-156v63zM411 271q0 42 -14.5 70t-35.5 44.5
t-45.5 23t-45.5 6.5q-32 0 -58 -13.5t-44 -37.5t-27.5 -57t-9.5 -71t9.5 -71t27.5 -57t44 -37.5t58 -13.5q21 0 45.5 6.5t45.5 23t35.5 44.5t14.5 70v70z" />
    <glyph glyph-name="Emacron" unicode="&#x112;" horiz-adv-x="556" 
d="M168 836h259v-59h-259v59zM90 0v700h410v-70h-323v-234h302v-70h-302v-256h330v-70h-417z" />
    <glyph glyph-name="emacron" unicode="&#x113;" horiz-adv-x="515" 
d="M135 620h259v-59h-259v59zM463 108q-27 -54 -73.5 -87t-120.5 -33q-53 0 -95 18.5t-71 52t-44 79t-15 99.5q0 53 15.5 98.5t44 78.5t70 51.5t92.5 18.5q54 0 94 -19.5t66.5 -52t39.5 -75t13 -88.5v-28h-349q1 -33 10 -63.5t25.5 -54t42.5 -37t62 -13.5q49 0 75 22t44 63z
M264 419q-57 0 -91 -38.5t-40 -96.5h260q-3 63 -38.5 99t-90.5 36z" />
    <glyph glyph-name="Ebreve" unicode="&#x114;" horiz-adv-x="556" 
d="M210 891q5 -31 28.5 -53t58.5 -22t58.5 22t28.5 53l65 -20q-11 -49 -51.5 -80t-100.5 -31t-100.5 31t-51.5 80zM90 0v700h410v-70h-323v-234h302v-70h-302v-256h330v-70h-417z" />
    <glyph glyph-name="ebreve" unicode="&#x115;" horiz-adv-x="515" 
d="M177 673q5 -31 28.5 -53t58.5 -22t58.5 22t28.5 53l65 -20q-11 -49 -51.5 -80t-100.5 -31t-100.5 31t-51.5 80zM463 108q-27 -54 -73.5 -87t-120.5 -33q-53 0 -95 18.5t-71 52t-44 79t-15 99.5q0 53 15.5 98.5t44 78.5t70 51.5t92.5 18.5q54 0 94 -19.5t66.5 -52
t39.5 -75t13 -88.5v-28h-349q1 -33 10 -63.5t25.5 -54t42.5 -37t62 -13.5q49 0 75 22t44 63zM264 419q-57 0 -91 -38.5t-40 -96.5h260q-3 63 -38.5 99t-90.5 36z" />
    <glyph glyph-name="Edotaccent" unicode="&#x116;" horiz-adv-x="556" 
d="M242 819q0 24 15.5 39.5t40.5 15.5t40.5 -15.5t15.5 -39.5q0 -23 -15.5 -38.5t-40.5 -15.5t-40.5 15.5t-15.5 38.5zM90 0v700h410v-70h-323v-234h302v-70h-302v-256h330v-70h-417z" />
    <glyph glyph-name="edotaccent" unicode="&#x117;" horiz-adv-x="515" 
d="M209 603q0 25 15.5 40t39.5 15t39.5 -15t15.5 -40q0 -22 -15.5 -38t-39.5 -16t-39.5 16t-15.5 38zM463 108q-27 -54 -73.5 -87t-120.5 -33q-53 0 -95 18.5t-71 52t-44 79t-15 99.5q0 53 15.5 98.5t44 78.5t70 51.5t92.5 18.5q54 0 94 -19.5t66.5 -52t39.5 -75t13 -88.5
v-28h-349q1 -33 10 -63.5t25.5 -54t42.5 -37t62 -13.5q49 0 75 22t44 63zM264 419q-57 0 -91 -38.5t-40 -96.5h260q-3 63 -38.5 99t-90.5 36z" />
    <glyph glyph-name="Eogonek" unicode="&#x118;" horiz-adv-x="556" 
d="M365 -104q0 -17 10.5 -28t31.5 -11q16 0 29 8t27 29l31 -31q-22 -31 -47 -44.5t-54 -13.5q-15 0 -31.5 4t-30 13.5t-22.5 25.5t-9 40q0 40 23.5 65t56.5 47h-290v700h410v-70h-323v-234h302v-70h-302v-256h330v-70h-43q-56 -31 -77.5 -56t-21.5 -48z" />
    <glyph glyph-name="eogonek" unicode="&#x119;" horiz-adv-x="515" 
d="M463 108q-14 -28 -33.5 -52t-42.5 -38q-18 -12 -38.5 -26t-37.5 -29.5t-28.5 -32.5t-11.5 -34t10.5 -28t31.5 -11q16 0 29 8t27 29l31 -31q-22 -31 -47 -44.5t-54 -13.5q-15 0 -31.5 4t-30 13.5t-22.5 25.5t-9 40q0 34 17 58.5t43 41.5q-53 0 -94 19t-69.5 52t-43.5 78.5
t-15 99.5q0 53 15.5 98.5t44 78.5t70 51.5t92.5 18.5q54 0 94 -19.5t66.5 -52t39.5 -75t13 -88.5v-28h-349q1 -33 10 -63.5t25.5 -54t42.5 -37t62 -13.5q49 0 75 22t44 63zM264 419q-57 0 -91 -38.5t-40 -96.5h260q-3 63 -38.5 99t-90.5 36z" />
    <glyph glyph-name="Ecaron" unicode="&#x11a;" horiz-adv-x="556" 
d="M154 868l43 39l99 -98l101 98l42 -39l-113 -116h-60zM90 0v700h410v-70h-323v-234h302v-70h-302v-256h330v-70h-417z" />
    <glyph glyph-name="ecaron" unicode="&#x11b;" horiz-adv-x="515" 
d="M291 534h-55l-112 129l42 37l98 -107l99 107l41 -37zM463 108q-27 -54 -73.5 -87t-120.5 -33q-53 0 -95 18.5t-71 52t-44 79t-15 99.5q0 53 15.5 98.5t44 78.5t70 51.5t92.5 18.5q54 0 94 -19.5t66.5 -52t39.5 -75t13 -88.5v-28h-349q1 -33 10 -63.5t25.5 -54t42.5 -37
t62 -13.5q49 0 75 22t44 63zM264 419q-57 0 -91 -38.5t-40 -96.5h260q-3 63 -38.5 99t-90.5 36z" />
    <glyph glyph-name="Gcircumflex" unicode="&#x11c;" horiz-adv-x="717" 
d="M341 900h59l114 -116l-42 -39l-102 98l-99 -98l-42 39zM350 344h287v-344h-80v74q-10 -14 -26 -29t-39.5 -28t-55.5 -21t-73 -8q-75 0 -133 28t-97 76.5t-59.5 114.5t-20.5 143q0 79 22 145.5t63.5 114.5t101 75t133.5 27q95 0 162 -47t105 -133l-81 -30
q-24 62 -70.5 100.5t-120.5 38.5q-50 0 -91.5 -19.5t-71 -57t-46 -92.5t-16.5 -127q0 -137 59 -211.5t165 -74.5q39 0 73 10t58.5 31t39 52.5t14.5 73.5v50h-202v68z" />
    <glyph glyph-name="gcircumflex" unicode="&#x11d;" horiz-adv-x="522" 
d="M231 694h55l112 -129l-42 -37l-98 107l-99 -107l-41 37zM497 423q-7 8 -18.5 11t-22.5 3q-16 0 -28 -5t-17 -10q20 -20 30 -49t10 -58q0 -40 -15.5 -71.5t-42.5 -53t-62 -32.5t-74 -11q-29 0 -49 4.5t-29 4.5q-5 0 -12.5 -2t-15 -7t-12.5 -13.5t-5 -20.5q0 -13 7.5 -20.5
t25 -12t46 -7.5t70.5 -6q50 -3 88.5 -10t65 -20.5t40 -35t13.5 -55.5q0 -43 -18.5 -73t-51 -49t-75.5 -27.5t-92 -8.5q-47 0 -86 7.5t-68 23t-45 40t-16 58.5q0 40 22 70t46 40q-26 11 -38 30.5t-12 41.5q0 28 17 51.5t48 37.5q-23 18 -40.5 48.5t-17.5 75.5q0 42 16 74
t43 53.5t61.5 33t71.5 11.5q32 0 60.5 -7t49.5 -18q16 14 39.5 24.5t58.5 10.5q28 0 49 -8zM146 314q0 -54 32.5 -82t78.5 -28t78.5 28t32.5 82t-32.5 83t-78.5 29t-78.5 -29t-32.5 -83zM261 -3q-39 2 -60.5 4t-40.5 7q-21 -9 -33.5 -30.5t-12.5 -50.5q0 -44 40 -63t100 -19
q34 0 63 5.5t50 16.5t33 28.5t12 40.5q0 17 -7.5 27.5t-25.5 17.5t-47 10.5t-71 5.5z" />
    <glyph glyph-name="Gbreve" unicode="&#x11e;" horiz-adv-x="717" 
d="M285 891q5 -31 28.5 -53t58.5 -22t58.5 22t28.5 53l65 -20q-11 -49 -51.5 -80t-100.5 -31t-100.5 31t-51.5 80zM350 344h287v-344h-80v74q-10 -14 -26 -29t-39.5 -28t-55.5 -21t-73 -8q-75 0 -133 28t-97 76.5t-59.5 114.5t-20.5 143q0 79 22 145.5t63.5 114.5t101 75
t133.5 27q95 0 162 -47t105 -133l-81 -30q-24 62 -70.5 100.5t-120.5 38.5q-50 0 -91.5 -19.5t-71 -57t-46 -92.5t-16.5 -127q0 -137 59 -211.5t165 -74.5q39 0 73 10t58.5 31t39 52.5t14.5 73.5v50h-202v68z" />
    <glyph glyph-name="gbreve" unicode="&#x11f;" horiz-adv-x="522" 
d="M170 673q5 -31 28.5 -53t58.5 -22t58.5 22t28.5 53l65 -20q-11 -49 -51.5 -80t-100.5 -31t-100.5 31t-51.5 80zM497 423q-7 8 -18.5 11t-22.5 3q-16 0 -28 -5t-17 -10q20 -20 30 -49t10 -58q0 -40 -15.5 -71.5t-42.5 -53t-62 -32.5t-74 -11q-29 0 -49 4.5t-29 4.5
q-5 0 -12.5 -2t-15 -7t-12.5 -13.5t-5 -20.5q0 -13 7.5 -20.5t25 -12t46 -7.5t70.5 -6q50 -3 88.5 -10t65 -20.5t40 -35t13.5 -55.5q0 -43 -18.5 -73t-51 -49t-75.5 -27.5t-92 -8.5q-47 0 -86 7.5t-68 23t-45 40t-16 58.5q0 40 22 70t46 40q-26 11 -38 30.5t-12 41.5
q0 28 17 51.5t48 37.5q-23 18 -40.5 48.5t-17.5 75.5q0 42 16 74t43 53.5t61.5 33t71.5 11.5q32 0 60.5 -7t49.5 -18q16 14 39.5 24.5t58.5 10.5q28 0 49 -8zM146 314q0 -54 32.5 -82t78.5 -28t78.5 28t32.5 82t-32.5 83t-78.5 29t-78.5 -29t-32.5 -83zM261 -3
q-39 2 -60.5 4t-40.5 7q-21 -9 -33.5 -30.5t-12.5 -50.5q0 -44 40 -63t100 -19q34 0 63 5.5t50 16.5t33 28.5t12 40.5q0 17 -7.5 27.5t-25.5 17.5t-47 10.5t-71 5.5z" />
    <glyph glyph-name="Gdotaccent" unicode="&#x120;" horiz-adv-x="717" 
d="M317 819q0 24 15.5 39.5t40.5 15.5t40.5 -15.5t15.5 -39.5q0 -23 -15.5 -38.5t-40.5 -15.5t-40.5 15.5t-15.5 38.5zM350 344h287v-344h-80v74q-10 -14 -26 -29t-39.5 -28t-55.5 -21t-73 -8q-75 0 -133 28t-97 76.5t-59.5 114.5t-20.5 143q0 79 22 145.5t63.5 114.5
t101 75t133.5 27q95 0 162 -47t105 -133l-81 -30q-24 62 -70.5 100.5t-120.5 38.5q-50 0 -91.5 -19.5t-71 -57t-46 -92.5t-16.5 -127q0 -137 59 -211.5t165 -74.5q39 0 73 10t58.5 31t39 52.5t14.5 73.5v50h-202v68z" />
    <glyph glyph-name="gdotaccent" unicode="&#x121;" horiz-adv-x="522" 
d="M202 603q0 25 15.5 40t39.5 15t39.5 -15t15.5 -40q0 -22 -15.5 -38t-39.5 -16t-39.5 16t-15.5 38zM497 423q-7 8 -18.5 11t-22.5 3q-16 0 -28 -5t-17 -10q20 -20 30 -49t10 -58q0 -40 -15.5 -71.5t-42.5 -53t-62 -32.5t-74 -11q-29 0 -49 4.5t-29 4.5q-5 0 -12.5 -2
t-15 -7t-12.5 -13.5t-5 -20.5q0 -13 7.5 -20.5t25 -12t46 -7.5t70.5 -6q50 -3 88.5 -10t65 -20.5t40 -35t13.5 -55.5q0 -43 -18.5 -73t-51 -49t-75.5 -27.5t-92 -8.5q-47 0 -86 7.5t-68 23t-45 40t-16 58.5q0 40 22 70t46 40q-26 11 -38 30.5t-12 41.5q0 28 17 51.5t48 37.5
q-23 18 -40.5 48.5t-17.5 75.5q0 42 16 74t43 53.5t61.5 33t71.5 11.5q32 0 60.5 -7t49.5 -18q16 14 39.5 24.5t58.5 10.5q28 0 49 -8zM146 314q0 -54 32.5 -82t78.5 -28t78.5 28t32.5 82t-32.5 83t-78.5 29t-78.5 -29t-32.5 -83zM261 -3q-39 2 -60.5 4t-40.5 7
q-21 -9 -33.5 -30.5t-12.5 -50.5q0 -44 40 -63t100 -19q34 0 63 5.5t50 16.5t33 28.5t12 40.5q0 17 -7.5 27.5t-25.5 17.5t-47 10.5t-71 5.5z" />
    <glyph glyph-name="Gcommaaccent" unicode="&#x122;" horiz-adv-x="717" 
d="M350 344h287v-344h-80v74q-10 -14 -26 -29t-39.5 -28t-55.5 -21t-73 -8q-75 0 -133 28t-97 76.5t-59.5 114.5t-20.5 143q0 79 22 145.5t63.5 114.5t101 75t133.5 27q95 0 162 -47t105 -133l-81 -30q-24 62 -70.5 100.5t-120.5 38.5q-50 0 -91.5 -19.5t-71 -57t-46 -92.5
t-16.5 -127q0 -137 59 -211.5t165 -74.5q39 0 73 10t58.5 31t39 52.5t14.5 73.5v50h-202v68zM420 -123q0 -12 -3.5 -28t-12.5 -31t-25 -26.5t-42 -15.5l-13 33q16 0 31 12.5t15 29.5v3q-1 -1 -2 -1h-7q-17 0 -31 13t-14 33q0 17 12 32.5t37 15.5q29 0 42 -21t13 -49z" />
    <glyph glyph-name="gcommaaccent" unicode="&#x123;" horiz-adv-x="522" 
d="M207 603q0 12 3.5 28t12.5 31t25 26.5t42 15.5l13 -33q-16 0 -31 -12.5t-15 -29.5v-3h2q1 0 3 0.5t4 0.5q17 0 31 -13t14 -33q0 -17 -12 -32.5t-37 -15.5q-29 0 -42 21t-13 49zM497 423q-7 8 -18.5 11t-22.5 3q-16 0 -28 -5t-17 -10q20 -20 30 -49t10 -58
q0 -40 -15.5 -71.5t-42.5 -53t-62 -32.5t-74 -11q-29 0 -49 4.5t-29 4.5q-5 0 -12.5 -2t-15 -7t-12.5 -13.5t-5 -20.5q0 -13 7.5 -20.5t25 -12t46 -7.5t70.5 -6q50 -3 88.5 -10t65 -20.5t40 -35t13.5 -55.5q0 -43 -18.5 -73t-51 -49t-75.5 -27.5t-92 -8.5q-47 0 -86 7.5
t-68 23t-45 40t-16 58.5q0 40 22 70t46 40q-26 11 -38 30.5t-12 41.5q0 28 17 51.5t48 37.5q-23 18 -40.5 48.5t-17.5 75.5q0 42 16 74t43 53.5t61.5 33t71.5 11.5q32 0 60.5 -7t49.5 -18q16 14 39.5 24.5t58.5 10.5q28 0 49 -8zM146 314q0 -54 32.5 -82t78.5 -28t78.5 28
t32.5 82t-32.5 83t-78.5 29t-78.5 -29t-32.5 -83zM261 -3q-39 2 -60.5 4t-40.5 7q-21 -9 -33.5 -30.5t-12.5 -50.5q0 -44 40 -63t100 -19q34 0 63 5.5t50 16.5t33 28.5t12 40.5q0 17 -7.5 27.5t-25.5 17.5t-47 10.5t-71 5.5z" />
    <glyph glyph-name="Hcircumflex" unicode="&#x124;" horiz-adv-x="694" 
d="M317 900h59l114 -116l-42 -39l-102 98l-99 -98l-42 39zM90 700h87v-303h340v303h87v-700h-87v327h-340v-327h-87v700z" />
    <glyph glyph-name="hcircumflex" unicode="&#x125;" horiz-adv-x="551" 
d="M95 900h59l114 -116l-42 -39l-102 98l-99 -98l-42 39zM80 700h84v-293q22 34 56 55.5t88 21.5q34 0 64.5 -10t53.5 -29.5t36.5 -49t13.5 -68.5v-327h-84v314q0 27 -9 46t-23 31.5t-32.5 18t-36.5 5.5q-25 0 -48 -11t-40.5 -31t-28 -49.5t-10.5 -66.5v-257h-84v700z" />
    <glyph glyph-name="Hbar" unicode="&#x126;" horiz-adv-x="694" 
d="M90 570v130h87v-130h340v130h87v-130h80v-68h-80v-502h-87v327h-340v-327h-87v502h-80v68h80zM517 397v105h-340v-105h340z" />
    <glyph glyph-name="hbar" unicode="&#x127;" horiz-adv-x="551" 
d="M164 551v-144q22 34 56 55.5t88 21.5q34 0 64.5 -10t53.5 -29.5t36.5 -49t13.5 -68.5v-327h-84v314q0 27 -9 46t-23 31.5t-32.5 18t-36.5 5.5q-25 0 -48 -11t-40.5 -31t-28 -49.5t-10.5 -66.5v-257h-84v551h-63v63h63v86h84v-86h155v-63h-155z" />
    <glyph glyph-name="Itilde" unicode="&#x128;" horiz-adv-x="267" 
d="M65 875q25 0 44 -8t34.5 -17.5t29.5 -17.5t31 -8q16 0 27 7t19 16q9 10 14 23l43 -39q-10 -18 -25 -32q-13 -12 -33 -22t-49 -10q-26 0 -44 8t-33.5 17t-29.5 17t-31 8t-27.5 -7.5t-18.5 -15.5q-9 -10 -14 -22l-43 39q9 18 24 32q13 12 33 22t49 10zM90 700h87v-700h-87
v700z" />
    <glyph glyph-name="itilde" unicode="&#x129;" horiz-adv-x="244" 
d="M54 661q25 0 44 -8t34.5 -17.5t29.5 -17.5t31 -8q16 0 27 7t19 16q9 10 14 23l43 -39q-10 -18 -25 -32q-13 -12 -33 -22t-49 -10q-26 0 -44 8t-33.5 17t-29.5 17t-31 8t-27.5 -7.5t-18.5 -15.5q-9 -10 -14 -22l-43 39q9 18 24 32q13 12 33 22t49 10zM80 472h84v-472h-84
v472z" />
    <glyph glyph-name="Imacron" unicode="&#x12a;" horiz-adv-x="267" 
d="M4 836h259v-59h-259v59zM90 700h87v-700h-87v700z" />
    <glyph glyph-name="imacron" unicode="&#x12b;" horiz-adv-x="244" 
d="M-7 620h259v-59h-259v59zM80 472h84v-472h-84v472z" />
    <glyph glyph-name="Ibreve" unicode="&#x12c;" horiz-adv-x="267" 
d="M46 891q5 -31 28.5 -53t58.5 -22t58.5 22t28.5 53l65 -20q-11 -49 -51.5 -80t-100.5 -31t-100.5 31t-51.5 80zM90 700h87v-700h-87v700z" />
    <glyph glyph-name="ibreve" unicode="&#x12d;" horiz-adv-x="244" 
d="M35 673q5 -31 28.5 -53t58.5 -22t58.5 22t28.5 53l65 -20q-11 -49 -51.5 -80t-100.5 -31t-100.5 31t-51.5 80zM80 472h84v-472h-84v472z" />
    <glyph glyph-name="Iogonek" unicode="&#x12e;" horiz-adv-x="267" 
d="M78 -104q0 -17 10.5 -28t31.5 -11q16 0 29 8t27 29l31 -31q-22 -31 -47 -44.5t-54 -13.5q-15 0 -31.5 4t-30 13.5t-22.5 25.5t-9 40q0 40 22.5 65t54.5 47v700h87v-700q-56 -29 -77.5 -55t-21.5 -49z" />
    <glyph glyph-name="iogonek" unicode="&#x12f;" horiz-adv-x="244" 
d="M67 656q0 25 15.5 40t39.5 15t39.5 -15t15.5 -40q0 -22 -15.5 -38t-39.5 -16t-39.5 16t-15.5 38zM80 472h84v-472q-56 -31 -77.5 -56t-21.5 -48q0 -17 10.5 -28t31.5 -11q16 0 29 8t27 29l31 -31q-22 -31 -47 -44.5t-54 -13.5q-15 0 -31.5 4t-30 13.5t-22.5 25.5t-9 40
q0 40 23.5 65t56.5 47v472z" />
    <glyph glyph-name="Idotaccent" unicode="&#x130;" horiz-adv-x="267" 
d="M77 819q0 24 15.5 39.5t40.5 15.5t40.5 -15.5t15.5 -39.5q0 -23 -15.5 -38.5t-40.5 -15.5t-40.5 15.5t-15.5 38.5zM90 700h87v-700h-87v700z" />
    <glyph glyph-name="dotlessi" unicode="&#x131;" horiz-adv-x="244" 
d="M80 472h84v-472h-84v472z" />
    <glyph glyph-name="IJ" unicode="&#x132;" horiz-adv-x="685" 
d="M412 58q55 0 78 42t23 131v469h87v-469q0 -48 -7 -92t-26.5 -77.5t-55.5 -53.5t-94 -20q-61 0 -97.5 21t-65.5 55l56 57q27 -32 48 -47.5t54 -15.5zM90 700h87v-700h-87v700z" />
    <glyph glyph-name="ij" unicode="&#x133;" horiz-adv-x="490" 
d="M312 657q0 24 16 39t39 15q25 0 41 -15t16 -39q0 -23 -15.5 -39t-41.5 -16q-23 0 -39 16t-16 39zM67 656q0 25 15.5 40t39.5 15t39.5 -15t15.5 -40q0 -22 -15.5 -38t-39.5 -16t-39.5 16t-15.5 38zM410 -61q0 -41 -13 -69.5t-34 -46.5t-47.5 -26.5t-54.5 -8.5
q-29 0 -54 7.5t-51 21.5l37 67q12 -8 27.5 -16t38.5 -8q35 0 51 23.5t16 60.5v528h84v-533zM80 472h84v-472h-84v472z" />
    <glyph glyph-name="Jcircumflex" unicode="&#x134;" horiz-adv-x="436" 
d="M276 900h59l114 -116l-42 -39l-102 98l-99 -98l-42 39zM163 58q55 0 78 42t23 131v469h87v-469q0 -48 -7 -92t-26.5 -77.5t-55.5 -53.5t-94 -20q-61 0 -97.5 21t-65.5 55l56 57q27 -32 48 -47.5t54 -15.5z" />
    <glyph glyph-name="jcircumflex" unicode="&#x135;" horiz-adv-x="246" 
d="M96 694h55l112 -129l-42 -37l-98 107l-99 -107l-41 37zM166 -61q0 -41 -13 -69.5t-34 -46.5t-47.5 -26.5t-54.5 -8.5q-29 0 -54 7.5t-51 21.5l37 67q12 -8 27.5 -16t38.5 -8q35 0 51 23.5t16 60.5v528h84v-533z" />
    <glyph glyph-name="Kcommaaccent" unicode="&#x136;" horiz-adv-x="618" 
d="M254 358l-77 -80v-278h-87v700h87v-317l301 317h104l-268 -282l291 -418h-105zM376 -123q0 -12 -3.5 -28t-12.5 -31t-25 -26.5t-42 -15.5l-13 33q16 0 31 12.5t15 29.5v3q-1 -1 -2 -1h-7q-17 0 -31 13t-14 33q0 17 12 32.5t37 15.5q29 0 42 -21t13 -49z" />
    <glyph glyph-name="kcommaaccent" unicode="&#x137;" horiz-adv-x="503" 
d="M219 247l-55 -51v-196h-84v700h84v-416l203 188h99l-185 -172l217 -300h-102zM329 -123q0 -12 -3.5 -28t-12.5 -31t-25 -26.5t-42 -15.5l-13 33q16 0 31 12.5t15 29.5v3q-1 -1 -2 -1h-7q-17 0 -31 13t-14 33q0 17 12 32.5t37 15.5q29 0 42 -21t13 -49z" />
    <glyph glyph-name="kgreenlandic" unicode="&#x138;" horiz-adv-x="503" 
d="M221 244l-57 -53v-191h-84v472h84v-188l203 188h99l-185 -172l217 -300h-102z" />
    <glyph glyph-name="Lacute" unicode="&#x139;" horiz-adv-x="509" 
d="M290 855l-178 -107l-29 44l166 124zM90 700h87v-630h310v-70h-397v700z" />
    <glyph glyph-name="lacute" unicode="&#x13a;" horiz-adv-x="244" 
d="M223 855l-178 -107l-29 44l166 124zM80 700h84v-700h-84v700z" />
    <glyph glyph-name="Lcommaaccent" unicode="&#x13b;" horiz-adv-x="509" 
d="M90 700h87v-630h310v-70h-397v700zM341 -123q0 -12 -3.5 -28t-12.5 -31t-25 -26.5t-42 -15.5l-13 33q16 0 31 12.5t15 29.5v3q-1 -1 -2 -1h-7q-17 0 -31 13t-14 33q0 17 12 32.5t37 15.5q29 0 42 -21t13 -49z" />
    <glyph glyph-name="lcommaaccent" unicode="&#x13c;" horiz-adv-x="244" 
d="M80 700h84v-700h-84v700zM178 -123q0 -12 -3.5 -28t-12.5 -31t-25 -26.5t-42 -15.5l-13 33q16 0 31 12.5t15 29.5v3q-1 -1 -2 -1h-7q-17 0 -31 13t-14 33q0 17 12 32.5t37 15.5q29 0 42 -21t13 -49z" />
    <glyph glyph-name="Lcaron" unicode="&#x13d;" horiz-adv-x="509" 
d="M370 690l-60 -159l-47 12l39 165zM90 700h87v-630h310v-70h-397v700z" />
    <glyph glyph-name="lcaron" unicode="&#x13e;" horiz-adv-x="244" 
d="M317 690l-60 -159l-47 12l39 165zM80 700h84v-700h-84v700z" />
    <glyph glyph-name="Ldot" unicode="&#x13f;" horiz-adv-x="509" 
d="M90 700h87v-630h310v-70h-397v700zM306 350q0 25 15.5 40t39.5 15t39.5 -15t15.5 -40q0 -22 -15.5 -38t-39.5 -16t-39.5 16t-15.5 38z" />
    <glyph glyph-name="ldot" unicode="&#x140;" horiz-adv-x="342" 
d="M80 700h84v-700h-84v700zM221 350q0 25 15.5 40t39.5 15t39.5 -15t15.5 -40q0 -22 -15.5 -38t-39.5 -16t-39.5 16t-15.5 38z" />
    <glyph glyph-name="Lslash" unicode="&#x141;" horiz-adv-x="534" 
d="M115 336v364h87v-310l143 89l35 -56l-178 -111v-242h310v-70h-397v258l-60 -37l-35 56z" />
    <glyph glyph-name="lslash" unicode="&#x142;" horiz-adv-x="282" 
d="M183 352v-352h-84v299l-62 -39l-35 56l97 61v323h84v-270l78 49l35 -56z" />
    <glyph glyph-name="Nacute" unicode="&#x143;" horiz-adv-x="723" 
d="M494 855l-178 -107l-29 44l166 124zM90 700h92q83 -128 156 -240q31 -48 62.5 -97t60 -93.5t52 -80.5t37.5 -58h2v569h81v-700h-92q-81 125 -153 236q-31 47 -62.5 96t-60.5 93.5t-53 82t-39 61.5h-2v-569h-81v700z" />
    <glyph glyph-name="nacute" unicode="&#x144;" horiz-adv-x="551" 
d="M407 639l-178 -107l-29 44l166 124zM80 472h79v-71q25 38 60.5 60.5t88.5 22.5q34 0 65 -10t53.5 -29.5t36 -49t13.5 -68.5v-327h-84v314q0 27 -9 46t-23.5 31.5t-32.5 18t-36 5.5q-25 0 -48 -11t-40.5 -31t-28 -49.5t-10.5 -66.5v-257h-84v472z" />
    <glyph glyph-name="Ncommaaccent" unicode="&#x145;" horiz-adv-x="723" 
d="M90 700h92q83 -128 156 -240q31 -48 62.5 -97t60 -93.5t52 -80.5t37.5 -58h2v569h81v-700h-92q-81 125 -153 236q-31 47 -62.5 96t-60.5 93.5t-53 82t-39 61.5h-2v-569h-81v700zM424 -123q0 -12 -3.5 -28t-12.5 -31t-25 -26.5t-42 -15.5l-13 33q16 0 31 12.5t15 29.5v3
q-1 -1 -2 -1h-7q-17 0 -31 13t-14 33q0 17 12 32.5t37 15.5q29 0 42 -21t13 -49z" />
    <glyph glyph-name="ncommaaccent" unicode="&#x146;" horiz-adv-x="551" 
d="M80 472h79v-71q25 38 60.5 60.5t88.5 22.5q34 0 65 -10t53.5 -29.5t36 -49t13.5 -68.5v-327h-84v314q0 27 -9 46t-23.5 31.5t-32.5 18t-36 5.5q-25 0 -48 -11t-40.5 -31t-28 -49.5t-10.5 -66.5v-257h-84v472zM335 -123q0 -12 -3.5 -28t-12.5 -31t-25 -26.5t-42 -15.5
l-13 33q16 0 31 12.5t15 29.5v3q-1 -1 -2 -1h-7q-17 0 -31 13t-14 33q0 17 12 32.5t37 15.5q29 0 42 -21t13 -49z" />
    <glyph glyph-name="Ncaron" unicode="&#x147;" horiz-adv-x="723" 
d="M219 868l43 39l99 -98l101 98l42 -39l-113 -116h-60zM90 700h92q83 -128 156 -240q31 -48 62.5 -97t60 -93.5t52 -80.5t37.5 -58h2v569h81v-700h-92q-81 125 -153 236q-31 47 -62.5 96t-60.5 93.5t-53 82t-39 61.5h-2v-569h-81v700z" />
    <glyph glyph-name="ncaron" unicode="&#x148;" horiz-adv-x="551" 
d="M313 534h-55l-112 129l42 37l98 -107l99 107l41 -37zM80 472h79v-71q25 38 60.5 60.5t88.5 22.5q34 0 65 -10t53.5 -29.5t36 -49t13.5 -68.5v-327h-84v314q0 27 -9 46t-23.5 31.5t-32.5 18t-36 5.5q-25 0 -48 -11t-40.5 -31t-28 -49.5t-10.5 -66.5v-257h-84v472z" />
    <glyph glyph-name="Eng" unicode="&#x14a;" horiz-adv-x="723" 
d="M90 700h92q83 -127 156 -238q31 -47 62.5 -95.5t60 -92.5t52 -79.5t37.5 -57.5h2v563h81v-732q0 -88 -44.5 -134t-124.5 -46q-50 0 -84.5 17.5t-61.5 45.5l56 57q23 -26 42.5 -38.5t45.5 -12.5q23 0 40 9.5t28 26t16 38.5t5 47v15q-10 15 -36.5 55t-62 94t-76.5 116.5
t-80 121.5t-71.5 109t-51.5 80h-2v-569h-81v700z" />
    <glyph glyph-name="eng" unicode="&#x14b;" horiz-adv-x="551" 
d="M392 314q0 27 -9 46t-23.5 31.5t-32.5 18t-36 5.5q-25 0 -48 -11t-40.5 -31t-28 -49.5t-10.5 -66.5v-257h-84v472h79v-71q25 38 60.5 60.5t88.5 22.5q34 0 65 -10t53.5 -29.5t36 -49t13.5 -68.5v-390q0 -41 -13 -69.5t-34 -46.5t-47.5 -26.5t-54.5 -8.5q-29 0 -54 7.5
t-51 21.5l37 67q12 -8 27.5 -16t38.5 -8q35 0 51 23.5t16 60.5v372v0z" />
    <glyph glyph-name="Omacron" unicode="&#x14c;" horiz-adv-x="730" 
d="M236 836h259v-59h-259v59zM53 350q0 84 22.5 151t64 114t99 72t126.5 25t126.5 -25t99 -72t64 -114t22.5 -151t-22.5 -151t-64 -114t-99 -72t-126.5 -25t-126.5 25t-99 72t-64 114t-22.5 151zM143 350q0 -61 14 -114t41.5 -92.5t69 -62t97.5 -22.5q55 0 97 22.5t69.5 62
t41.5 92.5t14 114t-14 114t-41.5 92.5t-69.5 62t-97 22.5q-56 0 -97.5 -22.5t-69 -62t-41.5 -92.5t-14 -114z" />
    <glyph glyph-name="omacron" unicode="&#x14d;" horiz-adv-x="542" 
d="M142 620h259v-59h-259v59zM271 484q54 0 96 -18.5t71.5 -51.5t44.5 -78.5t15 -99.5t-15 -99.5t-44.5 -78.5t-71.5 -51.5t-96 -18.5t-96 18.5t-71.5 51.5t-44.5 78.5t-15 99.5t15 99.5t44.5 78.5t71.5 51.5t96 18.5zM271 55q35 0 61.5 14.5t44 39t26 57.5t8.5 70t-8.5 70
t-26 57.5t-44 39t-61.5 14.5t-61.5 -14.5t-44 -39t-26 -57.5t-8.5 -70t8.5 -70t26 -57.5t44 -39t61.5 -14.5z" />
    <glyph glyph-name="Obreve" unicode="&#x14e;" horiz-adv-x="730" 
d="M278 891q5 -31 28.5 -53t58.5 -22t58.5 22t28.5 53l65 -20q-11 -49 -51.5 -80t-100.5 -31t-100.5 31t-51.5 80zM53 350q0 84 22.5 151t64 114t99 72t126.5 25t126.5 -25t99 -72t64 -114t22.5 -151t-22.5 -151t-64 -114t-99 -72t-126.5 -25t-126.5 25t-99 72t-64 114
t-22.5 151zM143 350q0 -61 14 -114t41.5 -92.5t69 -62t97.5 -22.5q55 0 97 22.5t69.5 62t41.5 92.5t14 114t-14 114t-41.5 92.5t-69.5 62t-97 22.5q-56 0 -97.5 -22.5t-69 -62t-41.5 -92.5t-14 -114z" />
    <glyph glyph-name="obreve" unicode="&#x14f;" horiz-adv-x="542" 
d="M184 673q5 -31 28.5 -53t58.5 -22t58.5 22t28.5 53l65 -20q-11 -49 -51.5 -80t-100.5 -31t-100.5 31t-51.5 80zM271 484q54 0 96 -18.5t71.5 -51.5t44.5 -78.5t15 -99.5t-15 -99.5t-44.5 -78.5t-71.5 -51.5t-96 -18.5t-96 18.5t-71.5 51.5t-44.5 78.5t-15 99.5t15 99.5
t44.5 78.5t71.5 51.5t96 18.5zM271 55q35 0 61.5 14.5t44 39t26 57.5t8.5 70t-8.5 70t-26 57.5t-44 39t-61.5 14.5t-61.5 -14.5t-44 -39t-26 -57.5t-8.5 -70t8.5 -70t26 -57.5t44 -39t61.5 -14.5z" />
    <glyph glyph-name="Ohungarumlaut" unicode="&#x150;" horiz-adv-x="730" 
d="M601 856l-169 -107l-29 43l155 124zM403 856l-169 -107l-30 43l156 124zM53 350q0 84 22.5 151t64 114t99 72t126.5 25t126.5 -25t99 -72t64 -114t22.5 -151t-22.5 -151t-64 -114t-99 -72t-126.5 -25t-126.5 25t-99 72t-64 114t-22.5 151zM143 350q0 -61 14 -114
t41.5 -92.5t69 -62t97.5 -22.5q55 0 97 22.5t69.5 62t41.5 92.5t14 114t-14 114t-41.5 92.5t-69.5 62t-97 22.5q-56 0 -97.5 -22.5t-69 -62t-41.5 -92.5t-14 -114z" />
    <glyph glyph-name="ohungarumlaut" unicode="&#x151;" horiz-adv-x="542" 
d="M519 640l-169 -107l-29 43l155 124zM321 640l-169 -107l-30 43l156 124zM271 484q54 0 96 -18.5t71.5 -51.5t44.5 -78.5t15 -99.5t-15 -99.5t-44.5 -78.5t-71.5 -51.5t-96 -18.5t-96 18.5t-71.5 51.5t-44.5 78.5t-15 99.5t15 99.5t44.5 78.5t71.5 51.5t96 18.5zM271 55
q35 0 61.5 14.5t44 39t26 57.5t8.5 70t-8.5 70t-26 57.5t-44 39t-61.5 14.5t-61.5 -14.5t-44 -39t-26 -57.5t-8.5 -70t8.5 -70t26 -57.5t44 -39t61.5 -14.5z" />
    <glyph glyph-name="OE" unicode="&#x152;" horiz-adv-x="1039" 
d="M53 350q0 83 22.5 150t63.5 114t98 72.5t125 25.5t123 -27.5t88 -81.5v97h410v-70h-323v-234h302v-70h-302v-256h330v-70h-417v96q-34 -54 -88 -81t-122 -27q-69 0 -126 25.5t-98 72.5t-63.5 114t-22.5 150zM142 350q0 -61 14 -114t42 -92.5t68.5 -62t94.5 -22.5
q51 0 91 21.5t67 59.5t41 88.5t14 109.5v24q0 59 -14 109.5t-41 88t-67 58.5t-91 21q-54 0 -94.5 -22t-68.5 -61t-42 -92t-14 -114z" />
    <glyph glyph-name="oe" unicode="&#x153;" horiz-adv-x="871" 
d="M819 108q-27 -54 -73.5 -87t-119.5 -33q-61 0 -105.5 26t-71.5 71q-27 -45 -72 -71t-106 -26q-54 0 -96 18.5t-71.5 51.5t-44.5 78.5t-15 99.5t15 99.5t44.5 78.5t71.5 51.5t96 18.5q61 0 106 -26.5t72 -71.5q27 46 71 72t103 26q54 0 93.5 -19.5t66 -52t39.5 -75
t13 -88.5v-28h-347q1 -33 10 -63.5t25.5 -54t42 -37t61.5 -13.5q48 0 74 22t44 63zM621 419q-56 0 -90 -38.5t-40 -96.5h258q-3 63 -38.5 99t-89.5 36zM271 55q35 0 61.5 14.5t44 39t26 57.5t8.5 70t-8.5 70t-26 57.5t-44 39t-61.5 14.5t-61.5 -14.5t-44 -39t-26 -57.5
t-8.5 -70t8.5 -70t26 -57.5t44 -39t61.5 -14.5z" />
    <glyph glyph-name="Racute" unicode="&#x154;" horiz-adv-x="635" 
d="M425 855l-178 -107l-29 44l166 124zM568 513q0 -78 -44 -130t-116 -69l188 -314h-106l-178 308h-136v-308h-86v700h246q31 0 71 -7t76 -27t60.5 -56.5t24.5 -96.5zM481 508q0 63 -42.5 92.5t-123.5 29.5h-139v-253h154q41 0 69.5 10.5t46.5 28.5t26.5 41.5t8.5 50.5z" />
    <glyph glyph-name="racute" unicode="&#x155;" horiz-adv-x="360" 
d="M355 639l-178 -107l-29 44l166 124zM336 395q-10 9 -23.5 14.5t-30.5 5.5q-24 0 -45.5 -11.5t-37.5 -32.5t-25.5 -50.5t-9.5 -65.5v-255h-84v472h79v-74q18 43 55.5 64.5t82.5 21.5q14 0 29.5 -2.5t28.5 -8.5z" />
    <glyph glyph-name="Rcommaaccent" unicode="&#x156;" horiz-adv-x="635" 
d="M568 513q0 -78 -44 -130t-116 -69l188 -314h-106l-178 308h-136v-308h-86v700h246q31 0 71 -7t76 -27t60.5 -56.5t24.5 -96.5zM481 508q0 63 -42.5 92.5t-123.5 29.5h-139v-253h154q41 0 69.5 10.5t46.5 28.5t26.5 41.5t8.5 50.5zM374 -123q0 -12 -3.5 -28t-12.5 -31
t-25 -26.5t-42 -15.5l-13 33q16 0 31 12.5t15 29.5v3q-1 -1 -2 -1h-7q-17 0 -31 13t-14 33q0 17 12 32.5t37 15.5q29 0 42 -21t13 -49z" />
    <glyph glyph-name="rcommaaccent" unicode="&#x157;" horiz-adv-x="360" 
d="M336 395q-10 9 -23.5 14.5t-30.5 5.5q-24 0 -45.5 -11.5t-37.5 -32.5t-25.5 -50.5t-9.5 -65.5v-255h-84v472h79v-74q18 43 55.5 64.5t82.5 21.5q14 0 29.5 -2.5t28.5 -8.5zM178 -123q0 -12 -3.5 -28t-12.5 -31t-25 -26.5t-42 -15.5l-13 33q16 0 31 12.5t15 29.5v3
q-1 -1 -2 -1h-7q-17 0 -31 13t-14 33q0 17 12 32.5t37 15.5q29 0 42 -21t13 -49z" />
    <glyph glyph-name="Rcaron" unicode="&#x158;" horiz-adv-x="635" 
d="M166 868l43 39l99 -98l101 98l42 -39l-113 -116h-60zM568 513q0 -78 -44 -130t-116 -69l188 -314h-106l-178 308h-136v-308h-86v700h246q31 0 71 -7t76 -27t60.5 -56.5t24.5 -96.5zM481 508q0 63 -42.5 92.5t-123.5 29.5h-139v-253h154q41 0 69.5 10.5t46.5 28.5
t26.5 41.5t8.5 50.5z" />
    <glyph glyph-name="rcaron" unicode="&#x159;" horiz-adv-x="360" 
d="M244 534h-55l-112 129l42 37l98 -107l99 107l41 -37zM336 395q-10 9 -23.5 14.5t-30.5 5.5q-24 0 -45.5 -11.5t-37.5 -32.5t-25.5 -50.5t-9.5 -65.5v-255h-84v472h79v-74q18 43 55.5 64.5t82.5 21.5q14 0 29.5 -2.5t28.5 -8.5z" />
    <glyph glyph-name="Sacute" unicode="&#x15a;" horiz-adv-x="623" 
d="M422 855l-178 -107l-29 44l166 124zM158 522q0 -27 8 -46t27.5 -33t51 -23.5t79.5 -17.5q58 -9 104 -24t77.5 -38.5t48.5 -57.5t17 -83q0 -47 -17.5 -86t-50 -66.5t-80 -43t-107.5 -15.5q-64 0 -112.5 16t-82 44.5t-51.5 66.5t-20 82l86 13q2 -28 12 -55.5t31 -49
t54.5 -35t82.5 -13.5q80 0 121.5 36t41.5 99q0 28 -9 49.5t-29.5 37.5t-54.5 26.5t-83 17.5q-115 16 -175 60t-60 131q0 46 17.5 82.5t49 62t76 39.5t97.5 14q105 0 169.5 -49t78.5 -135l-86 -22q-9 63 -47 99.5t-116 36.5q-77 0 -113 -33t-36 -87z" />
    <glyph glyph-name="sacute" unicode="&#x15b;" horiz-adv-x="463" 
d="M340 639l-178 -107l-29 44l166 124zM133 349q0 -34 27 -49.5t83 -23.5q37 -6 70 -15t57.5 -25.5t38.5 -40.5t14 -60q0 -68 -51 -107.5t-141 -39.5q-87 0 -137 38t-58 110l83 11q5 -48 32 -71t81 -23q51 0 79 20t28 57q0 33 -27 49.5t-95 27.5q-90 14 -129 47.5t-39 90.5
q0 34 14.5 60t39.5 43.5t57.5 26.5t68.5 9q77 0 127.5 -35.5t58.5 -97.5l-83 -17q-5 41 -31 63.5t-75 22.5q-40 0 -66.5 -17.5t-26.5 -53.5z" />
    <glyph glyph-name="Scircumflex" unicode="&#x15c;" horiz-adv-x="623" 
d="M280 900h59l114 -116l-42 -39l-102 98l-99 -98l-42 39zM158 522q0 -27 8 -46t27.5 -33t51 -23.5t79.5 -17.5q58 -9 104 -24t77.5 -38.5t48.5 -57.5t17 -83q0 -47 -17.5 -86t-50 -66.5t-80 -43t-107.5 -15.5q-64 0 -112.5 16t-82 44.5t-51.5 66.5t-20 82l86 13
q2 -28 12 -55.5t31 -49t54.5 -35t82.5 -13.5q80 0 121.5 36t41.5 99q0 28 -9 49.5t-29.5 37.5t-54.5 26.5t-83 17.5q-115 16 -175 60t-60 131q0 46 17.5 82.5t49 62t76 39.5t97.5 14q105 0 169.5 -49t78.5 -135l-86 -22q-9 63 -47 99.5t-116 36.5q-77 0 -113 -33t-36 -87z
" />
    <glyph glyph-name="scircumflex" unicode="&#x15d;" horiz-adv-x="463" 
d="M206 694h55l112 -129l-42 -37l-98 107l-99 -107l-41 37zM133 349q0 -34 27 -49.5t83 -23.5q37 -6 70 -15t57.5 -25.5t38.5 -40.5t14 -60q0 -68 -51 -107.5t-141 -39.5q-87 0 -137 38t-58 110l83 11q5 -48 32 -71t81 -23q51 0 79 20t28 57q0 33 -27 49.5t-95 27.5
q-90 14 -129 47.5t-39 90.5q0 34 14.5 60t39.5 43.5t57.5 26.5t68.5 9q77 0 127.5 -35.5t58.5 -97.5l-83 -17q-5 41 -31 63.5t-75 22.5q-40 0 -66.5 -17.5t-26.5 -53.5z" />
    <glyph glyph-name="Scedilla" unicode="&#x15e;" horiz-adv-x="623" 
d="M255 -156q7 -6 19.5 -12.5t31.5 -6.5q20 0 31 11.5t11 30.5q0 40 -40 40q-13 0 -22 -4t-16 -9l-27 27l28 69q-53 6 -93.5 24t-68.5 45.5t-43 62.5t-16 75l86 13q2 -28 12 -55.5t31 -49t54.5 -35t82.5 -13.5q80 0 121.5 36t41.5 99q0 28 -9 49.5t-29.5 37.5t-54.5 26.5
t-83 17.5q-115 16 -175 60t-60 131q0 46 17.5 82.5t49 62t76 39.5t97.5 14q105 0 169.5 -49t78.5 -135l-86 -22q-9 63 -47 99.5t-116 36.5q-77 0 -113 -33t-36 -87q0 -27 8 -46t27.5 -33t51 -23.5t79.5 -17.5q58 -9 104 -24t77.5 -38.5t48.5 -57.5t17 -83q0 -47 -17.5 -86
t-50 -66.5t-80 -43t-107.5 -15.5h-1l-17 -44q12 7 30 7q33 0 55.5 -21.5t22.5 -60.5q0 -43 -28 -67.5t-72 -24.5q-30 0 -50 9.5t-29 18.5z" />
    <glyph glyph-name="scedilla" unicode="&#x15f;" horiz-adv-x="463" 
d="M170 -156q7 -6 19.5 -12.5t31.5 -6.5q20 0 31 11.5t11 30.5q0 40 -40 40q-13 0 -22 -4t-16 -9l-27 27l28 70q-66 9 -105 45.5t-45 99.5l83 11q5 -48 32 -71t81 -23q51 0 79 20t28 57q0 33 -27 49.5t-95 27.5q-90 14 -129 47.5t-39 90.5q0 34 14.5 60t39.5 43.5t57.5 26.5
t68.5 9q77 0 127.5 -35.5t58.5 -97.5l-83 -17q-5 41 -31 63.5t-75 22.5q-40 0 -66.5 -17.5t-26.5 -53.5q0 -34 27 -49.5t83 -23.5q37 -6 70 -15t57.5 -25.5t38.5 -40.5t14 -60q0 -68 -51 -107.5t-141 -39.5h-1l-17 -44q12 7 30 7q33 0 55.5 -21.5t22.5 -60.5
q0 -43 -28 -67.5t-72 -24.5q-30 0 -50 9.5t-29 18.5z" />
    <glyph glyph-name="Scaron" unicode="&#x160;" horiz-adv-x="623" 
d="M168 868l43 39l99 -98l101 98l42 -39l-113 -116h-60zM158 522q0 -27 8 -46t27.5 -33t51 -23.5t79.5 -17.5q58 -9 104 -24t77.5 -38.5t48.5 -57.5t17 -83q0 -47 -17.5 -86t-50 -66.5t-80 -43t-107.5 -15.5q-64 0 -112.5 16t-82 44.5t-51.5 66.5t-20 82l86 13
q2 -28 12 -55.5t31 -49t54.5 -35t82.5 -13.5q80 0 121.5 36t41.5 99q0 28 -9 49.5t-29.5 37.5t-54.5 26.5t-83 17.5q-115 16 -175 60t-60 131q0 46 17.5 82.5t49 62t76 39.5t97.5 14q105 0 169.5 -49t78.5 -135l-86 -22q-9 63 -47 99.5t-116 36.5q-77 0 -113 -33t-36 -87z
" />
    <glyph glyph-name="scaron" unicode="&#x161;" horiz-adv-x="463" 
d="M257 534h-55l-112 129l42 37l98 -107l99 107l41 -37zM133 349q0 -34 27 -49.5t83 -23.5q37 -6 70 -15t57.5 -25.5t38.5 -40.5t14 -60q0 -68 -51 -107.5t-141 -39.5q-87 0 -137 38t-58 110l83 11q5 -48 32 -71t81 -23q51 0 79 20t28 57q0 33 -27 49.5t-95 27.5
q-90 14 -129 47.5t-39 90.5q0 34 14.5 60t39.5 43.5t57.5 26.5t68.5 9q77 0 127.5 -35.5t58.5 -97.5l-83 -17q-5 41 -31 63.5t-75 22.5q-40 0 -66.5 -17.5t-26.5 -53.5z" />
    <glyph glyph-name="Tcommaaccent" unicode="&#x162;" horiz-adv-x="547" 
d="M23 700h501v-70h-207v-630h-87v630h-207v70zM329 -123q0 -12 -3.5 -28t-12.5 -31t-25 -26.5t-42 -15.5l-13 33q16 0 31 12.5t15 29.5v3q-1 -1 -2 -1h-7q-17 0 -31 13t-14 33q0 17 12 32.5t37 15.5q29 0 42 -21t13 -49z" />
    <glyph glyph-name="tcommaaccent" unicode="&#x163;" horiz-adv-x="332" 
d="M307 7q-14 -8 -36.5 -13.5t-48.5 -5.5q-31 0 -54 9.5t-38 25.5t-22.5 37t-7.5 44v304h-80v64h80v135l84 38v-173h110v-64h-110v-296q0 -26 13 -40t36 -14q13 0 25 4t22 11zM235 -123q0 -12 -3.5 -28t-12.5 -31t-25 -26.5t-42 -15.5l-13 33q16 0 31 12.5t15 29.5v3
q-1 -1 -2 -1h-7q-17 0 -31 13t-14 33q0 17 12 32.5t37 15.5q29 0 42 -21t13 -49z" />
    <glyph glyph-name="Tcaron" unicode="&#x164;" horiz-adv-x="547" 
d="M131 868l43 39l99 -98l101 98l42 -39l-113 -116h-60zM23 700h501v-70h-207v-630h-87v630h-207v70z" />
    <glyph glyph-name="tcaron" unicode="&#x165;" horiz-adv-x="332" 
d="M337 690l-60 -159l-47 12l39 165zM307 7q-14 -8 -36.5 -13.5t-48.5 -5.5q-31 0 -54 9.5t-38 25.5t-22.5 37t-7.5 44v304h-80v64h80v135l84 38v-173h110v-64h-110v-296q0 -26 13 -40t36 -14q13 0 25 4t22 11z" />
    <glyph glyph-name="Tbar" unicode="&#x166;" horiz-adv-x="547" 
d="M317 362v-362h-87v362h-138v68h138v200h-207v70h501v-70h-207v-200h138v-68h-138z" />
    <glyph glyph-name="tbar" unicode="&#x167;" horiz-adv-x="332" 
d="M184 247v-135q0 -26 13 -40t36 -14q13 0 25 4t22 11l27 -66q-14 -8 -36.5 -13.5t-48.5 -5.5q-31 0 -54 9.5t-38 25.5t-22.5 37t-7.5 44v143h-80v60h80v101h-80v64h80v135l84 38v-173h110v-64h-110v-101h105v-60h-105z" />
    <glyph glyph-name="Utilde" unicode="&#x168;" horiz-adv-x="680" 
d="M273 875q25 0 44 -8t34.5 -17.5t29.5 -17.5t31 -8q16 0 27 7t19 16q9 10 14 23l43 -39q-10 -18 -25 -32q-13 -12 -33 -22t-49 -10q-26 0 -44 8t-33.5 17t-29.5 17t-31 8t-27.5 -7.5t-18.5 -15.5q-9 -10 -14 -22l-43 39q9 18 24 32q13 12 33 22t49 10zM340 -12
q-131 0 -193 65.5t-62 195.5v451h87v-452q0 -36 8 -70t27.5 -60.5t52 -43t80.5 -16.5t80.5 16.5t52 43t27.5 60.5t8 70v452h87v-451q0 -130 -62 -195.5t-193 -65.5z" />
    <glyph glyph-name="utilde" unicode="&#x169;" horiz-adv-x="547" 
d="M205 661q25 0 44 -8t34.5 -17.5t29.5 -17.5t31 -8q16 0 27 7t19 16q9 10 14 23l43 -39q-10 -18 -25 -32q-13 -12 -33 -22t-49 -10q-26 0 -44 8t-33.5 17t-29.5 17t-31 8t-27.5 -7.5t-18.5 -15.5q-9 -10 -14 -22l-43 39q9 18 24 32q13 12 33 22t49 10zM467 0h-79v71
q-25 -38 -59.5 -60.5t-87.5 -22.5q-34 0 -64 10t-52.5 29.5t-36 49t-13.5 68.5v327h84v-314q0 -27 8.5 -46t23 -31.5t32 -18t35.5 -5.5q24 0 47 11t40 31t27.5 49.5t10.5 66.5v257h84v-472z" />
    <glyph glyph-name="Umacron" unicode="&#x16a;" horiz-adv-x="680" 
d="M211 836h259v-59h-259v59zM340 -12q-131 0 -193 65.5t-62 195.5v451h87v-452q0 -36 8 -70t27.5 -60.5t52 -43t80.5 -16.5t80.5 16.5t52 43t27.5 60.5t8 70v452h87v-451q0 -130 -62 -195.5t-193 -65.5z" />
    <glyph glyph-name="umacron" unicode="&#x16b;" horiz-adv-x="547" 
d="M142 620h259v-59h-259v59zM467 0h-79v71q-25 -38 -59.5 -60.5t-87.5 -22.5q-34 0 -64 10t-52.5 29.5t-36 49t-13.5 68.5v327h84v-314q0 -27 8.5 -46t23 -31.5t32 -18t35.5 -5.5q24 0 47 11t40 31t27.5 49.5t10.5 66.5v257h84v-472z" />
    <glyph glyph-name="Ubreve" unicode="&#x16c;" horiz-adv-x="680" 
d="M254 891q5 -31 28.5 -53t58.5 -22t58.5 22t28.5 53l65 -20q-11 -49 -51.5 -80t-100.5 -31t-100.5 31t-51.5 80zM340 -12q-131 0 -193 65.5t-62 195.5v451h87v-452q0 -36 8 -70t27.5 -60.5t52 -43t80.5 -16.5t80.5 16.5t52 43t27.5 60.5t8 70v452h87v-451
q0 -130 -62 -195.5t-193 -65.5z" />
    <glyph glyph-name="ubreve" unicode="&#x16d;" horiz-adv-x="547" 
d="M184 673q5 -31 28.5 -53t58.5 -22t58.5 22t28.5 53l65 -20q-11 -49 -51.5 -80t-100.5 -31t-100.5 31t-51.5 80zM467 0h-79v71q-25 -38 -59.5 -60.5t-87.5 -22.5q-34 0 -64 10t-52.5 29.5t-36 49t-13.5 68.5v327h84v-314q0 -27 8.5 -46t23 -31.5t32 -18t35.5 -5.5
q24 0 47 11t40 31t27.5 49.5t10.5 66.5v257h84v-472z" />
    <glyph glyph-name="Uring" unicode="&#x16e;" horiz-adv-x="680" 
d="M242 835q0 41 27 66.5t71 25.5t71 -25.5t27 -66.5q0 -39 -27 -66t-71 -27t-71 27t-27 66zM290 835q0 -20 14 -35.5t36 -15.5t36 15.5t14 35.5q0 21 -14 35.5t-36 14.5t-36 -14.5t-14 -35.5zM340 -12q-131 0 -193 65.5t-62 195.5v451h87v-452q0 -36 8 -70t27.5 -60.5
t52 -43t80.5 -16.5t80.5 16.5t52 43t27.5 60.5t8 70v452h87v-451q0 -130 -62 -195.5t-193 -65.5z" />
    <glyph glyph-name="uring" unicode="&#x16f;" horiz-adv-x="547" 
d="M173 619q0 41 27 66.5t71 25.5t71 -25.5t27 -66.5q0 -39 -27 -66t-71 -27t-71 27t-27 66zM221 619q0 -20 14 -35.5t36 -15.5t36 15.5t14 35.5q0 21 -14 35.5t-36 14.5t-36 -14.5t-14 -35.5zM467 0h-79v71q-25 -38 -59.5 -60.5t-87.5 -22.5q-34 0 -64 10t-52.5 29.5
t-36 49t-13.5 68.5v327h84v-314q0 -27 8.5 -46t23 -31.5t32 -18t35.5 -5.5q24 0 47 11t40 31t27.5 49.5t10.5 66.5v257h84v-472z" />
    <glyph glyph-name="Uhungarumlaut" unicode="&#x170;" horiz-adv-x="680" 
d="M587 856l-169 -107l-29 43l155 124zM389 856l-169 -107l-30 43l156 124zM340 -12q-131 0 -193 65.5t-62 195.5v451h87v-452q0 -36 8 -70t27.5 -60.5t52 -43t80.5 -16.5t80.5 16.5t52 43t27.5 60.5t8 70v452h87v-451q0 -130 -62 -195.5t-193 -65.5z" />
    <glyph glyph-name="uhungarumlaut" unicode="&#x171;" horiz-adv-x="547" 
d="M502 640l-169 -107l-29 43l155 124zM304 640l-169 -107l-30 43l156 124zM467 0h-79v71q-25 -38 -59.5 -60.5t-87.5 -22.5q-34 0 -64 10t-52.5 29.5t-36 49t-13.5 68.5v327h84v-314q0 -27 8.5 -46t23 -31.5t32 -18t35.5 -5.5q24 0 47 11t40 31t27.5 49.5t10.5 66.5v257h84
v-472z" />
    <glyph glyph-name="Uogonek" unicode="&#x172;" horiz-adv-x="680" 
d="M340 -12q-131 0 -193 65.5t-62 195.5v451h87v-452q0 -36 8 -70t27.5 -60.5t52 -43t80.5 -16.5t80.5 16.5t52 43t27.5 60.5t8 70v452h87v-451q0 -90 -29 -147.5t-88 -91.5q-56 -32 -83 -58.5t-27 -55.5q0 -17 10.5 -28t31.5 -11q16 0 29 8t27 29l31 -31q-22 -31 -47 -44.5
t-54 -13.5q-15 0 -31.5 4t-30 13.5t-22.5 25.5t-9 40q0 35 18 59t45 42q-7 -1 -13 -1h-13z" />
    <glyph glyph-name="uogonek" unicode="&#x173;" horiz-adv-x="547" 
d="M368 -105q0 -16 10.5 -27t31.5 -11q16 0 29 8t27 29l31 -31q-22 -31 -47 -44.5t-54 -13.5q-15 0 -31.5 4t-30 13.5t-22.5 25t-9 39.5q0 40 24 64.5t61 48.5v71q-25 -38 -59.5 -60.5t-87.5 -22.5q-34 0 -64 10t-52.5 29.5t-36 49t-13.5 68.5v327h84v-314q0 -27 8.5 -46
t23 -31.5t32 -18t35.5 -5.5q24 0 47 11t40 31t27.5 49.5t10.5 66.5v257h84v-472q-45 -29 -72 -54t-27 -51z" />
    <glyph glyph-name="Wcircumflex" unicode="&#x174;" horiz-adv-x="909" 
d="M429 900h59l114 -116l-42 -39l-102 98l-99 -98l-42 39zM892 700l-197 -700h-86q-34 123 -64 234q-13 47 -26 96t-24.5 94.5t-21 84t-15.5 65.5h-2q-6 -27 -16.5 -65.5t-23 -84t-26 -94.5t-26.5 -96q-31 -111 -66 -234h-86l-195 700h89q35 -126 65 -240q13 -48 26 -98.5
t25 -96.5t21.5 -85.5t15.5 -66.5h2q6 27 16 66.5t22 85.5t25.5 96.5t27.5 98.5q31 114 67 240h81q35 -131 66 -246q13 -49 26.5 -99.5t25 -96.5t21 -83.5t14.5 -61.5h2q5 24 15 61.5t22 83.5t25.5 96.5t27.5 99.5q32 115 68 246h79z" />
    <glyph glyph-name="wcircumflex" unicode="&#x175;" horiz-adv-x="724" 
d="M339 694h55l112 -129l-42 -37l-98 107l-99 -107l-41 37zM400 472q28 -91 53 -168q10 -33 20.5 -66.5t19 -62.5t15 -51.5t9.5 -34.5h2q3 15 9.5 39t15 54t18 63t19.5 65q23 76 49 162h78l-151 -472h-82q-28 89 -51 165q-10 32 -20 64.5t-18.5 60.5t-14.5 49.5t-9 32.5
q-4 -14 -13.5 -47t-22 -74.5t-26 -86t-25 -81t-19 -60l-7.5 -23.5h-82l-151 472h83q27 -88 50 -165q10 -33 19.5 -66t18 -62.5t14.5 -53t9 -36.5h2q5 17 15.5 52t23 78t26.5 87.5t25.5 81.5t19 60.5l7.5 23.5h71z" />
    <glyph glyph-name="Ycircumflex" unicode="&#x176;" horiz-adv-x="618" 
d="M282 900h59l114 -116l-42 -39l-102 98l-99 -98l-42 39zM265 307l-254 393h100l201 -315l202 315h93l-255 -393v-307h-87v307z" />
    <glyph glyph-name="ycircumflex" unicode="&#x177;" horiz-adv-x="481" 
d="M217 694h55l112 -129l-42 -37l-98 107l-99 -107l-41 37zM120 -200l82 202l-186 470h87q35 -90 64 -166q12 -32 24.5 -64.5t23 -60.5t18.5 -49t11 -31h2q3 10 10 31t17.5 49t23 60.5t24.5 64.5q29 76 63 166h81l-259 -672h-86z" />
    <glyph glyph-name="Ydieresis" unicode="&#x178;" horiz-adv-x="618" 
d="M356 820q0 23 15 37.5t38 14.5t38 -14.5t15 -37.5q0 -22 -15 -37.5t-38 -15.5t-38 15.5t-15 37.5zM164 820q0 23 15 37.5t38 14.5t38 -14.5t15 -37.5q0 -22 -15 -37.5t-38 -15.5t-38 15.5t-15 37.5zM265 307l-254 393h100l201 -315l202 315h93l-255 -393v-307h-87v307z
" />
    <glyph glyph-name="Zacute" unicode="&#x179;" horiz-adv-x="613" 
d="M438 855l-178 -107l-29 44l166 124zM56 700h512v-59l-416 -572h414v-69h-521v57l418 573h-407v70z" />
    <glyph glyph-name="zacute" unicode="&#x17a;" horiz-adv-x="439" 
d="M344 639l-178 -107l-29 44l166 124zM47 472h352v-51l-258 -355h258v-66h-359v54l256 352h-249v66z" />
    <glyph glyph-name="Zdotaccent" unicode="&#x17b;" horiz-adv-x="613" 
d="M259 819q0 24 15.5 39.5t40.5 15.5t40.5 -15.5t15.5 -39.5q0 -23 -15.5 -38.5t-40.5 -15.5t-40.5 15.5t-15.5 38.5zM56 700h512v-59l-416 -572h414v-69h-521v57l418 573h-407v70z" />
    <glyph glyph-name="zdotaccent" unicode="&#x17c;" horiz-adv-x="439" 
d="M172 603q0 25 15.5 40t39.5 15t39.5 -15t15.5 -40q0 -22 -15.5 -38t-39.5 -16t-39.5 16t-15.5 38zM47 472h352v-51l-258 -355h258v-66h-359v54l256 352h-249v66z" />
    <glyph glyph-name="Zcaron" unicode="&#x17d;" horiz-adv-x="613" 
d="M172 868l43 39l99 -98l101 98l42 -39l-113 -116h-60zM56 700h512v-59l-416 -572h414v-69h-521v57l418 573h-407v70z" />
    <glyph glyph-name="zcaron" unicode="&#x17e;" horiz-adv-x="439" 
d="M253 534h-55l-112 129l42 37l98 -107l99 107l41 -37zM47 472h352v-51l-258 -355h258v-66h-359v54l256 352h-249v66z" />
    <glyph glyph-name="florin" unicode="&#x192;" horiz-adv-x="500" 
d="M128 416h89l15 145q4 42 19 71t36 46.5t47 25.5t53 8q29 0 56.5 -8.5t43.5 -20.5l-44 -68q-10 9 -24.5 16.5t-34.5 7.5q-32 0 -49.5 -22.5t-21.5 -60.5l-15 -140h109v-62h-115l-37 -353q-5 -42 -20 -71t-36.5 -47t-47 -25.5t-51.5 -7.5q-29 0 -57 8.5t-43 20.5l44 68
q10 -9 24.5 -16.5t33.5 -7.5q30 0 48.5 20.5t22.5 56.5l37 354h-82v62z" />
    <glyph glyph-name="Scommaaccent" unicode="&#x218;" horiz-adv-x="623" 
d="M158 522q0 -27 8 -46t27.5 -33t51 -23.5t79.5 -17.5q58 -9 104 -24t77.5 -38.5t48.5 -57.5t17 -83q0 -47 -17.5 -86t-50 -66.5t-80 -43t-107.5 -15.5q-64 0 -112.5 16t-82 44.5t-51.5 66.5t-20 82l86 13q2 -28 12 -55.5t31 -49t54.5 -35t82.5 -13.5q80 0 121.5 36
t41.5 99q0 28 -9 49.5t-29.5 37.5t-54.5 26.5t-83 17.5q-115 16 -175 60t-60 131q0 46 17.5 82.5t49 62t76 39.5t97.5 14q105 0 169.5 -49t78.5 -135l-86 -22q-9 63 -47 99.5t-116 36.5q-77 0 -113 -33t-36 -87zM372 -123q0 -12 -3.5 -28t-12.5 -31t-25 -26.5t-42 -15.5
l-13 33q16 0 31 12.5t15 29.5v3q-1 -1 -2 -1h-7q-17 0 -31 13t-14 33q0 17 12 32.5t37 15.5q29 0 42 -21t13 -49z" />
    <glyph glyph-name="scommaaccent" unicode="&#x219;" horiz-adv-x="463" 
d="M133 349q0 -34 27 -49.5t83 -23.5q37 -6 70 -15t57.5 -25.5t38.5 -40.5t14 -60q0 -68 -51 -107.5t-141 -39.5q-87 0 -137 38t-58 110l83 11q5 -48 32 -71t81 -23q51 0 79 20t28 57q0 33 -27 49.5t-95 27.5q-90 14 -129 47.5t-39 90.5q0 34 14.5 60t39.5 43.5t57.5 26.5
t68.5 9q77 0 127.5 -35.5t58.5 -97.5l-83 -17q-5 41 -31 63.5t-75 22.5q-40 0 -66.5 -17.5t-26.5 -53.5zM289 -123q0 -12 -3.5 -28t-12.5 -31t-25 -26.5t-42 -15.5l-13 33q16 0 31 12.5t15 29.5v3q-1 -1 -2 -1h-7q-17 0 -31 13t-14 33q0 17 12 32.5t37 15.5q29 0 42 -21
t13 -49z" />
    <glyph glyph-name="dotlessj" unicode="&#x237;" horiz-adv-x="246" 
d="M166 -61q0 -41 -13 -69.5t-34 -46.5t-47.5 -26.5t-54.5 -8.5q-29 0 -54 7.5t-51 21.5l37 67q12 -8 27.5 -16t38.5 -8q35 0 51 23.5t16 60.5v528h84v-533z" />
    <glyph glyph-name="circumflex" unicode="&#x2c6;" 
d="M273 694h55l112 -129l-42 -37l-98 107l-99 -107l-41 37z" />
    <glyph glyph-name="caron" unicode="&#x2c7;" 
d="M327 534h-55l-112 129l42 37l98 -107l99 107l41 -37z" />
    <glyph glyph-name="breve" unicode="&#x2d8;" 
d="M213 673q5 -31 28.5 -53t58.5 -22t58.5 22t28.5 53l65 -20q-11 -49 -51.5 -80t-100.5 -31t-100.5 31t-51.5 80z" />
    <glyph glyph-name="dotaccent" unicode="&#x2d9;" 
d="M245 603q0 25 15.5 40t39.5 15t39.5 -15t15.5 -40q0 -22 -15.5 -38t-39.5 -16t-39.5 16t-15.5 38z" />
    <glyph glyph-name="ring" unicode="&#x2da;" 
d="M202 619q0 41 27 66.5t71 25.5t71 -25.5t27 -66.5q0 -39 -27 -66t-71 -27t-71 27t-27 66zM250 619q0 -20 14 -35.5t36 -15.5t36 15.5t14 35.5q0 21 -14 35.5t-36 14.5t-36 -14.5t-14 -35.5z" />
    <glyph glyph-name="ogonek" unicode="&#x2db;" 
d="M268 -104q0 -17 10.5 -28t31.5 -11q16 0 29 8t27 29l31 -31q-22 -31 -47 -44.5t-54 -13.5q-15 0 -31.5 4t-30 13.5t-22.5 25.5t-9 40q0 40 23.5 65t56.5 47h84q-56 -31 -77.5 -56t-21.5 -48z" />
    <glyph glyph-name="tilde" unicode="&#x2dc;" 
d="M232 661q25 0 44 -8t34.5 -17.5t29.5 -17.5t31 -8q16 0 27 7t19 16q9 10 14 23l43 -39q-10 -18 -25 -32q-13 -12 -33 -22t-49 -10q-26 0 -44 8t-33.5 17t-29.5 17t-31 8t-27.5 -7.5t-18.5 -15.5q-9 -10 -14 -22l-43 39q9 18 24 32q13 12 33 22t49 10z" />
    <glyph glyph-name="hungarumlaut" unicode="&#x2dd;" 
d="M495 640l-169 -107l-29 43l155 124zM297 640l-169 -107l-30 43l156 124z" />
    <glyph glyph-name="uni0312" unicode="&#x312;" 
d="M255 603q0 12 3.5 28t12.5 31t25 26.5t42 15.5l13 -33q-16 0 -31 -12.5t-15 -29.5v-3h2q1 0 3 0.5t4 0.5q17 0 31 -13t14 -33q0 -17 -12 -32.5t-37 -15.5q-29 0 -42 21t-13 49z" />
    <glyph glyph-name="pi" unicode="&#x3c0;" horiz-adv-x="572" 
d="M504 408h-65v-297q0 -35 12.5 -45.5t26.5 -10.5t24 4.5t18 9.5l20 -64q-11 -7 -30 -12t-45 -5q-21 0 -39.5 5t-32.5 18.5t-22.5 37.5t-8.5 62v297h-174v-408h-77v408h-65v64h458v-64z" />
    <glyph glyph-name="pi" unicode="&#x3d6;" horiz-adv-x="572" 
d="M504 408h-65v-297q0 -35 12.5 -45.5t26.5 -10.5t24 4.5t18 9.5l20 -64q-11 -7 -30 -12t-45 -5q-21 0 -39.5 5t-32.5 18.5t-22.5 37.5t-8.5 62v297h-174v-408h-77v408h-65v64h458v-64z" />
    <glyph glyph-name="Wgrave" unicode="&#x1e80;" horiz-adv-x="909" 
d="M341 855l41 61l166 -124l-29 -44zM892 700l-197 -700h-86q-34 123 -64 234q-13 47 -26 96t-24.5 94.5t-21 84t-15.5 65.5h-2q-6 -27 -16.5 -65.5t-23 -84t-26 -94.5t-26.5 -96q-31 -111 -66 -234h-86l-195 700h89q35 -126 65 -240q13 -48 26 -98.5t25 -96.5t21.5 -85.5
t15.5 -66.5h2q6 27 16 66.5t22 85.5t25.5 96.5t27.5 98.5q31 114 67 240h81q35 -131 66 -246q13 -49 26.5 -99.5t25 -96.5t21 -83.5t14.5 -61.5h2q5 24 15 61.5t22 83.5t25.5 96.5t27.5 99.5q32 115 68 246h79z" />
    <glyph glyph-name="wgrave" unicode="&#x1e81;" horiz-adv-x="724" 
d="M247 639l41 61l166 -124l-29 -44zM400 472q28 -91 53 -168q10 -33 20.5 -66.5t19 -62.5t15 -51.5t9.5 -34.5h2q3 15 9.5 39t15 54t18 63t19.5 65q23 76 49 162h78l-151 -472h-82q-28 89 -51 165q-10 32 -20 64.5t-18.5 60.5t-14.5 49.5t-9 32.5q-4 -14 -13.5 -47
t-22 -74.5t-26 -86t-25 -81t-19 -60l-7.5 -23.5h-82l-151 472h83q27 -88 50 -165q10 -33 19.5 -66t18 -62.5t14.5 -53t9 -36.5h2q5 17 15.5 52t23 78t26.5 87.5t25.5 81.5t19 60.5l7.5 23.5h71z" />
    <glyph glyph-name="Wacute" unicode="&#x1e82;" horiz-adv-x="909" 
d="M577 855l-178 -107l-29 44l166 124zM892 700l-197 -700h-86q-34 123 -64 234q-13 47 -26 96t-24.5 94.5t-21 84t-15.5 65.5h-2q-6 -27 -16.5 -65.5t-23 -84t-26 -94.5t-26.5 -96q-31 -111 -66 -234h-86l-195 700h89q35 -126 65 -240q13 -48 26 -98.5t25 -96.5t21.5 -85.5
t15.5 -66.5h2q6 27 16 66.5t22 85.5t25.5 96.5t27.5 98.5q31 114 67 240h81q35 -131 66 -246q13 -49 26.5 -99.5t25 -96.5t21 -83.5t14.5 -61.5h2q5 24 15 61.5t22 83.5t25.5 96.5t27.5 99.5q32 115 68 246h79z" />
    <glyph glyph-name="wacute" unicode="&#x1e83;" horiz-adv-x="724" 
d="M484 639l-178 -107l-29 44l166 124zM400 472q28 -91 53 -168q10 -33 20.5 -66.5t19 -62.5t15 -51.5t9.5 -34.5h2q3 15 9.5 39t15 54t18 63t19.5 65q23 76 49 162h78l-151 -472h-82q-28 89 -51 165q-10 32 -20 64.5t-18.5 60.5t-14.5 49.5t-9 32.5q-4 -14 -13.5 -47
t-22 -74.5t-26 -86t-25 -81t-19 -60l-7.5 -23.5h-82l-151 472h83q27 -88 50 -165q10 -33 19.5 -66t18 -62.5t14.5 -53t9 -36.5h2q5 17 15.5 52t23 78t26.5 87.5t25.5 81.5t19 60.5l7.5 23.5h71z" />
    <glyph glyph-name="Wdieresis" unicode="&#x1e84;" horiz-adv-x="909" 
d="M501 820q0 23 15 37.5t38 14.5t38 -14.5t15 -37.5q0 -22 -15 -37.5t-38 -15.5t-38 15.5t-15 37.5zM309 820q0 23 15 37.5t38 14.5t38 -14.5t15 -37.5q0 -22 -15 -37.5t-38 -15.5t-38 15.5t-15 37.5zM892 700l-197 -700h-86q-34 123 -64 234q-13 47 -26 96t-24.5 94.5
t-21 84t-15.5 65.5h-2q-6 -27 -16.5 -65.5t-23 -84t-26 -94.5t-26.5 -96q-31 -111 -66 -234h-86l-195 700h89q35 -126 65 -240q13 -48 26 -98.5t25 -96.5t21.5 -85.5t15.5 -66.5h2q6 27 16 66.5t22 85.5t25.5 96.5t27.5 98.5q31 114 67 240h81q35 -131 66 -246
q13 -49 26.5 -99.5t25 -96.5t21 -83.5t14.5 -61.5h2q5 24 15 61.5t22 83.5t25.5 96.5t27.5 99.5q32 115 68 246h79z" />
    <glyph glyph-name="wdieresis" unicode="&#x1e85;" horiz-adv-x="724" 
d="M409 602q0 23 15 37.5t38 14.5t38 -14.5t15 -37.5q0 -22 -15 -37.5t-38 -15.5t-38 15.5t-15 37.5zM217 602q0 23 15 37.5t38 14.5t38 -14.5t15 -37.5q0 -22 -15 -37.5t-38 -15.5t-38 15.5t-15 37.5zM400 472q28 -91 53 -168q10 -33 20.5 -66.5t19 -62.5t15 -51.5
t9.5 -34.5h2q3 15 9.5 39t15 54t18 63t19.5 65q23 76 49 162h78l-151 -472h-82q-28 89 -51 165q-10 32 -20 64.5t-18.5 60.5t-14.5 49.5t-9 32.5q-4 -14 -13.5 -47t-22 -74.5t-26 -86t-25 -81t-19 -60l-7.5 -23.5h-82l-151 472h83q27 -88 50 -165q10 -33 19.5 -66t18 -62.5
t14.5 -53t9 -36.5h2q5 17 15.5 52t23 78t26.5 87.5t25.5 81.5t19 60.5l7.5 23.5h71z" />
    <glyph glyph-name="figuredash" unicode="&#x2012;" 
d="M60 321h480v-67h-480v67z" />
    <glyph glyph-name="endash" unicode="&#x2013;" horiz-adv-x="500" 
d="M60 321h380v-67h-380v67z" />
    <glyph glyph-name="emdash" unicode="&#x2014;" horiz-adv-x="870" 
d="M60 321h750v-67h-750v67z" />
    <glyph glyph-name="uni2015" unicode="&#x2015;" horiz-adv-x="1200" 
d="M1140 321v-67h-1080v67h1080z" />
    <glyph glyph-name="doublebar" unicode="&#x2016;" horiz-adv-x="409" 
d="M241 797h73v-966h-73v966zM95 797h73v-966h-73v966z" />
    <glyph glyph-name="quoteleft" unicode="&#x2018;" horiz-adv-x="212" 
d="M45 581q0 17 4 37.5t15 39.5t30 34t50 21l15 -40q-20 -1 -37.5 -18.5t-17.5 -40.5v-6q4 1 11 1q20 0 36.5 -15.5t16.5 -39.5q0 -20 -14 -38t-43 -18q-35 0 -50.5 25t-15.5 58z" />
    <glyph glyph-name="quoteright" unicode="&#x2019;" horiz-adv-x="213" 
d="M168 629q0 -17 -4 -37.5t-15 -39.5t-30 -34t-50 -21l-15 40q20 1 37.5 18.5t17.5 40.5v6q-4 -1 -11 -1q-20 0 -36.5 15.5t-16.5 39.5q0 20 14 38t43 18q35 0 50.5 -25t15.5 -58z" />
    <glyph glyph-name="quotesinglbase" unicode="&#x201a;" horiz-adv-x="213" 
d="M168 24q0 -17 -4 -37.5t-15 -39.5t-30 -34t-50 -21l-15 40q20 1 37.5 18.5t17.5 40.5v6q-1 -1 -3 -1h-8q-20 0 -36.5 15.5t-16.5 39.5q0 20 14 38t43 18q35 0 50.5 -25t15.5 -58z" />
    <glyph glyph-name="reversequoteleft" unicode="&#x201b;" horiz-adv-x="212" 
d="M45 629q0 33 15.5 58t50.5 25q29 0 43 -18t14 -38q0 -24 -16.5 -39.5t-36.5 -15.5q-7 0 -11 1v-6q0 -23 17.5 -40.5t37.5 -18.5l-15 -40q-31 6 -50 21t-30 34t-15 39.5t-4 37.5z" />
    <glyph glyph-name="quotedblleft" unicode="&#x201c;" horiz-adv-x="369" 
d="M202 581q0 17 4 37.5t15 39.5t30 34t50 21l15 -40q-20 -1 -37.5 -18.5t-17.5 -40.5v-6q4 1 11 1q20 0 36.5 -15.5t16.5 -39.5q0 -20 -14 -38t-43 -18q-35 0 -50.5 25t-15.5 58zM45 581q0 17 4 37.5t15 39.5t30 34t50 21l15 -40q-20 -1 -37.5 -18.5t-17.5 -40.5v-6
q4 1 11 1q20 0 36.5 -15.5t16.5 -39.5q0 -20 -14 -38t-43 -18q-35 0 -50.5 25t-15.5 58z" />
    <glyph glyph-name="quotedblright" unicode="&#x201d;" horiz-adv-x="370" 
d="M325 629q0 -17 -4 -37.5t-15 -39.5t-30 -34t-50 -21l-15 40q20 1 37.5 18.5t17.5 40.5v6q-4 -1 -11 -1q-20 0 -36.5 15.5t-16.5 39.5q0 20 14 38t43 18q35 0 50.5 -25t15.5 -58zM168 629q0 -17 -4 -37.5t-15 -39.5t-30 -34t-50 -21l-15 40q20 1 37.5 18.5t17.5 40.5v6
q-4 -1 -11 -1q-20 0 -36.5 15.5t-16.5 39.5q0 20 14 38t43 18q35 0 50.5 -25t15.5 -58z" />
    <glyph glyph-name="quotedblbase" unicode="&#x201e;" horiz-adv-x="370" 
d="M325 24q0 -17 -4 -37.5t-15 -39.5t-30 -34t-50 -21l-15 40q20 1 37.5 18.5t17.5 40.5v6q-1 -1 -3 -1h-8q-20 0 -36.5 15.5t-16.5 39.5q0 20 14 38t43 18q35 0 50.5 -25t15.5 -58zM168 24q0 -17 -4 -37.5t-15 -39.5t-30 -34t-50 -21l-15 40q20 1 37.5 18.5t17.5 40.5v6
q-1 -1 -3 -1h-8q-20 0 -36.5 15.5t-16.5 39.5q0 20 14 38t43 18q35 0 50.5 -25t15.5 -58z" />
    <glyph glyph-name="reversequotedblleft" unicode="&#x201f;" horiz-adv-x="369" 
d="M202 629q0 33 15.5 58t50.5 25q29 0 43 -18t14 -38q0 -24 -16.5 -39.5t-36.5 -15.5q-7 0 -11 1v-6q0 -23 17.5 -40.5t37.5 -18.5l-15 -40q-31 6 -50 21t-30 34t-15 39.5t-4 37.5zM45 629q0 33 15.5 58t50.5 25q29 0 43 -18t14 -38q0 -24 -16.5 -39.5t-36.5 -15.5
q-7 0 -11 1v-6q0 -23 17.5 -40.5t37.5 -18.5l-15 -40q-31 6 -50 21t-30 34t-15 39.5t-4 37.5z" />
    <glyph glyph-name="dagger" unicode="&#x2020;" horiz-adv-x="475" 
d="M30 481h167v219h81v-219h167v-71h-167v-528h-81v528h-167v71z" />
    <glyph glyph-name="daggerdbl" unicode="&#x2021;" horiz-adv-x="475" 
d="M30 190h167v228h-167v71h167v211h81v-211h167v-71h-167v-228h167v-71h-167v-237h-81v237h-167v71z" />
    <glyph glyph-name="bullet" unicode="&#x2022;" horiz-adv-x="370" 
d="M65 326q0 25 9 46.5t25 37.5t38 24.5t48 8.5t48 -8.5t38 -24.5t25 -37.5t9 -46.5q0 -50 -33.5 -82.5t-86.5 -32.5t-86.5 32.5t-33.5 82.5z" />
    <glyph glyph-name="ellipsis" unicode="&#x2026;" horiz-adv-x="794" 
d="M612 47q0 24 15.5 39.5t40.5 15.5t40.5 -15.5t15.5 -39.5q0 -23 -15.5 -38.5t-40.5 -15.5t-40.5 15.5t-15.5 38.5zM341 47q0 24 15.5 39.5t40.5 15.5t40.5 -15.5t15.5 -39.5q0 -23 -15.5 -38.5t-40.5 -15.5t-40.5 15.5t-15.5 38.5zM70 47q0 24 15.5 39.5t40.5 15.5
t40.5 -15.5t15.5 -39.5q0 -23 -15.5 -38.5t-40.5 -15.5t-40.5 15.5t-15.5 38.5z" />
    <glyph glyph-name="perthousand" unicode="&#x2030;" horiz-adv-x="1229" 
d="M170 -12l436 724h75l-439 -724h-72zM362 517q0 -29 -8 -60.5t-26.5 -58.5t-49.5 -44.5t-77 -17.5t-77 17.5t-49.5 44.5t-26.5 58.5t-8 60.5q0 28 8 60t26.5 59t49.5 44.5t77 17.5t77 -17.5t49.5 -44.5t26.5 -59t8 -60zM112 517q0 -56 22 -89.5t67 -33.5t67 33.5t22 89.5
t-22 89.5t-67 33.5t-67 -33.5t-22 -89.5zM1189 169q0 -29 -8 -60.5t-26.5 -58.5t-49.5 -44.5t-77 -17.5t-77 17.5t-49.5 44.5t-26.5 58.5t-8 60.5q0 28 8 60t26.5 59t49.5 44.5t77 17.5t77 -17.5t49.5 -44.5t26.5 -59t8 -60zM801 169q0 -29 -8 -60.5t-26.5 -58.5
t-49.5 -44.5t-77 -17.5t-77 17.5t-49.5 44.5t-26.5 58.5t-8 60.5q0 28 8 60t26.5 59t49.5 44.5t77 17.5t77 -17.5t49.5 -44.5t26.5 -59t8 -60zM939 169q0 -56 22 -89.5t67 -33.5t67 33.5t22 89.5t-22 89.5t-67 33.5t-67 -33.5t-22 -89.5zM551 169q0 -56 22 -89.5t67 -33.5
t67 33.5t22 89.5t-22 89.5t-67 33.5t-67 -33.5t-22 -89.5z" />
    <glyph glyph-name="guilsinglleft" unicode="&#x2039;" horiz-adv-x="294" 
d="M35 256l169 212l50 -38l-128 -174l128 -173l-50 -38z" />
    <glyph glyph-name="guilsinglright" unicode="&#x203a;" horiz-adv-x="294" 
d="M259 256l-169 -211l-50 38l128 173l-128 174l50 38z" />
    <glyph glyph-name="fraction" unicode="&#x2044;" horiz-adv-x="251" 
d="M-130 -12l436 724h75l-439 -724h-72z" />
    <glyph glyph-name="uni2070" unicode="&#x2070;" horiz-adv-x="396" 
d="M48 512q0 40 8 75.5t25.5 62.5t46 42.5t70.5 15.5t70.5 -15.5t46 -42.5t25.5 -62.5t8 -75.5t-8 -75.5t-25.5 -62.5t-46 -42.5t-70.5 -15.5t-70.5 15.5t-46 42.5t-25.5 62.5t-8 75.5zM276 512q0 28 -4 53.5t-13.5 44.5t-24.5 30t-36 11t-36 -11t-24 -30t-13.5 -44.5
t-4.5 -53.5t4.5 -53.5t13.5 -44.5t24 -30t36 -11t36 11t24.5 30t13.5 44.5t4 53.5z" />
    <glyph glyph-name="uni2074" unicode="&#x2074;" horiz-adv-x="369" 
d="M30 458l163 240h85v-239h63l-10 -54h-53v-81h-67v81h-181v53zM211 459v173h-1l-118 -173h119z" />
    <glyph glyph-name="uni2075" unicode="&#x2075;" horiz-adv-x="362" 
d="M109 430q2 -23 19.5 -40.5t49.5 -17.5q33 0 53 21t20 53q0 29 -16.5 50.5t-51.5 21.5q-22 0 -38.5 -9.5t-29.5 -26.5l-59 11l23 205h221l-10 -57h-159l-13 -98q11 13 29.5 21.5t47.5 8.5q32 0 56 -11t39.5 -29t23.5 -40.5t8 -45.5q0 -27 -10 -51t-28.5 -41.5t-45.5 -28
t-61 -10.5q-32 0 -56.5 9t-41.5 23t-25.5 31t-9.5 33z" />
    <glyph glyph-name="uni2076" unicode="&#x2076;" horiz-adv-x="374" 
d="M202 653q-23 0 -39.5 -10.5t-27 -28t-16.5 -40t-7 -47.5q11 18 33.5 32t60.5 14q33 0 57 -11t40.5 -29t24.5 -41t8 -47q0 -26 -9 -49.5t-26.5 -41t-43.5 -28t-60 -10.5q-72 0 -110.5 45t-38.5 145t40 151t114 51q29 0 51 -7.5t37 -20t24.5 -28.5t13.5 -33l-67 -9
q-5 14 -16.5 28.5t-42.5 14.5zM196 519q-34 0 -53.5 -21t-19.5 -51q0 -35 19.5 -55.5t53.5 -20.5q30 0 50.5 19.5t20.5 54.5q0 32 -19.5 53t-51.5 21z" />
    <glyph glyph-name="uni2077" unicode="&#x2077;" horiz-adv-x="322" 
d="M37 698h259v-50q-18 -21 -40.5 -52.5t-43 -73t-35 -91.5t-14.5 -107h-70q0 54 13 102.5t32.5 89t41.5 72.5t40 53h-194z" />
    <glyph glyph-name="uni2078" unicode="&#x2078;" horiz-adv-x="370" 
d="M185 316q-35 0 -61.5 9.5t-44 25t-26.5 35.5t-9 40q0 38 22.5 62.5t52.5 31.5q-26 11 -44.5 32t-18.5 53q0 19 8.5 38t24.5 33t40 23t56 9q31 0 55.5 -9t40.5 -23t24.5 -33t8.5 -38q0 -32 -18.5 -53t-44.5 -32q30 -7 52.5 -31.5t22.5 -62.5q0 -20 -9 -40t-26.5 -35.5
t-44 -25t-61.5 -9.5zM124 600q0 -26 17 -40t44 -14t44 14t17 40t-17.5 39.5t-43.5 13.5t-43.5 -13.5t-17.5 -39.5zM185 371q37 0 54 17.5t17 42.5q0 26 -19 42.5t-52 16.5t-52 -16.5t-19 -42.5q0 -25 17 -42.5t54 -17.5z" />
    <glyph glyph-name="uni2079" unicode="&#x2079;" horiz-adv-x="374" 
d="M172 371q23 0 39.5 10.5t27 28t16 40t7.5 47.5q-11 -18 -33.5 -32t-60.5 -14q-33 0 -57 11t-40.5 29t-24.5 41t-8 47q0 26 9 49.5t26.5 41t43.5 28t60 10.5q72 0 110.5 -45t38.5 -145t-40 -151t-114 -51q-29 0 -51 7.5t-37 20t-24.5 28.5t-13.5 33l67 9q5 -14 16.5 -28.5
t42.5 -14.5zM178 505q34 0 53.5 21t19.5 51q0 35 -19.5 55.5t-53.5 20.5q-30 0 -50.5 -19.5t-20.5 -54.5q0 -32 19.5 -53t51.5 -21z" />
    <glyph glyph-name="uni207A" unicode="&#x207a;" horiz-adv-x="371" 
d="M40 553h114v115h63v-115h114v-63h-114v-118h-63v118h-114v63z" />
    <glyph glyph-name="uni207B" unicode="&#x207b;" horiz-adv-x="379" 
d="M50 553h279v-63h-279v63z" />
    <glyph glyph-name="uni207C" unicode="&#x207c;" horiz-adv-x="379" 
d="M50 615h279v-62h-279v62zM50 492h279v-62h-279v62z" />
    <glyph glyph-name="uni207D" unicode="&#x207d;" horiz-adv-x="225" 
d="M50 501q0 36 8.5 70.5t24.5 64.5t38 54.5t48 39.5l36 -30q-47 -38 -67 -88.5t-20 -110.5t20 -110.5t67 -88.5l-36 -30q-26 15 -48 39.5t-38 54.5t-24.5 64.5t-8.5 70.5z" />
    <glyph glyph-name="uni207E" unicode="&#x207e;" horiz-adv-x="225" 
d="M175 501q0 -36 -9 -70.5t-24.5 -64.5t-37.5 -54.5t-48 -39.5l-36 30q47 38 67 88.5t20 110.5t-20 110.5t-67 88.5l36 30q26 -15 48 -39.5t37.5 -54.5t24.5 -64.5t9 -70.5z" />
    <glyph glyph-name="n.superior" unicode="&#x207f;" horiz-adv-x="372" 
d="M56 588h61v-45q14 24 37 38.5t58 14.5q44 0 75.5 -25t31.5 -75v-208h-64v194q0 34 -19 48t-41 14q-29 0 -52 -24.5t-23 -70.5v-161h-64v300z" />
    <glyph glyph-name="uni2080" unicode="&#x2080;" horiz-adv-x="396" 
d="M48 188q0 40 8 75.5t25.5 62.5t46 42.5t70.5 15.5t70.5 -15.5t46 -42.5t25.5 -62.5t8 -75.5t-8 -75.5t-25.5 -62.5t-46 -42.5t-70.5 -15.5t-70.5 15.5t-46 42.5t-25.5 62.5t-8 75.5zM276 188q0 28 -4 53.5t-13.5 44.5t-24.5 30t-36 11t-36 -11t-24 -30t-13.5 -44.5
t-4.5 -53.5t4.5 -53.5t13.5 -44.5t24 -30t36 -11t36 11t24.5 30t13.5 44.5t4 53.5z" />
    <glyph glyph-name="uni2081" unicode="&#x2081;" horiz-adv-x="258" 
d="M183 376v-376h-71v302q-12 -9 -32.5 -15t-44.5 -7l-13 56q32 4 58.5 13.5t40.5 26.5h62z" />
    <glyph glyph-name="uni2082" unicode="&#x2082;" horiz-adv-x="363" 
d="M47 53q27 23 53 44q22 18 44.5 36.5t36.5 31.5q27 25 43 49.5t16 53.5q0 27 -16 43.5t-42 16.5q-17 0 -29.5 -7t-21 -17.5t-13.5 -24.5t-6 -27l-68 11q10 52 43 86.5t96 34.5q33 0 57 -10t40 -26t24 -36.5t8 -42.5q0 -40 -22.5 -73.5t-57.5 -65.5q-19 -17 -45.5 -37.5
t-47.5 -35.5h176v-57h-268v53z" />
    <glyph glyph-name="uni2083" unicode="&#x2083;" horiz-adv-x="361" 
d="M48 290q4 16 13 32.5t24.5 30t38 22.5t53.5 9q62 0 95.5 -31.5t33.5 -74.5q0 -32 -17 -53t-45 -31q32 -6 51.5 -31.5t19.5 -57.5q0 -21 -8.5 -41t-25.5 -35.5t-43 -25.5t-61 -10q-37 0 -63 10.5t-42.5 26t-24 32.5t-7.5 30q6 2 15 4.5t18.5 5t18 5t14.5 4.5q1 -9 5 -20
t12 -20.5t21 -16t33 -6.5q38 0 52.5 18.5t14.5 39.5q0 26 -21 42.5t-60 16.5q-5 0 -8 -0.5t-5 -0.5h-5v59q2 -1 5 -1h12q37 0 55 15.5t18 39.5q0 25 -17 38.5t-42 13.5q-28 0 -44 -16.5t-18 -38.5z" />
    <glyph glyph-name="uni2084" unicode="&#x2084;" horiz-adv-x="369" 
d="M30 134l163 240h85v-239h63l-10 -54h-53v-81h-67v81h-181v53zM211 135v173h-1l-118 -173h119z" />
    <glyph glyph-name="uni2085" unicode="&#x2085;" horiz-adv-x="362" 
d="M109 106q2 -23 19.5 -40.5t49.5 -17.5q33 0 53 21t20 53q0 29 -16.5 50.5t-51.5 21.5q-22 0 -38.5 -9.5t-29.5 -26.5l-59 11l23 205h221l-10 -57h-159l-13 -98q11 13 29.5 21.5t47.5 8.5q32 0 56 -11t39.5 -29t23.5 -40.5t8 -45.5q0 -27 -10 -51t-28.5 -41.5t-45.5 -28
t-61 -10.5q-32 0 -56.5 9t-41.5 23t-25.5 31t-9.5 33z" />
    <glyph glyph-name="uni2086" unicode="&#x2086;" horiz-adv-x="374" 
d="M202 329q-23 0 -39.5 -10.5t-27 -28t-16.5 -40t-7 -47.5q11 18 33.5 32t60.5 14q33 0 57 -11t40.5 -29t24.5 -41t8 -47q0 -26 -9 -49.5t-26.5 -41t-43.5 -28t-60 -10.5q-72 0 -110.5 45t-38.5 145t40 151t114 51q29 0 51 -7.5t37 -20t24.5 -28.5t13.5 -33l-67 -9
q-5 14 -16.5 28.5t-42.5 14.5zM196 195q-34 0 -53.5 -21t-19.5 -51q0 -35 19.5 -55.5t53.5 -20.5q30 0 50.5 19.5t20.5 54.5q0 32 -19.5 53t-51.5 21z" />
    <glyph glyph-name="uni2087" unicode="&#x2087;" horiz-adv-x="322" 
d="M37 374h259v-50q-18 -21 -40.5 -52.5t-43 -73t-35 -91.5t-14.5 -107h-70q0 54 13 102.5t32.5 89t41.5 72.5t40 53h-194z" />
    <glyph glyph-name="uni2088" unicode="&#x2088;" horiz-adv-x="370" 
d="M185 -8q-35 0 -61.5 9.5t-44 25t-26.5 35.5t-9 40q0 38 22.5 62.5t52.5 31.5q-26 11 -44.5 32t-18.5 53q0 19 8.5 38t24.5 33t40 23t56 9q31 0 55.5 -9t40.5 -23t24.5 -33t8.5 -38q0 -32 -18.5 -53t-44.5 -32q30 -7 52.5 -31.5t22.5 -62.5q0 -20 -9 -40t-26.5 -35.5
t-44 -25t-61.5 -9.5zM124 276q0 -26 17 -40t44 -14t44 14t17 40t-17.5 39.5t-43.5 13.5t-43.5 -13.5t-17.5 -39.5zM185 47q37 0 54 17.5t17 42.5q0 26 -19 42.5t-52 16.5t-52 -16.5t-19 -42.5q0 -25 17 -42.5t54 -17.5z" />
    <glyph glyph-name="uni2089" unicode="&#x2089;" horiz-adv-x="374" 
d="M172 47q23 0 39.5 10.5t27 28t16 40t7.5 47.5q-11 -18 -33.5 -32t-60.5 -14q-33 0 -57 11t-40.5 29t-24.5 41t-8 47q0 26 9 49.5t26.5 41t43.5 28t60 10.5q72 0 110.5 -45t38.5 -145t-40 -151t-114 -51q-29 0 -51 7.5t-37 20t-24.5 28.5t-13.5 33l67 9q5 -14 16.5 -28.5
t42.5 -14.5zM178 181q34 0 53.5 21t19.5 51q0 35 -19.5 55.5t-53.5 20.5q-30 0 -50.5 -19.5t-20.5 -54.5q0 -32 19.5 -53t51.5 -21z" />
    <glyph glyph-name="uni208A" unicode="&#x208a;" horiz-adv-x="371" 
d="M40 229h114v115h63v-115h114v-63h-114v-118h-63v118h-114v63z" />
    <glyph glyph-name="uni208B" unicode="&#x208b;" horiz-adv-x="379" 
d="M50 229h279v-63h-279v63z" />
    <glyph glyph-name="uni208C" unicode="&#x208c;" horiz-adv-x="379" 
d="M50 291h279v-62h-279v62zM50 168h279v-62h-279v62z" />
    <glyph glyph-name="uni208D" unicode="&#x208d;" horiz-adv-x="225" 
d="M50 177q0 36 8.5 70.5t24.5 64.5t38 54.5t48 39.5l36 -30q-47 -38 -67 -88.5t-20 -110.5t20 -110.5t67 -88.5l-36 -30q-26 15 -48 39.5t-38 54.5t-24.5 64.5t-8.5 70.5z" />
    <glyph glyph-name="uni208E" unicode="&#x208e;" horiz-adv-x="225" 
d="M175 177q0 -36 -9 -70.5t-24.5 -64.5t-37.5 -54.5t-48 -39.5l-36 30q47 38 67 88.5t20 110.5t-20 110.5t-67 88.5l36 30q26 -15 48 -39.5t37.5 -54.5t24.5 -64.5t9 -70.5z" />
    <glyph glyph-name="Euro" unicode="&#x20ac;" horiz-adv-x="630" 
d="M91 339v19.5t1 19.5h-62v57h69q11 57 35 105t60.5 83.5t86 55t110.5 19.5q76 0 126 -28.5t82 -71.5l-62 -46q-24 34 -59 56t-87 22q-76 0 -132 -50.5t-75 -144.5h261v-57h-268q-1 -8 -1 -15.5v-15.5v-18t1 -17h268v-57h-261q20 -96 74.5 -147.5t132.5 -51.5q50 0 85 21
t62 58l62 -48q-36 -44 -84.5 -71.5t-124.5 -27.5q-62 0 -112 19.5t-87 54.5t-61 84.5t-34 108.5h-67v57h62q-1 7 -1 13.5v13.5z" />
    <glyph glyph-name="servicemark" unicode="&#x2120;" horiz-adv-x="716" 
d="M118 626q0 -20 17.5 -28.5t61.5 -16.5q18 -3 33.5 -9t27.5 -16t19 -24t7 -34q0 -24 -9.5 -41t-25.5 -28.5t-37 -17t-45 -5.5q-54 0 -85 22t-36 59l63 10q3 -21 18.5 -31.5t40.5 -10.5q6 0 15 1t17.5 4.5t14 11.5t5.5 22q0 18 -18 26.5t-65 17.5q-45 9 -64 29.5t-19 52.5
q0 44 32 64.5t78 20.5q43 0 74.5 -18.5t39.5 -56.5l-60 -14q-13 41 -55 41q-45 0 -45 -31zM471 411q-5 16 -15 44t-21 59.5t-21 61t-15 49.5h-1v-214h-56v289h81q20 -55 36 -101q7 -20 13.5 -39t12 -35.5t9.5 -29t6 -17.5q1 5 5 17.5t9.5 29t12 35.5t12.5 39q15 46 34 101
h80v-289h-54v214h-1q-5 -18 -15.5 -49.5t-21.5 -63.5t-21 -60.5t-14 -40.5h-55z" />
    <glyph glyph-name="trademark" unicode="&#x2122;" horiz-adv-x="689" 
d="M444 411q-5 16 -15 44t-21 59.5t-21 61t-15 49.5h-1v-214h-56v289h81q20 -55 36 -101q7 -20 13.5 -39t12 -35.5t9.5 -29t6 -17.5q1 5 5 17.5t9.5 29t12 35.5t12.5 39q15 46 34 101h80v-289h-54v214h-1q-5 -18 -15.5 -49.5t-21.5 -63.5t-21 -60.5t-14 -40.5h-55zM31 700
h227v-48h-83v-241h-61v241h-83v48z" />
    <glyph glyph-name="estimated" unicode="&#x212e;" horiz-adv-x="770" 
d="M694 164q-20 -42 -47.5 -75t-65 -56t-85 -35t-108.5 -12q-83 0 -146.5 26.5t-106 74.5t-64 115t-21.5 149q0 90 24.5 157.5t68.5 113.5t106.5 69t137.5 23q85 0 148 -28.5t104 -77.5t61 -115.5t20 -141.5v-28h-553q3 -63 18 -114.5t42.5 -87.5t68 -55.5t93.5 -19.5
q50 0 87.5 12t65 32t46 47t29.5 57zM388 654q-57 0 -97 -20t-66 -56t-40 -85.5t-18 -108.5h435q-4 61 -19 110.5t-41 85t-64.5 55t-89.5 19.5z" />
    <glyph glyph-name="uni2153" unicode="&#x2153;" horiz-adv-x="756" 
d="M87 -12l436 724h75l-439 -724h-72zM183 700v-376h-71v302q-12 -9 -32.5 -15t-44.5 -7l-13 56q32 4 58.5 13.5t40.5 26.5h62zM443 290q4 16 13 32.5t24.5 30t38 22.5t53.5 9q62 0 95.5 -31.5t33.5 -74.5q0 -32 -17 -53t-45 -31q32 -6 51.5 -31.5t19.5 -57.5
q0 -21 -8.5 -41t-25.5 -35.5t-43 -25.5t-61 -10q-37 0 -63 10.5t-42.5 26t-24 32.5t-7.5 30q6 2 15 4.5t18.5 5t18 5t14.5 4.5q1 -9 5 -20t12 -20.5t21 -16t33 -6.5q38 0 52.5 18.5t14.5 39.5q0 26 -21 42.5t-60 16.5q-5 0 -8 -0.5t-5 -0.5h-5v59q2 -1 5 -1h12q37 0 55 15.5
t18 39.5q0 25 -17 38.5t-42 13.5q-28 0 -44 -16.5t-18 -38.5z" />
    <glyph glyph-name="uni2154" unicode="&#x2154;" horiz-adv-x="848" 
d="M179 -12l436 724h75l-439 -724h-72zM47 377q27 23 53 44q22 18 44.5 36.5t36.5 31.5q27 25 43 49.5t16 53.5q0 27 -16 43.5t-42 16.5q-17 0 -29.5 -7t-21 -17.5t-13.5 -24.5t-6 -27l-68 11q10 52 43 86.5t96 34.5q33 0 57 -10t40 -26t24 -36.5t8 -42.5q0 -40 -22.5 -73.5
t-57.5 -65.5q-19 -17 -45.5 -37.5t-47.5 -35.5h176v-57h-268v53zM535 290q4 16 13 32.5t24.5 30t38 22.5t53.5 9q62 0 95.5 -31.5t33.5 -74.5q0 -32 -17 -53t-45 -31q32 -6 51.5 -31.5t19.5 -57.5q0 -21 -8.5 -41t-25.5 -35.5t-43 -25.5t-61 -10q-37 0 -63 10.5t-42.5 26
t-24 32.5t-7.5 30q6 2 15 4.5t18.5 5t18 5t14.5 4.5q1 -9 5 -20t12 -20.5t21 -16t33 -6.5q38 0 52.5 18.5t14.5 39.5q0 26 -21 42.5t-60 16.5q-5 0 -8 -0.5t-5 -0.5h-5v59q2 -1 5 -1h12q37 0 55 15.5t18 39.5q0 25 -17 38.5t-42 13.5q-28 0 -44 -16.5t-18 -38.5z" />
    <glyph glyph-name="uni2155" unicode="&#x2155;" horiz-adv-x="759" 
d="M87 -12l436 724h75l-439 -724h-72zM183 700v-376h-71v302q-12 -9 -32.5 -15t-44.5 -7l-13 56q32 4 58.5 13.5t40.5 26.5h62zM506 106q2 -23 19.5 -40.5t49.5 -17.5q33 0 53 21t20 53q0 29 -16.5 50.5t-51.5 21.5q-22 0 -38.5 -9.5t-29.5 -26.5l-59 11l23 205h221l-10 -57
h-159l-13 -98q11 13 29.5 21.5t47.5 8.5q32 0 56 -11t39.5 -29t23.5 -40.5t8 -45.5q0 -27 -10 -51t-28.5 -41.5t-45.5 -28t-61 -10.5q-32 0 -56.5 9t-41.5 23t-25.5 31t-9.5 33z" />
    <glyph glyph-name="uni2156" unicode="&#x2156;" horiz-adv-x="851" 
d="M179 -12l436 724h75l-439 -724h-72zM47 377q27 23 53 44q22 18 44.5 36.5t36.5 31.5q27 25 43 49.5t16 53.5q0 27 -16 43.5t-42 16.5q-17 0 -29.5 -7t-21 -17.5t-13.5 -24.5t-6 -27l-68 11q10 52 43 86.5t96 34.5q33 0 57 -10t40 -26t24 -36.5t8 -42.5q0 -40 -22.5 -73.5
t-57.5 -65.5q-19 -17 -45.5 -37.5t-47.5 -35.5h176v-57h-268v53zM598 106q2 -23 19.5 -40.5t49.5 -17.5q33 0 53 21t20 53q0 29 -16.5 50.5t-51.5 21.5q-22 0 -38.5 -9.5t-29.5 -26.5l-59 11l23 205h221l-10 -57h-159l-13 -98q11 13 29.5 21.5t47.5 8.5q32 0 56 -11
t39.5 -29t23.5 -40.5t8 -45.5q0 -27 -10 -51t-28.5 -41.5t-45.5 -28t-61 -10.5q-32 0 -56.5 9t-41.5 23t-25.5 31t-9.5 33z" />
    <glyph glyph-name="uni2157" unicode="&#x2157;" horiz-adv-x="838" 
d="M166 -12l436 724h75l-439 -724h-72zM48 614q4 16 13 32.5t24.5 30t38 22.5t53.5 9q62 0 95.5 -31.5t33.5 -74.5q0 -32 -17 -53t-45 -31q32 -6 51.5 -31.5t19.5 -57.5q0 -21 -8.5 -41t-25.5 -35.5t-43 -25.5t-61 -10q-37 0 -63 10.5t-42.5 26t-24 32.5t-7.5 30q6 2 15 4.5
t18.5 5t18 5t14.5 4.5q1 -9 5 -20t12 -20.5t21 -16t33 -6.5q38 0 52.5 18.5t14.5 39.5q0 26 -21 42.5t-60 16.5q-5 0 -8 -0.5t-5 -0.5h-5v59q2 -1 5 -1h12q37 0 55 15.5t18 39.5q0 25 -17 38.5t-42 13.5q-28 0 -44 -16.5t-18 -38.5zM585 106q2 -23 19.5 -40.5t49.5 -17.5
q33 0 53 21t20 53q0 29 -16.5 50.5t-51.5 21.5q-22 0 -38.5 -9.5t-29.5 -26.5l-59 11l23 205h221l-10 -57h-159l-13 -98q11 13 29.5 21.5t47.5 8.5q32 0 56 -11t39.5 -29t23.5 -40.5t8 -45.5q0 -27 -10 -51t-28.5 -41.5t-45.5 -28t-61 -10.5q-32 0 -56.5 9t-41.5 23
t-25.5 31t-9.5 33z" />
    <glyph glyph-name="uni2158" unicode="&#x2158;" horiz-adv-x="861" 
d="M189 -12l436 724h75l-439 -724h-72zM30 458l163 240h85v-239h63l-10 -54h-53v-81h-67v81h-181v53zM211 459v173h-1l-118 -173h119zM608 106q2 -23 19.5 -40.5t49.5 -17.5q33 0 53 21t20 53q0 29 -16.5 50.5t-51.5 21.5q-22 0 -38.5 -9.5t-29.5 -26.5l-59 11l23 205h221
l-10 -57h-159l-13 -98q11 13 29.5 21.5t47.5 8.5q32 0 56 -11t39.5 -29t23.5 -40.5t8 -45.5q0 -27 -10 -51t-28.5 -41.5t-45.5 -28t-61 -10.5q-32 0 -56.5 9t-41.5 23t-25.5 31t-9.5 33z" />
    <glyph glyph-name="uni2159" unicode="&#x2159;" horiz-adv-x="756" 
d="M87 -12l436 724h75l-439 -724h-72zM183 700v-376h-71v302q-12 -9 -32.5 -15t-44.5 -7l-13 56q32 4 58.5 13.5t40.5 26.5h62zM584 329q-23 0 -39.5 -10.5t-27 -28t-16.5 -40t-7 -47.5q11 18 33.5 32t60.5 14q33 0 57 -11t40.5 -29t24.5 -41t8 -47q0 -26 -9 -49.5
t-26.5 -41t-43.5 -28t-60 -10.5q-72 0 -110.5 45t-38.5 145t40 151t114 51q29 0 51 -7.5t37 -20t24.5 -28.5t13.5 -33l-67 -9q-5 14 -16.5 28.5t-42.5 14.5zM578 195q-34 0 -53.5 -21t-19.5 -51q0 -35 19.5 -55.5t53.5 -20.5q30 0 50.5 19.5t20.5 54.5q0 32 -19.5 53
t-51.5 21z" />
    <glyph glyph-name="uni215A" unicode="&#x215a;" horiz-adv-x="833" 
d="M164 -12l436 724h75l-439 -724h-72zM109 430q2 -23 19.5 -40.5t49.5 -17.5q33 0 53 21t20 53q0 29 -16.5 50.5t-51.5 21.5q-22 0 -38.5 -9.5t-29.5 -26.5l-59 11l23 205h221l-10 -57h-159l-13 -98q11 13 29.5 21.5t47.5 8.5q32 0 56 -11t39.5 -29t23.5 -40.5t8 -45.5
q0 -27 -10 -51t-28.5 -41.5t-45.5 -28t-61 -10.5q-32 0 -56.5 9t-41.5 23t-25.5 31t-9.5 33zM661 329q-23 0 -39.5 -10.5t-27 -28t-16.5 -40t-7 -47.5q11 18 33.5 32t60.5 14q33 0 57 -11t40.5 -29t24.5 -41t8 -47q0 -26 -9 -49.5t-26.5 -41t-43.5 -28t-60 -10.5
q-72 0 -110.5 45t-38.5 145t40 151t114 51q29 0 51 -7.5t37 -20t24.5 -28.5t13.5 -33l-67 -9q-5 14 -16.5 28.5t-42.5 14.5zM655 195q-34 0 -53.5 -21t-19.5 -51q0 -35 19.5 -55.5t53.5 -20.5q30 0 50.5 19.5t20.5 54.5q0 32 -19.5 53t-51.5 21z" />
    <glyph glyph-name="uni215B" unicode="&#x215b;" horiz-adv-x="761" 
d="M87 -12l436 724h75l-439 -724h-72zM183 700v-376h-71v302q-12 -9 -32.5 -15t-44.5 -7l-13 56q32 4 58.5 13.5t40.5 26.5h62zM576 -8q-35 0 -61.5 9.5t-44 25t-26.5 35.5t-9 40q0 38 22.5 62.5t52.5 31.5q-26 11 -44.5 32t-18.5 53q0 19 8.5 38t24.5 33t40 23t56 9
q31 0 55.5 -9t40.5 -23t24.5 -33t8.5 -38q0 -32 -18.5 -53t-44.5 -32q30 -7 52.5 -31.5t22.5 -62.5q0 -20 -9 -40t-26.5 -35.5t-44 -25t-61.5 -9.5zM515 276q0 -26 17 -40t44 -14t44 14t17 40t-17.5 39.5t-43.5 13.5t-43.5 -13.5t-17.5 -39.5zM576 47q37 0 54 17.5t17 42.5
q0 26 -19 42.5t-52 16.5t-52 -16.5t-19 -42.5q0 -25 17 -42.5t54 -17.5z" />
    <glyph glyph-name="uni215C" unicode="&#x215c;" horiz-adv-x="840" 
d="M166 -12l436 724h75l-439 -724h-72zM48 614q4 16 13 32.5t24.5 30t38 22.5t53.5 9q62 0 95.5 -31.5t33.5 -74.5q0 -32 -17 -53t-45 -31q32 -6 51.5 -31.5t19.5 -57.5q0 -21 -8.5 -41t-25.5 -35.5t-43 -25.5t-61 -10q-37 0 -63 10.5t-42.5 26t-24 32.5t-7.5 30q6 2 15 4.5
t18.5 5t18 5t14.5 4.5q1 -9 5 -20t12 -20.5t21 -16t33 -6.5q38 0 52.5 18.5t14.5 39.5q0 26 -21 42.5t-60 16.5q-5 0 -8 -0.5t-5 -0.5h-5v59q2 -1 5 -1h12q37 0 55 15.5t18 39.5q0 25 -17 38.5t-42 13.5q-28 0 -44 -16.5t-18 -38.5zM655 -8q-35 0 -61.5 9.5t-44 25
t-26.5 35.5t-9 40q0 38 22.5 62.5t52.5 31.5q-26 11 -44.5 32t-18.5 53q0 19 8.5 38t24.5 33t40 23t56 9q31 0 55.5 -9t40.5 -23t24.5 -33t8.5 -38q0 -32 -18.5 -53t-44.5 -32q30 -7 52.5 -31.5t22.5 -62.5q0 -20 -9 -40t-26.5 -35.5t-44 -25t-61.5 -9.5zM594 276
q0 -26 17 -40t44 -14t44 14t17 40t-17.5 39.5t-43.5 13.5t-43.5 -13.5t-17.5 -39.5zM655 47q37 0 54 17.5t17 42.5q0 26 -19 42.5t-52 16.5t-52 -16.5t-19 -42.5q0 -25 17 -42.5t54 -17.5z" />
    <glyph glyph-name="uni215D" unicode="&#x215d;" horiz-adv-x="838" 
d="M164 -12l436 724h75l-439 -724h-72zM109 430q2 -23 19.5 -40.5t49.5 -17.5q33 0 53 21t20 53q0 29 -16.5 50.5t-51.5 21.5q-22 0 -38.5 -9.5t-29.5 -26.5l-59 11l23 205h221l-10 -57h-159l-13 -98q11 13 29.5 21.5t47.5 8.5q32 0 56 -11t39.5 -29t23.5 -40.5t8 -45.5
q0 -27 -10 -51t-28.5 -41.5t-45.5 -28t-61 -10.5q-32 0 -56.5 9t-41.5 23t-25.5 31t-9.5 33zM653 -8q-35 0 -61.5 9.5t-44 25t-26.5 35.5t-9 40q0 38 22.5 62.5t52.5 31.5q-26 11 -44.5 32t-18.5 53q0 19 8.5 38t24.5 33t40 23t56 9q31 0 55.5 -9t40.5 -23t24.5 -33t8.5 -38
q0 -32 -18.5 -53t-44.5 -32q30 -7 52.5 -31.5t22.5 -62.5q0 -20 -9 -40t-26.5 -35.5t-44 -25t-61.5 -9.5zM592 276q0 -26 17 -40t44 -14t44 14t17 40t-17.5 39.5t-43.5 13.5t-43.5 -13.5t-17.5 -39.5zM653 47q37 0 54 17.5t17 42.5q0 26 -19 42.5t-52 16.5t-52 -16.5
t-19 -42.5q0 -25 17 -42.5t54 -17.5z" />
    <glyph glyph-name="uni215E" unicode="&#x215e;" horiz-adv-x="752" 
d="M78 -12l436 724h75l-439 -724h-72zM37 698h259v-50q-18 -21 -40.5 -52.5t-43 -73t-35 -91.5t-14.5 -107h-70q0 54 13 102.5t32.5 89t41.5 72.5t40 53h-194zM567 -8q-35 0 -61.5 9.5t-44 25t-26.5 35.5t-9 40q0 38 22.5 62.5t52.5 31.5q-26 11 -44.5 32t-18.5 53
q0 19 8.5 38t24.5 33t40 23t56 9q31 0 55.5 -9t40.5 -23t24.5 -33t8.5 -38q0 -32 -18.5 -53t-44.5 -32q30 -7 52.5 -31.5t22.5 -62.5q0 -20 -9 -40t-26.5 -35.5t-44 -25t-61.5 -9.5zM506 276q0 -26 17 -40t44 -14t44 14t17 40t-17.5 39.5t-43.5 13.5t-43.5 -13.5
t-17.5 -39.5zM567 47q37 0 54 17.5t17 42.5q0 26 -19 42.5t-52 16.5t-52 -16.5t-19 -42.5q0 -25 17 -42.5t54 -17.5z" />
    <glyph glyph-name="uni215F" unicode="&#x215f;" horiz-adv-x="601" 
d="M87 -12l436 724h75l-439 -724h-72zM183 700v-376h-71v302q-12 -9 -32.5 -15t-44.5 -7l-13 56q32 4 58.5 13.5t40.5 26.5h62z" />
    <glyph glyph-name="arrowleft" unicode="&#x2190;" horiz-adv-x="850" 
d="M777 384v-70h-579l196 -197l-49 -49l-282 281l282 281l49 -49l-196 -197h579z" />
    <glyph glyph-name="arrowup" unicode="&#x2191;" horiz-adv-x="750" 
d="M410 0h-70v579l-197 -196l-49 49l281 282l281 -282l-49 -49l-197 196v-579z" />
    <glyph glyph-name="arrowright" unicode="&#x2192;" horiz-adv-x="850" 
d="M652 384l-196 197l49 49l282 -281l-282 -281l-49 49l196 197h-579v70h579z" />
    <glyph glyph-name="arrowdown" unicode="&#x2193;" horiz-adv-x="750" 
d="M410 121l197 196l49 -49l-281 -282l-281 282l49 49l197 -196v579h70v-579z" />
    <glyph glyph-name="uni2196" unicode="&#x2196;" horiz-adv-x="750" 
d="M664 220l-49 -49l-410 409v-278h-70v398h398v-70h-278z" />
    <glyph glyph-name="uni2197" unicode="&#x2197;" horiz-adv-x="750" 
d="M495 630h-278v70h398v-398h-70v278l-410 -409l-49 49z" />
    <glyph glyph-name="uni2198" unicode="&#x2198;" horiz-adv-x="750" 
d="M86 480l49 49l410 -409v278h70v-398h-398v70h278z" />
    <glyph glyph-name="uni2199" unicode="&#x2199;" horiz-adv-x="750" 
d="M255 70h278v-70h-398v398h70v-278l410 409l49 -49z" />
    <glyph glyph-name="partialdiff" unicode="&#x2202;" horiz-adv-x="550" 
d="M97 632q25 35 65.5 57.5t101.5 22.5q114 0 172 -87t58 -266q0 -190 -63.5 -280t-174.5 -90q-51 0 -90 17t-64.5 46.5t-38.5 68t-13 81.5q0 41 12 81.5t37.5 72.5t64.5 51.5t93 19.5q31 0 56.5 -6.5t45.5 -17t34 -23t22 -24.5q0 61 -7.5 113.5t-25 91.5t-47 61t-73.5 22
q-42 0 -66 -18t-38 -41zM257 359q-32 0 -54.5 -13t-37.5 -34.5t-22 -49.5t-7 -58q0 -67 31.5 -107t84.5 -40q36 0 65.5 17.5t50 47t31.5 68t11 80.5q-8 18 -24 34t-36.5 28.5t-44.5 19.5t-48 7z" />
    <glyph glyph-name="Delta" unicode="&#x2206;" horiz-adv-x="681" 
d="M636 0h-591l253 700h87zM152 66h375l-188 534z" />
    <glyph glyph-name="product" unicode="&#x220f;" horiz-adv-x="666" 
d="M85 700h496v-700h-84v630h-328v-630h-84v700z" />
    <glyph glyph-name="summation" unicode="&#x2211;" horiz-adv-x="545" 
d="M495 0h-445v61l194 289l-194 289v61h445v-70h-346l188 -280l-188 -280h346v-70z" />
    <glyph glyph-name="minus" unicode="&#x2212;" 
d="M54 358h492v-69h-492v69z" />
    <glyph glyph-name="radical" unicode="&#x221a;" horiz-adv-x="587" 
d="M20 377l149 48l113 -334l215 609h80l-258 -700h-79l-123 343l-78 -25z" />
    <glyph glyph-name="infinity" unicode="&#x221e;" horiz-adv-x="778" 
d="M558 148q-51 0 -89.5 27t-79.5 85q-41 -58 -79.5 -85t-89.5 -27q-34 0 -64.5 11.5t-53.5 33.5t-36.5 55t-13.5 77q0 43 13.5 76.5t36.5 55.5t53.5 33.5t64.5 11.5q51 0 89.5 -27t79.5 -85q41 58 79.5 85t89.5 27q34 0 64.5 -11.5t53.5 -33.5t36.5 -55.5t13.5 -76.5
q0 -44 -13.5 -77t-36.5 -55t-53.5 -33.5t-64.5 -11.5zM427 325q12 -22 26 -41.5t30 -34.5t34.5 -23.5t40.5 -8.5q40 0 66 27.5t26 80.5t-26 80.5t-66 27.5q-22 0 -40.5 -8.5t-34.5 -23.5t-30 -34.5t-26 -41.5zM351 325q-12 22 -26 41.5t-30 34.5t-34.5 23.5t-40.5 8.5
q-40 0 -66 -27.5t-26 -80.5t26 -80.5t66 -27.5q22 0 40.5 8.5t34.5 23.5t30 34.5t26 41.5z" />
    <glyph glyph-name="integral" unicode="&#x222b;" horiz-adv-x="326" 
d="M121 561q0 42 11.5 71t30.5 46.5t43 25.5t50 8q29 0 56.5 -8.5t43.5 -20.5l-37 -68q-10 9 -24 16.5t-32 7.5q-29 0 -43.5 -22t-14.5 -61v-555q0 -42 -11.5 -71t-30.5 -46.5t-43.5 -25.5t-49.5 -8q-29 0 -56.5 8.5t-43.5 20.5l37 68q10 -9 24 -16.5t32 -7.5q29 0 43.5 22
t14.5 61v555z" />
    <glyph glyph-name="approxequal" unicode="&#x2248;" 
d="M395 353q-35 0 -61 10.5t-47.5 23t-41.5 23t-44 10.5q-23 0 -38.5 -9.5t-26.5 -20.5q-12 -13 -20 -30l-60 39q13 25 34 45q18 17 46 31t69 14q35 0 61 -10.5t47.5 -23t41.5 -23t44 -10.5q23 0 38.5 9.5t26.5 20.5q12 13 20 30l60 -39q-13 -26 -34 -45q-18 -17 -46 -31
t-69 -14zM395 166q-35 0 -61 10.5t-47.5 23t-41.5 23t-44 10.5q-23 0 -38.5 -9.5t-26.5 -20.5q-12 -13 -20 -30l-60 39q13 25 34 45q18 17 46 31t69 14q35 0 61 -10.5t47.5 -23t41.5 -23t44 -10.5q23 0 38.5 9.5t26.5 20.5q12 13 20 30l60 -39q-13 -26 -34 -45
q-18 -17 -46 -31t-69 -14z" />
    <glyph glyph-name="notequal" unicode="&#x2260;" 
d="M54 450h286l102 166l54 -33l-82 -133h132v-68h-174l-70 -114h244v-68h-286l-103 -168l-55 33l83 135h-131v68h173l71 114h-244v68z" />
    <glyph glyph-name="equivalence" unicode="&#x2261;" 
d="M54 558h492v-68h-492v68zM54 358h492v-68h-492v68zM54 158h492v-68h-492v68z" />
    <glyph glyph-name="lessequal" unicode="&#x2264;" 
d="M55 339v68l491 220v-81l-401 -172l401 -172v-81zM546 0h-492v68h492v-68z" />
    <glyph glyph-name="greaterequal" unicode="&#x2265;" 
d="M545 409v-68l-491 -220v81l401 172l-401 172v81zM54 68h492v-68h-492v68z" />
    <glyph glyph-name="squaremultiply" unicode="&#x22a0;" horiz-adv-x="850" 
d="M75 700h700v-700h-700v700zM139 60h572v580h-572v-580zM425 305l-188 -189l-47 46l189 188l-189 189l47 46l188 -189l188 189l47 -46l-189 -189l189 -188l-47 -46z" />
    <glyph glyph-name="blacksquare" unicode="&#x25a0;" horiz-adv-x="850" 
d="M75 700h700v-700h-700v700z" />
    <glyph glyph-name="blacksquare" unicode="&#xe740;" horiz-adv-x="850" 
d="M75 700h700v-700h-700v700z" />
    <glyph glyph-name="whitesquare" unicode="&#x25a1;" horiz-adv-x="850" 
d="M75 700h700v-700h-700v700zM139 60h572v580h-572v-580z" />
    <glyph glyph-name="blacksmallsquare" unicode="&#x25aa;" 
d="M64 472h472v-472h-472v472z" />
    <glyph glyph-name="whitesmallsquare" unicode="&#x25ab;" 
d="M64 472h472v-472h-472v472zM123 55h354v362h-354v-362z" />
    <glyph glyph-name="triagup" unicode="&#x25b2;" horiz-adv-x="800" 
d="M50 0l350 716l350 -716h-700z" />
    <glyph glyph-name="triagrt" unicode="&#x25ba;" horiz-adv-x="785" 
d="M50 700l685 -350l-685 -350v700z" />
    <glyph glyph-name="triagdn" unicode="&#x25bc;" horiz-adv-x="800" 
d="M750 700l-350 -716l-350 716h700z" />
    <glyph glyph-name="triaglf" unicode="&#x25c4;" horiz-adv-x="785" 
d="M735 0l-685 350l685 350v-700z" />
    <glyph glyph-name="lozenge" unicode="&#x25ca;" horiz-adv-x="532" 
d="M482 350l-175 -350h-82l-175 350l175 350h82zM139 350l127 -257l127 257l-127 257z" />
    <glyph glyph-name="whitecircle" unicode="&#x25cb;" horiz-adv-x="850" 
d="M63 350q0 75 28.5 141t77.5 115t115 77.5t141 28.5t141 -28.5t115 -77.5t77.5 -115t28.5 -141t-28.5 -141t-77.5 -115t-115 -77.5t-141 -28.5t-141 28.5t-115 77.5t-77.5 115t-28.5 141zM722 350q0 62 -23.5 117t-63.5 96t-94.5 65t-115.5 24q-62 0 -116 -24t-94 -65
t-63.5 -96t-23.5 -117t23.5 -117t63.5 -96t94 -65t116 -24q61 0 115.5 24t94.5 65t63.5 96t23.5 117z" />
    <glyph glyph-name="whitecircle" unicode="&#x25ef;" horiz-adv-x="850" 
d="M63 350q0 75 28.5 141t77.5 115t115 77.5t141 28.5t141 -28.5t115 -77.5t77.5 -115t28.5 -141t-28.5 -141t-77.5 -115t-115 -77.5t-141 -28.5t-141 28.5t-115 77.5t-77.5 115t-28.5 141zM722 350q0 62 -23.5 117t-63.5 96t-94.5 65t-115.5 24q-62 0 -116 -24t-94 -65
t-63.5 -96t-23.5 -117t23.5 -117t63.5 -96t94 -65t116 -24q61 0 115.5 24t94.5 65t63.5 96t23.5 117z" />
    <glyph glyph-name="blackcircle" unicode="&#x25cf;" horiz-adv-x="850" 
d="M787 350q0 -74 -29 -140t-78.5 -115.5t-115 -78t-139.5 -28.5t-139.5 28.5t-115 78t-78.5 115.5t-29 140t29 140t78.5 115.5t115 78t139.5 28.5t139.5 -28.5t115 -78t78.5 -115.5t29 -140z" />
    <glyph glyph-name="uni25E2" unicode="&#x25e2;" horiz-adv-x="800" 
d="M539 700l221 -716l-717 220z" />
    <glyph glyph-name="uni25E3" unicode="&#x25e3;" horiz-adv-x="800" 
d="M757 204l-717 -220l221 716z" />
    <glyph glyph-name="uni25E4" unicode="&#x25e4;" horiz-adv-x="800" 
d="M261 -16l-221 716l717 -220z" />
    <glyph glyph-name="uni25E5" unicode="&#x25e5;" horiz-adv-x="800" 
d="M43 480l717 220l-221 -716z" />
    <glyph glyph-name="ballotboxwithx" unicode="&#x2612;" 
d="M64 472h472v-472h-472v472zM123 55h354v362h-354v-362zM300 195l-81 -82l-43 42l82 81l-82 82l43 42l81 -82l81 82l43 -42l-82 -82l82 -81l-43 -42z" />
    <glyph glyph-name="mediumwhitecircle" unicode="&#x26aa;" 
d="M52 236q0 52 19.5 97t53 78.5t79 53t96.5 19.5q52 0 97 -19.5t78.5 -53t53 -78.5t19.5 -97q0 -51 -19.5 -96.5t-53 -79t-78.5 -53t-97 -19.5q-51 0 -96.5 19.5t-79 53t-53 79t-19.5 96.5zM487 236q0 40 -14.5 74.5t-40 60.5t-59.5 41t-73 15t-73 -15t-59.5 -41t-40 -60.5
t-14.5 -74.5t14.5 -75t40 -60.5t59.5 -40.5t73 -15t73 15t59.5 40.5t40 60.5t14.5 75z" />
    <glyph glyph-name="mediumblackcircle" unicode="&#x26ab;" 
d="M51 234q0 51 19.5 96.5t53.5 79t79 53t96 19.5q52 0 97.5 -19.5t79.5 -53t53.5 -79t19.5 -96.5t-19.5 -96.5t-53.5 -79t-79.5 -53t-97.5 -19.5q-51 0 -96 19.5t-79 53t-53.5 79t-19.5 96.5z" />
    <glyph glyph-name="anglebracketleft" unicode="&#x3008;" horiz-adv-x="307" 
d="M222 792l70 -22l-156 -463l156 -463l-70 -22l-172 485z" />
    <glyph glyph-name="anglebracketright" unicode="&#x3009;" horiz-adv-x="307" 
d="M257 307l-172 -485l-70 22l156 463l-156 463l70 22z" />
    <glyph glyph-name="aogonek.school" unicode="&#xe150;" horiz-adv-x="565" 
d="M386 -105q0 -16 10.5 -27t31.5 -11q16 0 29 8t27 29l31 -31q-22 -31 -47 -44.5t-54 -13.5q-15 0 -31.5 4t-30 13.5t-22.5 25t-9 39.5q0 40 24 64.5t61 48.5v71q-10 -16 -23.5 -31t-31.5 -26.5t-41.5 -18.5t-53.5 -7q-46 0 -84.5 17t-67 49.5t-44.5 78.5t-16 103t16 103
t44.5 78.5t67 49.5t84.5 17q60 0 96 -25.5t54 -57.5v71h79v-472q-45 -29 -72 -54t-27 -51zM265 415q-31 0 -56 -13.5t-42 -37.5t-26.5 -57t-9.5 -71t9.5 -71t26.5 -57t42 -37.5t56 -13.5q20 0 44 7t44.5 24.5t34 46t13.5 70.5v62q0 42 -14 70.5t-34.5 46t-44 24.5t-43.5 7z
" />
    <glyph glyph-name="a.school" unicode="&#xe151;" horiz-adv-x="565" 
d="M44 236q0 57 16 103t44.5 78.5t67 49.5t84.5 17q60 0 96 -25.5t54 -57.5v71h79v-472h-79v71q-10 -16 -23.5 -31t-31.5 -26.5t-41.5 -18.5t-53.5 -7q-46 0 -84.5 17t-67 49.5t-44.5 78.5t-16 103zM265 415q-31 0 -56 -13.5t-42 -37.5t-26.5 -57t-9.5 -71t9.5 -71t26.5 -57
t42 -37.5t56 -13.5q20 0 44 7t44.5 24.5t34 46t13.5 70.5v62q0 42 -14 70.5t-34.5 46t-44 24.5t-43.5 7z" />
    <glyph glyph-name="agrave.school" unicode="&#xe152;" horiz-adv-x="565" 
d="M164 639l41 61l166 -124l-29 -44zM44 236q0 57 16 103t44.5 78.5t67 49.5t84.5 17q60 0 96 -25.5t54 -57.5v71h79v-472h-79v71q-10 -16 -23.5 -31t-31.5 -26.5t-41.5 -18.5t-53.5 -7q-46 0 -84.5 17t-67 49.5t-44.5 78.5t-16 103zM265 415q-31 0 -56 -13.5t-42 -37.5
t-26.5 -57t-9.5 -71t9.5 -71t26.5 -57t42 -37.5t56 -13.5q20 0 44 7t44.5 24.5t34 46t13.5 70.5v62q0 42 -14 70.5t-34.5 46t-44 24.5t-43.5 7z" />
    <glyph glyph-name="aacute.school" unicode="&#xe153;" horiz-adv-x="565" 
d="M371 639l-178 -107l-29 44l166 124zM44 236q0 57 16 103t44.5 78.5t67 49.5t84.5 17q60 0 96 -25.5t54 -57.5v71h79v-472h-79v71q-10 -16 -23.5 -31t-31.5 -26.5t-41.5 -18.5t-53.5 -7q-46 0 -84.5 17t-67 49.5t-44.5 78.5t-16 103zM265 415q-31 0 -56 -13.5t-42 -37.5
t-26.5 -57t-9.5 -71t9.5 -71t26.5 -57t42 -37.5t56 -13.5q20 0 44 7t44.5 24.5t34 46t13.5 70.5v62q0 42 -14 70.5t-34.5 46t-44 24.5t-43.5 7z" />
    <glyph glyph-name="acircumflex.school" unicode="&#xe154;" horiz-adv-x="565" 
d="M239 694h55l112 -129l-42 -37l-98 107l-99 -107l-41 37zM44 236q0 57 16 103t44.5 78.5t67 49.5t84.5 17q60 0 96 -25.5t54 -57.5v71h79v-472h-79v71q-10 -16 -23.5 -31t-31.5 -26.5t-41.5 -18.5t-53.5 -7q-46 0 -84.5 17t-67 49.5t-44.5 78.5t-16 103zM265 415
q-31 0 -56 -13.5t-42 -37.5t-26.5 -57t-9.5 -71t9.5 -71t26.5 -57t42 -37.5t56 -13.5q20 0 44 7t44.5 24.5t34 46t13.5 70.5v62q0 42 -14 70.5t-34.5 46t-44 24.5t-43.5 7z" />
    <glyph glyph-name="adieresis.school" unicode="&#xe155;" horiz-adv-x="565" 
d="M309 602q0 23 15 37.5t38 14.5t38 -14.5t15 -37.5q0 -22 -15 -37.5t-38 -15.5t-38 15.5t-15 37.5zM117 602q0 23 15 37.5t38 14.5t38 -14.5t15 -37.5q0 -22 -15 -37.5t-38 -15.5t-38 15.5t-15 37.5zM44 236q0 57 16 103t44.5 78.5t67 49.5t84.5 17q60 0 96 -25.5
t54 -57.5v71h79v-472h-79v71q-10 -16 -23.5 -31t-31.5 -26.5t-41.5 -18.5t-53.5 -7q-46 0 -84.5 17t-67 49.5t-44.5 78.5t-16 103zM265 415q-31 0 -56 -13.5t-42 -37.5t-26.5 -57t-9.5 -71t9.5 -71t26.5 -57t42 -37.5t56 -13.5q20 0 44 7t44.5 24.5t34 46t13.5 70.5v62
q0 42 -14 70.5t-34.5 46t-44 24.5t-43.5 7z" />
    <glyph glyph-name="atilde.school" unicode="&#xe156;" horiz-adv-x="565" 
d="M197 661q25 0 44 -8t34.5 -17.5t29.5 -17.5t31 -8q16 0 27 7t19 16q9 10 14 23l43 -39q-10 -18 -25 -32q-13 -12 -33 -22t-49 -10q-26 0 -44 8t-33.5 17t-29.5 17t-31 8t-27.5 -7.5t-18.5 -15.5q-9 -10 -14 -22l-43 39q9 18 24 32q13 12 33 22t49 10zM44 236q0 57 16 103
t44.5 78.5t67 49.5t84.5 17q60 0 96 -25.5t54 -57.5v71h79v-472h-79v71q-10 -16 -23.5 -31t-31.5 -26.5t-41.5 -18.5t-53.5 -7q-46 0 -84.5 17t-67 49.5t-44.5 78.5t-16 103zM265 415q-31 0 -56 -13.5t-42 -37.5t-26.5 -57t-9.5 -71t9.5 -71t26.5 -57t42 -37.5t56 -13.5
q20 0 44 7t44.5 24.5t34 46t13.5 70.5v62q0 42 -14 70.5t-34.5 46t-44 24.5t-43.5 7z" />
    <glyph glyph-name="aring.school" unicode="&#xe157;" horiz-adv-x="565" 
d="M167 619q0 41 27 66.5t71 25.5t71 -25.5t27 -66.5q0 -39 -27 -66t-71 -27t-71 27t-27 66zM215 619q0 -20 14 -35.5t36 -15.5t36 15.5t14 35.5q0 21 -14 35.5t-36 14.5t-36 -14.5t-14 -35.5zM44 236q0 57 16 103t44.5 78.5t67 49.5t84.5 17q60 0 96 -25.5t54 -57.5v71h79
v-472h-79v71q-10 -16 -23.5 -31t-31.5 -26.5t-41.5 -18.5t-53.5 -7q-46 0 -84.5 17t-67 49.5t-44.5 78.5t-16 103zM265 415q-31 0 -56 -13.5t-42 -37.5t-26.5 -57t-9.5 -71t9.5 -71t26.5 -57t42 -37.5t56 -13.5q20 0 44 7t44.5 24.5t34 46t13.5 70.5v62q0 42 -14 70.5
t-34.5 46t-44 24.5t-43.5 7z" />
    <glyph glyph-name="amacron.school" unicode="&#xe159;" horiz-adv-x="565" 
d="M136 620h259v-59h-259v59zM44 236q0 57 16 103t44.5 78.5t67 49.5t84.5 17q60 0 96 -25.5t54 -57.5v71h79v-472h-79v71q-10 -16 -23.5 -31t-31.5 -26.5t-41.5 -18.5t-53.5 -7q-46 0 -84.5 17t-67 49.5t-44.5 78.5t-16 103zM265 415q-31 0 -56 -13.5t-42 -37.5t-26.5 -57
t-9.5 -71t9.5 -71t26.5 -57t42 -37.5t56 -13.5q20 0 44 7t44.5 24.5t34 46t13.5 70.5v62q0 42 -14 70.5t-34.5 46t-44 24.5t-43.5 7z" />
    <glyph glyph-name="abreve.school" unicode="&#xe15a;" horiz-adv-x="565" 
d="M178 673q5 -31 28.5 -53t58.5 -22t58.5 22t28.5 53l65 -20q-11 -49 -51.5 -80t-100.5 -31t-100.5 31t-51.5 80zM44 236q0 57 16 103t44.5 78.5t67 49.5t84.5 17q60 0 96 -25.5t54 -57.5v71h79v-472h-79v71q-10 -16 -23.5 -31t-31.5 -26.5t-41.5 -18.5t-53.5 -7
q-46 0 -84.5 17t-67 49.5t-44.5 78.5t-16 103zM265 415q-31 0 -56 -13.5t-42 -37.5t-26.5 -57t-9.5 -71t9.5 -71t26.5 -57t42 -37.5t56 -13.5q20 0 44 7t44.5 24.5t34 46t13.5 70.5v62q0 42 -14 70.5t-34.5 46t-44 24.5t-43.5 7z" />
    <glyph glyph-name="g.school" unicode="&#xe161;" horiz-adv-x="575" 
d="M411 80q-23 -29 -58.5 -50.5t-91.5 -21.5q-47 0 -86.5 16.5t-68.5 47.5t-45.5 75t-16.5 99t16.5 99t45.5 75t68.5 47.5t86.5 16.5q31 0 55 -7t43 -18.5t33 -26.5t24 -31v71h79v-437q0 -119 -54.5 -183t-172.5 -64q-78 0 -129.5 28.5t-78.5 94.5l78 30q12 -35 41.5 -60.5
t89.5 -25.5q39 0 66.5 13t44 36.5t24 56t7.5 71.5v48zM411 267q0 42 -14 70.5t-35 46t-46 24.5t-46 7q-32 0 -58 -13t-44 -35.5t-27.5 -53.5t-9.5 -67t9.5 -67t27.5 -53.5t44 -35.5t58 -13q21 0 46 7t46 24t35 45.5t14 70.5v43z" />
    <glyph glyph-name="gcircumflex.school" unicode="&#xe163;" horiz-adv-x="575" 
d="M243 694h55l112 -129l-42 -37l-98 107l-99 -107l-41 37zM411 80q-23 -29 -58.5 -50.5t-91.5 -21.5q-47 0 -86.5 16.5t-68.5 47.5t-45.5 75t-16.5 99t16.5 99t45.5 75t68.5 47.5t86.5 16.5q31 0 55 -7t43 -18.5t33 -26.5t24 -31v71h79v-437q0 -119 -54.5 -183t-172.5 -64
q-78 0 -129.5 28.5t-78.5 94.5l78 30q12 -35 41.5 -60.5t89.5 -25.5q39 0 66.5 13t44 36.5t24 56t7.5 71.5v48zM411 267q0 42 -14 70.5t-35 46t-46 24.5t-46 7q-32 0 -58 -13t-44 -35.5t-27.5 -53.5t-9.5 -67t9.5 -67t27.5 -53.5t44 -35.5t58 -13q21 0 46 7t46 24t35 45.5
t14 70.5v43z" />
    <glyph glyph-name="gbreve.school" unicode="&#xe166;" horiz-adv-x="575" 
d="M183 673q5 -31 28.5 -53t58.5 -22t58.5 22t28.5 53l65 -20q-11 -49 -51.5 -80t-100.5 -31t-100.5 31t-51.5 80zM411 80q-23 -29 -58.5 -50.5t-91.5 -21.5q-47 0 -86.5 16.5t-68.5 47.5t-45.5 75t-16.5 99t16.5 99t45.5 75t68.5 47.5t86.5 16.5q31 0 55 -7t43 -18.5
t33 -26.5t24 -31v71h79v-437q0 -119 -54.5 -183t-172.5 -64q-78 0 -129.5 28.5t-78.5 94.5l78 30q12 -35 41.5 -60.5t89.5 -25.5q39 0 66.5 13t44 36.5t24 56t7.5 71.5v48zM411 267q0 42 -14 70.5t-35 46t-46 24.5t-46 7q-32 0 -58 -13t-44 -35.5t-27.5 -53.5t-9.5 -67
t9.5 -67t27.5 -53.5t44 -35.5t58 -13q21 0 46 7t46 24t35 45.5t14 70.5v43z" />
    <glyph glyph-name="gdotaccent.school" unicode="&#xe167;" horiz-adv-x="575" 
d="M215 603q0 25 15.5 40t39.5 15t39.5 -15t15.5 -40q0 -22 -15.5 -38t-39.5 -16t-39.5 16t-15.5 38zM411 80q-23 -29 -58.5 -50.5t-91.5 -21.5q-47 0 -86.5 16.5t-68.5 47.5t-45.5 75t-16.5 99t16.5 99t45.5 75t68.5 47.5t86.5 16.5q31 0 55 -7t43 -18.5t33 -26.5t24 -31
v71h79v-437q0 -119 -54.5 -183t-172.5 -64q-78 0 -129.5 28.5t-78.5 94.5l78 30q12 -35 41.5 -60.5t89.5 -25.5q39 0 66.5 13t44 36.5t24 56t7.5 71.5v48zM411 267q0 42 -14 70.5t-35 46t-46 24.5t-46 7q-32 0 -58 -13t-44 -35.5t-27.5 -53.5t-9.5 -67t9.5 -67t27.5 -53.5
t44 -35.5t58 -13q21 0 46 7t46 24t35 45.5t14 70.5v43z" />
    <glyph glyph-name="gcommaaccent.school" unicode="&#xe168;" horiz-adv-x="575" 
d="M220 603q0 12 3.5 28t12.5 31t25 26.5t42 15.5l13 -33q-16 0 -31 -12.5t-15 -29.5v-3h2q1 0 3 0.5t4 0.5q17 0 31 -13t14 -33q0 -17 -12 -32.5t-37 -15.5q-29 0 -42 21t-13 49zM411 80q-23 -29 -58.5 -50.5t-91.5 -21.5q-47 0 -86.5 16.5t-68.5 47.5t-45.5 75t-16.5 99
t16.5 99t45.5 75t68.5 47.5t86.5 16.5q31 0 55 -7t43 -18.5t33 -26.5t24 -31v71h79v-437q0 -119 -54.5 -183t-172.5 -64q-78 0 -129.5 28.5t-78.5 94.5l78 30q12 -35 41.5 -60.5t89.5 -25.5q39 0 66.5 13t44 36.5t24 56t7.5 71.5v48zM411 267q0 42 -14 70.5t-35 46t-46 24.5
t-46 7q-32 0 -58 -13t-44 -35.5t-27.5 -53.5t-9.5 -67t9.5 -67t27.5 -53.5t44 -35.5t58 -13q21 0 46 7t46 24t35 45.5t14 70.5v43z" />
    <glyph glyph-name="y.school" unicode="&#xe16b;" horiz-adv-x="481" 
d="M242 -107q-23 -58 -57.5 -81.5t-76.5 -23.5q-22 0 -43 5t-35 13l28 67q8 -5 20 -9.5t24 -4.5q18 0 34.5 12t31.5 48l34 83l-186 470h87q35 -90 64 -166q12 -32 24.5 -64.5t23 -60.5t18.5 -49t11 -31h2q3 10 10 31t17.5 49t23 60.5t24.5 64.5q29 76 63 166h81z" />
    <glyph glyph-name="yacute.school" unicode="&#xe16d;" horiz-adv-x="481" 
d="M362 639l-178 -107l-29 44l166 124zM242 -107q-23 -58 -57.5 -81.5t-76.5 -23.5q-22 0 -43 5t-35 13l28 67q8 -5 20 -9.5t24 -4.5q18 0 34.5 12t31.5 48l34 83l-186 470h87q35 -90 64 -166q12 -32 24.5 -64.5t23 -60.5t18.5 -49t11 -31h2q3 10 10 31t17.5 49t23 60.5
t24.5 64.5q29 76 63 166h81z" />
    <glyph glyph-name="ycircumflex.school" unicode="&#xe16e;" horiz-adv-x="481" 
d="M217 694h55l112 -129l-42 -37l-98 107l-99 -107l-41 37zM242 -107q-23 -58 -57.5 -81.5t-76.5 -23.5q-22 0 -43 5t-35 13l28 67q8 -5 20 -9.5t24 -4.5q18 0 34.5 12t31.5 48l34 83l-186 470h87q35 -90 64 -166q12 -32 24.5 -64.5t23 -60.5t18.5 -49t11 -31h2q3 10 10 31
t17.5 49t23 60.5t24.5 64.5q29 76 63 166h81z" />
    <glyph glyph-name="ydieresis.school" unicode="&#xe16f;" horiz-adv-x="481" 
d="M287 602q0 23 15 37.5t38 14.5t38 -14.5t15 -37.5q0 -22 -15 -37.5t-38 -15.5t-38 15.5t-15 37.5zM95 602q0 23 15 37.5t38 14.5t38 -14.5t15 -37.5q0 -22 -15 -37.5t-38 -15.5t-38 15.5t-15 37.5zM242 -107q-23 -58 -57.5 -81.5t-76.5 -23.5q-22 0 -43 5t-35 13l28 67
q8 -5 20 -9.5t24 -4.5q18 0 34.5 12t31.5 48l34 83l-186 470h87q35 -90 64 -166q12 -32 24.5 -64.5t23 -60.5t18.5 -49t11 -31h2q3 10 10 31t17.5 49t23 60.5t24.5 64.5q29 76 63 166h81z" />
    <glyph glyph-name="ordfeminine.school" unicode="&#xe182;" horiz-adv-x="448" 
d="M40 509q0 44 12.5 80t34 61t52 38.5t66.5 13.5q46 0 73.5 -20t42.5 -45v54h62v-364h-62v54q-15 -26 -42.5 -45.5t-73.5 -19.5q-36 0 -66.5 13.5t-52 38.5t-34 61t-12.5 80zM318 526q0 30 -9 53t-24 38t-34 23t-39 8q-24 0 -43.5 -10.5t-33 -29.5t-20.5 -44t-7 -55t7 -55
t20.5 -44t33 -29.5t43.5 -10.5q20 0 39 8t34 23t24 37.5t9 52.5v35z" />
    <glyph glyph-name="p.smcp" unicode="&#xe200;" horiz-adv-x="526" 
d="M173 222v-222h-83v564h201q91 0 145.5 -40t54.5 -130q0 -44 -15 -76.5t-41.5 -53.5t-63 -31.5t-80.5 -10.5h-118zM407 394q0 57 -32.5 79.5t-99.5 22.5h-102v-207h102q66 0 99 25.5t33 79.5z" />
    <glyph glyph-name="p.smcp" unicode="&#xf770;" horiz-adv-x="526" 
d="M173 222v-222h-83v564h201q91 0 145.5 -40t54.5 -130q0 -44 -15 -76.5t-41.5 -53.5t-63 -31.5t-80.5 -10.5h-118zM407 394q0 57 -32.5 79.5t-99.5 22.5h-102v-207h102q66 0 99 25.5t33 79.5z" />
    <glyph glyph-name="a.smcp" unicode="&#xe201;" horiz-adv-x="530" 
d="M511 0h-87l-52 147h-219l-53 -147h-81l206 564h80zM261 461q-3 -8 -7.5 -23.5t-11 -34.5t-14 -40.5t-14.5 -42.5q-18 -50 -38 -107h173q-20 57 -38 107q-8 21 -15 42.5t-13.5 40.5t-11.5 34.5t-8 23.5h-2z" />
    <glyph glyph-name="a.smcp" unicode="&#xf761;" horiz-adv-x="530" 
d="M511 0h-87l-52 147h-219l-53 -147h-81l206 564h80zM261 461q-3 -8 -7.5 -23.5t-11 -34.5t-14 -40.5t-14.5 -42.5q-18 -50 -38 -107h173q-20 57 -38 107q-8 21 -15 42.5t-13.5 40.5t-11.5 34.5t-8 23.5h-2z" />
    <glyph glyph-name="b.smcp" unicode="&#xe202;" horiz-adv-x="545" 
d="M90 564h209q85 0 127.5 -38t42.5 -104q0 -29 -8.5 -50.5t-21.5 -37t-29 -25.5t-31 -16q21 -3 41.5 -12t36.5 -25t26 -39t10 -54q0 -36 -13.5 -66t-38 -51.5t-58 -33.5t-73.5 -12h-220v564zM171 498v-176h101q113 0 113 92q0 84 -104 84h-110zM171 66h110q37 0 61.5 7.5
t39.5 21t21 30.5t6 37q0 53 -35.5 74t-94.5 21h-108v-191z" />
    <glyph glyph-name="b.smcp" unicode="&#xf762;" horiz-adv-x="545" 
d="M90 564h209q85 0 127.5 -38t42.5 -104q0 -29 -8.5 -50.5t-21.5 -37t-29 -25.5t-31 -16q21 -3 41.5 -12t36.5 -25t26 -39t10 -54q0 -36 -13.5 -66t-38 -51.5t-58 -33.5t-73.5 -12h-220v564zM171 498v-176h101q113 0 113 92q0 84 -104 84h-110zM171 66h110q37 0 61.5 7.5
t39.5 21t21 30.5t6 37q0 53 -35.5 74t-94.5 21h-108v-191z" />
    <glyph glyph-name="c.smcp" unicode="&#xe203;" horiz-adv-x="573" 
d="M57 280q0 67 18 121.5t51.5 93t82 59.5t108.5 21q85 0 139 -40t82 -109l-79 -28q-17 48 -51.5 78.5t-93.5 30.5q-41 0 -72.5 -16t-53.5 -45.5t-33.5 -71.5t-11.5 -94q0 -49 11 -90t33 -71t54 -46.5t73 -16.5q56 0 91 29t54 78l78 -28q-29 -69 -82.5 -108t-138.5 -39
q-61 0 -109 21t-81.5 59.5t-51 92t-17.5 119.5z" />
    <glyph glyph-name="c.smcp" unicode="&#xf763;" horiz-adv-x="573" 
d="M57 280q0 67 18 121.5t51.5 93t82 59.5t108.5 21q85 0 139 -40t82 -109l-79 -28q-17 48 -51.5 78.5t-93.5 30.5q-41 0 -72.5 -16t-53.5 -45.5t-33.5 -71.5t-11.5 -94q0 -49 11 -90t33 -71t54 -46.5t73 -16.5q56 0 91 29t54 78l78 -28q-29 -69 -82.5 -108t-138.5 -39
q-61 0 -109 21t-81.5 59.5t-51 92t-17.5 119.5z" />
    <glyph glyph-name="d.smcp" unicode="&#xe204;" horiz-adv-x="605" 
d="M90 564h196q61 0 109.5 -19t82.5 -55.5t52 -89t18 -118.5q0 -67 -18 -119.5t-52 -88.5t-82.5 -55t-109.5 -19h-196v564zM462 282q0 48 -11 87.5t-33.5 67.5t-58 43.5t-83.5 15.5h-103v-428h103q48 0 83.5 15.5t58 43.5t33.5 67.5t11 87.5z" />
    <glyph glyph-name="d.smcp" unicode="&#xf764;" horiz-adv-x="605" 
d="M90 564h196q61 0 109.5 -19t82.5 -55.5t52 -89t18 -118.5q0 -67 -18 -119.5t-52 -88.5t-82.5 -55t-109.5 -19h-196v564zM462 282q0 48 -11 87.5t-33.5 67.5t-58 43.5t-83.5 15.5h-103v-428h103q48 0 83.5 15.5t58 43.5t33.5 67.5t11 87.5z" />
    <glyph glyph-name="e.smcp" unicode="&#xe205;" horiz-adv-x="489" 
d="M90 0v564h345v-68h-262v-172h245v-67h-245v-189h267v-68h-350z" />
    <glyph glyph-name="e.smcp" unicode="&#xf765;" horiz-adv-x="489" 
d="M90 0v564h345v-68h-262v-172h245v-67h-245v-189h267v-68h-350z" />
    <glyph glyph-name="f.smcp" unicode="&#xe206;" horiz-adv-x="481" 
d="M90 0v564h346v-68h-263v-172h245v-67h-245v-257h-83z" />
    <glyph glyph-name="f.smcp" unicode="&#xf766;" horiz-adv-x="481" 
d="M90 0v564h346v-68h-263v-172h245v-67h-245v-257h-83z" />
    <glyph glyph-name="g.smcp" unicode="&#xe207;" horiz-adv-x="620" 
d="M301 286h239v-286h-75v60q-9 -13 -22 -25.5t-32 -23t-44 -17t-58 -6.5q-61 0 -108 22.5t-79 62.5t-48.5 93.5t-16.5 115.5q0 64 18 118t52.5 93t83.5 60.5t111 21.5q78 0 134.5 -38t86.5 -107l-77 -30q-19 48 -55 77.5t-93 29.5q-78 0 -126.5 -58t-48.5 -172
q0 -107 45 -164t129 -57q29 0 55 8t45.5 23.5t31 39.5t11.5 57v37h-159v65z" />
    <glyph glyph-name="g.smcp" unicode="&#xf767;" horiz-adv-x="620" 
d="M301 286h239v-286h-75v60q-9 -13 -22 -25.5t-32 -23t-44 -17t-58 -6.5q-61 0 -108 22.5t-79 62.5t-48.5 93.5t-16.5 115.5q0 64 18 118t52.5 93t83.5 60.5t111 21.5q78 0 134.5 -38t86.5 -107l-77 -30q-19 48 -55 77.5t-93 29.5q-78 0 -126.5 -58t-48.5 -172
q0 -107 45 -164t129 -57q29 0 55 8t45.5 23.5t31 39.5t11.5 57v37h-159v65z" />
    <glyph glyph-name="h.smcp" unicode="&#xe208;" horiz-adv-x="606" 
d="M90 564h83v-239h260v239h83v-564h-83v257h-260v-257h-83v564z" />
    <glyph glyph-name="h.smcp" unicode="&#xf768;" horiz-adv-x="606" 
d="M90 564h83v-239h260v239h83v-564h-83v257h-260v-257h-83v564z" />
    <glyph glyph-name="i.smcp" unicode="&#xe209;" horiz-adv-x="263" 
d="M90 564h83v-564h-83v564z" />
    <glyph glyph-name="i.smcp" unicode="&#xf769;" horiz-adv-x="263" 
d="M90 564h83v-564h-83v564z" />
    <glyph glyph-name="j.smcp" unicode="&#xe20a;" horiz-adv-x="383" 
d="M141 56q42 0 59 31t17 97v380h83v-380q0 -39 -6 -74.5t-22.5 -62.5t-47 -43t-79.5 -16q-53 0 -85 17.5t-55 45.5l55 54q21 -25 38 -37t43 -12z" />
    <glyph glyph-name="j.smcp" unicode="&#xf76a;" horiz-adv-x="383" 
d="M141 56q42 0 59 31t17 97v380h83v-380q0 -39 -6 -74.5t-22.5 -62.5t-47 -43t-79.5 -16q-53 0 -85 17.5t-55 45.5l55 54q21 -25 38 -37t43 -12z" />
    <glyph glyph-name="k.smcp" unicode="&#xe20b;" horiz-adv-x="534" 
d="M231 276l-58 -60v-216h-83v564h83v-245l231 245h98l-213 -228l232 -336h-101z" />
    <glyph glyph-name="k.smcp" unicode="&#xf76b;" horiz-adv-x="534" 
d="M231 276l-58 -60v-216h-83v564h83v-245l231 245h98l-213 -228l232 -336h-101z" />
    <glyph glyph-name="l.smcp" unicode="&#xe20c;" horiz-adv-x="445" 
d="M90 564h83v-496h250v-68h-333v564z" />
    <glyph glyph-name="l.smcp" unicode="&#xf76c;" horiz-adv-x="445" 
d="M90 564h83v-496h250v-68h-333v564z" />
    <glyph glyph-name="m.smcp" unicode="&#xe20d;" horiz-adv-x="741" 
d="M334 0q-10 24 -23.5 59.5t-29 77t-32.5 86t-32 86.5t-28 80t-22 66h-2v-455h-75v564h111q42 -114 77 -210q15 -41 30 -81.5t28 -75.5t22.5 -61t13.5 -37q4 11 13.5 37t22 61t27.5 75.5t30 81.5q34 96 76 210h110v-564h-75v455h-2q-9 -29 -23 -68t-30 -83t-33 -89.5
t-32.5 -86.5t-28 -74.5t-20.5 -53.5h-73z" />
    <glyph glyph-name="m.smcp" unicode="&#xf76d;" horiz-adv-x="741" 
d="M334 0q-10 24 -23.5 59.5t-29 77t-32.5 86t-32 86.5t-28 80t-22 66h-2v-455h-75v564h111q42 -114 77 -210q15 -41 30 -81.5t28 -75.5t22.5 -61t13.5 -37q4 11 13.5 37t22 61t27.5 75.5t30 81.5q34 96 76 210h110v-564h-75v455h-2q-9 -29 -23 -68t-30 -83t-33 -89.5
t-32.5 -86.5t-28 -74.5t-20.5 -53.5h-73z" />
    <glyph glyph-name="n.smcp" unicode="&#xe20e;" horiz-adv-x="628" 
d="M90 564h88q63 -98 118 -184q24 -37 48 -74.5t46 -72t40 -62.5t29 -46h2v439h77v-564h-88q-61 96 -116 181q-23 36 -47.5 74t-46.5 72.5t-40.5 63.5t-30.5 48h-2v-439h-77v564z" />
    <glyph glyph-name="n.smcp" unicode="&#xf76e;" horiz-adv-x="628" 
d="M90 564h88q63 -98 118 -184q24 -37 48 -74.5t46 -72t40 -62.5t29 -46h2v439h77v-564h-88q-61 96 -116 181q-23 36 -47.5 74t-46.5 72.5t-40.5 63.5t-30.5 48h-2v-439h-77v564z" />
    <glyph glyph-name="o.smcp" unicode="&#xe20f;" horiz-adv-x="631" 
d="M57 282q0 68 19 122t53 92t81.5 58.5t105.5 20.5q57 0 104.5 -20.5t81.5 -58.5t53 -92t19 -122q0 -69 -19 -123.5t-53 -92.5t-81.5 -58t-104.5 -20q-58 0 -105.5 20t-81.5 58t-53 92.5t-19 123.5zM143 282q0 -48 10.5 -89.5t32.5 -72t54 -47.5t76 -17q43 0 75.5 17
t54 47.5t32 72t10.5 89.5t-10.5 89.5t-32 71.5t-54 47t-75.5 17q-44 0 -76 -17t-54 -47t-32.5 -71.5t-10.5 -89.5z" />
    <glyph glyph-name="o.smcp" unicode="&#xf76f;" horiz-adv-x="631" 
d="M57 282q0 68 19 122t53 92t81.5 58.5t105.5 20.5q57 0 104.5 -20.5t81.5 -58.5t53 -92t19 -122q0 -69 -19 -123.5t-53 -92.5t-81.5 -58t-104.5 -20q-58 0 -105.5 20t-81.5 58t-53 92.5t-19 123.5zM143 282q0 -48 10.5 -89.5t32.5 -72t54 -47.5t76 -17q43 0 75.5 17
t54 47.5t32 72t10.5 89.5t-10.5 89.5t-32 71.5t-54 47t-75.5 17q-44 0 -76 -17t-54 -47t-32.5 -71.5t-10.5 -89.5z" />
    <glyph glyph-name="q.smcp" unicode="&#xe211;" horiz-adv-x="631" 
d="M57 282q0 68 19 122t53 92t81.5 58.5t105.5 20.5q57 0 104.5 -20.5t81.5 -58.5t53 -92t19 -122q0 -78 -24 -136.5t-66 -96.5l60 -62l-48 -44l-66 69q-26 -11 -54 -17.5t-60 -6.5q-58 0 -105.5 20t-81.5 58t-53 92.5t-19 123.5zM432 104q28 30 42 76t14 102
q0 48 -10.5 89.5t-32 71.5t-54 47t-75.5 17q-44 0 -76 -17t-54 -47t-32.5 -71.5t-10.5 -89.5t10.5 -89.5t32.5 -72t54 -47.5t76 -17q37 0 62 11l-57 61l46 44z" />
    <glyph glyph-name="q.smcp" unicode="&#xf771;" horiz-adv-x="631" 
d="M57 282q0 68 19 122t53 92t81.5 58.5t105.5 20.5q57 0 104.5 -20.5t81.5 -58.5t53 -92t19 -122q0 -78 -24 -136.5t-66 -96.5l60 -62l-48 -44l-66 69q-26 -11 -54 -17.5t-60 -6.5q-58 0 -105.5 20t-81.5 58t-53 92.5t-19 123.5zM432 104q28 30 42 76t14 102
q0 48 -10.5 89.5t-32 71.5t-54 47t-75.5 17q-44 0 -76 -17t-54 -47t-32.5 -71.5t-10.5 -89.5t10.5 -89.5t32.5 -72t54 -47.5t76 -17q37 0 62 11l-57 61l46 44z" />
    <glyph glyph-name="r.smcp" unicode="&#xe212;" horiz-adv-x="548" 
d="M486 408q0 -63 -33.5 -104.5t-90.5 -56.5l147 -247h-99l-137 239h-101v-239h-82v564h201q31 0 65 -6.5t63 -24t48 -48t19 -77.5zM402 404q0 48 -32.5 70t-94.5 22h-103v-190h112q63 0 90.5 28t27.5 70z" />
    <glyph glyph-name="r.smcp" unicode="&#xf772;" horiz-adv-x="548" 
d="M486 408q0 -63 -33.5 -104.5t-90.5 -56.5l147 -247h-99l-137 239h-101v-239h-82v564h201q31 0 65 -6.5t63 -24t48 -48t19 -77.5zM402 404q0 48 -32.5 70t-94.5 22h-103v-190h112q63 0 90.5 28t27.5 70z" />
    <glyph glyph-name="s.smcp" unicode="&#xe213;" horiz-adv-x="537" 
d="M150 419q0 -21 7 -36t22.5 -25.5t41 -17.5t63.5 -13q48 -8 85 -20t62.5 -31.5t39 -47t13.5 -66.5t-15 -71t-42.5 -55t-67 -35.5t-88.5 -12.5q-52 0 -92 13.5t-68 36.5t-43 53.5t-16 65.5l82 13q2 -22 10 -42.5t24.5 -37t42 -26.5t62.5 -10q59 0 92 27t33 75
q0 42 -30.5 64.5t-106.5 33.5q-92 13 -144 48.5t-52 109.5q0 39 15 69t41.5 51t63.5 32t81 11q86 0 140 -39.5t66 -109.5l-82 -20q-8 48 -38.5 75.5t-90.5 27.5q-57 0 -84 -24.5t-27 -65.5z" />
    <glyph glyph-name="s.smcp" unicode="&#xf773;" horiz-adv-x="537" 
d="M150 419q0 -21 7 -36t22.5 -25.5t41 -17.5t63.5 -13q48 -8 85 -20t62.5 -31.5t39 -47t13.5 -66.5t-15 -71t-42.5 -55t-67 -35.5t-88.5 -12.5q-52 0 -92 13.5t-68 36.5t-43 53.5t-16 65.5l82 13q2 -22 10 -42.5t24.5 -37t42 -26.5t62.5 -10q59 0 92 27t33 75
q0 42 -30.5 64.5t-106.5 33.5q-92 13 -144 48.5t-52 109.5q0 39 15 69t41.5 51t63.5 32t81 11q86 0 140 -39.5t66 -109.5l-82 -20q-8 48 -38.5 75.5t-90.5 27.5q-57 0 -84 -24.5t-27 -65.5z" />
    <glyph glyph-name="t.smcp" unicode="&#xe214;" horiz-adv-x="462" 
d="M23 564h416v-68h-167v-496h-83v496h-166v68z" />
    <glyph glyph-name="t.smcp" unicode="&#xf774;" horiz-adv-x="462" 
d="M23 564h416v-68h-167v-496h-83v496h-166v68z" />
    <glyph glyph-name="u.smcp" unicode="&#xe215;" horiz-adv-x="589" 
d="M294 -12q-109 0 -160 53.5t-51 158.5v364h83v-365q0 -27 6 -52.5t21 -46t39.5 -32.5t61.5 -12t62 12t40 32.5t21 46t6 52.5v365h83v-364q0 -105 -51.5 -158.5t-160.5 -53.5z" />
    <glyph glyph-name="u.smcp" unicode="&#xf775;" horiz-adv-x="589" 
d="M294 -12q-109 0 -160 53.5t-51 158.5v364h83v-365q0 -27 6 -52.5t21 -46t39.5 -32.5t61.5 -12t62 12t40 32.5t21 46t6 52.5v365h83v-364q0 -105 -51.5 -158.5t-160.5 -53.5z" />
    <glyph glyph-name="v.smcp" unicode="&#xe216;" horiz-adv-x="529" 
d="M105 564q33 -93 64 -179q13 -37 27 -75.5t26.5 -75.5t24 -70.5t19.5 -58.5h1q8 25 19 58.5t24 70.5t27 75.5t27 75.5q31 86 64 179h84l-209 -564h-79l-207 564h88z" />
    <glyph glyph-name="v.smcp" unicode="&#xf776;" horiz-adv-x="529" 
d="M105 564q33 -93 64 -179q13 -37 27 -75.5t26.5 -75.5t24 -70.5t19.5 -58.5h1q8 25 19 58.5t24 70.5t27 75.5t27 75.5q31 86 64 179h84l-209 -564h-79l-207 564h88z" />
    <glyph glyph-name="w.smcp" unicode="&#xe217;" horiz-adv-x="750" 
d="M733 564l-155 -564h-86q-25 94 -48 179q-10 36 -20 74t-19 73t-16.5 65t-11.5 51h-2q-5 -21 -12.5 -51t-17 -65t-19.5 -73t-20 -74q-23 -85 -49 -179h-86l-154 564h83q26 -99 50 -189q10 -38 20 -78t19 -76.5t16.5 -67.5t12.5 -52h1q4 21 12 52t17.5 67.5t20 76.5
t20.5 78q24 90 52 189h76q27 -102 51 -193q10 -39 20 -78.5t19 -76t16.5 -66.5t11.5 -49h2q4 19 11.5 49t17 66.5t20 76t20.5 78.5q24 91 52 193h75z" />
    <glyph glyph-name="w.smcp" unicode="&#xf777;" horiz-adv-x="750" 
d="M733 564l-155 -564h-86q-25 94 -48 179q-10 36 -20 74t-19 73t-16.5 65t-11.5 51h-2q-5 -21 -12.5 -51t-17 -65t-19.5 -73t-20 -74q-23 -85 -49 -179h-86l-154 564h83q26 -99 50 -189q10 -38 20 -78t19 -76.5t16.5 -67.5t12.5 -52h1q4 21 12 52t17.5 67.5t20 76.5
t20.5 78q24 90 52 189h76q27 -102 51 -193q10 -39 20 -78.5t19 -76t16.5 -66.5t11.5 -49h2q4 19 11.5 49t17 66.5t20 76t20.5 78.5q24 91 52 193h75z" />
    <glyph glyph-name="x.smcp" unicode="&#xe218;" horiz-adv-x="546" 
d="M319 297l210 -297h-99l-160 228l-159 -228h-94l206 293l-188 271h99l140 -203l139 203h93z" />
    <glyph glyph-name="x.smcp" unicode="&#xf778;" horiz-adv-x="546" 
d="M319 297l210 -297h-99l-160 228l-159 -228h-94l206 293l-188 271h99l140 -203l139 203h93z" />
    <glyph glyph-name="y.smcp" unicode="&#xe219;" horiz-adv-x="521" 
d="M218 244l-207 320h95l157 -245l157 245h90l-209 -320v-244h-83v244z" />
    <glyph glyph-name="y.smcp" unicode="&#xf779;" horiz-adv-x="521" 
d="M218 244l-207 320h95l157 -245l157 245h90l-209 -320v-244h-83v244z" />
    <glyph glyph-name="z.smcp" unicode="&#xe21a;" horiz-adv-x="520" 
d="M54 564h421v-60l-325 -437h323v-67h-428v58l327 439h-318v67z" />
    <glyph glyph-name="z.smcp" unicode="&#xf77a;" horiz-adv-x="520" 
d="M54 564h421v-60l-325 -437h323v-67h-428v58l327 439h-318v67z" />
    <glyph glyph-name="anocross.smcp" unicode="&#xe220;" horiz-adv-x="530" 
d="M263 459h-2l-160 -459h-82l206 564h80l206 -564h-87z" />
    <glyph glyph-name="aacute.smcp" unicode="&#xe221;" horiz-adv-x="530" 
d="M377 717l-178 -107l-29 44l166 124zM511 0h-87l-52 147h-219l-53 -147h-81l206 564h80zM261 461q-3 -8 -7.5 -23.5t-11 -34.5t-14 -40.5t-14.5 -42.5q-18 -50 -38 -107h173q-20 57 -38 107q-8 21 -15 42.5t-13.5 40.5t-11.5 34.5t-8 23.5h-2z" />
    <glyph glyph-name="aacute.smcp" unicode="&#xf7e1;" horiz-adv-x="530" 
d="M377 717l-178 -107l-29 44l166 124zM511 0h-87l-52 147h-219l-53 -147h-81l206 564h80zM261 461q-3 -8 -7.5 -23.5t-11 -34.5t-14 -40.5t-14.5 -42.5q-18 -50 -38 -107h173q-20 57 -38 107q-8 21 -15 42.5t-13.5 40.5t-11.5 34.5t-8 23.5h-2z" />
    <glyph glyph-name="agrave.smcp" unicode="&#xe222;" horiz-adv-x="530" 
d="M155 717l41 61l166 -124l-29 -44zM511 0h-87l-52 147h-219l-53 -147h-81l206 564h80zM261 461q-3 -8 -7.5 -23.5t-11 -34.5t-14 -40.5t-14.5 -42.5q-18 -50 -38 -107h173q-20 57 -38 107q-8 21 -15 42.5t-13.5 40.5t-11.5 34.5t-8 23.5h-2z" />
    <glyph glyph-name="agrave.smcp" unicode="&#xf7e0;" horiz-adv-x="530" 
d="M155 717l41 61l166 -124l-29 -44zM511 0h-87l-52 147h-219l-53 -147h-81l206 564h80zM261 461q-3 -8 -7.5 -23.5t-11 -34.5t-14 -40.5t-14.5 -42.5q-18 -50 -38 -107h173q-20 57 -38 107q-8 21 -15 42.5t-13.5 40.5t-11.5 34.5t-8 23.5h-2z" />
    <glyph glyph-name="acircumflex.smcp" unicode="&#xe223;" horiz-adv-x="530" 
d="M239 774h55l112 -129l-42 -37l-98 107l-99 -107l-41 37zM511 0h-87l-52 147h-219l-53 -147h-81l206 564h80zM261 461q-3 -8 -7.5 -23.5t-11 -34.5t-14 -40.5t-14.5 -42.5q-18 -50 -38 -107h173q-20 57 -38 107q-8 21 -15 42.5t-13.5 40.5t-11.5 34.5t-8 23.5h-2z" />
    <glyph glyph-name="acircumflex.smcp" unicode="&#xf7e2;" horiz-adv-x="530" 
d="M239 774h55l112 -129l-42 -37l-98 107l-99 -107l-41 37zM511 0h-87l-52 147h-219l-53 -147h-81l206 564h80zM261 461q-3 -8 -7.5 -23.5t-11 -34.5t-14 -40.5t-14.5 -42.5q-18 -50 -38 -107h173q-20 57 -38 107q-8 21 -15 42.5t-13.5 40.5t-11.5 34.5t-8 23.5h-2z" />
    <glyph glyph-name="adieresis.smcp" unicode="&#xe224;" horiz-adv-x="530" 
d="M309 677q0 23 15 37.5t38 14.5t38 -14.5t15 -37.5q0 -22 -15 -37.5t-38 -15.5t-38 15.5t-15 37.5zM117 677q0 23 15 37.5t38 14.5t38 -14.5t15 -37.5q0 -22 -15 -37.5t-38 -15.5t-38 15.5t-15 37.5zM511 0h-87l-52 147h-219l-53 -147h-81l206 564h80zM261 461
q-3 -8 -7.5 -23.5t-11 -34.5t-14 -40.5t-14.5 -42.5q-18 -50 -38 -107h173q-20 57 -38 107q-8 21 -15 42.5t-13.5 40.5t-11.5 34.5t-8 23.5h-2z" />
    <glyph glyph-name="adieresis.smcp" unicode="&#xf7e4;" horiz-adv-x="530" 
d="M309 677q0 23 15 37.5t38 14.5t38 -14.5t15 -37.5q0 -22 -15 -37.5t-38 -15.5t-38 15.5t-15 37.5zM117 677q0 23 15 37.5t38 14.5t38 -14.5t15 -37.5q0 -22 -15 -37.5t-38 -15.5t-38 15.5t-15 37.5zM511 0h-87l-52 147h-219l-53 -147h-81l206 564h80zM261 461
q-3 -8 -7.5 -23.5t-11 -34.5t-14 -40.5t-14.5 -42.5q-18 -50 -38 -107h173q-20 57 -38 107q-8 21 -15 42.5t-13.5 40.5t-11.5 34.5t-8 23.5h-2z" />
    <glyph glyph-name="atilde.smcp" unicode="&#xe225;" horiz-adv-x="530" 
d="M196 731q25 0 44 -8t34.5 -17.5t29.5 -17.5t31 -8q16 0 27 7t19 16q9 10 14 23l43 -39q-10 -18 -25 -32q-13 -12 -33 -22t-49 -10q-26 0 -44 8t-33.5 17t-29.5 17t-31 8t-27.5 -7.5t-18.5 -15.5q-9 -10 -14 -22l-43 39q9 18 24 32q13 12 33 22t49 10zM511 0h-87l-52 147
h-219l-53 -147h-81l206 564h80zM261 461q-3 -8 -7.5 -23.5t-11 -34.5t-14 -40.5t-14.5 -42.5q-18 -50 -38 -107h173q-20 57 -38 107q-8 21 -15 42.5t-13.5 40.5t-11.5 34.5t-8 23.5h-2z" />
    <glyph glyph-name="atilde.smcp" unicode="&#xf7e3;" horiz-adv-x="530" 
d="M196 731q25 0 44 -8t34.5 -17.5t29.5 -17.5t31 -8q16 0 27 7t19 16q9 10 14 23l43 -39q-10 -18 -25 -32q-13 -12 -33 -22t-49 -10q-26 0 -44 8t-33.5 17t-29.5 17t-31 8t-27.5 -7.5t-18.5 -15.5q-9 -10 -14 -22l-43 39q9 18 24 32q13 12 33 22t49 10zM511 0h-87l-52 147
h-219l-53 -147h-81l206 564h80zM261 461q-3 -8 -7.5 -23.5t-11 -34.5t-14 -40.5t-14.5 -42.5q-18 -50 -38 -107h173q-20 57 -38 107q-8 21 -15 42.5t-13.5 40.5t-11.5 34.5t-8 23.5h-2z" />
    <glyph glyph-name="aring.smcp" unicode="&#xe226;" horiz-adv-x="530" 
d="M168 701q0 41 27 66.5t71 25.5t71 -25.5t27 -66.5q0 -39 -27 -66t-71 -27t-71 27t-27 66zM216 701q0 -20 14 -35.5t36 -15.5t36 15.5t14 35.5q0 21 -14 35.5t-36 14.5t-36 -14.5t-14 -35.5zM511 0h-87l-52 147h-219l-53 -147h-81l206 564h80zM261 461q-3 -8 -7.5 -23.5
t-11 -34.5t-14 -40.5t-14.5 -42.5q-18 -50 -38 -107h173q-20 57 -38 107q-8 21 -15 42.5t-13.5 40.5t-11.5 34.5t-8 23.5h-2z" />
    <glyph glyph-name="aring.smcp" unicode="&#xf7e5;" horiz-adv-x="530" 
d="M168 701q0 41 27 66.5t71 25.5t71 -25.5t27 -66.5q0 -39 -27 -66t-71 -27t-71 27t-27 66zM216 701q0 -20 14 -35.5t36 -15.5t36 15.5t14 35.5q0 21 -14 35.5t-36 14.5t-36 -14.5t-14 -35.5zM511 0h-87l-52 147h-219l-53 -147h-81l206 564h80zM261 461q-3 -8 -7.5 -23.5
t-11 -34.5t-14 -40.5t-14.5 -42.5q-18 -50 -38 -107h173q-20 57 -38 107q-8 21 -15 42.5t-13.5 40.5t-11.5 34.5t-8 23.5h-2z" />
    <glyph glyph-name="amacron.smcp" unicode="&#xe228;" horiz-adv-x="530" 
d="M136 689h259v-59h-259v59zM511 0h-87l-52 147h-219l-53 -147h-81l206 564h80zM261 461q-3 -8 -7.5 -23.5t-11 -34.5t-14 -40.5t-14.5 -42.5q-18 -50 -38 -107h173q-20 57 -38 107q-8 21 -15 42.5t-13.5 40.5t-11.5 34.5t-8 23.5h-2z" />
    <glyph glyph-name="amacron.smcp" unicode="&#xf641;" horiz-adv-x="530" 
d="M136 689h259v-59h-259v59zM511 0h-87l-52 147h-219l-53 -147h-81l206 564h80zM261 461q-3 -8 -7.5 -23.5t-11 -34.5t-14 -40.5t-14.5 -42.5q-18 -50 -38 -107h173q-20 57 -38 107q-8 21 -15 42.5t-13.5 40.5t-11.5 34.5t-8 23.5h-2z" />
    <glyph glyph-name="abreve.smcp" unicode="&#xe229;" horiz-adv-x="530" 
d="M178 749q5 -31 28.5 -53t58.5 -22t58.5 22t28.5 53l65 -20q-11 -49 -51.5 -80t-100.5 -31t-100.5 31t-51.5 80zM511 0h-87l-52 147h-219l-53 -147h-81l206 564h80zM261 461q-3 -8 -7.5 -23.5t-11 -34.5t-14 -40.5t-14.5 -42.5q-18 -50 -38 -107h173q-20 57 -38 107
q-8 21 -15 42.5t-13.5 40.5t-11.5 34.5t-8 23.5h-2z" />
    <glyph glyph-name="abreve.smcp" unicode="&#xf640;" horiz-adv-x="530" 
d="M178 749q5 -31 28.5 -53t58.5 -22t58.5 22t28.5 53l65 -20q-11 -49 -51.5 -80t-100.5 -31t-100.5 31t-51.5 80zM511 0h-87l-52 147h-219l-53 -147h-81l206 564h80zM261 461q-3 -8 -7.5 -23.5t-11 -34.5t-14 -40.5t-14.5 -42.5q-18 -50 -38 -107h173q-20 57 -38 107
q-8 21 -15 42.5t-13.5 40.5t-11.5 34.5t-8 23.5h-2z" />
    <glyph glyph-name="f_f_j" unicode="&#xe22a;" horiz-adv-x="838" 
d="M20 472h80v84q0 42 13 71t34.5 46.5t48.5 25.5t55 8q32 0 63 -8.5t48 -20.5l-37 -68q-11 8 -28.5 16t-39.5 8q-36 0 -54.5 -22t-18.5 -61v-79h209v49q0 52 16 88.5t41.5 59.5t58 33t66.5 10q50 0 92.5 -21t67.5 -59l-64 -52q-18 25 -39.5 42t-53.5 17q-48 0 -74.5 -33
t-26.5 -90v-44h281v-533q0 -41 -13 -69.5t-34 -46.5t-47.5 -26.5t-54.5 -8.5q-29 0 -54 7.5t-51 21.5l37 67q12 -8 27.5 -16t38.5 -8q35 0 51 23.5t16 60.5v464h-197v-408h-84v408h-209v-408h-84v408h-80v64z" />
    <glyph glyph-name="f_f_j" unicode="&#xe384;" horiz-adv-x="838" 
d="M20 472h80v84q0 42 13 71t34.5 46.5t48.5 25.5t55 8q32 0 63 -8.5t48 -20.5l-37 -68q-11 8 -28.5 16t-39.5 8q-36 0 -54.5 -22t-18.5 -61v-79h209v49q0 52 16 88.5t41.5 59.5t58 33t66.5 10q50 0 92.5 -21t67.5 -59l-64 -52q-18 25 -39.5 42t-53.5 17q-48 0 -74.5 -33
t-26.5 -90v-44h281v-533q0 -41 -13 -69.5t-34 -46.5t-47.5 -26.5t-54.5 -8.5q-29 0 -54 7.5t-51 21.5l37 67q12 -8 27.5 -16t38.5 -8q35 0 51 23.5t16 60.5v464h-197v-408h-84v408h-209v-408h-84v408h-80v64z" />
    <glyph glyph-name="f_f_k" unicode="&#xe22b;" horiz-adv-x="1114" 
d="M830 247l-55 -51v-196h-84v700h84v-416l203 188h99l-185 -172l217 -300h-102zM184 0h-84v408h-80v64h80v84q0 42 13 71t34.5 46.5t48.5 25.5t55 8q32 0 63 -8.5t48 -20.5l-37 -68q-11 8 -28.5 16t-39.5 8q-36 0 -54.5 -22t-18.5 -61v-79h208v89q0 42 11.5 71t31 46.5
t44.5 25.5t51 8q31 0 61.5 -7.5t46.5 -18.5l-37 -68q-10 8 -27.5 14.5t-35.5 6.5q-62 0 -62 -83v-84h105v-64h-105v-408h-84v408h-208v-408z" />
    <glyph glyph-name="f_f_k" unicode="&#xe385;" horiz-adv-x="1114" 
d="M830 247l-55 -51v-196h-84v700h84v-416l203 188h99l-185 -172l217 -300h-102zM184 0h-84v408h-80v64h80v84q0 42 13 71t34.5 46.5t48.5 25.5t55 8q32 0 63 -8.5t48 -20.5l-37 -68q-11 8 -28.5 16t-39.5 8q-36 0 -54.5 -22t-18.5 -61v-79h208v89q0 42 11.5 71t31 46.5
t44.5 25.5t51 8q31 0 61.5 -7.5t46.5 -18.5l-37 -68q-10 8 -27.5 14.5t-35.5 6.5q-62 0 -62 -83v-84h105v-64h-105v-408h-84v408h-208v-408z" />
    <glyph glyph-name="aogonek.smcp" unicode="&#xe22f;" horiz-adv-x="530" 
d="M410 -104q0 -17 10.5 -28t31.5 -11q16 0 29 8t27 29l31 -31q-22 -31 -47 -44.5t-54 -13.5q-15 0 -31.5 4t-30 13.5t-22.5 25.5t-9 40q0 40 23 65t56 47l-52 147h-219l-53 -147h-81l206 564h80l206 -564q-56 -31 -78.5 -56t-22.5 -48zM261 461q-3 -8 -7.5 -23.5t-11 -34.5
t-14 -40.5t-14.5 -42.5q-18 -50 -38 -107h173q-20 57 -38 107q-8 21 -15 42.5t-13.5 40.5t-11.5 34.5t-8 23.5h-2z" />
    <glyph glyph-name="aogonek.smcp" unicode="&#xf642;" horiz-adv-x="530" 
d="M410 -104q0 -17 10.5 -28t31.5 -11q16 0 29 8t27 29l31 -31q-22 -31 -47 -44.5t-54 -13.5q-15 0 -31.5 4t-30 13.5t-22.5 25.5t-9 40q0 40 23 65t56 47l-52 147h-219l-53 -147h-81l206 564h80l206 -564q-56 -31 -78.5 -56t-22.5 -48zM261 461q-3 -8 -7.5 -23.5t-11 -34.5
t-14 -40.5t-14.5 -42.5q-18 -50 -38 -107h173q-20 57 -38 107q-8 21 -15 42.5t-13.5 40.5t-11.5 34.5t-8 23.5h-2z" />
    <glyph glyph-name="edieresis.smcp" unicode="&#xe230;" horiz-adv-x="489" 
d="M306 677q0 23 15 37.5t38 14.5t38 -14.5t15 -37.5q0 -22 -15 -37.5t-38 -15.5t-38 15.5t-15 37.5zM114 677q0 23 15 37.5t38 14.5t38 -14.5t15 -37.5q0 -22 -15 -37.5t-38 -15.5t-38 15.5t-15 37.5zM90 0v564h345v-68h-262v-172h245v-67h-245v-189h267v-68h-350z" />
    <glyph glyph-name="edieresis.smcp" unicode="&#xf7eb;" horiz-adv-x="489" 
d="M306 677q0 23 15 37.5t38 14.5t38 -14.5t15 -37.5q0 -22 -15 -37.5t-38 -15.5t-38 15.5t-15 37.5zM114 677q0 23 15 37.5t38 14.5t38 -14.5t15 -37.5q0 -22 -15 -37.5t-38 -15.5t-38 15.5t-15 37.5zM90 0v564h345v-68h-262v-172h245v-67h-245v-189h267v-68h-350z" />
    <glyph glyph-name="ae.smcp" unicode="&#xe231;" horiz-adv-x="773" 
d="M375 0v147h-189l-83 -147h-88l320 564h384v-68h-261v-172h244v-67h-244v-189h266v-68h-349zM222 213h153v269h-3z" />
    <glyph glyph-name="ae.smcp" unicode="&#xf7e6;" horiz-adv-x="773" 
d="M375 0v147h-189l-83 -147h-88l320 564h384v-68h-261v-172h244v-67h-244v-189h266v-68h-349zM222 213h153v269h-3z" />
    <glyph glyph-name="cacute.smcp" unicode="&#xe234;" horiz-adv-x="573" 
d="M414 717l-178 -107l-29 44l166 124zM57 280q0 67 18 121.5t51.5 93t82 59.5t108.5 21q85 0 139 -40t82 -109l-79 -28q-17 48 -51.5 78.5t-93.5 30.5q-41 0 -72.5 -16t-53.5 -45.5t-33.5 -71.5t-11.5 -94q0 -49 11 -90t33 -71t54 -46.5t73 -16.5q56 0 91 29t54 78l78 -28
q-29 -69 -82.5 -108t-138.5 -39q-61 0 -109 21t-81.5 59.5t-51 92t-17.5 119.5z" />
    <glyph glyph-name="cacute.smcp" unicode="&#xf643;" horiz-adv-x="573" 
d="M414 717l-178 -107l-29 44l166 124zM57 280q0 67 18 121.5t51.5 93t82 59.5t108.5 21q85 0 139 -40t82 -109l-79 -28q-17 48 -51.5 78.5t-93.5 30.5q-41 0 -72.5 -16t-53.5 -45.5t-33.5 -71.5t-11.5 -94q0 -49 11 -90t33 -71t54 -46.5t73 -16.5q56 0 91 29t54 78l78 -28
q-29 -69 -82.5 -108t-138.5 -39q-61 0 -109 21t-81.5 59.5t-51 92t-17.5 119.5z" />
    <glyph glyph-name="ccircumflex.smcp" unicode="&#xe235;" horiz-adv-x="573" 
d="M284 774h55l112 -129l-42 -37l-98 107l-99 -107l-41 37zM57 280q0 67 18 121.5t51.5 93t82 59.5t108.5 21q85 0 139 -40t82 -109l-79 -28q-17 48 -51.5 78.5t-93.5 30.5q-41 0 -72.5 -16t-53.5 -45.5t-33.5 -71.5t-11.5 -94q0 -49 11 -90t33 -71t54 -46.5t73 -16.5
q56 0 91 29t54 78l78 -28q-29 -69 -82.5 -108t-138.5 -39q-61 0 -109 21t-81.5 59.5t-51 92t-17.5 119.5z" />
    <glyph glyph-name="ccircumflex.smcp" unicode="&#xf628;" horiz-adv-x="573" 
d="M284 774h55l112 -129l-42 -37l-98 107l-99 -107l-41 37zM57 280q0 67 18 121.5t51.5 93t82 59.5t108.5 21q85 0 139 -40t82 -109l-79 -28q-17 48 -51.5 78.5t-93.5 30.5q-41 0 -72.5 -16t-53.5 -45.5t-33.5 -71.5t-11.5 -94q0 -49 11 -90t33 -71t54 -46.5t73 -16.5
q56 0 91 29t54 78l78 -28q-29 -69 -82.5 -108t-138.5 -39q-61 0 -109 21t-81.5 59.5t-51 92t-17.5 119.5z" />
    <glyph glyph-name="ccaron.smcp" unicode="&#xe236;" horiz-adv-x="573" 
d="M339 612h-55l-112 129l42 37l98 -107l99 107l41 -37zM57 280q0 67 18 121.5t51.5 93t82 59.5t108.5 21q85 0 139 -40t82 -109l-79 -28q-17 48 -51.5 78.5t-93.5 30.5q-41 0 -72.5 -16t-53.5 -45.5t-33.5 -71.5t-11.5 -94q0 -49 11 -90t33 -71t54 -46.5t73 -16.5
q56 0 91 29t54 78l78 -28q-29 -69 -82.5 -108t-138.5 -39q-61 0 -109 21t-81.5 59.5t-51 92t-17.5 119.5z" />
    <glyph glyph-name="ccaron.smcp" unicode="&#xf644;" horiz-adv-x="573" 
d="M339 612h-55l-112 129l42 37l98 -107l99 107l41 -37zM57 280q0 67 18 121.5t51.5 93t82 59.5t108.5 21q85 0 139 -40t82 -109l-79 -28q-17 48 -51.5 78.5t-93.5 30.5q-41 0 -72.5 -16t-53.5 -45.5t-33.5 -71.5t-11.5 -94q0 -49 11 -90t33 -71t54 -46.5t73 -16.5
q56 0 91 29t54 78l78 -28q-29 -69 -82.5 -108t-138.5 -39q-61 0 -109 21t-81.5 59.5t-51 92t-17.5 119.5z" />
    <glyph glyph-name="cdotaccent.smcp" unicode="&#xe237;" horiz-adv-x="573" 
d="M260 676q0 25 15.5 40t39.5 15t39.5 -15t15.5 -40q0 -22 -15.5 -38t-39.5 -16t-39.5 16t-15.5 38zM57 280q0 67 18 121.5t51.5 93t82 59.5t108.5 21q85 0 139 -40t82 -109l-79 -28q-17 48 -51.5 78.5t-93.5 30.5q-41 0 -72.5 -16t-53.5 -45.5t-33.5 -71.5t-11.5 -94
q0 -49 11 -90t33 -71t54 -46.5t73 -16.5q56 0 91 29t54 78l78 -28q-29 -69 -82.5 -108t-138.5 -39q-61 0 -109 21t-81.5 59.5t-51 92t-17.5 119.5z" />
    <glyph glyph-name="cdotaccent.smcp" unicode="&#xf629;" horiz-adv-x="573" 
d="M260 676q0 25 15.5 40t39.5 15t39.5 -15t15.5 -40q0 -22 -15.5 -38t-39.5 -16t-39.5 16t-15.5 38zM57 280q0 67 18 121.5t51.5 93t82 59.5t108.5 21q85 0 139 -40t82 -109l-79 -28q-17 48 -51.5 78.5t-93.5 30.5q-41 0 -72.5 -16t-53.5 -45.5t-33.5 -71.5t-11.5 -94
q0 -49 11 -90t33 -71t54 -46.5t73 -16.5q56 0 91 29t54 78l78 -28q-29 -69 -82.5 -108t-138.5 -39q-61 0 -109 21t-81.5 59.5t-51 92t-17.5 119.5z" />
    <glyph glyph-name="ccedilla.smcp" unicode="&#xe238;" horiz-adv-x="573" 
d="M258 -156q7 -6 19.5 -12.5t31.5 -6.5q20 0 31 11.5t11 30.5q0 40 -40 40q-13 0 -22 -4t-16 -9l-27 27l28 70q-103 14 -160 91t-57 198q0 67 18 121.5t51.5 93t82 59.5t108.5 21q85 0 139 -40t82 -109l-79 -28q-17 48 -51.5 78.5t-93.5 30.5q-41 0 -72.5 -16t-53.5 -45.5
t-33.5 -71.5t-11.5 -94q0 -49 11 -90t33 -71t54 -46.5t73 -16.5q56 0 91 29t54 78l78 -28q-29 -69 -82 -107.5t-137 -39.5l-17 -44q12 7 30 7q33 0 55.5 -21.5t22.5 -60.5q0 -43 -28 -67.5t-72 -24.5q-30 0 -50 9.5t-29 18.5z" />
    <glyph glyph-name="ccedilla.smcp" unicode="&#xf7e7;" horiz-adv-x="573" 
d="M258 -156q7 -6 19.5 -12.5t31.5 -6.5q20 0 31 11.5t11 30.5q0 40 -40 40q-13 0 -22 -4t-16 -9l-27 27l28 70q-103 14 -160 91t-57 198q0 67 18 121.5t51.5 93t82 59.5t108.5 21q85 0 139 -40t82 -109l-79 -28q-17 48 -51.5 78.5t-93.5 30.5q-41 0 -72.5 -16t-53.5 -45.5
t-33.5 -71.5t-11.5 -94q0 -49 11 -90t33 -71t54 -46.5t73 -16.5q56 0 91 29t54 78l78 -28q-29 -69 -82 -107.5t-137 -39.5l-17 -44q12 7 30 7q33 0 55.5 -21.5t22.5 -60.5q0 -43 -28 -67.5t-72 -24.5q-30 0 -50 9.5t-29 18.5z" />
    <glyph glyph-name="dcaron.smcp" unicode="&#xe239;" horiz-adv-x="605" 
d="M308 612h-55l-112 129l42 37l98 -107l99 107l41 -37zM90 564h196q61 0 109.5 -19t82.5 -55.5t52 -89t18 -118.5q0 -67 -18 -119.5t-52 -88.5t-82.5 -55t-109.5 -19h-196v564zM462 282q0 48 -11 87.5t-33.5 67.5t-58 43.5t-83.5 15.5h-103v-428h103q48 0 83.5 15.5
t58 43.5t33.5 67.5t11 87.5z" />
    <glyph glyph-name="dcaron.smcp" unicode="&#xf645;" horiz-adv-x="605" 
d="M308 612h-55l-112 129l42 37l98 -107l99 107l41 -37zM90 564h196q61 0 109.5 -19t82.5 -55.5t52 -89t18 -118.5q0 -67 -18 -119.5t-52 -88.5t-82.5 -55t-109.5 -19h-196v564zM462 282q0 48 -11 87.5t-33.5 67.5t-58 43.5t-83.5 15.5h-103v-428h103q48 0 83.5 15.5
t58 43.5t33.5 67.5t11 87.5z" />
    <glyph glyph-name="dcroat.smcp" unicode="&#xe23c;" horiz-adv-x="619" 
d="M104 264h-69v59h69v241h196q61 0 109.5 -19t82.5 -55.5t52 -89t18 -118.5q0 -67 -18 -119.5t-52 -88.5t-82.5 -55t-109.5 -19h-196v264zM187 264v-196h103q48 0 83.5 15.5t58 43.5t33.5 67.5t11 87.5t-11 87.5t-33.5 67.5t-58 43.5t-83.5 15.5h-103v-173h143v-59h-143z
" />
    <glyph glyph-name="dcroat.smcp" unicode="&#xf646;" horiz-adv-x="619" 
d="M104 264h-69v59h69v241h196q61 0 109.5 -19t82.5 -55.5t52 -89t18 -118.5q0 -67 -18 -119.5t-52 -88.5t-82.5 -55t-109.5 -19h-196v264zM187 264v-196h103q48 0 83.5 15.5t58 43.5t33.5 67.5t11 87.5t-11 87.5t-33.5 67.5t-58 43.5t-83.5 15.5h-103v-173h143v-59h-143z
" />
    <glyph glyph-name="eacute.smcp" unicode="&#xe23d;" horiz-adv-x="489" 
d="M379 717l-178 -107l-29 44l166 124zM90 0v564h345v-68h-262v-172h245v-67h-245v-189h267v-68h-350z" />
    <glyph glyph-name="eacute.smcp" unicode="&#xf7e9;" horiz-adv-x="489" 
d="M379 717l-178 -107l-29 44l166 124zM90 0v564h345v-68h-262v-172h245v-67h-245v-189h267v-68h-350z" />
    <glyph glyph-name="egrave.smcp" unicode="&#xe23e;" horiz-adv-x="489" 
d="M154 717l41 61l166 -124l-29 -44zM90 0v564h345v-68h-262v-172h245v-67h-245v-189h267v-68h-350z" />
    <glyph glyph-name="egrave.smcp" unicode="&#xf7e8;" horiz-adv-x="489" 
d="M154 717l41 61l166 -124l-29 -44zM90 0v564h345v-68h-262v-172h245v-67h-245v-189h267v-68h-350z" />
    <glyph glyph-name="ecircumflex.smcp" unicode="&#xe23f;" horiz-adv-x="489" 
d="M235 774h55l112 -129l-42 -37l-98 107l-99 -107l-41 37zM90 0v564h345v-68h-262v-172h245v-67h-245v-189h267v-68h-350z" />
    <glyph glyph-name="ecircumflex.smcp" unicode="&#xf7ea;" horiz-adv-x="489" 
d="M235 774h55l112 -129l-42 -37l-98 107l-99 -107l-41 37zM90 0v564h345v-68h-262v-172h245v-67h-245v-189h267v-68h-350z" />
    <glyph glyph-name="gcommaaccent.smcp" unicode="&#xe240;" horiz-adv-x="620" 
d="M301 286h239v-286h-75v60q-9 -13 -22 -25.5t-32 -23t-44 -17t-58 -6.5q-61 0 -108 22.5t-79 62.5t-48.5 93.5t-16.5 115.5q0 64 18 118t52.5 93t83.5 60.5t111 21.5q78 0 134.5 -38t86.5 -107l-77 -30q-19 48 -55 77.5t-93 29.5q-78 0 -126.5 -58t-48.5 -172
q0 -107 45 -164t129 -57q29 0 55 8t45.5 23.5t31 39.5t11.5 57v37h-159v65zM362 -123q0 -12 -3.5 -28t-12.5 -31t-25 -26.5t-42 -15.5l-13 33q16 0 31 12.5t15 29.5v3q-1 -1 -2 -1h-7q-17 0 -31 13t-14 33q0 17 12 32.5t37 15.5q29 0 42 -21t13 -49z" />
    <glyph glyph-name="gcommaaccent.smcp" unicode="&#xf64c;" horiz-adv-x="620" 
d="M301 286h239v-286h-75v60q-9 -13 -22 -25.5t-32 -23t-44 -17t-58 -6.5q-61 0 -108 22.5t-79 62.5t-48.5 93.5t-16.5 115.5q0 64 18 118t52.5 93t83.5 60.5t111 21.5q78 0 134.5 -38t86.5 -107l-77 -30q-19 48 -55 77.5t-93 29.5q-78 0 -126.5 -58t-48.5 -172
q0 -107 45 -164t129 -57q29 0 55 8t45.5 23.5t31 39.5t11.5 57v37h-159v65zM362 -123q0 -12 -3.5 -28t-12.5 -31t-25 -26.5t-42 -15.5l-13 33q16 0 31 12.5t15 29.5v3q-1 -1 -2 -1h-7q-17 0 -31 13t-14 33q0 17 12 32.5t37 15.5q29 0 42 -21t13 -49z" />
    <glyph glyph-name="ecaron.smcp" unicode="&#xe241;" horiz-adv-x="489" 
d="M292 612h-55l-112 129l42 37l98 -107l99 107l41 -37zM90 0v564h345v-68h-262v-172h245v-67h-245v-189h267v-68h-350z" />
    <glyph glyph-name="ecaron.smcp" unicode="&#xf647;" horiz-adv-x="489" 
d="M292 612h-55l-112 129l42 37l98 -107l99 107l41 -37zM90 0v564h345v-68h-262v-172h245v-67h-245v-189h267v-68h-350z" />
    <glyph glyph-name="emacron.smcp" unicode="&#xe242;" horiz-adv-x="489" 
d="M135 689h259v-59h-259v59zM90 0v564h345v-68h-262v-172h245v-67h-245v-189h267v-68h-350z" />
    <glyph glyph-name="emacron.smcp" unicode="&#xf649;" horiz-adv-x="489" 
d="M135 689h259v-59h-259v59zM90 0v564h345v-68h-262v-172h245v-67h-245v-189h267v-68h-350z" />
    <glyph glyph-name="ebreve.smcp" unicode="&#xe243;" horiz-adv-x="489" 
d="M176 749q5 -31 28.5 -53t58.5 -22t58.5 22t28.5 53l65 -20q-11 -49 -51.5 -80t-100.5 -31t-100.5 31t-51.5 80zM90 0v564h345v-68h-262v-172h245v-67h-245v-189h267v-68h-350z" />
    <glyph glyph-name="ebreve.smcp" unicode="&#xf62a;" horiz-adv-x="489" 
d="M176 749q5 -31 28.5 -53t58.5 -22t58.5 22t28.5 53l65 -20q-11 -49 -51.5 -80t-100.5 -31t-100.5 31t-51.5 80zM90 0v564h345v-68h-262v-172h245v-67h-245v-189h267v-68h-350z" />
    <glyph glyph-name="edotaccent.smcp" unicode="&#xe246;" horiz-adv-x="489" 
d="M211 676q0 25 15.5 40t39.5 15t39.5 -15t15.5 -40q0 -22 -15.5 -38t-39.5 -16t-39.5 16t-15.5 38zM90 0v564h345v-68h-262v-172h245v-67h-245v-189h267v-68h-350z" />
    <glyph glyph-name="edotaccent.smcp" unicode="&#xf648;" horiz-adv-x="489" 
d="M211 676q0 25 15.5 40t39.5 15t39.5 -15t15.5 -40q0 -22 -15.5 -38t-39.5 -16t-39.5 16t-15.5 38zM90 0v564h345v-68h-262v-172h245v-67h-245v-189h267v-68h-350z" />
    <glyph glyph-name="eogonek.smcp" unicode="&#xe249;" horiz-adv-x="489" 
d="M295 -104q0 -17 10.5 -28t31.5 -11q16 0 29 8t27 29l31 -31q-22 -31 -47 -44.5t-54 -13.5q-15 0 -31.5 4t-30 13.5t-22.5 25.5t-9 40q0 40 23.5 65t56.5 47h-220v564h345v-68h-262v-172h245v-67h-245v-189h267v-68h-46q-56 -31 -77.5 -56t-21.5 -48z" />
    <glyph glyph-name="eogonek.smcp" unicode="&#xf64a;" horiz-adv-x="489" 
d="M295 -104q0 -17 10.5 -28t31.5 -11q16 0 29 8t27 29l31 -31q-22 -31 -47 -44.5t-54 -13.5q-15 0 -31.5 4t-30 13.5t-22.5 25.5t-9 40q0 40 23.5 65t56.5 47h-220v564h345v-68h-262v-172h245v-67h-245v-189h267v-68h-46q-56 -31 -77.5 -56t-21.5 -48z" />
    <glyph glyph-name="gcircumflex.smcp" unicode="&#xe24b;" horiz-adv-x="620" 
d="M290 774h55l112 -129l-42 -37l-98 107l-99 -107l-41 37zM301 286h239v-286h-75v60q-9 -13 -22 -25.5t-32 -23t-44 -17t-58 -6.5q-61 0 -108 22.5t-79 62.5t-48.5 93.5t-16.5 115.5q0 64 18 118t52.5 93t83.5 60.5t111 21.5q78 0 134.5 -38t86.5 -107l-77 -30
q-19 48 -55 77.5t-93 29.5q-78 0 -126.5 -58t-48.5 -172q0 -107 45 -164t129 -57q29 0 55 8t45.5 23.5t31 39.5t11.5 57v37h-159v65z" />
    <glyph glyph-name="gcircumflex.smcp" unicode="&#xf62c;" horiz-adv-x="620" 
d="M290 774h55l112 -129l-42 -37l-98 107l-99 -107l-41 37zM301 286h239v-286h-75v60q-9 -13 -22 -25.5t-32 -23t-44 -17t-58 -6.5q-61 0 -108 22.5t-79 62.5t-48.5 93.5t-16.5 115.5q0 64 18 118t52.5 93t83.5 60.5t111 21.5q78 0 134.5 -38t86.5 -107l-77 -30
q-19 48 -55 77.5t-93 29.5q-78 0 -126.5 -58t-48.5 -172q0 -107 45 -164t129 -57q29 0 55 8t45.5 23.5t31 39.5t11.5 57v37h-159v65z" />
    <glyph glyph-name="gbreve.smcp" unicode="&#xe24e;" horiz-adv-x="620" 
d="M230 749q5 -31 28.5 -53t58.5 -22t58.5 22t28.5 53l65 -20q-11 -49 -51.5 -80t-100.5 -31t-100.5 31t-51.5 80zM301 286h239v-286h-75v60q-9 -13 -22 -25.5t-32 -23t-44 -17t-58 -6.5q-61 0 -108 22.5t-79 62.5t-48.5 93.5t-16.5 115.5q0 64 18 118t52.5 93t83.5 60.5
t111 21.5q78 0 134.5 -38t86.5 -107l-77 -30q-19 48 -55 77.5t-93 29.5q-78 0 -126.5 -58t-48.5 -172q0 -107 45 -164t129 -57q29 0 55 8t45.5 23.5t31 39.5t11.5 57v37h-159v65z" />
    </font>
</defs>
</svg>
