<?xml version="1.0" encoding="UTF-8"?>
<svg width="11px" height="11px" viewBox="0 0 11 11" version="1.1" xmlns="http://www.w3.org/2000/svg" xmlns:xlink="http://www.w3.org/1999/xlink">
    <title>Shape</title>
    <g id="Page-1" stroke="none" stroke-width="1" fill="none" fill-rule="evenodd">
        <g id="1" transform="translate(-1179.000000, -255.000000)" fill="#64B5F6">
            <path d="M1184.5,255.22 C1181.5839,255.22 1179.22,257.5839 1179.22,260.5 C1179.22,263.4161 1181.5839,265.78 1184.5,265.78 C1187.41555,265.78 1189.78,263.4161 1189.78,260.49945 C1189.78,257.5839 1187.41555,255.22 1184.5,255.22 L1184.5,255.22 Z M1184.41695,263.57945 L1184.3889,263.57945 C1183.9588,263.5668 1183.6552,263.24945 1183.66785,262.8254 C1183.67995,262.4085 1183.9907,262.10545 1184.4065,262.10545 L1184.4318,262.10655 C1184.874,262.1192 1185.1743,262.43325 1185.16165,262.8694 C1185.149,263.2874 1184.84375,263.57945 1184.41695,263.57945 L1184.41695,263.57945 Z M1186.227,259.9874 C1186.1258,260.1304 1185.9036,260.3097 1185.6231,260.52805 L1185.314,260.7409 C1185.1446,260.8729 1185.0423,260.99775 1185.00435,261.1193 C1184.97355,261.215 1184.95925,261.24085 1184.9565,261.4361 L1184.9565,261.4856 L1183.77675,261.4856 L1183.78005,261.3855 C1183.7949,260.9763 1183.8048,260.7343 1183.97475,260.53465 C1184.2415,260.22225 1184.83,259.84275 1184.85475,259.8268 C1184.93945,259.76355 1185.0104,259.6915 1185.0632,259.61395 C1185.18695,259.4429 1185.2414,259.3087 1185.2414,259.1778 C1185.2414,258.9941 1185.1875,258.82415 1185.08025,258.674 C1184.97685,258.5277 1184.7805,258.4551 1184.4967,258.4551 C1184.2151,258.4551 1184.02205,258.5442 1183.9071,258.7279 C1183.7883,258.91545 1183.72835,259.1129 1183.72835,259.31475 L1183.72835,259.36535 L1182.5123,259.36535 L1182.5145,259.31255 C1182.54585,258.5684 1182.81205,258.03215 1183.30375,257.7192 C1183.6134,257.52065 1183.99895,257.42 1184.4483,257.42 C1185.0357,257.42 1185.5329,257.563 1185.9234,257.8446 C1186.31995,258.13005 1186.5207,258.55795 1186.5207,259.11565 C1186.52015,259.4275 1186.4217,259.72065 1186.227,259.9874 L1186.227,259.9874 Z" id="Shape"></path>
        </g>
    </g>
</svg>