<?xml version="1.0" encoding="UTF-8"?>
<svg width="132px" height="42px" viewBox="0 0 132 42" version="1.1" xmlns="http://www.w3.org/2000/svg" xmlns:xlink="http://www.w3.org/1999/xlink">
    <title>Group 2</title>
    <g id="Page-1" stroke="none" stroke-width="1" fill="none" fill-rule="evenodd">
        <g id="1" transform="translate(-228.000000, -12.000000)">
            <g id="Group-2" transform="translate(228.000000, 12.000000)">
                <g id="Group" transform="translate(23.538462, 12.461538)" fill="#FFFFFF">
                    <path d="M5.30769231,5.7 C7.70769231,5.7 8.93076923,6.94615385 9.6,8.56153846 L7.36153846,9.41538462 C7.08461538,8.30769231 6.36923077,7.63846154 5.19230769,7.63846154 C3.46153846,7.63846154 2.7,9.32307692 2.7,11.1461538 C2.7,12.9461538 3.41538462,14.6307692 5.21538462,14.6307692 C6.43846154,14.6307692 6.99230769,13.9153846 7.36153846,12.9692308 L9.64615385,13.8461538 C8.81538462,15.3692308 7.59230769,16.5923077 5.26153846,16.5923077 C2.14615385,16.5923077 0.161538462,14.4230769 0.161538462,11.1461538 C0.138461538,7.89230769 2.12307692,5.7 5.30769231,5.7 L5.30769231,5.7 Z" id="Shape"></path>
                    <path d="M20.0076923,16.3153846 L17.6538462,16.3153846 L17.6538462,14.7692308 C17.0307692,15.8307692 16.0384615,16.5923077 14.4461538,16.5923077 C12.4846154,16.5923077 10.8461538,15.4384615 10.8461538,13.1307692 L10.8461538,5.97692308 L13.3153846,5.97692308 L13.3153846,12.5307692 C13.3153846,14.0076923 14.2384615,14.5846154 15.1846154,14.5846154 C16.3846154,14.5846154 17.5384615,13.5230769 17.5384615,11.4692308 L17.5384615,6 L20.0076923,6 L20.0076923,16.3153846 L20.0076923,16.3153846 Z" id="Shape"></path>
                    <path d="M45.6923077,14.0538462 C44.8846154,15.6 43.4538462,16.6153846 41.2846154,16.6153846 C38.1230769,16.6153846 36.1615385,14.4230769 36.1615385,11.1461538 C36.1615385,7.89230769 38.1692308,5.72307692 41.1923077,5.72307692 C44.5153846,5.72307692 46.0615385,8.23846154 46.0615385,11.0538462 L46.0615385,11.7461538 L38.6769231,11.7461538 C38.7461538,13.2923077 39.4153846,14.7692308 41.2615385,14.7692308 C42.5307692,14.7692308 43.1307692,14.1230769 43.5461538,13.2230769 L45.6923077,14.0538462 L45.6923077,14.0538462 Z M38.7230769,10.0846154 L43.5692308,10.0846154 C43.5,8.44615385 42.5538462,7.5 41.1692308,7.5 C39.7153846,7.5 38.8615385,8.58461538 38.7230769,10.0846154 L38.7230769,10.0846154 Z" id="Shape"></path>
                    <path d="M47.5615385,5.97692308 L49.9384615,5.97692308 L49.9384615,7.54615385 C50.5384615,6.48461538 51.5769231,5.7 53.1923077,5.7 C55.2,5.7 56.8615385,6.85384615 56.8615385,9.18461538 L56.8615385,16.3153846 L54.3692308,16.3153846 L54.3692308,9.76153846 C54.3692308,8.28461538 53.4,7.70769231 52.4538462,7.70769231 C51.2076923,7.70769231 50.0538462,8.76923077 50.0538462,10.8230769 L50.0538462,16.2923077 L47.5615385,16.2923077 L47.5615385,5.97692308 L47.5615385,5.97692308 Z" id="Shape"></path>
                    <path d="M63.3692308,5.7 C65.7692308,5.7 66.9923077,6.94615385 67.6615385,8.56153846 L65.4230769,9.41538462 C65.1461538,8.30769231 64.4307692,7.63846154 63.2538462,7.63846154 C61.5230769,7.63846154 60.7615385,9.32307692 60.7615385,11.1461538 C60.7615385,12.9461538 61.4769231,14.6307692 63.2769231,14.6307692 C64.5,14.6307692 65.0538462,13.9153846 65.4230769,12.9692308 L67.7076923,13.8461538 C66.8769231,15.3692308 65.6538462,16.5923077 63.3230769,16.5923077 C60.2076923,16.5923077 58.2230769,14.4230769 58.2230769,11.1461538 C58.2,7.89230769 60.1615385,5.7 63.3692308,5.7 L63.3692308,5.7 Z" id="Shape"></path>
                    <path d="M84.0230769,3.13846154 C84.6692308,3.13846154 85.2,3.43846154 85.5,3.73846154 L86.2615385,1.68461538 C85.6615385,1.31538462 84.6923077,1.10769231 83.7692308,1.10769231 C81.9923077,1.10769231 80.0769231,2.07692308 80.0769231,4.96153846 L80.0769231,6 L75.8538462,6 C75.8538462,6 73.5461538,12.3 73.1769231,13.5461538 L73.1538462,13.5461538 C72.7384615,12.3 70.4307692,6 70.4307692,6 L67.8923077,6 L71.9538462,16.3615385 L70.2461538,20.7 L72.6692308,20.7 L77.5384615,7.82307692 L80.1,7.82307692 L80.1,16.3384615 L82.5692308,16.3384615 L82.5692308,7.82307692 L84.4384615,7.82307692 L85.1307692,6 L82.5692308,6 L82.5692308,4.93846154 C82.5692308,3.64615385 83.1692308,3.13846154 84.0230769,3.13846154 L84.0230769,3.13846154 Z" id="Shape"></path>
                    <path d="M92.1230769,14.9769231 C91.4538462,15.9461538 90.4615385,16.5923077 88.8230769,16.5923077 C86.7461538,16.5923077 85.3615385,15.4615385 85.3615385,13.6384615 C85.3615385,10.8692308 88.5461538,10.0384615 92.0769231,10.0384615 L92.0769231,9.39230769 C92.0769231,8.30769231 91.4769231,7.54615385 90.1846154,7.54615385 C88.8692308,7.54615385 88.2461538,8.28461538 88.2230769,9.16153846 L85.8230769,8.81538462 C86.0307692,6.78461538 87.9923077,5.7 90.2769231,5.7 C92.7692308,5.7 94.5,6.96923077 94.5,9.46153846 L94.5,14.9076923 C94.5,15.5307692 94.6153846,15.9230769 94.7307692,16.3153846 L92.3307692,16.3153846 C92.2384615,16.1307692 92.1230769,15.5538462 92.1230769,14.9769231 L92.1230769,14.9769231 Z M92.0769231,12.5076923 L92.0769231,11.6538462 C89.5153846,11.6538462 87.8076923,12.1384615 87.8076923,13.5 C87.8076923,14.3307692 88.5230769,14.7692308 89.5153846,14.7692308 C90.8076923,14.7692308 92.0769231,13.9384615 92.0769231,12.5076923 L92.0769231,12.5076923 Z" id="Shape"></path>
                    <polygon id="Shape" points="96.3923077 5.97692308 98.8846154 5.97692308 98.8846154 16.3153846 96.3923077 16.3153846"></polygon>
                    <path d="M106.661538,8.03076923 C106.384615,7.89230769 106.061538,7.82307692 105.761538,7.82307692 C104.561538,7.82307692 103.246154,8.86153846 103.246154,11.1 L103.246154,16.3153846 L100.753846,16.3153846 L100.753846,5.97692308 L103.084615,5.97692308 L103.084615,7.66153846 C103.661538,6.34615385 104.723077,5.7 106.130769,5.7 C106.546154,5.7 107.030769,5.76923077 107.446154,5.93076923 L106.661538,8.03076923 L106.661538,8.03076923 Z" id="Shape"></path>
                    <path d="M27.8076923,8.03076923 C27.5307692,7.89230769 27.2076923,7.82307692 26.9076923,7.82307692 C25.7076923,7.82307692 24.3923077,8.86153846 24.3923077,11.1 L24.3923077,16.3153846 L21.9,16.3153846 L21.9,5.97692308 L24.2307692,5.97692308 L24.2307692,7.66153846 C24.8076923,6.34615385 25.8692308,5.7 27.2769231,5.7 C27.6923077,5.7 28.1769231,5.76923077 28.5923077,5.93076923 L27.8076923,8.03076923 L27.8076923,8.03076923 Z" id="Shape"></path>
                    <path d="M35.4461538,8.03076923 C35.1692308,7.89230769 34.8461538,7.82307692 34.5461538,7.82307692 C33.3461538,7.82307692 32.0307692,8.86153846 32.0307692,11.1 L32.0307692,16.3153846 L29.5384615,16.3153846 L29.5384615,5.97692308 L31.8692308,5.97692308 L31.8692308,7.66153846 C32.4461538,6.34615385 33.5076923,5.7 34.9153846,5.7 C35.3307692,5.7 35.8153846,5.76923077 36.2307692,5.93076923 L35.4461538,8.03076923 L35.4461538,8.03076923 Z" id="Shape"></path>
                    <circle id="Oval" transform="translate(97.633015, 2.290200) rotate(-59.999272) translate(-97.633015, -2.290200) " cx="97.6330154" cy="2.2902" r="1.59227266"></circle>
                </g>
                <g id="Group" fill="#589BB9">
                    <circle id="Oval" cx="7.5" cy="34.5" r="7.5"></circle>
                    <circle id="Oval" cx="18.5" cy="5.5" r="5.5"></circle>
                    <circle id="Oval" cx="13" cy="22" r="4"></circle>
                    <circle id="Oval" cx="15" cy="15" r="2"></circle>
                </g>
            </g>
        </g>
    </g>
</svg>