<?xml version="1.0" encoding="UTF-8"?>
<svg width="28px" height="28px" viewBox="0 0 28 28" version="1.1" xmlns="http://www.w3.org/2000/svg" xmlns:xlink="http://www.w3.org/1999/xlink">
    <title>ic_lock_black_24px</title>
    <g id="Page-1" stroke="none" stroke-width="1" fill="none" fill-rule="evenodd">
        <g id="2" transform="translate(-468.000000, -238.000000)">
            <g id="Group-2" transform="translate(420.000000, 211.000000)">
                <g id="Group" transform="translate(48.000000, 27.000000)">
                    <polygon id="Shape" points="0 0 28 0 28 28 0 28"></polygon>
                    <path d="M21,9.33333333 L19.8333333,9.33333333 L19.8333333,7 C19.8333333,3.78 17.22,1.16666667 14,1.16666667 C10.78,1.16666667 8.16666667,3.78 8.16666667,7 L8.16666667,9.33333333 L7,9.33333333 C5.71666667,9.33333333 4.66666667,10.3833333 4.66666667,11.6666667 L4.66666667,23.3333333 C4.66666667,24.6166667 5.71666667,25.6666667 7,25.6666667 L21,25.6666667 C22.2833333,25.6666667 23.3333333,24.6166667 23.3333333,23.3333333 L23.3333333,11.6666667 C23.3333333,10.3833333 22.2833333,9.33333333 21,9.33333333 L21,9.33333333 Z M14,19.8333333 C12.7166667,19.8333333 11.6666667,18.7833333 11.6666667,17.5 C11.6666667,16.2166667 12.7166667,15.1666667 14,15.1666667 C15.2833333,15.1666667 16.3333333,16.2166667 16.3333333,17.5 C16.3333333,18.7833333 15.2833333,19.8333333 14,19.8333333 L14,19.8333333 Z M17.6166667,9.33333333 L10.3833333,9.33333333 L10.3833333,7 C10.3833333,5.005 12.005,3.38333333 14,3.38333333 C15.995,3.38333333 17.6166667,5.005 17.6166667,7 L17.6166667,9.33333333 L17.6166667,9.33333333 Z" id="Shape" fill="#D4DDE3"></path>
                </g>
            </g>
        </g>
    </g>
</svg>