<?xml version="1.0" encoding="UTF-8"?>
<svg width="18px" height="18px" viewBox="0 0 18 18" version="1.1" xmlns="http://www.w3.org/2000/svg" xmlns:xlink="http://www.w3.org/1999/xlink">
    <title>ic_refresh_black_24px</title>
    <g id="Page-1" stroke="none" stroke-width="1" fill="none" fill-rule="evenodd">
        <g id="2" transform="translate(-530.000000, -525.000000)">
            <g id="Group-2" transform="translate(420.000000, 211.000000)">
                <g id="Group" transform="translate(110.000000, 314.000000)">
                    <path d="M13.2375,4.7625 C12.15,3.675 10.6575,3 9,3 C5.685,3 3.0075,5.685 3.0075,9 C3.0075,12.315 5.685,15 9,15 C11.7975,15 14.13,13.0875 14.7975,10.5 L13.2375,10.5 C12.6225,12.2475 10.9575,13.5 9,13.5 C6.5175,13.5 4.5,11.4825 4.5,9 C4.5,6.5175 6.5175,4.5 9,4.5 C10.245,4.5 11.355,5.0175 12.165,5.835 L9.75,8.25 L15,8.25 L15,3 L13.2375,4.7625 L13.2375,4.7625 Z" id="Shape" fill="#6EC0E6"></path>
                    <polygon id="Shape" points="0 0 18 0 18 18 0 18"></polygon>
                </g>
            </g>
        </g>
    </g>
</svg>