<?xml version="1.0" encoding="UTF-8"?>
<svg width="18px" height="18px" viewBox="0 0 18 18" version="1.1" xmlns="http://www.w3.org/2000/svg" xmlns:xlink="http://www.w3.org/1999/xlink">
    <title>ic_phone_black_24px</title>
    <g id="Page-1" stroke="none" stroke-width="1" fill="none" fill-rule="evenodd">
        <g id="2" transform="translate(-743.000000, -523.000000)">
            <g id="Group-2" transform="translate(420.000000, 211.000000)">
                <g id="Group" transform="translate(323.000000, 312.000000)">
                    <polygon id="Shape" points="0 0 18 0 18 18 0 18"></polygon>
                    <path d="M4.965,8.0925 C6.045,10.215 7.785,11.9475 9.9075,13.035 L11.5575,11.385 C11.76,11.1825 12.06,11.115 12.3225,11.205 C13.1625,11.4825 14.07,11.6325 15,11.6325 C15.4125,11.6325 15.75,11.97 15.75,12.3825 L15.75,15 C15.75,15.4125 15.4125,15.75 15,15.75 C7.9575,15.75 2.25,10.0425 2.25,3 C2.25,2.5875 2.5875,2.25 3,2.25 L5.625,2.25 C6.0375,2.25 6.375,2.5875 6.375,3 C6.375,3.9375 6.525,4.8375 6.8025,5.6775 C6.885,5.94 6.825,6.2325 6.615,6.4425 L4.965,8.0925 L4.965,8.0925 Z" id="Shape" fill="#6EC0E6"></path>
                </g>
            </g>
        </g>
    </g>
</svg>