<?xml version="1.0" encoding="UTF-8"?>
<svg width="15px" height="19px" viewBox="0 0 15 19" version="1.1" xmlns="http://www.w3.org/2000/svg" xmlns:xlink="http://www.w3.org/1999/xlink">
    <title>ios-locked</title>
    <g id="Page-1" stroke="none" stroke-width="1" fill="none" fill-rule="evenodd">
        <g id="iPhone-8" transform="translate(-196.000000, -595.000000)" fill-rule="nonzero">
            <g id="Group-4" transform="translate(196.000000, 578.000000)">
                <g id="ios-locked" transform="translate(0.000000, 17.000000)">
                    <path d="M12.375,8.03846154 L12.375,4.75 C12.375,2.12699519 10.1924062,0 7.50075,0 C4.80759375,0 2.625,2.12699519 2.625,4.75 L2.625,8.03846154 L0,8.03846154 L0,19 L15,19 L15,8.03846154 L12.375,8.03846154 Z M7.875,13.8385769 L7.875,15.3461538 L7.125,15.3461538 L7.125,13.8385769 C6.47803125,13.6763005 6,13.1040625 6,12.4230769 C6,11.6158966 6.67157812,10.9615385 7.5,10.9615385 C8.32842188,10.9615385 9,11.6158966 9,12.4230769 C9,13.1040625 8.52196875,13.6763005 7.875,13.8385769 Z M11.625,8.03846154 L3.375,8.03846154 L3.375,4.75 C3.375,2.53380529 5.2258125,0.730769231 7.50075,0.730769231 C9.77489063,0.730769231 11.625,2.53380529 11.625,4.75 L11.625,8.03846154 Z" id="Shape" fill="#132B3D"></path>
                    <path d="M7.5,11.6923077 C7.08646875,11.6923077 6.75,12.020149 6.75,12.4230769 C6.75,12.8260048 7.08646875,13.1538462 7.5,13.1538462 C7.91353125,13.1538462 8.25,12.8260048 8.25,12.4230769 C8.25,12.020149 7.91353125,11.6923077 7.5,11.6923077 Z" id="Path" fill="#000000"></path>
                </g>
            </g>
        </g>
    </g>
</svg>